<?xml version="1.0" encoding="utf-8"?>
<!-- Generator: Adobe Illustrator 16.0.0, SVG Export Plug-In . SVG Version: 6.00 Build 0)  -->
<!DOCTYPE svg PUBLIC "-//W3C//DTD SVG 1.1//EN" "http://www.w3.org/Graphics/SVG/1.1/DTD/svg11.dtd">
<svg version="1.1" xmlns="http://www.w3.org/2000/svg" xmlns:xlink="http://www.w3.org/1999/xlink" x="0px" y="0px" width="500px"
	 height="300px" viewBox="0 0 500 300" style="enable-background:new 0 0 500 300;" xml:space="preserve">
<g id="圖層_1">
	<g id="doc06" opacity="0"><!--doc1-->
		<g>
			<path style="fill:#FFFFFF;" d="M306.606,125.365c0.153,1.089-0.612,2.106-1.701,2.26l-31.687,4.468
				c-1.089,0.153-2.106-0.612-2.26-1.701l-6.144-43.569c-0.153-1.089,0.612-2.106,1.701-2.26l31.687-4.468
				c1.089-0.154,2.106,0.612,2.26,1.701L306.606,125.365z"/>
			<path style="fill:none;stroke:#90A4AE;stroke-miterlimit:10;" d="M306.606,125.365c0.153,1.089-0.612,2.106-1.701,2.26
				l-31.687,4.468c-1.089,0.153-2.106-0.612-2.26-1.701l-6.144-43.569c-0.153-1.089,0.612-2.106,1.701-2.26l31.687-4.468
				c1.089-0.154,2.106,0.612,2.26,1.701L306.606,125.365z"/>
		</g>
		
			<rect x="270.76" y="88.257" transform="matrix(0.9902 -0.1396 0.1396 0.9902 -9.8313 40.3583)" style="fill:#CFD8DC;" width="24.001" height="4"/>
		
			<rect x="272.017" y="97.169" transform="matrix(0.9902 -0.1396 0.1396 0.9902 -11.0634 40.6226)" style="fill:#CFD8DC;" width="24" height="4"/>
		
			<rect x="273.322" y="106.778" transform="matrix(0.9902 -0.1396 0.1396 0.9902 -12.4435 40.2111)" style="fill:#CFD8DC;" width="14" height="4"/>
	</g>
	<g id="doc05" opacity="0">
		<g>
			<path style="fill:#FFFFFF;" d="M308.445,129.402c-0.154,1.09-1.172,1.854-2.262,1.7l-31.683-4.492
				c-1.089-0.154-1.854-1.171-1.7-2.261l6.176-43.564c0.154-1.089,1.172-1.854,2.262-1.699l31.683,4.491
				c1.089,0.154,1.854,1.172,1.7,2.261L308.445,129.402z"/>
			<path style="fill:none;stroke:#90A4AE;stroke-miterlimit:10;" d="M308.445,129.402c-0.154,1.09-1.172,1.854-2.262,1.7
				l-31.683-4.492c-1.089-0.154-1.854-1.171-1.7-2.261l6.176-43.564c0.154-1.089,1.172-1.854,2.262-1.699l31.683,4.491
				c1.089,0.154,1.854,1.172,1.7,2.261L308.445,129.402z"/>
		</g>
		
			<rect x="283.266" y="87.059" transform="matrix(0.9901 0.1403 -0.1403 0.9901 15.4206 -40.5559)" style="fill:#CFD8DC;" width="24" height="4"/>
		
			<rect x="282.003" y="95.97" transform="matrix(0.9901 0.1403 -0.1403 0.9901 16.6586 -40.2905)" style="fill:#CFD8DC;" width="24" height="4"/>
		
			<rect x="280.789" y="104.179" transform="matrix(0.9901 0.1403 -0.1403 0.9901 17.749 -39.3368)" style="fill:#CFD8DC;" width="14.001" height="4.001"/>
	</g>
	<g id="doc04" opacity="0">
		<g>
			<path style="fill:#FFFFFF;" d="M307,131c0,1.104-0.896,2-2,2h-32c-1.104,0-2-0.896-2-2V87c0-1.104,0.896-2,2-2h32
				c1.104,0,2,0.896,2,2V131z"/>
			<path style="fill:none;stroke:#90A4AE;stroke-miterlimit:10;" d="M306.5,131.5c0,1.104-0.896,2-2,2h-32c-1.104,0-2-0.896-2-2v-44
				c0-1.104,0.896-2,2-2h32c1.104,0,2,0.896,2,2V131.5z"/>
		</g>
		<rect x="276" y="91" style="fill:#CFD8DC;" width="24" height="4"/>
		<rect x="276" y="100" style="fill:#CFD8DC;" width="24" height="4"/>
		<rect x="276" y="109" style="fill:#CFD8DC;" width="14" height="4"/>
	</g>
	<!--cloud-->
	<path style="fill:#FFFFFF;stroke:#CE93D8;stroke-miterlimit:10;" d="M232.586,112.502c0,0.314-0.008,0.998-0.023,0.998h-95.955
		c-0.014,0-0.021-0.684-0.021-0.998c0-8.887,4.83-16.665,12.008-20.813c0-0.075-0.008-0.158-0.008-0.232
		c0-13.253,10.748-24.008,24-24.008c6.771,0,12.877,2.802,17.242,7.309c2.084-0.84,4.365-1.314,6.758-1.314
		c9.172,0,16.732,6.884,17.85,15.749C224.861,91.811,232.586,101.267,232.586,112.502z"/>
	<!--cloud-->
	
	<path  id="c02"  style="fill:#FFFFFF;stroke:#CE93D8;stroke-miterlimit:10;" d="M354.586,66.24c0,0.157-0.004,0.26-0.012,0.26h-47.977
		c-0.008,0-0.012-0.103-0.012-0.26c0-4.443,2.414-8.212,6.004-10.286c0-0.038-0.004-0.02-0.004-0.057
		c0-6.626,5.373-11.974,12-11.974c3.387,0,6.438,1.415,8.621,3.669c1.043-0.42,2.182-0.65,3.379-0.65
		c4.586,0,8.365,3.327,8.924,7.759C350.723,56.011,354.586,60.623,354.586,66.24z"/>
	



	<!--cloud-->
	<path style="fill:#E1BEE7;stroke:#CE93D8;stroke-miterlimit:10;" d="M318.586,150.984c0,0.42-0.01,0.516-0.031,1.516H190.615
		c-0.02-1-0.029-1.096-0.029-1.516c0-11.85,6.439-22.313,16.01-27.843c0-0.101-0.01-0.257-0.01-0.356
		c0-17.67,14.33-32.033,32-32.033c9.029,0,17.17,3.724,22.99,9.733c2.779-1.12,5.818-1.758,9.01-1.758
		c12.23,0,22.309,9.269,23.799,21.088C308.285,123.306,318.586,136.004,318.586,150.984z"/>
	<path style="fill:#E1BEE7;" d="M369.066,125.969c-0.32,0.04-0.65,0.06-0.98,0.06s-0.66-0.02-0.98-0.06H369.066z"/>
	<path style="fill:#E1BEE7;" d="M366.326,114.47c-1.301,0.65-2.201,1.53-2.221,3.53h-0.02
		C364.086,116,365.006,115.11,366.326,114.47z"/>
	<path style="fill:#E1BEE7;" d="M369.066,125.969c-0.32,0.04-0.65,0.06-0.98,0.06s-0.66-0.02-0.98-0.06H369.066z"/>
	<path style="fill:#E1BEE7;" d="M371.906,116.799c-0.102-0.311-0.24-0.61-0.4-0.88C371.676,116.188,371.805,116.488,371.906,116.799
		z"/>
	<path style="fill:#E1BEE7;" d="M372.105,117.969h-0.02c0-0.2-0.02-0.4-0.041-0.6C372.086,117.568,372.105,117.769,372.105,117.969z
		"/>
	<path style="fill:#E1BEE7;" d="M366.326,114.47c-1.301,0.65-2.201,1.53-2.221,3.53h-0.02
		C364.086,116,365.006,115.11,366.326,114.47z"/>
	<path style="fill:#E1BEE7;" d="M369.066,125.969c-0.32,0.04-0.65,0.06-0.98,0.06s-0.66-0.02-0.98-0.06H369.066z"/>
	<path style="fill:#FFFFFF;" d="M259,124v-7.976c0-4.391-3.6-7.941-8-7.941s-8,3.551-8,7.941V124h-4v18h24v-18H259z M255,116v8
		h-2.934c-0.32,0-0.65,0.059-0.98,0.059s-0.66-0.059-0.98-0.059H247v-7.976c0-1.551,0.963-2.891,2.283-3.531
		c0.299-0.148,0.641-0.26,0.98-0.33c0.26-0.049,0.542-0.08,0.812-0.08c0.41,0,0.825,0.061,1.204,0.182
		c0.24,0.08,0.483,0.17,0.704,0.289c0.34,0.189,0.649,0.42,0.921,0.68c0.229,0.221,0.431,0.471,0.601,0.74s0.3,0.57,0.401,0.881
		c0.059,0.189,0.1,0.356,0.139,0.558c0.041,0.199,0.061,0.588,0.061,0.588H255z"/>
	<polyline style="fill:none;stroke:#CE93D8;stroke-miterlimit:10;" points="132.5,180 132.5,171.5 234.5,171.5 234.5,153 	"/>
	<polyline style="fill:none;stroke:#CE93D8;stroke-miterlimit:10;" points="368.5,180 368.5,171.5 266.5,171.5 266.5,153 	"/>
	<line style="fill:none;stroke:#CE93D8;stroke-miterlimit:10;" x1="250.5" y1="211" x2="250.5" y2="152"/>
	<g id="doc01" x="0" y="0"  >
		<g>
			<path style="fill:#FFFFFF;" d="M142,179c0,1.104-0.896,2-2,2h-14c-1.104,0-2-0.896-2-2v-20c0-1.104,0.896-2,2-2h14
				c1.104,0,2,0.896,2,2V179z"/>
			<path style="fill:none;stroke:#90A4AE;stroke-miterlimit:10;" d="M141.5,179.5c0,1.104-0.896,2-2,2h-14c-1.104,0-2-0.896-2-2v-20
				c0-1.104,0.896-2,2-2h14c1.104,0,2,0.896,2,2V179.5z"/>
		</g>
		<rect x="126" y="163" style="fill:#CFD8DC;" width="12" height="2"/>
		<rect x="126" y="167" style="fill:#CFD8DC;" width="12" height="2"/>
		<rect x="126" y="171" style="fill:#CFD8DC;" width="6" height="2"/>
	</g>
	<g id="doc02">
		<g>
			<path style="fill:#FFFFFF;" d="M259,217c0,1.104-0.896,2-2,2h-14c-1.104,0-2-0.896-2-2v-20c0-1.104,0.896-2,2-2h14
				c1.104,0,2,0.896,2,2V217z"/>
			<path style="fill:none;stroke:#90A4AE;stroke-miterlimit:10;" d="M258.5,217.5c0,1.104-0.896,2-2,2h-14c-1.104,0-2-0.896-2-2v-20
				c0-1.104,0.896-2,2-2h14c1.104,0,2,0.896,2,2V217.5z"/>
		</g>
		<rect x="243" y="201" style="fill:#CFD8DC;" width="12" height="2"/>
		<rect x="243" y="205" style="fill:#CFD8DC;" width="12" height="2"/>
		<rect x="243" y="209" style="fill:#CFD8DC;" width="6" height="2"/>
	</g>
	<g id="doc03">
		<g>
			<path style="fill:#FFFFFF;" d="M378,179c0,1.104-0.896,2-2,2h-14c-1.104,0-2-0.896-2-2v-20c0-1.104,0.896-2,2-2h14
				c1.104,0,2,0.896,2,2V179z"/>
			<path style="fill:none;stroke:#90A4AE;stroke-miterlimit:10;" d="M377.5,179.5c0,1.104-0.896,2-2,2h-14c-1.104,0-2-0.896-2-2v-20
				c0-1.104,0.896-2,2-2h14c1.104,0,2,0.896,2,2V179.5z"/>
		</g>
		<rect x="362" y="163" style="fill:#CFD8DC;" width="12" height="2"/>
		<rect x="362" y="167" style="fill:#CFD8DC;" width="12" height="2"/>
		<rect x="362" y="171" style="fill:#CFD8DC;" width="6" height="2"/>
	</g>
	<g>
		<g>
			<g>
				<path style="fill:#FFFFFF;" d="M164,214c0,1.104-0.896,2-2,2h-60c-1.104,0-2-0.896-2-2v-32c0-1.104,0.896-2,2-2h60
					c1.104,0,2,0.896,2,2V214z"/>
				<path style="fill:none;stroke:#CE93D8;stroke-miterlimit:10;" d="M164.5,213.5c0,1.104-0.896,2-2,2h-60c-1.104,0-2-0.896-2-2
					v-32c0-1.104,0.896-2,2-2h60c1.104,0,2,0.896,2,2V213.5z"/>
			</g>
			<g>
				<path style="fill:#FFFFFF;" d="M169.206,222.514c0.712,0.839,0.394,1.486-0.706,1.486h-72c-1.1,0-1.418-0.647-0.706-1.486
					l3.35-3.969c0.712-0.839,2.194-1.545,3.294-1.545h60.125c1.1,0,2.582,0.706,3.294,1.545L169.206,222.514z"/>
				<path style="fill:none;stroke:#CE93D8;stroke-miterlimit:10;" d="M169.206,222.764c0.712,0.839,0.394,1.736-0.706,1.736h-72
					c-1.1,0-1.418-0.897-0.706-1.736l3.35-3.844c0.712-0.839,2.194-1.42,3.294-1.42h60.125c1.1,0,2.582,0.581,3.294,1.42
					L169.206,222.764z"/>
			</g>
			<rect x="105" y="185" style="fill:#E1BEE7;" width="54" height="26"/>
		</g>
		<g>
			<g>
				<path style="fill:#7B1FA2;" d="M139.854,190.961c0,0-3.631-0.6-4.025-0.666c-0.393-0.064-0.705,0.143-0.705,0.143l-1.451,1.296
					l-0.594,0.301l-7.822,0.331c0,0-0.75,0.021-0.756,0.565c-0.008,0.545,0.383,7.761,0.57,8.46
					c0.188,0.697,0.242,0.967,1.063,1.344c0.818,0.375,11.141,0.295,12.188,0c1.051-0.296,1.416-0.979,1.734-1.397
					c0.32-0.419,0.432-8.681,0.445-9.487C140.512,191.043,139.854,190.961,139.854,190.961z M131.814,202.344l-5.404-7.966
					l1.154-1.121c0,0,2.959,4.329,4.143,6.05c0.375-1.936,4.219-7.284,6.586-7.982c0.133,0.322,0.295,0.698,0.295,1.103
					C135.48,193.723,131.814,202.344,131.814,202.344z"/>
			</g>
		</g>
	</g>
	<g>
		<g>
			<g>
				<path style="fill:#FFFFFF;" d="M282,246c0,1.104-0.896,2-2,2h-60c-1.104,0-2-0.896-2-2v-32c0-1.104,0.896-2,2-2h60
					c1.104,0,2,0.896,2,2V246z"/>
				<path style="fill:none;stroke:#CE93D8;stroke-miterlimit:10;" d="M282.5,245.5c0,1.104-0.896,2-2,2h-60c-1.104,0-2-0.896-2-2
					v-32c0-1.104,0.896-2,2-2h60c1.104,0,2,0.896,2,2V245.5z"/>
			</g>
			<g>
				<path style="fill:#FFFFFF;" d="M287.206,254.514c0.712,0.839,0.394,1.486-0.706,1.486h-72c-1.1,0-1.418-0.647-0.706-1.486
					l3.35-3.969c0.712-0.839,2.194-1.545,3.294-1.545h60.125c1.1,0,2.582,0.706,3.294,1.545L287.206,254.514z"/>
				<path style="fill:none;stroke:#CE93D8;stroke-miterlimit:10;" d="M287.206,254.764c0.712,0.839,0.394,1.736-0.706,1.736h-72
					c-1.1,0-1.418-0.897-0.706-1.736l3.35-3.844c0.712-0.839,2.194-1.42,3.294-1.42h60.125c1.1,0,2.582,0.581,3.294,1.42
					L287.206,254.764z"/>
			</g>
			<rect x="223" y="217" style="fill:#E1BEE7;" width="54" height="26"/>
		</g>
		<g>
			<g>
				<path style="fill:#7B1FA2;" d="M257.854,222.961c0,0-3.631-0.6-4.025-0.666c-0.393-0.064-0.705,0.143-0.705,0.143l-1.451,1.296
					l-0.594,0.301l-7.822,0.331c0,0-0.75,0.021-0.756,0.565c-0.008,0.545,0.383,7.761,0.57,8.46
					c0.188,0.697,0.242,0.967,1.063,1.344c0.818,0.375,11.141,0.295,12.188,0c1.051-0.296,1.416-0.979,1.734-1.397
					c0.32-0.419,0.432-8.681,0.445-9.487C258.512,223.043,257.854,222.961,257.854,222.961z M249.814,234.344l-5.404-7.966
					l1.154-1.121c0,0,2.959,4.329,4.143,6.05c0.375-1.936,4.219-7.284,6.586-7.982c0.133,0.322,0.295,0.698,0.295,1.103
					C253.48,225.723,249.814,234.344,249.814,234.344z"/>
			</g>
		</g>
	</g>
	<g>
		<g>
			<g>
				<path style="fill:#FFFFFF;" d="M399,214c0,1.104-0.896,2-2,2h-60c-1.104,0-2-0.896-2-2v-32c0-1.104,0.896-2,2-2h60
					c1.104,0,2,0.896,2,2V214z"/>
				<path style="fill:none;stroke:#CE93D8;stroke-miterlimit:10;" d="M399.5,213.5c0,1.104-0.896,2-2,2h-60c-1.104,0-2-0.896-2-2
					v-32c0-1.104,0.896-2,2-2h60c1.104,0,2,0.896,2,2V213.5z"/>
			</g>
			<g>
				<path style="fill:#FFFFFF;" d="M404.206,222.514c0.712,0.839,0.394,1.486-0.706,1.486h-72c-1.1,0-1.418-0.647-0.706-1.486
					l3.35-3.969c0.712-0.839,2.194-1.545,3.294-1.545h60.125c1.1,0,2.582,0.706,3.294,1.545L404.206,222.514z"/>
				<path style="fill:none;stroke:#CE93D8;stroke-miterlimit:10;" d="M404.206,222.764c0.712,0.839,0.394,1.736-0.706,1.736h-72
					c-1.1,0-1.418-0.897-0.706-1.736l3.35-3.844c0.712-0.839,2.194-1.42,3.294-1.42h60.125c1.1,0,2.582,0.581,3.294,1.42
					L404.206,222.764z"/>
			</g>
			<rect x="340" y="185" style="fill:#E1BEE7;" width="54" height="26"/>
		</g>
		<g>
			<g>
				<path style="fill:#7B1FA2;" d="M374.854,190.961c0,0-3.631-0.6-4.025-0.666c-0.393-0.064-0.705,0.143-0.705,0.143l-1.451,1.296
					l-0.594,0.301l-7.822,0.331c0,0-0.75,0.021-0.756,0.565c-0.008,0.545,0.383,7.761,0.57,8.46
					c0.188,0.697,0.242,0.967,1.063,1.344c0.818,0.375,11.141,0.295,12.188,0c1.051-0.296,1.416-0.979,1.734-1.397
					c0.32-0.419,0.432-8.681,0.445-9.487C375.512,191.043,374.854,190.961,374.854,190.961z M366.814,202.344l-5.404-7.966
					l1.154-1.121c0,0,2.959,4.329,4.143,6.05c0.375-1.936,4.219-7.284,6.586-7.982c0.133,0.322,0.295,0.698,0.295,1.103
					C370.48,193.723,366.814,202.344,366.814,202.344z"/>
			</g>
		</g>
	</g>
</g>
<g id="ai2html-settings">
</g>
	<animateTransform id="a01" dur="5s" attributeName="transform"  type="translate" from="0,0" to="-60,0" xlink:href="#c02" begin="0;a02.end"/>
	<animateTransform id="a02" dur="5s" attributeName="transform"  type="translate" from="-60,0" to="0,0"  xlink:href="#c02" begin="a01.end" />

	<animateTransform id="a03" dur="5s" attributeName="transform"  type="translate" from="0,0" to="100,0"  xlink:href="#doc01" begin="0;a05.end"  />
	<animateTransform id="a04" dur="1s" attributeName="transform"  type="translate" from="100,0" to="100,-20"  xlink:href="#doc01" begin="a03.end" />
	<animate id="a05" dur="1s" attributeName="opacity" from="1" to="0" begin="a03.end" xlink:href="#doc01"  />

	<animateTransform id="a06" dur="5s" attributeName="transform"  type="translate" from="0,0" to="-100,0"  xlink:href="#doc03" begin="1;a08.end"  />
	<animateTransform id="a07" dur="1s" attributeName="transform"  type="translate" from="-100,0" to="-100,-20"  xlink:href="#doc03" begin="a06.end" />
	<animate id="a08" dur="1s" attributeName="opacity" from="1" to="0" begin="a06.end" xlink:href="#doc03"  />

	<animateTransform id="a09" dur="3s" attributeName="transform"  type="translate" from="0,0" to="0,-50"  xlink:href="#doc02" begin="2;a10.end"  />
	<animate id="a10" dur="1s" attributeName="opacity" from="1" to="0" begin="a09.end-1" xlink:href="#doc02"  />

	<animate id="a11" dur="1s" attributeName="opacity" from="0" to="1" begin="a05.end" xlink:href="#doc04" fill="freeze" restart="never" />
	<animate id="a12" dur="1s" attributeName="opacity" from="0" to="1" begin="a08.end" xlink:href="#doc05" fill="freeze" restart="never" />
	<animate id="a13" dur="1s" attributeName="opacity" from="0" to="1" begin="a10.end" xlink:href="#doc06" fill="freeze" restart="never" />	

</svg>
