<?xml version="1.0" encoding="utf-8"?>
<!-- Generator: Adobe Illustrator 16.0.0, SVG Export Plug-In . SVG Version: 6.00 Build 0)  -->
<!DOCTYPE svg PUBLIC "-//W3C//DTD SVG 1.1//EN" "http://www.w3.org/Graphics/SVG/1.1/DTD/svg11.dtd">
<svg version="1.1" xmlns="http://www.w3.org/2000/svg" xmlns:xlink="http://www.w3.org/1999/xlink" x="0px" y="0px" width="500px"
	 height="300px" viewBox="0 0 500 300" style="enable-background:new 0 0 500 300;" xml:space="preserve">

<style>
	 #circle{
	 	animation:svg 3s ease-in-out infinite;
	 }

	 @keyframes svg {
	 	0%{stroke-dasharray:280;stroke-dashoffset:280; }
	 	50%{stroke-dasharray:280;stroke-dashoffset:0; }
	 	100%{stroke-dasharray:280;stroke-dashoffset:280; }

	 }
</style>


<g id="圖層_1">
	<circle style="fill:#CFD8DC;" cx="208.583" cy="55.667" r="32.833"/>
	<g>
		<path style="fill:#FFFFFF;" d="M377,191c0,1.104-0.896,2-2,2H126c-1.104,0-2-0.896-2-2V55c0-1.104,0.896-2,2-2h249
			c1.104,0,2,0.896,2,2V191z"/>
		<path id="frame" style="fill:none;stroke:#FFA726;stroke-miterlimit:10;" d="M376.5,191.5c0,1.104-0.896,2-2,2h-249c-1.104,0-2-0.896-2-2
			v-136c0-1.104,0.896-2,2-2h249c1.104,0,2,0.896,2,2V191.5z"/>
	</g>
	<g id="c05">
		<rect x="131" y="62" style="fill:#FFE0B2;" width="236" height="122"/>
		<g>
			<path style="fill-rule:evenodd;clip-rule:evenodd;fill:#F57C00;" d="M261.587,110.162c-0.014,0.007-0.027,0.014-0.041,0.027
				c-0.909,0.608-1.818,1.237-2.714,1.9c-0.219,0.157-0.431,0.314-0.649,0.482c-0.643,0.475-1.285,0.984-1.914,1.514
				c-0.185,0.164-0.383,0.328-0.581,0.496c-0.301,0.256-0.602,0.52-0.902,0.81c-0.191,0.175-0.396,0.362-0.588,0.561
				c-0.226,0.205-0.444,0.421-0.656,0.636c-0.615,0.615-1.224,1.278-1.825,1.989c-0.144,0.164-0.28,0.325-0.417,0.489
				c-0.144,0.174-0.273,0.345-0.424,0.522c-0.15,0.191-0.314,0.396-0.472,0.608c-0.041,0.041-0.075,0.096-0.116,0.15
				c-0.171,0.223-0.342,0.451-0.506,0.688c-0.438,0.598-0.868,1.223-1.292,1.887c-0.301,0.447-0.588,0.919-0.882,1.397
				c-0.014,0.027-0.034,0.052-0.041,0.075c-0.109,0.171-0.205,0.346-0.308,0.52c-1.012,1.743-2.003,3.685-2.974,5.893
				c-0.068,0.15-0.144,0.308-0.205,0.472c-0.13,0.284-0.26,0.581-0.383,0.875l-10.418-15.012v-0.007
				C236.574,102.031,254.628,100.438,261.587,110.162z"/>
			<path style="fill-rule:evenodd;clip-rule:evenodd;fill:#F57C00;" d="M274.056,141.553h-50.654
				c-8.053-2.396-9.987-22.128,6.679-20.884l13.809,19.954c1.586-3.842,3.35-7.923,5.428-11.799v11.375h6.214
				c1.224,0,2.194-0.103,2.926-0.311c0.971-0.277,1.75-0.67,2.317-1.173c0.766-0.656,1.34-1.518,1.757-2.584
				c0.328-0.872,0.492-1.907,0.492-3.11c0-1.377-0.178-2.529-0.526-3.466c-0.355-0.93-0.882-1.723-1.565-2.368
				c-0.69-0.646-1.504-1.098-2.468-1.351c-0.718-0.185-1.75-0.276-3.11-0.276h-4.177c0.615-1.036,1.271-2.045,1.962-3.019
				c0.144-0.212,0.294-0.431,0.451-0.646c0.075-0.117,0.164-0.223,0.246-0.332c0.137-0.201,0.28-0.403,0.431-0.588
				c0.096-0.13,0.198-0.26,0.301-0.39c0.137-0.171,0.273-0.349,0.417-0.52c0.219-0.294,0.465-0.588,0.704-0.868
				c0.26-0.311,0.533-0.611,0.8-0.916c0.021-0.014,0.027-0.021,0.034-0.037c0.287-0.309,0.574-0.612,0.868-0.91
				c0.15-0.153,0.294-0.297,0.444-0.44c0.123-0.126,0.246-0.253,0.383-0.369c0.479-0.451,0.957-0.882,1.456-1.288
				c0.239-0.202,0.492-0.41,0.738-0.596c0.075-0.061,0.15-0.119,0.212-0.17c0.212-0.158,0.424-0.309,0.636-0.455
				c0.041-0.037,0.082-0.062,0.116-0.082c0.54-0.39,1.736-1.012,1.75-0.978c7.506-3.001,16.522,4.826,11.799,12.175
				C284.296,126.712,284.87,139.687,274.056,141.553z"/>
			<path style="fill-rule:evenodd;clip-rule:evenodd;fill:#F57C00;" d="M259.611,132.885c0,1.135-0.109,2.027-0.335,2.684
				c-0.219,0.652-0.513,1.127-0.854,1.411c-0.369,0.29-0.807,0.495-1.347,0.615c-0.403,0.089-1.073,0.134-1.996,0.134h-2.461v-9.693
				h1.477c1.347,0,2.256,0.051,2.714,0.14c0.615,0.123,1.128,0.349,1.538,0.69c0.39,0.338,0.711,0.811,0.93,1.418
				C259.502,130.889,259.611,131.757,259.611,132.885z"/>
		</g>
	</g>
	<g id="c04">
		<rect x="131" y="62" style="fill:#ced7db;" width="236" height="122"/>
		<g>
			<path style="fill-rule:evenodd;clip-rule:evenodd;fill:#FFFFFF;" d="M261.587,110.162c-0.014,0.007-0.027,0.014-0.041,0.027
				c-0.909,0.608-1.818,1.237-2.714,1.9c-0.219,0.157-0.431,0.314-0.649,0.482c-0.643,0.475-1.285,0.984-1.914,1.514
				c-0.185,0.164-0.383,0.328-0.581,0.496c-0.301,0.256-0.602,0.52-0.902,0.81c-0.191,0.175-0.396,0.362-0.588,0.561
				c-0.226,0.205-0.444,0.421-0.656,0.636c-0.615,0.615-1.224,1.278-1.825,1.989c-0.144,0.164-0.28,0.325-0.417,0.489
				c-0.144,0.174-0.273,0.345-0.424,0.522c-0.15,0.191-0.314,0.396-0.472,0.608c-0.041,0.041-0.075,0.096-0.116,0.15
				c-0.171,0.223-0.342,0.451-0.506,0.688c-0.438,0.598-0.868,1.223-1.292,1.887c-0.301,0.447-0.588,0.919-0.882,1.397
				c-0.014,0.027-0.034,0.052-0.041,0.075c-0.109,0.171-0.205,0.346-0.308,0.52c-1.012,1.743-2.003,3.685-2.974,5.893
				c-0.068,0.15-0.144,0.308-0.205,0.472c-0.13,0.284-0.26,0.581-0.383,0.875l-10.418-15.012v-0.007
				C236.574,102.031,254.628,100.438,261.587,110.162z"/>
			<path style="fill-rule:evenodd;clip-rule:evenodd;fill:#FFFFFF;" d="M274.056,141.553h-50.654
				c-8.053-2.396-9.987-22.128,6.679-20.884l13.809,19.954c1.586-3.842,3.35-7.923,5.428-11.799v11.375h6.214
				c1.224,0,2.194-0.103,2.926-0.311c0.971-0.277,1.75-0.67,2.317-1.173c0.766-0.656,1.34-1.518,1.757-2.584
				c0.328-0.872,0.492-1.907,0.492-3.11c0-1.377-0.178-2.529-0.526-3.466c-0.355-0.93-0.882-1.723-1.565-2.368
				c-0.69-0.646-1.504-1.098-2.468-1.351c-0.718-0.185-1.75-0.276-3.11-0.276h-4.177c0.615-1.036,1.271-2.045,1.962-3.019
				c0.144-0.212,0.294-0.431,0.451-0.646c0.075-0.117,0.164-0.223,0.246-0.332c0.137-0.201,0.28-0.403,0.431-0.588
				c0.096-0.13,0.198-0.26,0.301-0.39c0.137-0.171,0.273-0.349,0.417-0.52c0.219-0.294,0.465-0.588,0.704-0.868
				c0.26-0.311,0.533-0.611,0.8-0.916c0.021-0.014,0.027-0.021,0.034-0.037c0.287-0.309,0.574-0.612,0.868-0.91
				c0.15-0.153,0.294-0.297,0.444-0.44c0.123-0.126,0.246-0.253,0.383-0.369c0.479-0.451,0.957-0.882,1.456-1.288
				c0.239-0.202,0.492-0.41,0.738-0.596c0.075-0.061,0.15-0.119,0.212-0.17c0.212-0.158,0.424-0.309,0.636-0.455
				c0.041-0.037,0.082-0.062,0.116-0.082c0.54-0.39,1.736-1.012,1.75-0.978c7.506-3.001,16.522,4.826,11.799,12.175
				C284.296,126.712,284.87,139.687,274.056,141.553z"/>
			<path style="fill-rule:evenodd;clip-rule:evenodd;fill:#FFFFFF;" d="M259.611,132.885c0,1.135-0.109,2.027-0.335,2.684
				c-0.219,0.652-0.513,1.127-0.854,1.411c-0.369,0.29-0.807,0.495-1.347,0.615c-0.403,0.089-1.073,0.134-1.996,0.134h-2.461v-9.693
				h1.477c1.347,0,2.256,0.051,2.714,0.14c0.615,0.123,1.128,0.349,1.538,0.69c0.39,0.338,0.711,0.811,0.93,1.418
				C259.502,130.889,259.611,131.757,259.611,132.885z"/>
		</g>
	</g>
	<g id="c03">
		<rect x="131" y="62" style="fill:#AED581;" width="236" height="122"/>
		<g>
			<path style="fill-rule:evenodd;clip-rule:evenodd;fill:#E8F5E9;" d="M261.587,110.162c-0.014,0.007-0.027,0.014-0.041,0.027
				c-0.909,0.608-1.818,1.237-2.714,1.9c-0.219,0.157-0.431,0.314-0.649,0.482c-0.643,0.475-1.285,0.984-1.914,1.514
				c-0.185,0.164-0.383,0.328-0.581,0.496c-0.301,0.256-0.602,0.52-0.902,0.81c-0.191,0.175-0.396,0.362-0.588,0.561
				c-0.226,0.205-0.444,0.421-0.656,0.636c-0.615,0.615-1.224,1.278-1.825,1.989c-0.144,0.164-0.28,0.325-0.417,0.489
				c-0.144,0.174-0.273,0.345-0.424,0.522c-0.15,0.191-0.314,0.396-0.472,0.608c-0.041,0.041-0.075,0.096-0.116,0.15
				c-0.171,0.223-0.342,0.451-0.506,0.688c-0.438,0.598-0.868,1.223-1.292,1.887c-0.301,0.447-0.588,0.919-0.882,1.397
				c-0.014,0.027-0.034,0.052-0.041,0.075c-0.109,0.171-0.205,0.346-0.308,0.52c-1.012,1.743-2.003,3.685-2.974,5.893
				c-0.068,0.15-0.144,0.308-0.205,0.472c-0.13,0.284-0.26,0.581-0.383,0.875l-10.418-15.012v-0.007
				C236.574,102.031,254.628,100.438,261.587,110.162z"/>
			<path style="fill-rule:evenodd;clip-rule:evenodd;fill:#E8F5E9;" d="M274.056,141.553h-50.654
				c-8.053-2.396-9.987-22.128,6.679-20.884l13.809,19.954c1.586-3.842,3.35-7.923,5.428-11.799v11.375h6.214
				c1.224,0,2.194-0.103,2.926-0.311c0.971-0.277,1.75-0.67,2.317-1.173c0.766-0.656,1.34-1.518,1.757-2.584
				c0.328-0.872,0.492-1.907,0.492-3.11c0-1.377-0.178-2.529-0.526-3.466c-0.355-0.93-0.882-1.723-1.565-2.368
				c-0.69-0.646-1.504-1.098-2.468-1.351c-0.718-0.185-1.75-0.276-3.11-0.276h-4.177c0.615-1.036,1.271-2.045,1.962-3.019
				c0.144-0.212,0.294-0.431,0.451-0.646c0.075-0.117,0.164-0.223,0.246-0.332c0.137-0.201,0.28-0.403,0.431-0.588
				c0.096-0.13,0.198-0.26,0.301-0.39c0.137-0.171,0.273-0.349,0.417-0.52c0.219-0.294,0.465-0.588,0.704-0.868
				c0.26-0.311,0.533-0.611,0.8-0.916c0.021-0.014,0.027-0.021,0.034-0.037c0.287-0.309,0.574-0.612,0.868-0.91
				c0.15-0.153,0.294-0.297,0.444-0.44c0.123-0.126,0.246-0.253,0.383-0.369c0.479-0.451,0.957-0.882,1.456-1.288
				c0.239-0.202,0.492-0.41,0.738-0.596c0.075-0.061,0.15-0.119,0.212-0.17c0.212-0.158,0.424-0.309,0.636-0.455
				c0.041-0.037,0.082-0.062,0.116-0.082c0.54-0.39,1.736-1.012,1.75-0.978c7.506-3.001,16.522,4.826,11.799,12.175
				C284.296,126.712,284.87,139.687,274.056,141.553z"/>
			<path style="fill-rule:evenodd;clip-rule:evenodd;fill:#E8F5E9;" d="M259.611,132.885c0,1.135-0.109,2.027-0.335,2.684
				c-0.219,0.652-0.513,1.127-0.854,1.411c-0.369,0.29-0.807,0.495-1.347,0.615c-0.403,0.089-1.073,0.134-1.996,0.134h-2.461v-9.693
				h1.477c1.347,0,2.256,0.051,2.714,0.14c0.615,0.123,1.128,0.349,1.538,0.69c0.39,0.338,0.711,0.811,0.93,1.418
				C259.502,130.889,259.611,131.757,259.611,132.885z"/>
		</g>
	</g>
	<g id="c02">
		<rect x="131" y="62" style="fill:#80CBC4;" width="236" height="122"/>
		<g>
			<path style="fill-rule:evenodd;clip-rule:evenodd;fill:#E0F2F1;" d="M261.587,110.162c-0.014,0.007-0.027,0.014-0.041,0.027
				c-0.909,0.608-1.818,1.237-2.714,1.9c-0.219,0.157-0.431,0.314-0.649,0.482c-0.643,0.475-1.285,0.984-1.914,1.514
				c-0.185,0.164-0.383,0.328-0.581,0.496c-0.301,0.256-0.602,0.52-0.902,0.81c-0.191,0.175-0.396,0.362-0.588,0.561
				c-0.226,0.205-0.444,0.421-0.656,0.636c-0.615,0.615-1.224,1.278-1.825,1.989c-0.144,0.164-0.28,0.325-0.417,0.489
				c-0.144,0.174-0.273,0.345-0.424,0.522c-0.15,0.191-0.314,0.396-0.472,0.608c-0.041,0.041-0.075,0.096-0.116,0.15
				c-0.171,0.223-0.342,0.451-0.506,0.688c-0.438,0.598-0.868,1.223-1.292,1.887c-0.301,0.447-0.588,0.919-0.882,1.397
				c-0.014,0.027-0.034,0.052-0.041,0.075c-0.109,0.171-0.205,0.346-0.308,0.52c-1.012,1.743-2.003,3.685-2.974,5.893
				c-0.068,0.15-0.144,0.308-0.205,0.472c-0.13,0.284-0.26,0.581-0.383,0.875l-10.418-15.012v-0.007
				C236.574,102.031,254.628,100.438,261.587,110.162z"/>
			<path style="fill-rule:evenodd;clip-rule:evenodd;fill:#E0F2F1;" d="M274.056,141.553h-50.654
				c-8.053-2.396-9.987-22.128,6.679-20.884l13.809,19.954c1.586-3.842,3.35-7.923,5.428-11.799v11.375h6.214
				c1.224,0,2.194-0.103,2.926-0.311c0.971-0.277,1.75-0.67,2.317-1.173c0.766-0.656,1.34-1.518,1.757-2.584
				c0.328-0.872,0.492-1.907,0.492-3.11c0-1.377-0.178-2.529-0.526-3.466c-0.355-0.93-0.882-1.723-1.565-2.368
				c-0.69-0.646-1.504-1.098-2.468-1.351c-0.718-0.185-1.75-0.276-3.11-0.276h-4.177c0.615-1.036,1.271-2.045,1.962-3.019
				c0.144-0.212,0.294-0.431,0.451-0.646c0.075-0.117,0.164-0.223,0.246-0.332c0.137-0.201,0.28-0.403,0.431-0.588
				c0.096-0.13,0.198-0.26,0.301-0.39c0.137-0.171,0.273-0.349,0.417-0.52c0.219-0.294,0.465-0.588,0.704-0.868
				c0.26-0.311,0.533-0.611,0.8-0.916c0.021-0.014,0.027-0.021,0.034-0.037c0.287-0.309,0.574-0.612,0.868-0.91
				c0.15-0.153,0.294-0.297,0.444-0.44c0.123-0.126,0.246-0.253,0.383-0.369c0.479-0.451,0.957-0.882,1.456-1.288
				c0.239-0.202,0.492-0.41,0.738-0.596c0.075-0.061,0.15-0.119,0.212-0.17c0.212-0.158,0.424-0.309,0.636-0.455
				c0.041-0.037,0.082-0.062,0.116-0.082c0.54-0.39,1.736-1.012,1.75-0.978c7.506-3.001,16.522,4.826,11.799,12.175
				C284.296,126.712,284.87,139.687,274.056,141.553z"/>
			<path style="fill-rule:evenodd;clip-rule:evenodd;fill:#E0F2F1;" d="M259.611,132.885c0,1.135-0.109,2.027-0.335,2.684
				c-0.219,0.652-0.513,1.127-0.854,1.411c-0.369,0.29-0.807,0.495-1.347,0.615c-0.403,0.089-1.073,0.134-1.996,0.134h-2.461v-9.693
				h1.477c1.347,0,2.256,0.051,2.714,0.14c0.615,0.123,1.128,0.349,1.538,0.69c0.39,0.338,0.711,0.811,0.93,1.418
				C259.502,130.889,259.611,131.757,259.611,132.885z"/>
		</g>
	</g>
	<g id="c01">
		<rect x="131" y="62" style="fill:#4DD0E1;" width="236" height="122"/>
		<g>
			<path style="fill-rule:evenodd;clip-rule:evenodd;fill:#E0F7FA;" d="M261.587,110.162c-0.014,0.007-0.027,0.014-0.041,0.027
				c-0.909,0.608-1.818,1.237-2.714,1.9c-0.219,0.157-0.431,0.314-0.649,0.482c-0.643,0.475-1.285,0.984-1.914,1.514
				c-0.185,0.164-0.383,0.328-0.581,0.496c-0.301,0.256-0.602,0.52-0.902,0.81c-0.191,0.175-0.396,0.362-0.588,0.561
				c-0.226,0.205-0.444,0.421-0.656,0.636c-0.615,0.615-1.224,1.278-1.825,1.989c-0.144,0.164-0.28,0.325-0.417,0.489
				c-0.144,0.174-0.273,0.345-0.424,0.522c-0.15,0.191-0.314,0.396-0.472,0.608c-0.041,0.041-0.075,0.096-0.116,0.15
				c-0.171,0.223-0.342,0.451-0.506,0.688c-0.438,0.598-0.868,1.223-1.292,1.887c-0.301,0.447-0.588,0.919-0.882,1.397
				c-0.014,0.027-0.034,0.052-0.041,0.075c-0.109,0.171-0.205,0.346-0.308,0.52c-1.012,1.743-2.003,3.685-2.974,5.893
				c-0.068,0.15-0.144,0.308-0.205,0.472c-0.13,0.284-0.26,0.581-0.383,0.875l-10.418-15.012v-0.007
				C236.574,102.031,254.628,100.438,261.587,110.162z"/>
			<path style="fill-rule:evenodd;clip-rule:evenodd;fill:#E0F7FA;" d="M274.056,141.553h-50.654
				c-8.053-2.396-9.987-22.128,6.679-20.884l13.809,19.954c1.586-3.842,3.35-7.923,5.428-11.799v11.375h6.214
				c1.224,0,2.194-0.103,2.926-0.311c0.971-0.277,1.75-0.67,2.317-1.173c0.766-0.656,1.34-1.518,1.757-2.584
				c0.328-0.872,0.492-1.907,0.492-3.11c0-1.377-0.178-2.529-0.526-3.466c-0.355-0.93-0.882-1.723-1.565-2.368
				c-0.69-0.646-1.504-1.098-2.468-1.351c-0.718-0.185-1.75-0.276-3.11-0.276h-4.177c0.615-1.036,1.271-2.045,1.962-3.019
				c0.144-0.212,0.294-0.431,0.451-0.646c0.075-0.117,0.164-0.223,0.246-0.332c0.137-0.201,0.28-0.403,0.431-0.588
				c0.096-0.13,0.198-0.26,0.301-0.39c0.137-0.171,0.273-0.349,0.417-0.52c0.219-0.294,0.465-0.588,0.704-0.868
				c0.26-0.311,0.533-0.611,0.8-0.916c0.021-0.014,0.027-0.021,0.034-0.037c0.287-0.309,0.574-0.612,0.868-0.91
				c0.15-0.153,0.294-0.297,0.444-0.44c0.123-0.126,0.246-0.253,0.383-0.369c0.479-0.451,0.957-0.882,1.456-1.288
				c0.239-0.202,0.492-0.41,0.738-0.596c0.075-0.061,0.15-0.119,0.212-0.17c0.212-0.158,0.424-0.309,0.636-0.455
				c0.041-0.037,0.082-0.062,0.116-0.082c0.54-0.39,1.736-1.012,1.75-0.978c7.506-3.001,16.522,4.826,11.799,12.175
				C284.296,126.712,284.87,139.687,274.056,141.553z"/>
			<path style="fill-rule:evenodd;clip-rule:evenodd;fill:#E0F7FA;" d="M259.611,132.885c0,1.135-0.109,2.027-0.335,2.684
				c-0.219,0.652-0.513,1.127-0.854,1.411c-0.369,0.29-0.807,0.495-1.347,0.615c-0.403,0.089-1.073,0.134-1.996,0.134h-2.461v-9.693
				h1.477c1.347,0,2.256,0.051,2.714,0.14c0.615,0.123,1.128,0.349,1.538,0.69c0.39,0.338,0.711,0.811,0.93,1.418
				C259.502,130.889,259.611,131.757,259.611,132.885z"/>
		</g>
	</g>
	<g id="camera">
		<path id="circle" style="fill:#FFFFFF;stroke:#FFA726;stroke-miterlimit:10;stroke-width:2px"  d="M408.665,54c0,1.939-0.177,3.85-0.51,5.691
		c-2.517,14.055-14.214,24.928-28.674,26.182C378.561,85.961,377.619,86,376.67,86c-17.683,0-32.005-14.33-32.005-32
		s14.322-32,32.005-32C394.343,22,408.665,36.33,408.665,54z"  transform='rotate(-90 376.938 55.203)' />
		<rect x="361" y="44" style="fill:#78909C;" width="32" height="24"  />
		<circle style="fill:#FFFFFF;" cx="376.938" cy="56.203" r="7.837"/>
		<circle style="fill:#B0BEC5;" cx="376.938" cy="56.203" r="3.919"/>
		<rect x="370" y="40" style="fill:#90A4AE;" width="14" height="4"/>
	</g>

	<g>
		<circle style="fill:#FFFFFF;" cx="191.545" cy="44.042" r="5.058"/>
		<circle style="fill:#FFFFFF;" cx="225.622" cy="44.042" r="5.058"/>
	</g>
	<circle style="fill:#78909C;" cx="194.385" cy="44.663" r="2.129"/>
	<circle style="fill:#78909C;" cx="228.461" cy="44.663" r="2.13"/>
	<path style="fill:#ECEFF1;" d="M169,53h-36c0,0-22.667-19,0-19S169,53,169,53L169,53z"/>
	<path style="fill:#ECEFF1;" d="M308.926,53H345c0,0,23-19,0-19s-36,19-36,19H308.926z"/>
	<circle style="fill:#ECEFF1;" cx="130.667" cy="51" r="16.333"/>
	
		<ellipse transform="matrix(0.9479 -0.3186 0.3186 0.9479 1.1592 64.2985)" style="fill:#90A4AE;" cx="197.113" cy="28.606" rx="20.144" ry="8.697"/>
	<circle style="fill:#78909C;" cx="204.579" cy="18.233" r="4.437"/>
</g>
	

	<animate id="flash04" dur=".5s" attributeName="opacity"  from="1" to="0"  xlink:href="#frame" begin="a05.end" />
	<animateTransform id="a07" dur=".5s" attributeName="transform"  type="translate" from="0,0" to="300,200"  fill="freeze" additive="sum" xlink:href="#c04" begin="a05.end+.1s"/>
	<animateTransform id="a06" dur=".5s" attributeName="transform"  type="scale" from="1,1" to=".4,.4"  fill="freeze" additive="sum" xlink:href="#c04" begin="a05.end+.1s"/>

	<animate id="flash03" dur=".5s" attributeName="opacity"  from="1" to="0"  xlink:href="#frame" begin="a04.end" />
	<animateTransform id="a06" dur=".5s" attributeName="transform"  type="translate" from="0,0" to="200,200"  fill="freeze" additive="sum" xlink:href="#c03" begin="a04.end+.1s"/>
	<animateTransform id="a05" dur=".5s" attributeName="transform"  type="scale" from="1,1" to=".4,.4"  fill="freeze" additive="sum" xlink:href="#c03" begin="a04.end+.1s"/>
	
	<animate id="flash02" dur=".5s" attributeName="opacity"  from="1" to="0"  xlink:href="#frame" begin="a01.end" />
	<animateTransform id="a04" dur=".5s" attributeName="transform"  type="translate" from="0,0" to="100,200"  fill="freeze" additive="sum" xlink:href="#c02" begin="a01.end+.1"/>
	<animateTransform id="a03" dur=".5s" attributeName="transform"  type="scale" from="1,1" to=".4,.4"  fill="freeze" additive="sum" xlink:href="#c02" begin="a01.end+.1"/>

	<animate id="flash01" dur=".5s" attributeName="opacity"  from="1" to="0"  xlink:href="#frame" begin="camera.click" />
	<animateTransform id="a02" dur=".5s" attributeName="transform"  type="translate" from="0,0" to="0,200"  fill="freeze" additive="sum" xlink:href="#c01" begin="flash01.end+.1"   restart="never" />
	<animateTransform id="a01" dur=".5s" attributeName="transform"  type="scale" from="1,1" to=".4,.4"  fill="freeze" additive="sum" xlink:href="#c01" begin="flash01.end+.1"  restart="never" />
<g id="ai2html-settings">
</g>
</svg>
