<?xml version="1.0" encoding="utf-8"?>
<!-- Generator: Adobe Illustrator 16.0.0, SVG Export Plug-In . SVG Version: 6.00 Build 0)  -->
<!DOCTYPE svg PUBLIC "-//W3C//DTD SVG 1.1//EN" "http://www.w3.org/Graphics/SVG/1.1/DTD/svg11.dtd">

<svg version="1.1" xmlns="http://www.w3.org/2000/svg" xmlns:xlink="http://www.w3.org/1999/xlink" x="0px" y="0px" width="256px"
	 height="256px" viewBox="0 0 128 128"  xml:space="preserve">
	 <style>
#icon-manager-stroke{
	animation:svg 20s ease-in-out infinite;
}

@keyframes svg {
	0%{stroke-dasharray:280;stroke-dashoffset:280;fill:#FFE0B2; }
	50%{stroke-dasharray:280;stroke-dashoffset:0;fill:#fff2df; }
	100%{stroke-dasharray:280;stroke-dashoffset:280;fill:#FFE0B2 ; }

}
	</style>
<g id="圖層_1">
	<g>
		<path style="fill:#FFFFFF;" d="M109,82c0,1.104-0.896,2-2,2H75c-1.104,0-2-0.896-2-2V30c0-1.104,0.896-2,2-2h32
			c1.104,0,2,0.896,2,2V82z"/>
		<path style="fill:none;stroke:#90A4AE;stroke-miterlimit:10;" d="M108.5,81.5c0,1.104-0.896,2-2,2h-32c-1.104,0-2-0.896-2-2v-52
			c0-1.104,0.896-2,2-2h32c1.104,0,2,0.896,2,2V81.5z"/>
	</g>
	<rect x="78" y="35" style="fill:#CFD8DC;" width="24" height="12"/>
	<rect x="78" y="51" style="fill:#CFD8DC;" width="24" height="4"/>
	<rect x="78" y="59" style="fill:#CFD8DC;" width="12" height="4"/>
	<path id="icon-manager-stroke" style="stroke:#FFA726;"  d="M75.625,64.5H67.5v-9.085c0-4.96-1.957-9.46-5.207-12.729
		c-3.271-3.25-7.802-5.271-12.762-5.271c-9.94,0-18.031,8.061-18.031,18V64.5h-7.875c-2.2,0-4.125,1.175-4.125,3.375v28
		c0,2.2,1.925,4.625,4.125,4.625h52c2.2,0,3.875-2.425,3.875-4.625v-28C79.5,65.675,77.825,64.5,75.625,64.5z M38.5,55.415
		c0-5.8,4.893-10.5,10.683-10.5c2.899,0,5.618,1.181,7.528,3.08c1.891,1.9,2.789,4.53,2.789,7.42V64.5h-21V55.415z"/>
	<g>
		<path style="fill-rule:evenodd;clip-rule:evenodd;fill:#F57C00;" d="M52.838,76.924c-0.005,0.003-0.008,0.004-0.013,0.008
			c-0.281,0.19-0.561,0.383-0.84,0.588c-0.066,0.05-0.133,0.099-0.2,0.149c-0.198,0.147-0.396,0.304-0.592,0.469
			c-0.057,0.05-0.119,0.1-0.179,0.152c-0.093,0.079-0.187,0.162-0.279,0.251c-0.06,0.054-0.122,0.112-0.184,0.173
			c-0.067,0.064-0.136,0.13-0.2,0.198c-0.191,0.189-0.38,0.396-0.565,0.614c-0.043,0.051-0.086,0.102-0.129,0.151
			c-0.046,0.053-0.086,0.106-0.132,0.161c-0.048,0.061-0.098,0.123-0.146,0.188c-0.014,0.014-0.023,0.03-0.035,0.048
			c-0.053,0.068-0.107,0.139-0.158,0.213c-0.136,0.184-0.267,0.378-0.398,0.582c-0.093,0.14-0.181,0.284-0.271,0.433
			c-0.005,0.009-0.013,0.016-0.015,0.023c-0.033,0.053-0.063,0.106-0.093,0.161c-0.315,0.538-0.621,1.14-0.921,1.821
			c-0.021,0.047-0.043,0.097-0.064,0.147c-0.039,0.086-0.079,0.179-0.117,0.27l-3.222-4.643V79.08
			C45.104,74.409,50.688,73.916,52.838,76.924z"/>
		<path style="fill-rule:evenodd;clip-rule:evenodd;fill:#F57C00;" d="M56.693,86.632H41.031c-2.491-0.741-3.09-6.842,2.063-6.459
			l4.269,6.172c0.492-1.189,1.038-2.45,1.681-3.649v3.517h1.921c0.379,0,0.68-0.031,0.906-0.096
			c0.299-0.086,0.539-0.206,0.716-0.361c0.236-0.202,0.413-0.47,0.542-0.799c0.103-0.271,0.155-0.591,0.155-0.963
			c0-0.426-0.056-0.782-0.165-1.071s-0.272-0.533-0.484-0.733c-0.213-0.199-0.465-0.339-0.761-0.416
			c-0.225-0.059-0.545-0.087-0.965-0.087h-1.29c0.19-0.319,0.394-0.633,0.605-0.934c0.046-0.066,0.091-0.133,0.141-0.198
			c0.021-0.036,0.051-0.069,0.076-0.103c0.043-0.063,0.086-0.125,0.134-0.183c0.029-0.041,0.06-0.081,0.094-0.12
			c0.04-0.054,0.083-0.108,0.126-0.161c0.069-0.092,0.146-0.181,0.22-0.269c0.081-0.097,0.164-0.19,0.248-0.284
			c0.005-0.003,0.007-0.006,0.01-0.01c0.088-0.096,0.177-0.19,0.267-0.281c0.048-0.048,0.094-0.093,0.139-0.137
			c0.038-0.04,0.076-0.078,0.119-0.114c0.146-0.141,0.294-0.273,0.449-0.399c0.073-0.063,0.152-0.126,0.229-0.184
			c0.024-0.02,0.046-0.037,0.067-0.052c0.064-0.05,0.129-0.096,0.195-0.142c0.012-0.011,0.023-0.019,0.036-0.025
			c0.167-0.12,0.536-0.313,0.541-0.303c2.319-0.928,5.109,1.492,3.648,3.766C59.86,82.042,60.039,86.054,56.693,86.632z"/>
		<path style="fill-rule:evenodd;clip-rule:evenodd;fill:#F57C00;" d="M52.227,83.951c0,0.351-0.033,0.627-0.103,0.83
			c-0.066,0.201-0.157,0.348-0.265,0.437c-0.112,0.089-0.251,0.152-0.415,0.189c-0.127,0.028-0.332,0.042-0.618,0.042h-0.762v-2.998
			h0.459c0.415,0,0.696,0.015,0.837,0.044c0.191,0.037,0.349,0.107,0.475,0.212c0.122,0.104,0.223,0.252,0.289,0.439
			C52.193,83.334,52.227,83.602,52.227,83.951z"/>
	</g>
</g>
<g id="ai2html-settings">
</g>
</svg>
