<?xml version="1.0" encoding="utf-8"?>
<!-- Generator: Adobe Illustrator 16.0.0, SVG Export Plug-In . SVG Version: 6.00 Build 0)  -->
<!DOCTYPE svg PUBLIC "-//W3C//DTD SVG 1.1//EN" "http://www.w3.org/Graphics/SVG/1.1/DTD/svg11.dtd">
<svg version="1.1" xmlns="http://www.w3.org/2000/svg" xmlns:xlink="http://www.w3.org/1999/xlink" x="0px" y="0px" width="256px"
	 height="256px" viewBox="0 0 128 128" style="enable-background:new 0 0 128 128;" xml:space="preserve">
<style>
#icon-manager-stroke{
	animation:svg 20s ease-in-out infinite;
}

@keyframes svg {
	0%{stroke-dasharray:360;stroke-dashoffset:360;fill:#41D6C3; }
	50%{stroke-dasharray:360;stroke-dashoffset:0;fill:#41D6C3; }
	100%{stroke-dasharray:360;stroke-dashoffset:360;fill:#41D6C3 ; }

}
</style>
<g >
	<path id="icon-manager-stroke"  style="stroke:#008571;stroke-miterlimit:10;" d="M108.936,53.62c0-1.04-0.16-2.05-0.471-2.99
		c-0.5,1.53-1.369,2.91-2.5,4c-1.76,1.71-4.141,2.75-6.77,2.75c-0.48,0-0.951-0.03-1.41-0.1c-0.621-0.09-1.221-0.24-1.791-0.44
		c-1.648-2.08-3.629-3.97-5.869-5.62c-0.109-0.09-0.211-0.16-0.32-0.23c-0.689-0.51-1.41-0.99-2.15-1.44
		c-5.859-3.6-13.17-5.74-21.09-5.74s-15.23,2.14-21.09,5.74c-0.029,0.01-4.287-2.425-6.725-3.05s-6,0.688-6,0.688l6.465,7.502
		c-0.4,0.41-0.789,0.84-1.16,1.26c-2.23,2.49-3.949,5.24-5.049,8.29l-13.941,2l5.871,12.26l9.148,1c6.75-2,11.801-2.93,12.41-10.17
		c0.051,0.49,0.07,1.05,0.07,1.56c0,6.99-4.119,13.05-10.059,15.82c0.898,1.23,1.92,2.41,3.029,3.51l-6.189,6.58l-1.781,1.89l8,3.5
		l0.65-0.41l8.391-5.209c5.25,2.55,11.4,4.02,17.959,4.02c6.621,0,12.82-1.49,18.1-4.09l8.381,5.221
		c2.5-1.48,4.811-3.171,6.881-5.031l-6.111-6.49l-0.25,0.07c4.99-4.91,8-11.21,8-18.07c0-3.09-0.609-6.06-1.73-8.84
		C104.914,63.03,108.936,58.79,108.936,53.62z M80.215,57.7c-3.779-2.36-8.51-3.75-13.65-3.75c-5.139,0-9.869,1.39-13.65,3.75
		c-0.68-0.41-1.33-0.87-1.939-1.35c4.27-2.77,9.701-4.43,15.59-4.43c5.891,0,11.32,1.66,15.59,4.43
		C81.545,56.83,80.895,57.29,80.215,57.7z"/>
	<ellipse style="fill:#008571;" cx="40.688" cy="61.633" rx="1.563" ry="2.813"/>
	<circle style="fill:#FFFFFF;stroke:#90A4AE;stroke-miterlimit:10;" cx="67" cy="35.75" r="14.75"/>
	<g>
		<path style="fill:#B0BEC5;" d="M70.269,43.068c-0.72,0.408-1.512,0.624-2.304,0.72v1.296c0,0.792-1.44,1.488-1.681-0.072
			c-0.071-0.384-0.023-0.768,0.024-1.152c-2.688-0.216-3.984-1.776-4.633-4.224c-0.168-0.624-0.359-1.68,0.504-1.896
			c1.08-0.264,1.152,1.104,1.368,1.776c0.456,1.416,1.345,2.232,2.761,2.52v-6.72c-2.112-0.504-4.488-1.32-4.465-4.608
			c0-1.104,0.192-4.225,4.465-4.776v-0.096c0-1.32,1.632-1.44,1.632-0.12v0.24c1.92,0.264,3.456,1.128,4.2,4.224
			c0.072,1.248-1.56,1.44-1.775,0.408c-0.408-1.944-1.393-2.568-2.425-2.832l-0.023,6.024c2.256,0.696,4.656,1.656,4.656,4.92
			C72.573,40.692,71.541,42.324,70.269,43.068z M66.309,27.755c-1.704,0.288-2.616,1.176-2.616,2.904c0,1.824,1.2,2.353,2.616,2.736
			V27.755z M67.94,35.699l0.024,6.336c2.664-0.528,2.784-2.64,2.784-3.192C70.749,36.972,69.741,36.299,67.94,35.699z"/>
	</g>
</g>
<g id="ai2html-settings">
</g>
</svg>
