<?xml version="1.0" encoding="utf-8"?>
<!-- Generator: Adobe Illustrator 16.0.0, SVG Export Plug-In . SVG Version: 6.00 Build 0)  -->
<!DOCTYPE svg PUBLIC "-//W3C//DTD SVG 1.1//EN" "http://www.w3.org/Graphics/SVG/1.1/DTD/svg11.dtd">
<svg version="1.1" xmlns="http://www.w3.org/2000/svg" xmlns:xlink="http://www.w3.org/1999/xlink" x="0px" y="0px" width="500px"
	 height="300px" viewBox="30 0 500 300" style="enable-background:new 0 0 500 300;" xml:space="preserve">
<g id="圖層_1">
	<g id="arrow02">
		<line style="fill:#F3E5F5;" x1="196" y1="149.5" x2="311" y2="149.5"/>
		<g>
			<line style="fill:none;stroke:#B0BEC5;stroke-width:4;stroke-miterlimit:10;" x1="196" y1="149.5" x2="296" y2="149.5"/>
			<g>
				<polygon style="fill:#B0BEC5;" points="293,154.66 311.438,149.719 293,144.777 				"/>
			</g>
		</g>
	</g>
	<g id="arrow01">
		<g>
			<path style="fill:none;stroke:#B0BEC5;stroke-width:4;stroke-miterlimit:10;" d="M199,121.5h29.316
				c5.5,0,13.423-2.812,17.605-6.383l26.378-22.32c4.184-3.571,12.106-6.297,17.606-6.297H317"/>
			<g>
				<polygon style="fill:#B0BEC5;" points="314,91.16 332.438,86.219 314,81.277 				"/>
			</g>
		</g>
	</g>
	<g id="arrow03">
		<g>
			<path style="fill:none;stroke:#B0BEC5;stroke-width:4;stroke-miterlimit:10;" d="M199,177.5h29.83
				c5.5,0,13.414,2.79,17.588,6.372l26.187,22.295c4.174,3.582,12.089,6.333,17.589,6.333H317"/>
			<g>
				<polygon style="fill:#B0BEC5;" points="314,217.66 332.438,212.719 314,207.777 				"/>
			</g>
		</g>
	</g>
	<g id="doc01" transform="translate(-200,-120)"  opacity="0" >
		<g >
			<path style="fill:#FFFFFF;" d="M224,131.5c0,1.104-0.896,2-2,2h-20c-1.104,0-2-0.896-2-2v-28c0-1.104,0.896-2,2-2h20
				c1.104,0,2,0.896,2,2V131.5z"/>
			<path style="fill:none;stroke:#90A4AE;stroke-miterlimit:10;" d="M223.5,132c0,1.104-0.896,2-2,2h-20c-1.104,0-2-0.896-2-2v-28
				c0-1.104,0.896-2,2-2h20c1.104,0,2,0.896,2,2V132z" />
		</g>
		<rect x="203" y="106.5" style="fill:#CFD8DC;" width="16" height="3"/>
		<rect x="203" y="112.5" style="fill:#CFD8DC;" width="16" height="3"/>
		<rect x="203" y="118.5" style="fill:#CFD8DC;" width="9" height="3"/>
	</g>
	<g id="doc02" opacity="0">
		<g>
			<path style="fill:#FFFFFF;" d="M245,164.5c0,1.104-0.896,2-2,2h-20c-1.104,0-2-0.896-2-2v-28c0-1.104,0.896-2,2-2h20
				c1.104,0,2,0.896,2,2V164.5z"/>
			<path style="fill:none;stroke:#90A4AE;stroke-miterlimit:10;" d="M244.5,165c0,1.104-0.896,2-2,2h-20c-1.104,0-2-0.896-2-2v-28
				c0-1.104,0.896-2,2-2h20c1.104,0,2,0.896,2,2V165z"/>
		</g>
		<rect x="224" y="139.5" style="fill:#CFD8DC;" width="16" height="3"/>
		<rect x="224" y="145.5" style="fill:#CFD8DC;" width="16" height="3"/>
		<rect x="224" y="151.5" style="fill:#CFD8DC;" width="9" height="3"/>
	</g>
	<g id="doc03"  transform="translate(-200,-180)"   opacity="0">
		<g>
			<path style="fill:#FFFFFF;" d="M224,195.5c0,1.104-0.896,2-2,2h-20c-1.104,0-2-0.896-2-2v-28c0-1.104,0.896-2,2-2h20
				c1.104,0,2,0.896,2,2V195.5z"/>
			<path style="fill:none;stroke:#90A4AE;stroke-miterlimit:10;" d="M223.5,196c0,1.104-0.896,2-2,2h-20c-1.104,0-2-0.896-2-2v-28
				c0-1.104,0.896-2,2-2h20c1.104,0,2,0.896,2,2V196z"/>
		</g>
		<rect x="203" y="170.5" style="fill:#CFD8DC;" width="16" height="3"/>
		<rect x="203" y="176.5" style="fill:#CFD8DC;" width="16" height="3"/>
		<rect x="203" y="182.5" style="fill:#CFD8DC;" width="9" height="3"/>
	</g>
	<g>
		<path style="fill:#F3E5F5;" d="M207.746,115.5c1.1,0,2.254,1.188,2.254,2.288v65.756c0,1.1-1.154,1.957-2.254,1.957h-92
			c-1.1,0-1.746-0.856-1.746-1.957v-76.77c0-1.1,0.646-2.274,1.746-2.274h32c1.1,0,2.663,0.745,3.474,1.489l9.053,8.233
			c0.811,0.744,2.374,1.277,3.474,1.277H207.746z"/>
		<path style="fill:none;stroke:#CE93D8;stroke-miterlimit:10;" d="M207.746,116c1.1,0,1.754,0.688,1.754,1.788v65.756
			c0,1.1-0.654,2.457-1.754,2.457h-92c-1.1,0-2.246-1.356-2.246-2.457v-76.77c0-1.1,1.146-1.774,2.246-1.774h32
			c1.1,0,2.663,0.495,3.474,1.239l9.053,8.358c0.811,0.744,2.374,1.402,3.474,1.402H207.746z"/>
	</g>
	<g>
		<g>
			<path style="fill:#CE93D8;" d="M180.309,134.416c0,0-9.164-1.513-10.16-1.681c-0.99-0.162-1.779,0.36-1.779,0.36l-3.664,3.271
				l-1.498,0.76l-19.746,0.835c0,0-1.893,0.051-1.906,1.427c-0.02,1.375,0.967,19.588,1.439,21.353
				c0.473,1.76,0.611,2.44,2.682,3.392c2.066,0.946,28.119,0.744,30.762,0c2.652-0.747,3.574-2.473,4.379-3.527
				c0.809-1.058,1.088-21.91,1.123-23.945C181.969,134.624,180.309,134.416,180.309,134.416z M160.018,163.146l-13.641-20.105
				l2.914-2.83c0,0,7.469,10.926,10.455,15.27c0.947-4.886,10.648-18.385,16.623-20.147c0.336,0.814,0.744,1.762,0.744,2.783
				C169.271,141.387,160.018,163.146,160.018,163.146z"/>
		</g>
	</g>
	<g id="group">
		<path style="fill:#CE93D8;" d="M355.449,129.864c0,4.418-3.584,8-8,8c-4.422,0-8-3.582-8-8s3.578-8,8-8
			C351.865,121.864,355.449,125.446,355.449,129.864z"/>
		<circle style="fill:#CE93D8;" cx="361.853" cy="134.531" r="5.333"/>
		<path style="fill:#CE93D8;" d="M360,152.198v9.302h-26v-9.302c0-7.334,6.059-13.334,13.391-13.334
			c2.426,0,4.733,0.654,6.694,1.808c1.008,0.579,1.55,1.293,2.37,2.113C358.877,145.198,360,148.531,360,152.198z"/>
		<path style="fill:#CE93D8;" d="M371,152.198v9.302h-9v-9.302c0-4.193-1.316-8.041-4.117-10.827
			c-0.051-0.054,0.001-0.106-0.052-0.16c0.908-0.227,1.944-0.347,2.897-0.347c2.959,0,5.289,1.154,7.469,3.334
			C370.25,146.251,371,149.091,371,152.198z"/>
		<circle style="fill:#CE93D8;" cx="332.782" cy="134.531" r="5.333"/>
		<path style="fill:#CE93D8;" d="M336.43,141.371c-2.799,2.786-4.43,6.634-4.43,10.827v9.302h-9v-9.302c0-3.107,1.076-5.947,3.129-8
			c2.182-2.18,4.728-3.334,7.681-3.334c0.951,0,1.866,0.12,2.772,0.347C336.529,141.265,336.482,141.317,336.43,141.371z"/>
	</g>
	
	<g id="ok02" >
			<circle style="fill:#FFFFFF;stroke:#CE93D8;stroke-miterlimit:10;" cx="368.254" cy="160.136" r="18"/>
			<rect x="362.761" y="155.628" transform="matrix(0.7071 -0.7071 0.7071 0.7071 -7.4526 305.2647)" style="fill:#CE93D8;" width="4" height="12.001"/>
		
			<rect x="369.832" y="152.215" transform="matrix(0.7071 0.7071 -0.7071 0.7071 222.1957 -215.9993)" style="fill:#CE93D8;" width="4" height="15.999"/>
	</g>
	<g id="user02">
		<circle style="fill:#CE93D8;" cx="348.781" cy="197.031" r="8"/>
		<path style="fill:#CE93D8;" d="M362,219.365V229.5h-27v-10.135c0-7.333,6.225-13.333,13.557-13.333
			c2.426,0,4.817,0.654,6.778,1.807c1.008,0.58,1.927,1.293,2.747,2.113C360.502,212.365,362,215.698,362,219.365z"/>
	</g>
	
	<g id="ok03">
			<circle style="fill:#FFFFFF;stroke:#CE93D8;stroke-miterlimit:10;" cx="368.254" cy="227.969" r="18"/>
			<rect x="362.761" y="223.461" transform="matrix(0.707 -0.7072 0.7072 0.707 -55.4097 325.1688)" style="fill:#CE93D8;" width="4" height="12.001"/>
		
			<rect x="369.832" y="220.048" transform="matrix(0.7071 0.7071 -0.7071 0.7071 270.1611 -196.1313)" style="fill:#CE93D8;" width="4" height="15.999"/>
	</g>
	<g id="user01">
		<circle style="fill:#CE93D8;" cx="348.781" cy="62.031" r="8"/>
		<path style="fill:#CE93D8;" d="M362,84.365V94.5h-27V84.365c0-7.333,6.225-13.333,13.557-13.333c2.426,0,4.817,0.654,6.778,1.807
			c1.008,0.58,1.927,1.293,2.747,2.113C360.502,77.365,362,80.698,362,84.365z"/>
	</g>
	
	<g id="ok01">
			<circle style="fill:#FFFFFF;stroke:#CE93D8;stroke-miterlimit:10;" cx="368.254" cy="92.969" r="18"/>
			<rect x="362.761" y="88.461" transform="matrix(0.707 -0.7072 0.7072 0.707 40.058 285.62)" style="fill:#CE93D8;" width="4" height="12.001"/>
		
			<rect x="369.832" y="85.048" transform="matrix(0.7071 0.7071 -0.7071 0.7071 174.7017 -235.6719)" style="fill:#CE93D8;" width="4" height="15.999"/>
	</g>

	<!--doc01 movement animation-->
	<animateMotion id="a01" dur="2s" path="M199,121.5h29.316c5.5,0,13.423-2.812,17.605-6.383l26.378-22.32c4.184-3.571,12.106-6.297,17.606-6.297H317"
					  xlink:href="#doc01"  begin="a05.end"  /> 

	<!--doc02 movement animation-->
	<animateTransform id="a02" dur="2s" attributeName="transform"  type="translate"  to="90,0"  xlink:href="#doc02"  begin="a07.end"/>

	<!--doc03 movement animation-->
	<animateMotion id="a03" dur="2s" path="M199,177.5h29.83
				c5.5,0,13.414,2.79,17.588,6.372l26.187,22.295c4.174,3.582,12.089,6.333,17.589,6.333H317"
				   xlink:href="#doc03"   begin="a09.end"  /> 


	<animate id="a04"
             attributeName="opacity"  fill="freeze"
             from="1" to="0" dur=".01s" 
             begin="0;a03.end"  xlink:href="#ok01"/>

	<animate id="a05"
             attributeName="opacity"  fill="freeze"
             from="0" to="1" dur="1s" 
             begin="a04.end+1"  xlink:href="#ok01"/>



    <animate id="a06"
             attributeName="opacity"  fill="freeze"
             from="1" to="0" dur=".01s" 
             begin="0;a03.end"  xlink:href="#ok02"/>

	<animate id="a07"
             attributeName="opacity"  fill="freeze"
             from="0" to="1" dur="1s" 
             begin="a01.end"  xlink:href="#ok02"/>




    <animate id="a08"
             attributeName="opacity"  fill="freeze"
             from="1" to="0" dur=".01s" 
             begin="0;a03.end"  xlink:href="#ok03"/>

	<animate id="a09"
             attributeName="opacity"  fill="freeze"
             from="0" to="1" dur="1s" 
             begin="a02.end"  xlink:href="#ok03"/>

    <animate id="a08"
             attributeName="opacity"  fill="freeze"
             from="1" to="0" dur="0.1s" 
             begin="0;a03.end"  xlink:href="#doc03"/>

    <animate id="a09"
             attributeName="opacity"  fill="freeze"
             from="0" to="1" dur=".001s" 
             begin="a03.begin"  xlink:href="#doc03"/>


     <animate id="a10"
             attributeName="opacity"  fill="freeze"
             from="1" to="0" dur=".01s" 
             begin="0;a02.end"  xlink:href="#doc02"/>

    <animate id="a11"
             attributeName="opacity"  fill="freeze"
             from="0" to="1" dur=".01s" 
             begin="a02.begin"  xlink:href="#doc02"/>

     <animate id="a12"
             attributeName="opacity"  fill="freeze"
             from="0" to="1" dur="1s" 
             begin="a01.begin"  xlink:href="#doc01"/>

     <animate id="a13"
             attributeName="opacity"  fill="freeze"
             from="1" to="0" dur=".01s" 
             begin="0;a01.end"  xlink:href="#doc01"/>

	
</g>
<g id="ai2html-settings">
</g>
</svg>
