<?xml version="1.0" encoding="utf-8"?>
<!-- Generator: Adobe Illustrator 16.0.0, SVG Export Plug-In . SVG Version: 6.00 Build 0)  -->
<!DOCTYPE svg PUBLIC "-//W3C//DTD SVG 1.1//EN" "http://www.w3.org/Graphics/SVG/1.1/DTD/svg11.dtd">
<svg version="1.1" xmlns="http://www.w3.org/2000/svg" xmlns:xlink="http://www.w3.org/1999/xlink" x="0px" y="0px" width="500px"
	 height="300px" viewBox="0 0 500 300" style="enable-background:new 0 0 500 300;" xml:space="preserve">
<g id="圖層_1">
	<rect x="339.5" y="114.5" style="fill:#B0BEC5;" width="96" height="32"/>
	<rect x="339" y="178" style="fill:#FFFFFF;stroke:#90A4AE;stroke-miterlimit:10;" width="96" height="38"/>
	<g>
			<g>
				<path style="fill:#FFFFFF;" d="M423.5,172.5c0,1.104-0.896,2-2,2h-67c-1.104,0-2-0.896-2-2v-91c0-1.104,0.896-2,2-2h67
					c1.104,0,2,0.896,2,2V172.5z"/>
				<path style="fill:none;stroke:#90A4AE;stroke-miterlimit:10;" d="M423,173c0,1.104-0.896,2-2,2h-67c-1.104,0-2-0.896-2-2V82
					c0-1.104,0.896-2,2-2h67c1.104,0,2,0.896,2,2V173z"/>
			</g>
		</g>
	<g id='paper'>
		<g>
			<g>
				<path style="fill:#FFFFFF;" d="M423.5,172.5c0,1.104-0.896,2-2,2h-67c-1.104,0-2-0.896-2-2v-91c0-1.104,0.896-2,2-2h67
					c1.104,0,2,0.896,2,2V172.5z"/>
				<path style="fill:none;stroke:#90A4AE;stroke-miterlimit:10;" d="M423,173c0,1.104-0.896,2-2,2h-67c-1.104,0-2-0.896-2-2V82
					c0-1.104,0.896-2,2-2h67c1.104,0,2,0.896,2,2V173z"/>
			</g>
		</g>
		<g>
			 <animateTransform  id="a01" attributeName="transform" dur="10s" type="translate" from="0,0" to="0,90"  xlink:href="#paper" begin="0;a01.end"/>
			<animate id="a02" dur="5s" attributeName="opacity"  from="0" to="1"   xlink:href="#print" begin="a01.begin+5"/>
			<animate id="a03" dur="0.01s" attributeName="opacity"  from="1" to="0"  xlink:href="#print" begin="0;a01.end"/>
			<animate id="a04" dur=".1s" attributeName="opacity"  from="1" to="0"  xlink:href="#paper" begin="0;a01.end"/>

			
			<g   id="print" opacity="0" >
				<path style="fill:#7B1FA2;" d="M369.836,129.324l4.648,8.188l-1.135,1.135l-5.723-3.261c-0.271-0.154-0.531-0.345-0.779-0.572
					l-0.016,0.017c0.229,0.274,0.412,0.537,0.555,0.788l3.248,5.743l-1.152,1.152l-8.232-4.604l1.094-1.094l5.896,3.492
					c0.26,0.155,0.52,0.349,0.777,0.581l0.029-0.029c-0.17-0.193-0.355-0.467-0.555-0.82l-3.355-6.016l1.012-1.011l5.982,3.48
					c0.215,0.127,0.463,0.303,0.742,0.525l0.016-0.017c-0.193-0.215-0.375-0.47-0.543-0.766l-3.551-5.871L369.836,129.324z"/>
				<path style="fill:#7B1FA2;" d="M372.541,130.902c0.189-0.743,0.592-1.421,1.205-2.035c1.158-1.157,2.334-1.137,3.529,0.059
					l2.896,2.896l-0.943,0.944l-0.697-0.696l-0.02,0.021c0.223,0.849,0.027,1.58-0.59,2.196c-0.449,0.45-0.926,0.682-1.426,0.698
					c-0.502,0.015-0.959-0.183-1.371-0.594c-0.861-0.862-0.852-1.877,0.029-3.045l1.148-1.512c-0.684-0.683-1.324-0.724-1.922-0.125
					c-0.551,0.55-0.877,1.234-0.982,2.051L372.541,130.902z M376.092,131.644c-0.287,0.375-0.438,0.694-0.449,0.955
					c-0.014,0.261,0.102,0.512,0.342,0.752c0.201,0.202,0.439,0.293,0.715,0.275c0.273-0.018,0.525-0.142,0.756-0.371
					c0.326-0.326,0.48-0.712,0.465-1.157c-0.014-0.446-0.197-0.845-0.549-1.195l-0.406-0.406L376.092,131.644z"/>
				<path style="fill:#7B1FA2;" d="M383.766,128.13c-0.078,0.282-0.285,0.592-0.623,0.929c-0.869,0.87-1.777,0.832-2.721-0.112
					l-2.5-2.499l-0.773,0.774l-0.771-0.771l0.775-0.774l-1.074-1.073l0.676-1.264l1.367,1.367l1.111-1.11l0.77,0.771l-1.109,1.11
					l2.328,2.329c0.285,0.285,0.541,0.44,0.77,0.466c0.227,0.026,0.453-0.072,0.676-0.295c0.174-0.174,0.281-0.381,0.324-0.622
					L383.766,128.13z"/>
				<path style="fill:#7B1FA2;" d="M386.467,121.468l-3.148,3.148c0.965,0.884,1.898,0.876,2.799-0.024
					c0.51-0.509,0.818-1.123,0.934-1.844l0.803,0.804c-0.141,0.677-0.543,1.348-1.209,2.014c-0.68,0.68-1.418,1.004-2.217,0.973
					c-0.799-0.03-1.57-0.418-2.316-1.164c-0.707-0.708-1.084-1.496-1.129-2.368s0.242-1.619,0.863-2.24
					c0.619-0.619,1.297-0.905,2.031-0.858s1.443,0.413,2.129,1.098L386.467,121.468z M384.813,121.704
					c-0.395-0.389-0.785-0.601-1.172-0.634s-0.744,0.114-1.068,0.439c-0.297,0.296-0.441,0.664-0.438,1.104
					c0.004,0.441,0.162,0.872,0.479,1.291L384.813,121.704z"/>
				<path style="fill:#7B1FA2;" d="M388.459,116.227c-0.238,0.049-0.475,0.193-0.713,0.431c-0.314,0.314-0.432,0.708-0.35,1.179
					c0.08,0.47,0.35,0.934,0.805,1.39l2.283,2.283l-0.973,0.974l-4.584-4.583l0.975-0.974l0.912,0.912l0.021-0.021
					c-0.434-0.887-0.363-1.617,0.211-2.191c0.17-0.171,0.324-0.288,0.463-0.349L388.459,116.227z"/>
				<path style="fill:#7B1FA2;" d="M399.621,112.375l-0.975,0.974l-2.627-2.627c-0.453-0.453-0.854-0.707-1.201-0.763
					c-0.348-0.055-0.682,0.078-1.002,0.398c-0.275,0.276-0.387,0.642-0.332,1.094c0.055,0.454,0.266,0.864,0.633,1.231l2.6,2.598
					l-0.969,0.969l-2.693-2.693c-0.813-0.812-1.529-0.906-2.15-0.285c-0.287,0.287-0.404,0.648-0.348,1.083
					c0.057,0.435,0.279,0.848,0.67,1.237l2.59,2.59l-0.975,0.974l-4.582-4.583l0.973-0.974l0.721,0.721l0.021-0.021
					c-0.223-0.88-0.02-1.637,0.613-2.27c0.645-0.644,1.385-0.774,2.223-0.39c-0.27-0.953-0.063-1.77,0.615-2.448
					c1.004-1.003,2.125-0.884,3.365,0.356L399.621,112.375z"/>
				<path style="fill:#7B1FA2;" d="M396.744,106.698c0.191-0.743,0.594-1.421,1.207-2.035c1.156-1.157,2.334-1.138,3.529,0.058
					l2.896,2.896l-0.943,0.944l-0.697-0.696l-0.021,0.021c0.225,0.848,0.029,1.579-0.588,2.195c-0.449,0.45-0.926,0.683-1.426,0.698
					c-0.502,0.016-0.959-0.183-1.371-0.594c-0.861-0.862-0.852-1.877,0.029-3.045l1.148-1.512c-0.684-0.683-1.324-0.724-1.924-0.124
					c-0.549,0.55-0.875,1.233-0.982,2.051L396.744,106.698z M400.297,107.439c-0.289,0.376-0.438,0.694-0.449,0.955
					c-0.014,0.261,0.102,0.512,0.342,0.752c0.201,0.202,0.438,0.294,0.713,0.276s0.527-0.143,0.756-0.371
					c0.326-0.326,0.482-0.712,0.467-1.158c-0.014-0.446-0.197-0.845-0.549-1.195l-0.406-0.406L400.297,107.439z"/>
				<path style="fill:#7B1FA2;" d="M404.613,100.073c-0.238,0.049-0.475,0.193-0.713,0.431c-0.314,0.314-0.432,0.708-0.35,1.178
					c0.08,0.471,0.35,0.935,0.805,1.391l2.283,2.283l-0.973,0.974l-4.584-4.583l0.975-0.974l0.912,0.912l0.021-0.021
					c-0.434-0.887-0.363-1.617,0.211-2.191c0.17-0.171,0.324-0.288,0.463-0.349L404.613,100.073z"/>
				<path style="fill:#7B1FA2;" d="M413.094,98.901l-1.264,1.264l-4.047-0.403l-0.021,0.021l2.225,2.225l-0.973,0.974l-6.783-6.783
					l0.973-0.974l4.305,4.305l0.021-0.021l-0.377-3.832l1.211-1.21l0.236,4.148L413.094,98.901z"/>
			</g>

		</g>
	</g>
	<polygon style="fill:#E1BEE7;stroke:#CE93D8;stroke-miterlimit:10;" points="451,146 451,210 435,210 435,178 339,178 339,210 
		323,210 323,146 	"/>
	<circle style="fill:#FFFFFF;" cx="440.75" cy="162.423" r="5.334"/>
	<g>
		<path style="fill:#FFFFFF;" d="M284.5,207.5c0,1.104-0.896,2-2,2h-212c-1.104,0-2-0.896-2-2v-117c0-1.104,0.896-2,2-2h212
			c1.104,0,2,0.896,2,2V207.5z"/>
		<path style="fill:none;stroke:#CE93D8;stroke-miterlimit:10;" d="M284,208c0,1.104-0.896,2-2,2H70c-1.104,0-2-0.896-2-2V91
			c0-1.104,0.896-2,2-2h212c1.104,0,2,0.896,2,2V208z"/>
	</g>
	<g>
		<path style="fill:#FFFFFF;" d="M303.456,236.8c0.712,0.839,0.394,1.7-0.706,1.7h-252c-1.1,0-1.418-0.861-0.706-1.7l17.412-20.651
			c0.712-0.839,2.194-1.649,3.294-1.649h212c1.1,0,2.582,0.81,3.294,1.649L303.456,236.8z"/>
		<path style="fill:none;stroke:#CE93D8;stroke-miterlimit:10;" d="M303.456,236.55c0.712,0.839,0.394,1.45-0.706,1.45h-252
			c-1.1,0-1.418-0.611-0.706-1.45l17.412-20.276C68.168,215.435,69.65,215,70.75,215h212c1.1,0,2.582,0.435,3.294,1.274
			L303.456,236.55z"/>
	</g>
	<rect x="79.5" y="99.5" style="fill:#E1BEE7;" width="192" height="98"/>
	<g>
		<g>
			<g>
				<path style="fill:#FFFFFF;" d="M172.5,190.5c0,1.104-0.896,2-2,2h-59c-1.104,0-2-0.896-2-2v-80c0-1.104,0.896-2,2-2h59
					c1.104,0,2,0.896,2,2V190.5z"/>
				<path style="fill:none;stroke:#90A4AE;stroke-miterlimit:10;" d="M172,190c0,1.104-0.896,2-2,2h-59c-1.104,0-2-0.896-2-2v-80
					c0-1.104,0.896-2,2-2h59c1.104,0,2,0.896,2,2V190z"/>
			</g>
		</g>
		<g>
			<g>
				<path style="fill:#FFFFFF;" d="M241.5,190.5c0,1.104-0.896,2-2,2h-59c-1.104,0-2-0.896-2-2v-80c0-1.104,0.896-2,2-2h59
					c1.104,0,2,0.896,2,2V190.5z"/>
				<path style="fill:none;stroke:#90A4AE;stroke-miterlimit:10;" d="M241,190c0,1.104-0.896,2-2,2h-59c-1.104,0-2-0.896-2-2v-80
					c0-1.104,0.896-2,2-2h59c1.104,0,2,0.896,2,2V190z"/>
			</g>
		</g>
	</g>
	<circle style="fill:#7B1FA2;" cx="176.014" cy="95.089" r="2.334"/>
	<g id="01">
		<path style="fill:#7B1FA2;" d="M125.082,162.205l4.648,8.188l-1.135,1.135l-5.723-3.261c-0.271-0.154-0.53-0.345-0.779-0.572
			l-0.016,0.017c0.229,0.274,0.413,0.537,0.555,0.788l3.248,5.743l-1.152,1.152l-8.232-4.604l1.094-1.094l5.896,3.492
			c0.26,0.155,0.52,0.349,0.778,0.581l0.029-0.029c-0.171-0.193-0.356-0.467-0.555-0.82l-3.356-6.016l1.012-1.011l5.982,3.48
			c0.215,0.127,0.463,0.303,0.742,0.525l0.016-0.017c-0.193-0.215-0.374-0.47-0.543-0.766l-3.551-5.871L125.082,162.205z"/>
		<path style="fill:#7B1FA2;" d="M127.787,163.783c0.19-0.743,0.592-1.421,1.205-2.035c1.158-1.157,2.334-1.137,3.529,0.059
			l2.896,2.896l-0.943,0.944l-0.697-0.696l-0.02,0.021c0.223,0.849,0.027,1.58-0.59,2.196c-0.449,0.45-0.925,0.682-1.426,0.698
			c-0.502,0.015-0.959-0.183-1.37-0.594c-0.862-0.862-0.853-1.877,0.028-3.045l1.148-1.512c-0.683-0.683-1.323-0.724-1.922-0.125
			c-0.55,0.55-0.877,1.234-0.982,2.051L127.787,163.783z M131.338,164.525c-0.287,0.375-0.438,0.694-0.449,0.955
			c-0.014,0.261,0.102,0.512,0.342,0.752c0.201,0.202,0.439,0.293,0.715,0.275c0.274-0.018,0.525-0.142,0.756-0.371
			c0.326-0.326,0.48-0.712,0.465-1.157c-0.014-0.446-0.197-0.845-0.549-1.195l-0.406-0.406L131.338,164.525z"/>
		<path style="fill:#7B1FA2;" d="M139.012,161.011c-0.078,0.282-0.285,0.592-0.623,0.929c-0.869,0.87-1.777,0.832-2.721-0.112
			l-2.499-2.499l-0.774,0.774l-0.771-0.771l0.774-0.774l-1.073-1.073l0.676-1.264l1.367,1.367l1.11-1.11l0.771,0.771l-1.11,1.11
			l2.328,2.329c0.285,0.285,0.541,0.44,0.77,0.466c0.227,0.026,0.453-0.072,0.677-0.295c0.174-0.174,0.281-0.381,0.323-0.622
			L139.012,161.011z"/>
		<path style="fill:#7B1FA2;" d="M141.713,154.349l-3.148,3.148c0.966,0.884,1.898,0.876,2.799-0.024
			c0.51-0.509,0.819-1.123,0.934-1.844l0.804,0.804c-0.142,0.677-0.544,1.348-1.21,2.014c-0.68,0.68-1.418,1.004-2.217,0.973
			c-0.798-0.03-1.57-0.418-2.316-1.164c-0.707-0.708-1.084-1.496-1.129-2.368s0.242-1.619,0.863-2.24
			c0.619-0.619,1.297-0.905,2.031-0.858s1.444,0.413,2.129,1.098L141.713,154.349z M140.06,154.585
			c-0.396-0.389-0.786-0.601-1.173-0.634s-0.744,0.114-1.068,0.439c-0.297,0.296-0.441,0.664-0.438,1.104
			c0.004,0.441,0.162,0.872,0.479,1.291L140.06,154.585z"/>
		<path style="fill:#7B1FA2;" d="M143.705,149.108c-0.237,0.049-0.475,0.193-0.713,0.431c-0.314,0.314-0.432,0.708-0.35,1.179
			c0.081,0.47,0.35,0.934,0.805,1.39l2.283,2.283l-0.973,0.974l-4.583-4.583l0.974-0.974l0.912,0.912l0.021-0.021
			c-0.434-0.887-0.363-1.617,0.211-2.191c0.17-0.171,0.325-0.288,0.463-0.349L143.705,149.108z"/>
		<path style="fill:#7B1FA2;" d="M154.867,145.255l-0.975,0.974l-2.627-2.627c-0.453-0.453-0.854-0.707-1.2-0.763
			c-0.349-0.055-0.683,0.078-1.003,0.398c-0.275,0.276-0.387,0.642-0.332,1.094c0.056,0.454,0.267,0.864,0.634,1.231l2.599,2.598
			l-0.969,0.969l-2.693-2.693c-0.813-0.812-1.529-0.906-2.15-0.285c-0.287,0.287-0.403,0.648-0.347,1.083
			c0.056,0.435,0.279,0.848,0.669,1.237l2.59,2.59l-0.975,0.974l-4.582-4.583l0.974-0.974l0.721,0.721l0.021-0.021
			c-0.224-0.88-0.021-1.637,0.612-2.27c0.645-0.644,1.385-0.774,2.223-0.39c-0.27-0.953-0.063-1.77,0.615-2.448
			c1.004-1.003,2.125-0.884,3.365,0.356L154.867,145.255z"/>
		<path style="fill:#7B1FA2;" d="M151.991,139.579c0.19-0.743,0.593-1.421,1.206-2.035c1.156-1.157,2.334-1.138,3.529,0.058
			l2.896,2.896l-0.943,0.944l-0.697-0.696l-0.021,0.021c0.225,0.848,0.029,1.579-0.588,2.195c-0.449,0.45-0.926,0.683-1.426,0.698
			c-0.502,0.016-0.959-0.183-1.37-0.594c-0.862-0.862-0.853-1.877,0.028-3.045l1.148-1.512c-0.683-0.683-1.323-0.724-1.923-0.124
			c-0.55,0.55-0.876,1.233-0.982,2.051L151.991,139.579z M155.543,140.32c-0.288,0.376-0.438,0.694-0.449,0.955
			c-0.014,0.261,0.102,0.512,0.342,0.752c0.201,0.202,0.438,0.294,0.713,0.276c0.275-0.018,0.527-0.143,0.756-0.371
			c0.326-0.326,0.482-0.712,0.467-1.158c-0.014-0.446-0.197-0.845-0.549-1.195l-0.406-0.406L155.543,140.32z"/>
		<path style="fill:#7B1FA2;" d="M159.859,132.954c-0.237,0.049-0.475,0.193-0.713,0.431c-0.314,0.314-0.432,0.708-0.35,1.178
			c0.081,0.471,0.35,0.935,0.805,1.391l2.283,2.283l-0.973,0.974l-4.583-4.583l0.974-0.974l0.912,0.912l0.021-0.021
			c-0.434-0.887-0.363-1.617,0.211-2.191c0.17-0.171,0.325-0.288,0.463-0.349L159.859,132.954z"/>
		<path style="fill:#7B1FA2;" d="M168.34,131.782l-1.264,1.264l-4.047-0.403l-0.021,0.021l2.225,2.225l-0.973,0.974l-6.783-6.783
			l0.974-0.974l4.305,4.305l0.021-0.021l-0.377-3.832l1.21-1.21l0.236,4.148L168.34,131.782z"/>s
	</g>
	<g>
		<path style="fill:#7B1FA2;" d="M191.748,162.205l4.648,8.188l-1.135,1.135l-5.723-3.261c-0.271-0.154-0.53-0.345-0.779-0.572
			l-0.016,0.017c0.229,0.274,0.413,0.537,0.555,0.788l3.248,5.743l-1.152,1.152l-8.232-4.604l1.094-1.094l5.896,3.492
			c0.26,0.155,0.52,0.349,0.778,0.581l0.029-0.029c-0.171-0.193-0.356-0.467-0.555-0.82l-3.356-6.016l1.012-1.011l5.982,3.48
			c0.215,0.127,0.463,0.303,0.742,0.525l0.016-0.017c-0.193-0.215-0.374-0.47-0.543-0.766l-3.551-5.871L191.748,162.205z"/>
		<path style="fill:#7B1FA2;" d="M194.453,163.783c0.19-0.743,0.592-1.421,1.205-2.035c1.158-1.157,2.334-1.137,3.529,0.059
			l2.896,2.896l-0.943,0.944l-0.697-0.696l-0.02,0.021c0.223,0.849,0.027,1.58-0.59,2.196c-0.449,0.45-0.925,0.682-1.426,0.698
			c-0.502,0.015-0.959-0.183-1.37-0.594c-0.862-0.862-0.853-1.877,0.028-3.045l1.148-1.512c-0.683-0.683-1.323-0.724-1.922-0.125
			c-0.55,0.55-0.877,1.234-0.982,2.051L194.453,163.783z M198.004,164.525c-0.287,0.375-0.438,0.694-0.449,0.955
			c-0.014,0.261,0.102,0.512,0.342,0.752c0.201,0.202,0.439,0.293,0.715,0.275c0.274-0.018,0.525-0.142,0.756-0.371
			c0.326-0.326,0.48-0.712,0.465-1.157c-0.014-0.446-0.197-0.845-0.549-1.195l-0.406-0.406L198.004,164.525z"/>
		<path style="fill:#7B1FA2;" d="M205.678,161.011c-0.078,0.282-0.285,0.592-0.623,0.929c-0.869,0.87-1.777,0.832-2.721-0.112
			l-2.499-2.499l-0.774,0.774l-0.771-0.771l0.774-0.774l-1.073-1.073l0.676-1.264l1.367,1.367l1.11-1.11l0.771,0.771l-1.11,1.11
			l2.328,2.329c0.285,0.285,0.541,0.44,0.77,0.466c0.227,0.026,0.453-0.072,0.677-0.295c0.174-0.174,0.281-0.381,0.323-0.622
			L205.678,161.011z"/>
		<path style="fill:#7B1FA2;" d="M208.379,154.349l-3.148,3.148c0.966,0.884,1.898,0.876,2.799-0.024
			c0.51-0.509,0.819-1.123,0.934-1.844l0.804,0.804c-0.142,0.677-0.544,1.348-1.21,2.014c-0.68,0.68-1.418,1.004-2.217,0.973
			c-0.798-0.03-1.57-0.418-2.316-1.164c-0.707-0.708-1.084-1.496-1.129-2.368s0.242-1.619,0.863-2.24
			c0.619-0.619,1.297-0.905,2.031-0.858s1.444,0.413,2.129,1.098L208.379,154.349z M206.726,154.585
			c-0.396-0.389-0.786-0.601-1.173-0.634s-0.744,0.114-1.068,0.439c-0.297,0.296-0.441,0.664-0.438,1.104
			c0.004,0.441,0.162,0.872,0.479,1.291L206.726,154.585z"/>
		<path style="fill:#7B1FA2;" d="M210.371,149.108c-0.237,0.049-0.475,0.193-0.713,0.431c-0.314,0.314-0.432,0.708-0.35,1.179
			c0.081,0.47,0.35,0.934,0.805,1.39l2.283,2.283l-0.973,0.974l-4.583-4.583l0.974-0.974l0.912,0.912l0.021-0.021
			c-0.434-0.887-0.363-1.617,0.211-2.191c0.17-0.171,0.325-0.288,0.463-0.349L210.371,149.108z"/>
		<path style="fill:#7B1FA2;" d="M221.533,145.255l-0.975,0.974l-2.627-2.627c-0.453-0.453-0.854-0.707-1.2-0.763
			c-0.349-0.055-0.683,0.078-1.003,0.398c-0.275,0.276-0.387,0.642-0.332,1.094c0.056,0.454,0.267,0.864,0.634,1.231l2.599,2.598
			l-0.969,0.969l-2.693-2.693c-0.813-0.812-1.529-0.906-2.15-0.285c-0.287,0.287-0.403,0.648-0.347,1.083
			c0.056,0.435,0.279,0.848,0.669,1.237l2.59,2.59l-0.975,0.974l-4.582-4.583l0.974-0.974l0.721,0.721l0.021-0.021
			c-0.224-0.88-0.021-1.637,0.612-2.27c0.645-0.644,1.385-0.774,2.223-0.39c-0.27-0.953-0.063-1.77,0.615-2.448
			c1.004-1.003,2.125-0.884,3.365,0.356L221.533,145.255z"/>
		<path style="fill:#7B1FA2;" d="M218.657,139.579c0.19-0.743,0.593-1.421,1.206-2.035c1.156-1.157,2.334-1.138,3.529,0.058
			l2.896,2.896l-0.943,0.944l-0.697-0.696l-0.021,0.021c0.225,0.848,0.029,1.579-0.588,2.195c-0.449,0.45-0.926,0.683-1.426,0.698
			c-0.502,0.016-0.959-0.183-1.37-0.594c-0.862-0.862-0.853-1.877,0.028-3.045l1.148-1.512c-0.683-0.683-1.323-0.724-1.923-0.124
			c-0.55,0.55-0.876,1.233-0.982,2.051L218.657,139.579z M222.209,140.32c-0.288,0.376-0.438,0.694-0.449,0.955
			c-0.014,0.261,0.102,0.512,0.342,0.752c0.201,0.202,0.438,0.294,0.713,0.276c0.275-0.018,0.527-0.143,0.756-0.371
			c0.326-0.326,0.482-0.712,0.467-1.158c-0.014-0.446-0.197-0.845-0.549-1.195l-0.406-0.406L222.209,140.32z"/>
		<path style="fill:#7B1FA2;" d="M226.525,132.954c-0.237,0.049-0.475,0.193-0.713,0.431c-0.314,0.314-0.432,0.708-0.35,1.178
			c0.081,0.471,0.35,0.935,0.805,1.391l2.283,2.283l-0.973,0.974l-4.583-4.583l0.974-0.974l0.912,0.912l0.021-0.021
			c-0.434-0.887-0.363-1.617,0.211-2.191c0.17-0.171,0.325-0.288,0.463-0.349L226.525,132.954z"/>
		<path style="fill:#7B1FA2;" d="M235.006,131.782l-1.264,1.264l-4.047-0.403l-0.021,0.021l2.225,2.225l-0.973,0.974l-6.783-6.783
			l0.974-0.974l4.305,4.305l0.021-0.021l-0.377-3.832l1.21-1.21l0.236,4.148L235.006,131.782z"/>
	</g>
</g>
<g id="ai2html-settings">
</g>
</svg>
