<?xml version="1.0" encoding="utf-8"?>
<!-- Generator: Adobe Illustrator 16.0.0, SVG Export Plug-In . SVG Version: 6.00 Build 0)  -->
<!DOCTYPE svg PUBLIC "-//W3C//DTD SVG 1.1//EN" "http://www.w3.org/Graphics/SVG/1.1/DTD/svg11.dtd">
<svg version="1.1" xmlns="http://www.w3.org/2000/svg" xmlns:xlink="http://www.w3.org/1999/xlink" x="0px" y="0px" width="500px"
	 height="300px" viewBox="0 0 500 300" style="enable-background:new 0 0 500 300;" xml:space="preserve">
<g id="圖層_1">
	<path style="fill:#FFFFFF;stroke:#CE93D8;stroke-width:1;stroke-miterlimit:10;" d="M184.5,81v31h-60V81c0-16.57,13.43-30,30-30
		S184.5,64.43,184.5,81z"/>
	<path style="fill:#FFFFFF;stroke:#CE93D8;stroke-width:1;stroke-miterlimit:10;" d="M304.5,80.5V191h-60v29.5
		c0,16.57-13.43,30-30,30s-30-13.43-30-30v-140c0-16.57-12.93-29.5-29.5-29.5h120C291.57,51,304.5,63.93,304.5,80.5z"/>
	<path style="fill:#FFFFFF;stroke:#CE93D8;stroke-width:1;stroke-miterlimit:10;" d="M364.5,191v29c0,16.57-12.93,31-29.5,31H215
		c16.57,0,29.5-14.43,29.5-31v-29H364.5z"/>
	<rect id="r01" x="210" y="103.5" style="fill:#CE93D8;" width="0" height="10"/>
	<rect id="r02" x="210" y="123.5" style="fill:#CE93D8;" width="0" height="10"/>
	<rect id="r03" x="210" y="143.5" style="fill:#CE93D8;" width="0" height="10"/>
	<rect id="r04" x="210" y="163.5" style="fill:#CE93D8;" width="0" height="10"/>
	<g id="pen">
		
			<rect x="306.122" y="57.379" transform="matrix(0.7071 0.7071 -0.7071 0.7071 150.1287 -199.6938)" style="fill:#B0BEC5;" width="20" height="48"/>
		<polygon style="fill:#B0BEC5;" points="304.101,107.542 285.716,111.784 289.959,93.4 		"/>
		
			<rect x="328.749" y="53.752" transform="matrix(0.7071 0.7071 -0.7071 0.7071 140.756 -222.3204)" style="fill:#B0BEC5;" width="20" height="9.999"/>
	</g>
</g>
<g id="ai2html-settings">
</g>
<animate id="a01" dur="1s" attributeName="width" from="0" to="72"  fill="freeze" xlink:href="#r01" begin="0;a04.end"/> 
<animate id="a02" dur="1s" attributeName="width" from="0" to="72"  fill="freeze" xlink:href="#r02" begin="a01.end" /> 
<animate id="a03" dur="1s" attributeName="width" from="0" to="72"  fill="freeze" xlink:href="#r03" begin="a02.end" /> 
<animate id="a04" dur="1s" attributeName="width" from="0" to="36"  fill="freeze" xlink:href="#r04" begin="a03.end" /> 

  <animateTransform dur="4s" attributeName="transform" repeatCount="indefinite" type="translate" from="0,0" to="0,80" xlink:href="#pen"/> 
</svg>
