<?xml version="1.0" encoding="utf-8"?>
<!-- Generator: Adobe Illustrator 16.0.0, SVG Export Plug-In . SVG Version: 6.00 Build 0)  -->
<!DOCTYPE svg PUBLIC "-//W3C//DTD SVG 1.1//EN" "http://www.w3.org/Graphics/SVG/1.1/DTD/svg11.dtd">
<svg version="1.1" xmlns="http://www.w3.org/2000/svg" xmlns:xlink="http://www.w3.org/1999/xlink" x="0px" y="0px" width="500px"
	 height="300px" viewBox="0 0 500 300" style="enable-background:new 0 0 500 300;" xml:space="preserve">
<g id="圖層_1">
	<g>
		<g>
			<g>
				<path style="fill:#FFFFFF;" d="M429.5,170.5c0,1.104-0.896,2-2,2h-97c-1.104,0-2-0.896-2-2v-53c0-1.104,0.896-2,2-2h97
					c1.104,0,2,0.896,2,2V170.5z"/>
				<path style="fill:none;stroke:#CE93D8;stroke-miterlimit:10;" d="M430,170c0,1.104-0.896,2-2,2h-97c-1.104,0-2-0.896-2-2v-53
					c0-1.104,0.896-2,2-2h97c1.104,0,2,0.896,2,2V170z"/>
			</g>
			<g>
				<path style="fill:#FFFFFF;" d="M321.271,175.646c-0.837-0.714-0.621-1.146,0.479-1.146h116c1.1,0,1.315,0.433,0.479,1.146
					l-6.332,5.479c-0.837,0.714-2.422,1.375-3.521,1.375h-97.25c-1.1,0-2.685-0.661-3.521-1.375L321.271,175.646z"/>
				<path style="fill:none;stroke:#CE93D8;stroke-miterlimit:10;" d="M321.271,175.396c-0.837-0.714-0.621-1.396,0.479-1.396h116
					c1.1,0,1.315,0.683,0.479,1.396l-6.332,5.354c-0.837,0.714-2.422,1.25-3.521,1.25h-97.25c-1.1,0-2.685-0.536-3.521-1.25
					L321.271,175.396z"/>
			</g>
			<rect x="335.5" y="124.5" style="fill:#E1BEE7;" width="85" height="41"/>
			<g>
				<g>
					<path style="fill:#FFFFFF;" d="M391.361,135.687c0,0-5.733-0.946-6.356-1.051c-0.62-0.102-1.113,0.225-1.113,0.225
						l-2.291,2.046l-0.938,0.475l-12.352,0.523c0,0-1.184,0.032-1.193,0.893c-0.012,0.86,0.604,12.254,0.9,13.358
						c0.297,1.101,0.383,1.526,1.678,2.122c1.292,0.592,17.591,0.466,19.244,0c1.659-0.467,2.235-1.546,2.738-2.207
						c0.506-0.662,0.682-13.706,0.703-14.98C392.4,135.817,391.361,135.687,391.361,135.687z M378.668,153.66l-8.533-12.578
						l1.822-1.77c0,0,4.672,6.835,6.541,9.552c0.592-3.056,6.661-11.501,10.398-12.604c0.21,0.509,0.466,1.103,0.466,1.741
						C384.456,140.048,378.668,153.66,378.668,153.66z"/>
				</g>
				<g>
					<path style="fill:none;stroke:#CE93D8;stroke-miterlimit:10;" d="M391.361,135.687c0,0-5.733-0.946-6.356-1.051
						c-0.62-0.102-1.113,0.225-1.113,0.225l-2.291,2.046l-0.938,0.475l-12.352,0.523c0,0-1.184,0.032-1.193,0.893
						c-0.012,0.86,0.604,12.254,0.9,13.358c0.297,1.101,0.383,1.526,1.678,2.122c1.292,0.592,17.591,0.466,19.244,0
						c1.659-0.467,2.235-1.546,2.738-2.207c0.506-0.662,0.682-13.706,0.703-14.98C392.4,135.817,391.361,135.687,391.361,135.687z
						 M378.668,153.66l-8.533-12.578l1.822-1.77c0,0,4.672,6.835,6.541,9.552c0.592-3.056,6.661-11.501,10.398-12.604
						c0.21,0.509,0.466,1.103,0.466,1.741C384.456,140.048,378.668,153.66,378.668,153.66z"/>
				</g>
			</g>
		</g>
		<g>
			<rect x="221" y="118" style="fill:#F3E5F5;stroke:#CE93D8;stroke-miterlimit:10;" width="32" height="64"/>
			<g id="count" clip-path="url(#a1)" >
				<g id="one" >
					<rect x="258" y="118" style="fill:#F3E5F5;stroke:#CE93D8;stroke-miterlimit:10;" width="32" height="64"/>
					<path style="fill:#E1BEE7;stroke:#CE93D8;stroke-miterlimit:10;" d="M267.651,158.384h5.725v-16.846h-4.824v-3.275
				c2.664-0.504,4.5-1.188,6.191-2.232h3.924v22.353h5.004v4.284h-16.02V158.384z"/>
				</g>
				<g id="zero">
					<rect x="258" y="54" style="fill:#F3E5F5;stroke:#CE93D8;stroke-miterlimit:10;" width="32" height="64"/>
					<g>
					<path style="fill:#E1BEE7;stroke:#CE93D8;stroke-miterlimit:10;" d="M265.422,85.242c0-9.215,3.602-13.714,9.035-13.714
						c5.4,0,8.998,4.536,8.998,13.714s-3.598,13.93-8.998,13.93C269.023,99.172,265.422,94.42,265.422,85.242z M278.453,85.242
						c0-7.451-1.729-9.611-3.996-9.611c-2.303,0-4.031,2.16-4.031,9.611c0,7.487,1.729,9.791,4.031,9.791
						C276.725,95.032,278.453,92.729,278.453,85.242z"/>
					</g>
				</g>
			</g>
			<g>
				<path style="fill:#E1BEE7;stroke:#CE93D8;stroke-miterlimit:10;" d="M228.422,149.242c0-9.215,3.602-13.714,9.035-13.714
					c5.4,0,8.998,4.536,8.998,13.714s-3.598,13.93-8.998,13.93C232.023,163.172,228.422,158.42,228.422,149.242z M241.453,149.242
					c0-7.451-1.729-9.611-3.996-9.611c-2.303,0-4.031,2.16-4.031,9.611c0,7.487,1.729,9.791,4.031,9.791
					C239.725,159.032,241.453,156.729,241.453,149.242z"/>
			</g>
			
			<rect x="183" y="118" style="fill:#F3E5F5;stroke:#CE93D8;stroke-miterlimit:10;" width="32" height="64"/>
			<g>
				<path style="fill:#E1BEE7;stroke:#CE93D8;stroke-miterlimit:10;" d="M190.422,149.142c0-9.215,3.602-13.714,9.035-13.714
					c5.4,0,8.998,4.536,8.998,13.714s-3.598,13.93-8.998,13.93C194.023,163.072,190.422,158.321,190.422,149.142z M203.453,149.142
					c0-7.451-1.729-9.611-3.996-9.611c-2.303,0-4.031,2.16-4.031,9.611c0,7.487,1.729,9.791,4.031,9.791
					C201.725,158.933,203.453,156.629,203.453,149.142z"/>
			</g>

			

			<path  id="mask" style="fill:#FFFFFF;stroke:#CE93D8;stroke-miterlimit:10;" d="M177,110v81h121v-81H177z M290,182H183v-64h107V182z"/>
			
			<!--rect x="176.5" y="46.5" style="fill:#FFFFFF;" width="122" height="63"/>
			<rect x="176.5" y="191.5" style="fill:#FFFFFF;" width="122" height="63"/-->

			<defs>  
			   <clipPath id="a1">
			  		<rect x="182.5" y="117.5"  width="107" height="64"/>
			 	</clipPath>
			 </defs>
			 <animateTransform id="a01" dur="12s" attributeType="XML" attributeName="transform"  type="translate"  to="0,64" fill="freeze" xlink:href="#zero" begin="0;a05.end"/>
			 <animateTransform id="a02" dur="12s"  attributeType="XML" attributeName="transform"  type="translate" from="0,0" to="0,64" fill="freeze"  xlink:href="#one" begin="0;a05.end"/> 
			 <animateTransform id="a03" dur="0.1s" attributeType="XML" attributeName="transform"  type="translate" to="0,0" fill="freeze"  xlink:href="#one" begin="a01.end"/>

			<animate id="a04"
             attributeName="opacity"  fill="freeze"
             from="1" to="0" dur=".1s" 
             begin="a01.end"  xlink:href="#zero"
             attributeType="XML"
             />
             <animateTransform id="a05" dur="1s" attributeName="transform"  type="translate"  to="0,0" fill="freeze" xlink:href="#zero" begin="a01.end"/>
             <animate id="a06"
             attributeName="opacity"  fill="freeze"
             from="0" to="1" dur="1s" 
             begin="a05.end"  xlink:href="#zero"/>
		</g>
		<g id="calendar">
			<rect x="60" y="125" style="fill:#FFFFFF;stroke:#CE93D8;stroke-miterlimit:10;" width="84" height="66"/>
			<rect x="60" y="111" style="fill:#FFFFFF;stroke:#CE93D8;stroke-miterlimit:10;" width="84" height="16"/>
			<g>
				<g>
					<path style="fill:#E1BEE7;" d="M78.5,114.5c0,2.209-1.791,4-4,4l0,0c-2.209,0-4-1.791-4-4v-10c0-2.209,1.791-4,4-4l0,0
						c2.209,0,4,1.791,4,4V114.5z"/>
					<path style="fill:none;stroke:#CE93D8;stroke-miterlimit:10;" d="M78,115c0,2.209-1.791,4-4,4l0,0c-2.209,0-4-1.791-4-4v-10
						c0-2.209,1.791-4,4-4l0,0c2.209,0,4,1.791,4,4V115z"/>
				</g>
				<g>
					<path style="fill:#E1BEE7;" d="M134.5,114.5c0,2.209-1.791,4-4,4l0,0c-2.209,0-4-1.791-4-4v-10c0-2.209,1.791-4,4-4l0,0
						c2.209,0,4,1.791,4,4V114.5z"/>
					<path style="fill:none;stroke:#CE93D8;stroke-miterlimit:10;" d="M134,115c0,2.209-1.791,4-4,4l0,0c-2.209,0-4-1.791-4-4v-10
						c0-2.209,1.791-4,4-4l0,0c2.209,0,4,1.791,4,4V115z"/>
				</g>
			</g>
			<rect id="rect01" x="64" y="132" style="fill:#FFFFFF;stroke:#CE93D8;stroke-miterlimit:10;" width="16" height="16"/>
			<rect id="rect02" x="84" y="132" style="fill:#FFFFFF;stroke:#CE93D8;stroke-miterlimit:10;" width="16" height="16"/>
			<rect id="rect03" x="104" y="132" style="fill:#FFFFFF;stroke:#CE93D8;stroke-miterlimit:10;" width="16" height="16"/>
			<rect id="rect04" x="124" y="132" style="fill:#FFFFFF;stroke:#CE93D8;stroke-miterlimit:10;" width="16" height="16"/>
			<rect id="rect05" x="64" y="152" style="fill:#FFFFFF;stroke:#CE93D8;stroke-miterlimit:10;" width="16" height="16"/>
			<rect id="rect06" x="84" y="152" style="fill:#FFFFFF;stroke:#CE93D8;stroke-miterlimit:10;" width="16" height="16"/>
			<rect id="rect07" x="104" y="152" style="fill:#FFFFFF;stroke:#CE93D8;stroke-miterlimit:10;" width="16" height="16"/>
			<rect id="rect08" x="124" y="152" style="fill:#FFFFFF;stroke:#CE93D8;stroke-miterlimit:10;" width="16" height="16"/>
			
		</g>
	</g>
</g>
<g id="ai2html-settings">
</g>
<animate id="b01" attributeName="fill" from="#FFFFFF" to="#E1BEE7" dur="1s" fill="freeze" xlink:href="#rect01" begin="0;b08.end+1"/> 
<animate id="b02" attributeName="fill" from="#FFFFFF" to="#E1BEE7" dur="1s" fill="freeze" xlink:href="#rect02" begin="b01.end"/> 
<animate id="b03" attributeName="fill" from="#FFFFFF" to="#E1BEE7" dur="1s" fill="freeze" xlink:href="#rect03" begin="b02.end"/> 
<animate id="b04" attributeName="fill" from="#FFFFFF" to="#E1BEE7" dur="1s" fill="freeze" xlink:href="#rect04" begin="b03.end"/> 
<animate id="b05" attributeName="fill" from="#FFFFFF" to="#E1BEE7" dur="1s" fill="freeze" xlink:href="#rect05" begin="b04.end"/> 
<animate id="b06" attributeName="fill" from="#FFFFFF" to="#E1BEE7" dur="1s" fill="freeze" xlink:href="#rect06" begin="b05.end"/> 
<animate id="b07" attributeName="fill" from="#FFFFFF" to="#E1BEE7" dur="1s" fill="freeze" xlink:href="#rect07" begin="b06.end"/> 
<animate id="b08" attributeName="fill" from="#FFFFFF" to="#BA68C8" dur="2s" fill="freeze" xlink:href="#rect08" begin="b07.end"/> 

<animate id="c01" attributeName="fill" to="#FFFFFF" dur="1s" fill="freeze" xlink:href="#rect01" begin="b08.end"/> 
<animate id="c02" attributeName="fill" to="#FFFFFF" dur="1s" fill="freeze" xlink:href="#rect02" begin="b08.end"/> 
<animate id="c03" attributeName="fill" to="#FFFFFF" dur="1s" fill="freeze" xlink:href="#rect03" begin="b08.end"/> 
<animate id="c04" attributeName="fill" to="#FFFFFF" dur="1s" fill="freeze" xlink:href="#rect04" begin="b08.end"/> 
<animate id="c05" attributeName="fill" to="#FFFFFF" dur="1s" fill="freeze" xlink:href="#rect05" begin="b08.end"/> 
<animate id="c06" attributeName="fill" to="#FFFFFF" dur="1s" fill="freeze" xlink:href="#rect06" begin="b08.end"/> 
<animate id="c07" attributeName="fill" to="#FFFFFF" dur="1s" fill="freeze" xlink:href="#rect07" begin="b08.end"/> 
<animate id="c08" attributeName="fill" to="#FFFFFF" dur="1s" fill="freeze" xlink:href="#rect08" begin="b08.end"/> 

</svg>
