<?xml version="1.0" encoding="utf-8"?>
<!-- Generator: Adobe Illustrator 16.0.0, SVG Export Plug-In . SVG Version: 6.00 Build 0)  -->
<!DOCTYPE svg PUBLIC "-//W3C//DTD SVG 1.1//EN" "http://www.w3.org/Graphics/SVG/1.1/DTD/svg11.dtd">


<svg version="1.1" xmlns="http://www.w3.org/2000/svg" xmlns:xlink="http://www.w3.org/1999/xlink" x="0px" y="0px" width="350px"
	 height="210px" viewBox="0 0 500 300" style="enable-background:new 0 0 500 300;" xml:space="preserve">
	 
<script src="https://ajax.googleapis.com/ajax/libs/jquery/1.12.0/jquery.min.js"></script>
<script src="http://maxcdn.bootstrapcdn.com/bootstrap/3.3.6/js/bootstrap.min.js"></script>
<script type="text/javascript">
    $(document).ready(function(){
        $('#svgContainer').svg(); 
        var svg = $('#svgContainer').svg('get'); 
        console.log(svg); //Returns 'undefined'
    });

     $(document).ready(function(){
     	$("#line02").hide();
     });
</script>
<style>
	 #line01{
	 	animation:svg 2s ease-in-out infinite;
	 }

	 #server01-frame{
	 	animation:server 2s ease-in-out infinite;
	 }

	 #circle01{
	 	
	 }

	 @keyframes svg {
	 	0%{stroke-dasharray:4;stroke-dashoffset:100; }
	 	100%{stroke-dasharray:4;stroke-dashoffset:20; }
	 
	 }


	  @keyframes circleA {
	 	0%{stroke-dasharray:200;stroke-dashoffset:400; }
	 	50%{stroke-dasharray:200;stroke-dashoffset:-400 ;}
	 	100%{stroke-dasharray:200;stroke-dashoffset:400 }
	 
	 }

	  @keyframes server {
	  	0%{fill:#90A4AE; }
	 	50%{fill:#FFB74D;}
	 	100%{fill:#90A4AE; }
	  }
</style>

<g id="圖層_1">
	<circle id='circle02' style="fill:none;stroke:#CFD8DC;stroke-width:3;stroke-dasharray:4;stroke-dashoffset:20;" cx="437.369" cy="223" r="55"/>
	<circle id='circle01' style="fill:none;stroke:#CFD8DC;stroke-width:3;stroke-dasharray:4;stroke-dashoffset:20;" cx="437.369" cy="77" r="55"/>


	<g>
		<path id="line02" style="fill:none;stroke:#CFD8DC;stroke-width:0;stroke-miterlimit:10;" d="M204,153.5h35.058c5.5,0,10.442,4,10.442,9.5v24
			c0,5.5,4.058,10.5,9.558,10.5H298" stroke-linecap="round"/>
	</g>
	<g>
		<path id="line01" style="fill:none;stroke:#FFB74D;stroke-width:2;stroke-miterlimit:10;" d="M204,147.5h35.058c5.5,0,10.442-5,10.442-10.5
			v-24c0-5.5,4.058-9.5,9.558-9.5H298" stroke-linecap="round"/>


	</g>
	<g>
		<circle cx="0" cy="0" r="6" style="fill:#FFB74D;"/>
		<animateMotion dur="4s"  path="M204,147.5h35.058c5.5,0,10.442-5,10.442-10.5
		v-24c0-5.5,4.058-9.5,9.558-9.5H298"  repeatCount="indefinite"  />
		<animate dur=".5s" attributeName="opacity" from="1" to=".5"  repeatCount="indefinite" /> 
	</g>

	<g><!--monitor frame-->
		<path style="fill:#FFB74D;" d="M200,97c2.205,0,4,1.794,4,4v98c0,2.206-2.289,4-4.494,4H44.609c-2.205,0-3.609-1.794-3.609-4v-98
			c0-2.206,1.404-4,3.609-4H200 M199.506,95H44.609C41.31,95,39,97.7,39,101v98c0,3.3,2.31,6,5.609,6h154.896
			c3.3,0,6.494-2.7,6.494-6v-98c0-3.3-2.947-6-6.247-6H199.506z"/>
	</g>
	<g><!--monitor-->
		<g>
			<rect x="46" y="103" style="fill:#ffffff;" width="158" height="94"/>
			<rect x="46" y="103" style="fill:#ffdfb1;" width="152" height="94"/>
			<g>
				<path style="fill-rule:evenodd;clip-rule:evenodd;fill:#f47b00;" d="M129.146,142.721c-0.008,0.006-0.018,0.01-0.023,0.016
					c-0.555,0.375-1.104,0.754-1.648,1.155c-0.133,0.097-0.266,0.192-0.395,0.292c-0.393,0.291-0.779,0.597-1.162,0.922
					c-0.115,0.097-0.234,0.195-0.352,0.299c-0.182,0.154-0.365,0.318-0.547,0.491c-0.119,0.108-0.242,0.222-0.361,0.341
					c-0.133,0.126-0.266,0.256-0.395,0.389c-0.377,0.374-0.748,0.775-1.111,1.207c-0.086,0.1-0.17,0.199-0.252,0.298
					c-0.088,0.104-0.17,0.206-0.256,0.315c-0.096,0.12-0.191,0.242-0.289,0.369c-0.023,0.027-0.047,0.059-0.068,0.092
					c-0.104,0.137-0.209,0.275-0.313,0.418c-0.262,0.362-0.525,0.744-0.783,1.145c-0.18,0.273-0.355,0.559-0.531,0.85
					c-0.01,0.018-0.02,0.029-0.025,0.047c-0.063,0.104-0.127,0.209-0.188,0.314c-0.613,1.059-1.217,2.238-1.807,3.576
					c-0.043,0.093-0.086,0.188-0.127,0.289c-0.076,0.172-0.152,0.351-0.229,0.53l-6.328-9.116v-0.002
					C113.958,137.784,124.923,136.815,129.146,142.721z"/>
				<path style="fill-rule:evenodd;clip-rule:evenodd;fill:#f47b00;" d="M136.72,161.784h-30.762
					c-4.889-1.453-6.064-13.435,4.055-12.682l8.385,12.117c0.961-2.335,2.037-4.81,3.297-7.165v6.906h3.771
					c0.744,0,1.334-0.063,1.779-0.189c0.59-0.168,1.061-0.404,1.406-0.709c0.465-0.398,0.816-0.923,1.064-1.569
					c0.203-0.53,0.305-1.161,0.305-1.891c0-0.836-0.109-1.536-0.324-2.104c-0.215-0.566-0.535-1.047-0.949-1.44
					c-0.414-0.391-0.916-0.666-1.496-0.816c-0.436-0.113-1.064-0.17-1.891-0.17h-2.537c0.377-0.627,0.775-1.242,1.189-1.834
					c0.09-0.13,0.18-0.26,0.275-0.39c0.047-0.069,0.098-0.137,0.15-0.202c0.086-0.123,0.172-0.242,0.264-0.359
					c0.059-0.08,0.117-0.158,0.184-0.234c0.08-0.105,0.162-0.211,0.25-0.315c0.137-0.179,0.285-0.354,0.43-0.527
					c0.158-0.188,0.322-0.374,0.488-0.558c0.006-0.006,0.012-0.012,0.02-0.02c0.174-0.189,0.346-0.375,0.523-0.554
					c0.09-0.093,0.18-0.183,0.27-0.269c0.076-0.077,0.152-0.152,0.232-0.225c0.289-0.272,0.58-0.535,0.883-0.784
					c0.148-0.122,0.301-0.247,0.455-0.36c0.043-0.037,0.086-0.07,0.127-0.102c0.127-0.096,0.254-0.188,0.383-0.277
					c0.027-0.021,0.049-0.037,0.072-0.049c0.33-0.236,1.055-0.619,1.064-0.596c4.557-1.82,10.029,2.93,7.164,7.395
					C142.937,152.771,143.286,160.649,136.72,161.784z"/>
				<path style="fill-rule:evenodd;clip-rule:evenodd;fill:#f47b00" d="M127.946,156.519c0,0.691-0.068,1.234-0.201,1.633
					c-0.135,0.396-0.311,0.685-0.523,0.856c-0.217,0.175-0.488,0.299-0.814,0.372c-0.248,0.056-0.652,0.081-1.213,0.081h-1.496
					v-5.888h0.898c0.82,0,1.371,0.03,1.65,0.086c0.373,0.074,0.684,0.214,0.928,0.418c0.242,0.207,0.436,0.495,0.57,0.863
					C127.878,155.309,127.946,155.834,127.946,156.519z"/>
			</g>
		</g>
		<polygon style="opacity:0.2;fill:#CFD8DC;" points="145.56,197 46,197 46,103 105.731,103 		"/>
	</g>
	<g><!--server01-->
		<g>
			<rect id="server01-frame" x="297" y="22" style="fill:#90A4AE;" width="104" height="110"/>
		</g>
		<g>
			<path style="fill:#FFFFFF;" d="M301,104v24h96v-24H301z M311,122h-4v-4h4V122z M311,114h-4v-4h4V114z M319,118h-4v-4h4V118z
				 M343,122h-4v-4h-4v4h-4v-4h-4v4h-4v-4h4v-4h-4v-4h4v4h4v4h4v-4h4v4h4V122z M385.058,122c-3.31,0-6-2.68-6-6c0-3.31,2.69-6,6-6
				s6,2.69,6,6C391.058,119.32,388.367,122,385.058,122z"/>
			<circle style="fill:#FFFFFF;" cx="385.058" cy="116" r="4"/>
			<path style="fill:#FFFFFF;" d="M301,78v24h96V78H301z M311,96h-4v-4h4V96z M311,88h-4v-4h4V88z M319,92h-4v-4h4V92z M343,96h-4
				v-4h-4v4h-4v-4h-4v4h-4v-4h4v-4h-4v-4h4v4h4v4h4v-4h4v4h4V96z M385.058,96c-3.31,0-6-2.68-6-6c0-3.31,2.69-6,6-6s6,2.69,6,6
				C391.058,93.32,388.367,96,385.058,96z"/>
			<circle style="fill:#FFFFFF;" cx="385.058" cy="90" r="4"/>
			<path style="fill:#FFFFFF;" d="M301,52v24h96V52H301z M311,70h-4v-4h4V70z M311,62h-4v-4h4V62z M319,66h-4v-4h4V66z M343,70h-4
				v-4h-4v4h-4v-4h-4v4h-4v-4h4v-4h-4v-4h4v4h4v4h4v-4h4v4h4V70z M385.058,70c-3.31,0-6-2.68-6-6c0-3.31,2.69-6,6-6s6,2.69,6,6
				C391.058,67.32,388.367,70,385.058,70z"/>
			<circle style="fill:#FFFFFF;" cx="385.058" cy="64" r="4"/>
			<path style="fill:#FFFFFF;" d="M301,26v24h96V26H301z M311,44h-4v-4h4V44z M311,36h-4v-4h4V36z M319,40h-4v-4h4V40z M343,44h-4
				v-4h-4v4h-4v-4h-4v4h-4v-4h4v-4h-4v-4h4v4h4v4h4v-4h4v4h4V44z M385.058,44c-3.31,0-6-2.68-6-6c0-3.31,2.69-6,6-6s6,2.69,6,6
				C391.058,41.32,388.367,44,385.058,44z"/>
			<circle style="fill:#FFFFFF;" cx="385.058" cy="38" r="4"/>
		</g>
	</g>
	<g ><!--server02-->
		<g>
			<g >
				<rect id="server02" x="297" y="168" style="fill:#CFD8DC;" width="104" height="110"/>
			</g>
		</g>
		<g>
			<circle style="fill:#FFFFFF;" cx="385.391" cy="262" r="4"/>
			<circle style="fill:#FFFFFF;" cx="385.391" cy="236" r="4"/>
			<circle style="fill:#FFFFFF;" cx="385.391" cy="210" r="4"/>
			<g>
				<path style="fill:#FFFFFF;" d="M301,250v24h96v-24H301z M311,268h-4v-4h4V268z M311,260h-4v-4h4V260z M319,264h-4v-4h4V264z
					 M343,268h-4v-4h-4v4h-4v-4h-4v4h-4v-4h4v-4h-4v-4h4v4h4v4h4v-4h4v4h4V268z M385.391,268c-3.31,0-6-2.68-6-6c0-3.31,2.69-6,6-6
					s6,2.69,6,6C391.391,265.32,388.7,268,385.391,268z"/>
				<path style="fill:#FFFFFF;" d="M301,224v24h96v-24H301z M311,242h-4v-4h4V242z M311,234h-4v-4h4V234z M319,238h-4v-4h4V238z
					 M343,242h-4v-4h-4v4h-4v-4h-4v4h-4v-4h4v-4h-4v-4h4v4h4v4h4v-4h4v4h4V242z M385.391,242c-3.31,0-6-2.68-6-6c0-3.31,2.69-6,6-6
					s6,2.69,6,6C391.391,239.32,388.7,242,385.391,242z"/>
				<path style="fill:#FFFFFF;" d="M301,198v24h96v-24H301z M311,216h-4v-4h4V216z M311,208h-4v-4h4V208z M319,212h-4v-4h4V212z
					 M343,216h-4v-4h-4v4h-4v-4h-4v4h-4v-4h4v-4h-4v-4h4v4h4v4h4v-4h4v4h4V216z M385.391,216c-3.31,0-6-2.68-6-6c0-3.311,2.69-6,6-6
					s6,2.689,6,6C391.391,213.32,388.7,216,385.391,216z"/>
				<path style="fill:#FFFFFF;" d="M301,172v24h96v-24H301z M311,190h-4v-4h4V190z M311,182h-4v-4h4V182z M319,186h-4v-4h4V186z
					 M343,190h-4v-4h-4v4h-4v-4h-4v4h-4v-4h4v-4h-4v-4h4v4h4v4h4v-4h4v4h4V190z M385.391,190c-3.31,0-6-2.68-6-6c0-3.311,2.69-6,6-6
					s6,2.689,6,6C391.391,187.32,388.7,190,385.391,190z"/>
			</g>
			<circle style="fill:#FFFFFF;" cx="385.391" cy="184" r="4"/>
		</g>
	</g>

</g>
<g id="ai2html-settings">
</g>

</svg>
