<?xml version="1.0" encoding="utf-8"?>
<!-- Generator: Adobe Illustrator 16.0.0, SVG Export Plug-In . SVG Version: 6.00 Build 0)  -->
<!DOCTYPE svg PUBLIC "-//W3C//DTD SVG 1.1//EN" "http://www.w3.org/Graphics/SVG/1.1/DTD/svg11.dtd">
<svg version="1.1" xmlns="http://www.w3.org/2000/svg" xmlns:xlink="http://www.w3.org/1999/xlink" x="0px" y="0px" width="224px"
	 height="224px" viewBox="0 0 128 128" style="enable-background:new 0 0 128 128;" xml:space="preserve">

	 <style>
#line01,#line02,#line03{
	animation:svg 10s ease-in-out infinite;
}
#line02{
	animation:svg 6s ease-in-out infinite;
}
#line03{
	animation:svg 8s ease-in-out infinite;
}

@keyframes svg {
	0%{stroke-dasharray:360;stroke-dashoffset:360;}
	50%{stroke-dasharray:360;stroke-dashoffset:0;}
	100%{stroke-dasharray:360;stroke-dashoffset:360;}

}
</style>
<g id="圖層_1">
	<circle style="fill:#FFFFFF;stroke:#CE93D8;stroke-miterlimit:10;" cx="64.334" cy="24.125" r="9"/>
	<path style="fill:#CE93D8;" d="M74.334,35h-6l-4,8l-4-8h-6C52.124,35,50,36.665,50,38.875V55h28V38.875
		C78,36.665,76.544,35,74.334,35z M75,46h-7v-2h7V46z"/>
	<circle style="fill:#FFFFFF;stroke:#CE93D8;stroke-miterlimit:10;" cx="64.334" cy="82.125" r="9"/>
	<path style="fill:#CE93D8;" d="M74.334,93h-6c-0.04,2-1.82,3.92-4,3.92s-3.96-1.92-4-3.92h-6C52.124,93,50,94.665,50,96.875V113h28
		V96.875C78,94.665,76.544,93,74.334,93z"/>
	<circle style="fill:#FFFFFF;stroke:#CE93D8;stroke-miterlimit:10;" cx="100.334" cy="82.125" r="9"/>
	<path style="fill:#CE93D8;" d="M110.334,93h-6c-0.04,2-1.82,3.92-4,3.92s-3.96-1.92-4-3.92h-6C88.124,93,86,94.665,86,96.875V113
		h28V96.875C114,94.665,112.544,93,110.334,93z"/>
	<circle style="fill:#FFFFFF;stroke:#CE93D8;stroke-miterlimit:10;" cx="28.334" cy="82.125" r="9"/>
	<path style="fill:#CE93D8;" d="M38.334,93h-6c-0.04,2-1.82,3.92-4,3.92s-3.96-1.92-4-3.92h-6C16.124,93,14,94.665,14,96.875V113h28
		V96.875C42,94.665,40.544,93,38.334,93z"/>
	<polyline id="line01" style="fill:none;stroke:#CE93D8;stroke-miterlimit:10;" points="63.5,56 63.5,64.5 27.5,64.5 27.5,70 	"/>
	<polyline id="line03" style="fill:none;stroke:#CE93D8;stroke-miterlimit:10;" points="63.5,56 63.5,64.5 99.5,64.5 99.5,70 	"/>
	<line id="line02"  style="fill:none;stroke:#CE93D8;stroke-miterlimit:10;" x1="63.5" y1="56" x2="63.5" y2="70"/>
</g>
<g id="ai2html-settings">
</g>
</svg>
