<?xml version="1.0" encoding="utf-8"?>
<!-- Generator: Adobe Illustrator 16.0.0, SVG Export Plug-In . SVG Version: 6.00 Build 0)  -->
<!DOCTYPE svg PUBLIC "-//W3C//DTD SVG 1.1//EN" "http://www.w3.org/Graphics/SVG/1.1/DTD/svg11.dtd">
<svg version="1.1" xmlns="http://www.w3.org/2000/svg" xmlns:xlink="http://www.w3.org/1999/xlink" x="0px" y="0px" width="500px"
	 height="300px" viewBox="0 0 500 300" style="enable-background:new 0 0 500 300;" xml:space="preserve">

<style>

</style>
<g id="圖層_1">
	<animateMotion dur="10s" path="M83,239.5h150.5V78.167c0,0,61.22-10,116.333,29.5
		s51.372,127.417,51.372,127.417" repeatCount="indefinite"  xlink:href="#paper" /> 


	
	<g id="arrow02">
		<line style="fill:#E1BEE7;" x1="234" y1="206" x2="234" y2="132"/>
		<g>
			<line style="fill:none;stroke:#CE93D8;stroke-width:6;stroke-miterlimit:10;" x1="234" y1="206" x2="234" y2="145"/>
			<g>
				<polygon style="fill:#CE93D8;" points="243.13,147 234.155,131.458 225.18,147 				"/>
			</g>
		</g>
	</g>
	<g id="arrow01">
		<line style="fill:#E1BEE7;" x1="97" y1="238" x2="183" y2="238"/>
		<g>
			<line style="fill:none;stroke:#CE93D8;stroke-width:6;stroke-miterlimit:10;" x1="97" y1="238" x2="170" y2="238"/>
			<g>
				<polygon style="fill:#CE93D8;" points="168,247.143 183.543,238.168 168,229.192 				"/>
			</g>
		</g>
	</g>
	<g id="arrow03">
		<g>
			<path style="fill:none;stroke:#CE93D8;stroke-width:6;stroke-miterlimit:10;" d="M252.742,77.912
				c73.554-0.001,134.064,43.215,142.229,98.948"/>
			<g>
				<polygon style="fill:#CE93D8;" points="385.623,175.037 395.907,189.745 403.506,173.485 				"/>
			</g>
		</g>
	</g>
	<path id="cloud01" style="fill:#FFFFFF;stroke:#CE93D8;stroke-miterlimit:10;" d="M209.628,91.606c0,0.319-0.008,0.894-0.023,0.894h-96.924
		c-0.015,0-0.022-0.575-0.022-0.894c0-8.977,4.879-16.777,12.129-20.966c0-0.076-0.008-0.13-0.008-0.207
		c0-13.386,10.857-24.234,24.242-24.234c6.84,0,13.007,2.835,17.416,7.389c2.107-0.849,4.409-1.324,6.827-1.324
		c9.265,0,16.9,6.899,18.029,15.853C201.824,70.761,209.628,80.257,209.628,91.606z"/>
	<g>
		<path style="fill:#F3E5F5;" d="M270.189,172c1.1,0,1.811,1.242,1.811,2.342v56.222c0,1.1-0.711,2.436-1.811,2.436h-72.07
			c-1.1,0-2.119-1.335-2.119-2.436v-65.731c0-1.1,1.02-1.833,2.119-1.833h24.526c1.101,0,2.636,0.553,3.414,1.331l6.681,6.468
			c0.777,0.778,2.314,1.201,3.414,1.201H270.189z"/>
		<path style="fill:none;stroke:#CE93D8;stroke-miterlimit:10;" d="M270.189,172.5c1.1,0,2.311,0.742,2.311,1.842v56.222
			c0,1.1-1.211,1.936-2.311,1.936h-72.07c-1.1,0-1.619-0.835-1.619-1.936v-65.731c0-1.1,0.52-2.333,1.619-2.333h24.526
			c1.101,0,2.636,0.803,3.414,1.581l6.681,6.843c0.777,0.778,2.314,1.576,3.414,1.576H270.189z"/>
	</g>
	<g id="paper" transform="translate(-110,-220)" >
		<g>
			<path style="fill:#FFFFFF;" d="M134,238c0,1.104-0.896,2-2,2h-32c-1.104,0-2-0.896-2-2v-44c0-1.104,0.896-2,2-2h32
				c1.104,0,2,0.896,2,2V238z"/>
			<path style="fill:none;stroke:#90A4AE;stroke-miterlimit:10;" d="M133.5,237.5c0,1.104-0.896,2-2,2h-32c-1.104,0-2-0.896-2-2v-44
				c0-1.104,0.896-2,2-2h32c1.104,0,2,0.896,2,2V237.5z"/>
		</g>
		<rect x="102" y="198" style="fill:#CFD8DC;" width="24" height="4"/>
		<rect x="102" y="207" style="fill:#CFD8DC;" width="24" height="4"/>
		<rect x="102" y="216" style="fill:#CFD8DC;" width="14" height="4"/>
	</g>

	<path id="cloud03" style="fill:#FFFFFF;stroke:#CE93D8;stroke-miterlimit:10;" d="M312.658,62.704c0,0.159-0.004,0.796-0.004,0.796h-48.471
		c-0.006,0-0.011-0.637-0.011-0.796c0-4.488,2.44-8.563,6.065-10.657c0-0.038-0.004-0.153-0.004-0.191
		c0-6.693,5.427-12.161,12.121-12.161c3.42,0,6.503,1.396,8.708,3.673c1.054-0.425,2.204-0.673,3.412-0.673
		c4.634,0,8.45,3.619,9.017,8.095C308.756,52.112,312.658,57.03,312.658,62.704z"/>
	<path id="cloud02" style="fill:#E1BEE7;stroke:#CE93D8;stroke-miterlimit:10;" d="M287.406,114.697c0,0.424-0.011,0.803-0.032,1.803h-129.23
		c-0.021-1-0.03-1.379-0.03-1.803c0-11.969,6.504-22.673,16.171-28.26c0-0.101-0.01-0.327-0.01-0.428
		c0-17.848,14.475-32.39,32.323-32.39c9.121,0,17.344,3.745,23.223,9.815c2.808-1.131,5.877-1.784,9.101-1.784
		c12.354,0,22.534,9.493,24.039,21.433C277.001,86.607,287.406,99.565,287.406,114.697z"/>
	<g id="groud">
		<circle style="fill:#B0BEC5;" cx="399.668" cy="209.667" r="12"/>
		<circle style="fill:#B0BEC5;" cx="421.272" cy="216.667" r="8"/>
		<path style="fill:#B0BEC5;" d="M419,243.167V257h-40v-13.833c0-11,9.334-20,20.334-20c3.639,0,7.226,0.979,10.166,2.71
			c1.51,0.87,2.639,1.939,3.869,3.17C417,232.667,419,237.667,419,243.167z"/>
		<path style="fill:#B0BEC5;" d="M435,243.167V257h-14v-13.833c0-6.29-1.727-12.061-5.926-16.24c-0.08-0.08,0.126-0.16,0.046-0.24
			c1.36-0.34,2.974-0.52,4.403-0.52c4.439,0,7.969,1.729,11.238,5C433.842,234.247,435,238.507,435,243.167z"/>
		<circle style="fill:#B0BEC5;" cx="377.668" cy="216.667" r="8"/>
		<path style="fill:#B0BEC5;" d="M383.393,226.927c-4.199,4.18-6.393,9.95-6.393,16.24V257h-14v-13.833c0-4.66,1.613-8.92,4.693-12
			c3.27-3.271,7.087-5,11.518-5c1.429,0,2.926,0.18,4.286,0.52C383.416,226.767,383.473,226.847,383.393,226.927z"/>
	</g>
	
	
	<g>
		<path style="fill:#FAFAFA;" d="M282,251c0,1.104-0.896,2-2,2h-91c-1.104,0-2-0.896-2-2v-59c0-1.104,0.896-2,2-2h91
			c1.104,0,2,0.896,2,2V251z"/>
		<path style="fill:none;stroke:#CE93D8;stroke-miterlimit:10;" d="M281.5,250.5c0,1.104-0.896,2-2,2h-91c-1.104,0-2-0.896-2-2v-59
			c0-1.104,0.896-2,2-2h91c1.104,0,2,0.896,2,2V250.5z"/>
	</g>
	<g>
		<path style="fill:#E1BEE7;stroke:#CE93D8;stroke-miterlimit:10;" d="M246.5,211.251v14.05c0,9.699-12,14.048-12,14.048
			s-12-4.349-12-14.048v-14.05l12-5.267L246.5,211.251z"/>
		<path style="fill:#F3E5F5;" d="M244,213.353v11.948c0,5.807-6,9.331-9,10.548v-26.348L244,213.353z"/>
	</g>
	<g >
		<circle  style="fill:#B0BEC5;" cx="84.668" cy="209.667" r="12" />
		<path style="fill:#B0BEC5;" d="M104,243.167V257H64v-13.833c0-11,9.334-20,20.334-20c3.639,0,7.226,0.979,10.166,2.71
			c1.51,0.87,2.639,1.939,3.869,3.17C102,232.667,104,237.667,104,243.167z"/>
	</g>
	<circle id="cx01" style="fill:none;stroke:#4DD0E1;stroke-width:3.8346;stroke-miterlimit:10;" cx="234.578" cy="221.5" r="23.5"/>
</g>
<g id="ai2html-settings">
</g>
</svg>
