<?xml version="1.0" encoding="utf-8"?>
<!-- Generator: Adobe Illustrator 15.0.0, SVG Export Plug-In . SVG Version: 6.00 Build 0)  -->
<!DOCTYPE svg PUBLIC "-//W3C//DTD SVG 1.1//EN" "http://www.w3.org/Graphics/SVG/1.1/DTD/svg11.dtd">
<svg version="1.1" id="圖層_1" xmlns="http://www.w3.org/2000/svg" xmlns:xlink="http://www.w3.org/1999/xlink" x="0px" y="0px"
	 width="200px" height="200px" viewBox="0 0 200 200" enable-background="new 0 0 200 200" xml:space="preserve">
<path fill="#DFE9E9" d="M172,100c0,38.37-30.02,69.73-67.85,71.88c-1.371,0.08-2.762,0.12-4.15,0.12c-0.471,0-0.939,0-1.41-0.02
	c-0.58,0-1.15-0.021-1.72-0.051c-0.83-0.029-1.66-0.08-2.479-0.15C57.25,168.92,28,137.87,28,100c0-23.29,11.07-44.01,28.23-57.16
	c3.959-3.05,8.25-5.68,12.799-7.85c1.98-0.95,4.011-1.81,6.091-2.57c2.319-0.86,4.69-1.6,7.12-2.21c0.369-0.1,0.74-0.19,1.119-0.28
	c0.721-0.17,1.44-0.33,2.16-0.48c1.78-0.36,3.58-0.65,5.4-0.88c1.29-0.17,2.6-0.29,3.91-0.38C96.54,28.06,98.26,28,100,28
	C139.76,28,172,60.24,172,100z"/>
<line fill="none" x1="-351.087" y1="284.531" x2="-351.087" y2="284.16"/>
<g>
	<g>
		<g>
			<g>
				<g>
					<path fill="#8D6E63" d="M95.906,177.436c-0.025-0.418-0.052-0.837-0.078-1.256c0.007,0.104,0.029,0.207,0.067,0.31
						c0.038,0.102,0.093,0.203,0.165,0.302c0.071,0.098,0.16,0.193,0.264,0.285c0.105,0.093,0.228,0.18,0.366,0.262l0.069,1.27
						c-0.137-0.083-0.258-0.172-0.362-0.266c-0.104-0.092-0.19-0.188-0.262-0.288c-0.071-0.099-0.125-0.201-0.163-0.305
						S95.912,177.542,95.906,177.436z"/>
				</g>
				<g>
					<path fill="#8D6E63" d="M104.868,183.287l-0.015,1.328c-0.299-0.281-0.691-0.645-1.164-1.06
						c-0.467-0.41-1.009-0.871-1.61-1.354c-0.593-0.476-1.242-0.974-1.935-1.467c-0.682-0.486-1.406-0.968-2.159-1.425
						c-0.101-0.061-0.201-0.121-0.302-0.181c-0.102-0.061-0.203-0.119-0.306-0.179c-0.103-0.058-0.204-0.116-0.308-0.173
						c-0.103-0.058-0.206-0.114-0.311-0.171l-0.069-1.27c0.104,0.057,0.21,0.112,0.313,0.169s0.207,0.113,0.311,0.172
						c0.103,0.058,0.205,0.117,0.308,0.176c0.103,0.06,0.204,0.118,0.306,0.179c0.761,0.451,1.492,0.93,2.18,1.41
						c0.699,0.489,1.356,0.981,1.955,1.453c0.608,0.478,1.156,0.934,1.629,1.34C104.168,182.648,104.566,183.007,104.868,183.287z"
						/>
				</g>
				<g>
					<path fill="#8D6E63" d="M105.451,183.838l-0.021,1.334c-0.059-0.044-0.113-0.089-0.166-0.134
						c-0.053-0.046-0.104-0.092-0.15-0.138c-0.049-0.047-0.094-0.094-0.138-0.142c-0.043-0.047-0.083-0.096-0.122-0.144l0.015-1.328
						c0.039,0.047,0.081,0.095,0.124,0.142s0.09,0.094,0.139,0.14c0.048,0.047,0.1,0.093,0.152,0.138
						C105.337,183.751,105.393,183.795,105.451,183.838z"/>
				</g>
				<g>
					<path fill="#8D6E63" d="M105.525,183.892l-0.021,1.334c-0.004,0.002-0.008,0.002-0.013,0c-0.005-0.001-0.011-0.005-0.016-0.01
						c-0.006-0.005-0.013-0.011-0.021-0.019s-0.016-0.016-0.025-0.025l0.021-1.334c0.01,0.011,0.019,0.019,0.026,0.026
						c0.007,0.008,0.015,0.013,0.021,0.018s0.012,0.009,0.016,0.011C105.519,183.894,105.522,183.894,105.525,183.892z"/>
				</g>
				<g>
					<path fill="#8D6E63" d="M113.557,182.463c-0.037,0.44-0.074,0.88-0.111,1.32c-0.012,0.146-0.043,0.289-0.094,0.432
						c-0.049,0.143-0.117,0.283-0.207,0.42c-0.088,0.138-0.197,0.271-0.326,0.4c-0.127,0.129-0.277,0.252-0.447,0.369
						c-0.42,0.29-0.922,0.508-1.473,0.654c-0.553,0.147-1.15,0.222-1.756,0.222c-0.605,0.001-1.215-0.073-1.793-0.221
						c-0.572-0.146-1.113-0.364-1.58-0.653c-0.023-0.015-0.047-0.029-0.068-0.044c-0.023-0.015-0.046-0.03-0.068-0.045
						s-0.044-0.031-0.065-0.046c-0.021-0.016-0.043-0.031-0.063-0.046l0.021-1.334c0.021,0.015,0.043,0.03,0.064,0.046
						c0.022,0.015,0.045,0.029,0.067,0.045c0.022,0.015,0.046,0.03,0.067,0.045c0.023,0.015,0.047,0.029,0.07,0.043
						c0.475,0.287,1.02,0.504,1.6,0.648c0.584,0.146,1.201,0.219,1.814,0.219c0.611,0,1.217-0.073,1.775-0.22
						c0.557-0.145,1.064-0.361,1.488-0.648c0.172-0.115,0.322-0.238,0.453-0.366c0.129-0.127,0.238-0.26,0.328-0.396
						c0.09-0.137,0.158-0.276,0.209-0.418C113.514,182.749,113.543,182.607,113.557,182.463z"/>
				</g>
			</g>
			<path fill="#5D4037" d="M103.34,171.911l-0.027,0.015c-0.022-0.037-0.072-2.035-0.07-2.998c0,0.026-0.004,0.053-0.006,0.079
				c0.038-0.466-0.248-0.94-0.865-1.297c-1.156-0.667-3.023-0.668-4.172,0c-0.572,0.332-0.857,0.768-0.857,1.204
				c0-0.001,0-0.003,0-0.004v0.009l0,0c0,0-0.28,2.134-0.234,3.478c0.045,1.345-1.123,3.161-1.123,3.161
				c-0.076,0.136-0.127,0.276-0.146,0.417l-0.003,0.005h0.001l0,0c-0.032,0.241,0.021,0.485,0.161,0.716
				c0.142,0.232,0.372,0.451,0.693,0.643c0.104,0.057,0.21,0.112,0.313,0.169s0.207,0.113,0.311,0.172
				c0.103,0.058,0.205,0.117,0.308,0.176c0.103,0.06,0.204,0.118,0.306,0.179c0.761,0.451,1.492,0.93,2.18,1.41
				c0.699,0.489,1.356,0.981,1.955,1.453c0.608,0.478,1.156,0.934,1.629,1.34c0.477,0.412,0.875,0.771,1.177,1.051
				c0.039,0.047,0.081,0.095,0.124,0.142s0.09,0.094,0.139,0.14c0.048,0.047,0.1,0.093,0.152,0.138
				c0.054,0.045,0.109,0.089,0.168,0.132c0.01,0.011,0.019,0.019,0.026,0.026c0.007,0.008,0.015,0.013,0.021,0.018
				s0.012,0.009,0.016,0.011c0.005,0.001,0.009,0.001,0.012-0.001c0.021,0.015,0.043,0.03,0.064,0.046
				c0.022,0.015,0.045,0.029,0.067,0.045c0.022,0.015,0.046,0.03,0.067,0.045c0.023,0.015,0.047,0.029,0.07,0.043
				c0.475,0.287,1.02,0.504,1.6,0.648c0.584,0.146,1.201,0.219,1.814,0.219c0.611,0,1.217-0.073,1.775-0.22
				c0.557-0.145,1.064-0.361,1.488-0.648c0.41-0.277,0.701-0.594,0.879-0.928c0.092-0.172,0.152-0.349,0.184-0.528
				c0-0.003,0.002-0.005,0.002-0.007c0.004-0.019,0.006-0.035,0.008-0.053c0.004-0.025,0.006-0.051,0.01-0.076
				c0.002-0.031,0.004-0.061,0.006-0.092c0-0.003,0-0.007,0-0.011C113.715,179.443,107.84,179.851,103.34,171.911z M97.781,169.81
				c0.018,0.016,0.033,0.032,0.051,0.048C97.814,169.842,97.799,169.825,97.781,169.81z M97.965,169.962
				c0.015,0.013,0.027,0.023,0.043,0.035C97.992,169.985,97.979,169.975,97.965,169.962z M102.971,169.637
				c0.02-0.024,0.041-0.048,0.059-0.073C103.012,169.589,102.99,169.612,102.971,169.637z M103.209,169.168
				c0.008-0.027,0.016-0.055,0.02-0.082C103.225,169.113,103.217,169.141,103.209,169.168z M103.076,169.483
				c0.016-0.024,0.033-0.05,0.047-0.075C103.109,169.434,103.092,169.459,103.076,169.483z M103.156,169.327
				c0.012-0.026,0.023-0.053,0.033-0.079C103.18,169.274,103.168,169.301,103.156,169.327z M102.908,169.715
				c-0.021,0.024-0.049,0.048-0.072,0.072C102.859,169.763,102.887,169.739,102.908,169.715z M102.586,169.998
				c-0.063,0.045-0.129,0.088-0.201,0.129C102.457,170.086,102.523,170.043,102.586,169.998z M102.76,169.859
				c-0.027,0.024-0.059,0.048-0.09,0.071C102.701,169.907,102.732,169.884,102.76,169.859z M97.682,169.712
				c-0.018-0.02-0.031-0.041-0.048-0.061C97.65,169.671,97.664,169.692,97.682,169.712z M97.355,169.078
				c-0.004-0.023-0.004-0.047-0.006-0.07C97.352,169.031,97.352,169.055,97.355,169.078z M97.56,169.56
				c-0.015-0.022-0.026-0.045-0.04-0.066C97.533,169.515,97.545,169.537,97.56,169.56z M97.464,169.402
				c-0.011-0.022-0.019-0.046-0.028-0.068C97.445,169.356,97.453,169.38,97.464,169.402z M97.396,169.241
				c-0.008-0.022-0.012-0.046-0.018-0.068C97.385,169.195,97.389,169.219,97.396,169.241z"/>
		</g>
		<g>
			<g enable-background="new    ">
				<g>
					<path fill="#455A64" d="M106.357,114.207c-0.695,18.089-1.391,36.174-2.086,54.263c-0.008,0.188-0.036,0.377-0.088,0.563
						c-0.051,0.187-0.123,0.37-0.219,0.549c-0.097,0.181-0.215,0.354-0.356,0.522s-0.306,0.328-0.494,0.479
						c-0.413,0.33-0.897,0.58-1.419,0.748c-0.523,0.168-1.082,0.252-1.643,0.253c-0.562,0-1.121-0.084-1.646-0.25
						c-0.522-0.166-1.009-0.416-1.424-0.746c-0.191-0.151-0.359-0.313-0.504-0.484c-0.145-0.17-0.265-0.347-0.362-0.528
						c-0.097-0.183-0.171-0.369-0.222-0.559c-0.051-0.188-0.08-0.379-0.086-0.57c-0.593-18.091-1.186-36.183-1.779-54.273
						c0.004,0.116,0.041,0.233,0.11,0.35c0.07,0.116,0.173,0.232,0.311,0.345c0.138,0.113,0.31,0.223,0.517,0.329
						c0.209,0.105,0.452,0.208,0.73,0.303c0.605,0.207,1.32,0.364,2.091,0.471c0.774,0.105,1.603,0.16,2.432,0.161
						s1.655-0.051,2.427-0.156c0.769-0.104,1.478-0.259,2.078-0.465c0.272-0.094,0.51-0.192,0.713-0.297
						c0.203-0.104,0.371-0.211,0.506-0.321c0.135-0.111,0.236-0.225,0.305-0.339S106.354,114.322,106.357,114.207z"/>
				</g>
				<g>
					<path fill="#455A64" d="M104.381,112.736c0.605,0.18,1.074,0.39,1.402,0.615c0.334,0.229,0.523,0.476,0.566,0.724
						c0.043,0.253-0.066,0.509-0.332,0.751c-0.27,0.246-0.699,0.479-1.293,0.683c-0.601,0.206-1.31,0.361-2.078,0.465
						c-0.771,0.105-1.598,0.157-2.427,0.156s-1.657-0.056-2.432-0.161c-0.771-0.106-1.485-0.264-2.091-0.471
						c-0.6-0.205-1.035-0.439-1.311-0.687c-0.272-0.244-0.387-0.499-0.351-0.752c0.037-0.248,0.22-0.494,0.548-0.723
						c0.324-0.225,0.788-0.435,1.389-0.612c0.596-0.176,1.271-0.308,1.985-0.395c0.711-0.086,1.462-0.129,2.212-0.128
						s1.503,0.046,2.215,0.135C103.102,112.425,103.781,112.558,104.381,112.736z"/>
				</g>
			</g>
		</g>
	</g>
	<g>
		<g>
			<g>
				<g>
					<path fill="#8D6E63" d="M82.825,187.155c-0.026-0.418-0.052-0.837-0.078-1.256c0.007,0.104,0.029,0.207,0.067,0.31
						c0.039,0.102,0.093,0.203,0.165,0.302s0.16,0.193,0.265,0.285s0.227,0.18,0.366,0.263l0.07,1.269
						c-0.138-0.083-0.259-0.172-0.363-0.265c-0.104-0.092-0.191-0.189-0.262-0.289s-0.125-0.2-0.163-0.305
						C82.854,187.366,82.832,187.261,82.825,187.155z"/>
				</g>
				<g>
					<path fill="#8D6E63" d="M91.788,193.006l-0.015,1.328c-0.298-0.281-0.692-0.643-1.165-1.06
						c-0.466-0.409-1.008-0.869-1.61-1.353c-0.593-0.476-1.242-0.973-1.935-1.466c-0.682-0.487-1.405-0.97-2.159-1.426
						c-0.1-0.061-0.201-0.121-0.303-0.182c-0.101-0.059-0.203-0.118-0.305-0.177c-0.102-0.059-0.205-0.116-0.308-0.174
						c-0.103-0.057-0.206-0.114-0.309-0.171l-0.07-1.269c0.104,0.055,0.208,0.111,0.313,0.167c0.104,0.058,0.207,0.115,0.31,0.173
						c0.104,0.059,0.207,0.116,0.308,0.176c0.103,0.06,0.205,0.119,0.306,0.179c0.761,0.452,1.492,0.93,2.18,1.411
						c0.7,0.488,1.356,0.98,1.955,1.452c0.608,0.478,1.157,0.934,1.628,1.341C91.088,192.367,91.486,192.728,91.788,193.006z"/>
				</g>
				<g>
					<path fill="#8D6E63" d="M92.37,193.558l-0.021,1.334c-0.058-0.044-0.113-0.089-0.166-0.135
						c-0.052-0.045-0.103-0.091-0.151-0.138c-0.048-0.046-0.093-0.093-0.136-0.141c-0.044-0.047-0.084-0.096-0.123-0.145
						l0.015-1.328c0.039,0.049,0.08,0.097,0.124,0.144c0.044,0.047,0.09,0.094,0.138,0.14c0.049,0.046,0.1,0.092,0.153,0.137
						C92.256,193.471,92.312,193.515,92.37,193.558z"/>
				</g>
				<g>
					<path fill="#8D6E63" d="M92.445,193.611l-0.022,1.334c-0.003,0.002-0.008,0.002-0.012,0c-0.004-0.002-0.01-0.005-0.015-0.009
						c-0.006-0.005-0.013-0.012-0.021-0.02c-0.008-0.007-0.017-0.016-0.026-0.025l0.021-1.334c0.01,0.011,0.019,0.02,0.027,0.026
						c0.007,0.008,0.015,0.014,0.021,0.018c0.006,0.005,0.011,0.009,0.015,0.01C92.437,193.613,92.441,193.613,92.445,193.611z"/>
				</g>
				<g>
					<path fill="#8D6E63" d="M100.476,192.183c-0.036,0.44-0.073,0.88-0.11,1.321c-0.013,0.144-0.043,0.288-0.093,0.431
						c-0.051,0.143-0.12,0.283-0.208,0.42c-0.089,0.138-0.197,0.272-0.326,0.4c-0.129,0.129-0.278,0.252-0.447,0.369
						c-0.42,0.289-0.923,0.509-1.473,0.655c-0.553,0.146-1.151,0.221-1.756,0.221c-0.605,0.001-1.215-0.073-1.792-0.22
						c-0.575-0.146-1.114-0.365-1.582-0.654c-0.023-0.015-0.046-0.028-0.069-0.044c-0.023-0.015-0.045-0.029-0.067-0.045
						c-0.023-0.015-0.044-0.03-0.066-0.046c-0.021-0.015-0.042-0.031-0.064-0.046l0.022-1.334c0.021,0.015,0.043,0.031,0.065,0.046
						c0.021,0.015,0.044,0.03,0.066,0.045c0.022,0.016,0.045,0.03,0.068,0.045s0.046,0.029,0.07,0.043
						c0.473,0.287,1.019,0.504,1.6,0.649c0.584,0.146,1.201,0.218,1.813,0.218c0.612,0,1.217-0.072,1.775-0.219
						c0.557-0.146,1.066-0.362,1.49-0.649c0.17-0.116,0.32-0.237,0.451-0.366c0.13-0.127,0.24-0.26,0.329-0.396
						c0.09-0.135,0.159-0.274,0.21-0.416C100.433,192.47,100.463,192.326,100.476,192.183z"/>
				</g>
			</g>
			<path fill="#5D4037" d="M90.259,181.631l-0.026,0.015c-0.023-0.037-0.073-2.035-0.07-2.998c0,0.026-0.005,0.053-0.007,0.079
				c0.039-0.466-0.248-0.94-0.865-1.297c-1.156-0.667-3.023-0.668-4.172-0.001c-0.572,0.333-0.858,0.77-0.857,1.205
				c0-0.002,0-0.003,0-0.004v0.008c0,0.001,0,0.001,0,0.001s-0.279,2.133-0.234,3.478c0.045,1.345-1.122,3.162-1.122,3.162
				c-0.077,0.136-0.128,0.274-0.148,0.415l-0.001,0.007h0l0,0c-0.033,0.24,0.021,0.484,0.161,0.715
				c0.142,0.232,0.372,0.452,0.694,0.644c0.104,0.055,0.208,0.111,0.313,0.167c0.104,0.058,0.207,0.115,0.31,0.173
				c0.104,0.059,0.207,0.116,0.308,0.176c0.103,0.06,0.205,0.119,0.306,0.179c0.761,0.452,1.492,0.93,2.18,1.411
				c0.7,0.488,1.356,0.98,1.955,1.452c0.608,0.478,1.157,0.934,1.628,1.341c0.478,0.41,0.876,0.771,1.178,1.049
				c0.039,0.049,0.08,0.097,0.124,0.144c0.044,0.047,0.09,0.094,0.138,0.14c0.049,0.046,0.1,0.092,0.153,0.137
				c0.054,0.045,0.109,0.089,0.168,0.132c0.01,0.011,0.019,0.02,0.027,0.026c0.007,0.008,0.015,0.014,0.021,0.018
				c0.006,0.005,0.011,0.009,0.015,0.01c0.004,0.002,0.009,0.002,0.012,0c0.021,0.015,0.043,0.031,0.065,0.046
				c0.021,0.015,0.044,0.03,0.066,0.045c0.022,0.016,0.045,0.03,0.068,0.045s0.046,0.029,0.07,0.043
				c0.473,0.287,1.019,0.504,1.6,0.649c0.584,0.146,1.201,0.218,1.813,0.218c0.612,0,1.217-0.072,1.775-0.219
				c0.557-0.146,1.066-0.362,1.49-0.649c0.409-0.277,0.701-0.593,0.879-0.928c0.092-0.172,0.152-0.349,0.184-0.527
				c0.001-0.003,0.002-0.005,0.003-0.008c0.003-0.018,0.005-0.035,0.006-0.053c0.004-0.025,0.007-0.051,0.01-0.076
				c0.003-0.03,0.005-0.061,0.007-0.092c0-0.003,0-0.006,0-0.01C100.634,189.163,94.759,189.57,90.259,181.631z M84.701,179.529
				c0.017,0.016,0.032,0.032,0.049,0.048C84.733,179.562,84.718,179.545,84.701,179.529z M84.884,179.682
				c0.015,0.012,0.027,0.023,0.043,0.035C84.912,179.705,84.899,179.693,84.884,179.682z M89.89,179.356
				c0.019-0.024,0.04-0.048,0.058-0.073C89.93,179.309,89.909,179.332,89.89,179.356z M90.128,178.888
				c0.007-0.027,0.015-0.054,0.02-0.081C90.144,178.834,90.135,178.86,90.128,178.888z M89.996,179.204
				c0.015-0.025,0.032-0.051,0.045-0.076C90.028,179.153,90.011,179.179,89.996,179.204z M90.075,179.047
				c0.011-0.025,0.024-0.052,0.033-0.078C90.1,178.995,90.086,179.021,90.075,179.047z M89.827,179.435
				c-0.022,0.024-0.048,0.048-0.073,0.072C89.779,179.482,89.805,179.459,89.827,179.435z M89.506,179.718
				c-0.063,0.045-0.129,0.087-0.201,0.129C89.376,179.805,89.443,179.763,89.506,179.718z M89.68,179.58
				c-0.028,0.024-0.06,0.048-0.091,0.071C89.62,179.628,89.652,179.604,89.68,179.58z M84.601,179.432
				c-0.018-0.02-0.032-0.04-0.048-0.06C84.569,179.392,84.583,179.412,84.601,179.432z M84.274,178.798
				c-0.004-0.023-0.004-0.047-0.006-0.07C84.271,178.751,84.271,178.774,84.274,178.798z M84.479,179.279
				c-0.015-0.022-0.026-0.045-0.04-0.066C84.452,179.234,84.463,179.257,84.479,179.279z M84.384,179.122
				c-0.012-0.022-0.02-0.046-0.029-0.068C84.364,179.076,84.372,179.1,84.384,179.122z M84.315,178.961
				c-0.008-0.022-0.012-0.046-0.018-0.069C84.304,178.915,84.308,178.938,84.315,178.961z"/>
		</g>
		<g>
			<g enable-background="new    ">
				<g>
					<path fill="#455A64" d="M93.277,123.927c-0.695,18.088-1.392,36.174-2.086,54.263c-0.007,0.188-0.036,0.377-0.087,0.563
						c-0.051,0.187-0.124,0.37-0.22,0.55c-0.096,0.18-0.214,0.354-0.356,0.521s-0.306,0.328-0.494,0.479
						c-0.413,0.331-0.897,0.58-1.418,0.747c-0.523,0.169-1.083,0.253-1.644,0.253c-0.561,0.001-1.121-0.082-1.646-0.249
						c-0.523-0.166-1.009-0.415-1.424-0.745c-0.192-0.152-0.359-0.314-0.503-0.485c-0.144-0.169-0.265-0.347-0.362-0.528
						s-0.171-0.368-0.223-0.558s-0.08-0.38-0.086-0.571c-0.593-18.091-1.186-36.182-1.779-54.272c0.004,0.116,0.041,0.233,0.11,0.35
						c0.07,0.116,0.173,0.231,0.311,0.344c0.138,0.113,0.311,0.224,0.518,0.329c0.208,0.105,0.451,0.207,0.729,0.303
						c0.606,0.207,1.32,0.365,2.09,0.471c0.775,0.105,1.603,0.16,2.432,0.161c0.83,0.001,1.656-0.052,2.428-0.155
						c0.768-0.104,1.477-0.26,2.077-0.465c0.272-0.094,0.51-0.193,0.713-0.298c0.203-0.103,0.372-0.211,0.506-0.322
						c0.135-0.109,0.236-0.223,0.304-0.339C93.236,124.157,93.272,124.042,93.277,123.927z"/>
				</g>
				<g>
					<path fill="#455A64" d="M91.299,122.456c0.605,0.18,1.075,0.39,1.403,0.616c0.333,0.229,0.523,0.474,0.565,0.724
						c0.043,0.252-0.065,0.507-0.331,0.751c-0.269,0.245-0.699,0.479-1.293,0.683c-0.601,0.205-1.31,0.36-2.077,0.465
						c-0.771,0.104-1.598,0.156-2.428,0.155c-0.829-0.001-1.657-0.056-2.432-0.161c-0.771-0.105-1.484-0.264-2.09-0.471
						c-0.6-0.205-1.036-0.439-1.311-0.687c-0.272-0.243-0.387-0.499-0.351-0.752c0.036-0.248,0.22-0.493,0.547-0.723
						c0.324-0.225,0.788-0.434,1.389-0.612c0.595-0.177,1.271-0.307,1.985-0.395c0.711-0.086,1.462-0.128,2.213-0.127
						c0.75,0.001,1.502,0.046,2.215,0.134C90.021,122.145,90.7,122.278,91.299,122.456z"/>
				</g>
			</g>
		</g>
	</g>
	<g>
		<g enable-background="new    ">
			<g>
				<path fill="#7CB342" d="M110.857,39.109c-1.338,5.471-2.674,10.941-4.01,16.412c-0.15,0.611-0.566,1.164-1.25,1.562
					c-1.725,1.001-4.486,0.642-6.17-0.802c-1.016-0.869-1.406-1.937-1.18-2.865l4.01-16.412c-0.227,0.929,0.164,1.995,1.18,2.866
					c1.684,1.444,4.445,1.803,6.168,0.802C110.291,40.273,110.707,39.722,110.857,39.109z"/>
			</g>
			<g>
				<path fill="#7CB342" d="M109.678,36.243c1.684,1.444,1.652,3.427-0.072,4.428c-1.723,1.001-4.484,0.642-6.168-0.802
					s-1.652-3.426,0.071-4.427C105.231,34.441,107.994,34.8,109.678,36.243z"/>
			</g>
		</g>
	</g>
	<g>
		<g enable-background="new    ">
			<g>
				<path fill="#455A64" d="M106.496,101.485c-0.012,4.009-0.023,8.018-0.035,12.026c-0.004,2.114-2.76,5.181-7.427,7.894
					c-6.388,3.712-13.939,5.353-16.865,3.663c-0.789-0.455-1.161-1.105-1.159-1.887c0.011-4.009,0.023-8.017,0.034-12.025
					c-0.002,0.78,0.37,1.432,1.159,1.887c2.926,1.688,10.478,0.049,16.865-3.663C103.734,106.668,106.49,103.6,106.496,101.485z"/>
			</g>
			<g>
				<path fill="#455A64" d="M105.338,99.599c2.926,1.689,0.119,6.068-6.27,9.781c-6.388,3.712-13.939,5.352-16.865,3.663
					c-2.927-1.689-0.119-6.069,6.269-9.781C94.861,99.549,102.41,97.908,105.338,99.599z"/>
			</g>
		</g>
	</g>
	<g>
		<g enable-background="new    ">
			<g>
				<path fill="#7CB342" d="M106.496,63.805c-0.012,4.009-0.023,8.018-0.035,12.026c-0.004,2.115-2.76,5.182-7.427,7.894
					c-6.388,3.713-13.939,5.354-16.865,3.664c-0.789-0.455-1.161-1.105-1.159-1.887c0.011-4.01,0.023-8.018,0.034-12.025
					c-0.002,0.779,0.37,1.432,1.159,1.886c2.926,1.689,10.478,0.05,16.865-3.663C103.734,68.987,106.49,65.92,106.496,63.805z"/>
			</g>
			<g>
				<path fill="#7CB342" d="M105.338,61.919c2.926,1.688,0.119,6.068-6.27,9.78c-6.388,3.713-13.939,5.353-16.865,3.663
					c-2.927-1.689-0.119-6.068,6.269-9.78C94.861,61.869,102.41,60.229,105.338,61.919z"/>
			</g>
		</g>
	</g>
	<path fill="#7CB342" d="M106.496,76.16c0-0.779-0.369-1.431-1.158-1.887c-0.998-0.575-2.53-0.764-4.371-0.617
		c3.484-2.377,5.49-4.874,5.496-6.678c0.012-4.007,0.021-8.016,0.033-12.024c0-0.78-0.369-1.432-1.158-1.888
		c-1.697-0.979-4.943-0.839-8.619,0.174c-2.667,0.734-5.56,1.93-8.247,3.489c-0.981,0.572-1.997,1.299-2.98,2.12
		c-3.139,2.621-5.967,6.21-6.388,8.766c-0.554,3.357-0.026,21.873-0.026,21.873c-0.003,0.66,0.433,1.319,1.306,1.822
		c0.201,0.117,0.417,0.219,0.644,0.307c-0.006,2.08-0.013,4.16-0.019,6.24c0,0.18,0.022,0.354,0.063,0.52
		c-0.02,0.139-0.026,0.271-0.026,0.4c-0.001-0.014-0.001-0.025-0.001-0.038c-0.011,4.009-0.024,8.018-0.035,12.027
		c-0.001,0.779,0.371,1.431,1.16,1.886c2.924,1.689,10.478,0.048,16.866-3.664c4.665-2.711,7.422-5.779,7.428-7.895
		c0.012-4.006,0.021-8.016,0.033-12.025c0,0.023-0.002,0.045-0.002,0.066c0.006-0.205-0.014-0.398-0.061-0.582
		c0.02-0.125,0.027-0.247,0.029-0.367C106.475,84.179,106.484,80.169,106.496,76.16z"/>
	<path fill="#FFAB91" d="M87.56,67.416c0,0-4.96,13.76-6.766,18.713c-1.022,1.024-1.534,2.522-1.238,4.051
		c0.475,2.449,2.846,4.051,5.295,3.576c2.261-0.438,3.798-2.49,3.647-4.73c-0.031-0.469,0.333-1.195,0.46-1.653
		c0.163-0.586,0.326-1.173,0.489-1.759c0.324-1.166,0.648-2.33,0.973-3.495c0.652-2.339,1.006-11.176,1.14-11.642
		c0.099-0.344,1.113-0.575,1.415-0.838c0.913-0.801,1.378-1.971,1.144-3.182c-0.349-1.8-2.09-2.977-3.89-2.628
		C88.532,64.158,87.391,65.728,87.56,67.416z"/>
	<path fill="#FFAB91" d="M95.019,61.934c-2.882,2.008-6.782,1.395-8.708-1.373c-0.373-0.535-0.646-1.113-0.819-1.711
		c0.983-0.821,1.999-1.548,2.98-2.12c2.687-1.56,5.58-2.755,8.247-3.489c0.012,0.018,0.023,0.033,0.035,0.05
		C98.68,56.057,97.902,59.926,95.019,61.934z"/>
	<path fill="#FFAB91" d="M111.209,13.029c0,0-8.299,21.235-8.004,22.764c0.475,2.45,2.846,4.051,5.295,3.577
		c2.262-0.438,3.799-2.491,3.648-4.731c-0.031-0.47,0.785-2.826,0.949-3.412c0.324-1.165,0.648-2.33,0.973-3.494
		c0.652-2.339,1.008-11.177,1.141-11.642c0.1-0.345,1.113-0.575,1.416-0.839c0.912-0.8,1.377-1.97,1.143-3.181
		c-0.348-1.8-2.09-2.977-3.891-2.628C112.18,9.771,111.039,11.341,111.209,13.029z"/>
	<g>
		<g>
			<g enable-background="new    ">
				<g>
					<polygon fill="#A09A9A" points="110.549,7.021 121.148,17.68 119.609,23.492 109.01,12.832 					"/>
				</g>
				<g>
					<polygon fill="#706B6B" points="109.01,12.832 119.609,23.492 113.771,25.056 103.173,14.397 					"/>
				</g>
				<g>
					<polygon fill="#B3ABAB" points="110.549,7.021 109.01,12.832 103.173,14.397 104.713,8.584 					"/>
				</g>
			</g>
		</g>
		<circle fill="#EFC100" cx="104.272" cy="8.149" r="4.149"/>
	</g>
	<g>
		<path fill="#FFAB91" d="M84.64,51.51c0.485,1.312,2.952,4.803,2.855,5.332c-0.098,0.529,4.795,2.455,7.085,1.608
			c3.295-1.219,4.678-5.692,3.088-9.99c-1.59-4.298-5.55-6.795-8.846-5.575C85.527,44.104,83.049,47.211,84.64,51.51z"/>
		<path fill="#FDD835" d="M90.704,37.076c-2.231,0.826-3.732,2.755-4.117,4.941c-0.446,0.261-0.833,0.594-1.153,0.978
			c-0.56-0.065-1.142-0.007-1.706,0.202c-1.911,0.707-2.887,2.829-2.18,4.738c0.619,1.675,4.251,5.113,5.255,7.298
			c1.004,2.185,1.802-3.103,1.821-4.644c0.02-1.542,2.493-0.947,2.815-1.182c1.201,0.289,2.498,0.238,3.744-0.224
			c3.343-1.236,5.051-4.949,3.814-8.292C97.76,37.547,94.047,35.839,90.704,37.076z"/>
	</g>
</g>
</svg>
