<?xml version="1.0" encoding="utf-8"?>
<!-- Generator: Adobe Illustrator 15.0.0, SVG Export Plug-In . SVG Version: 6.00 Build 0)  -->
<!DOCTYPE svg PUBLIC "-//W3C//DTD SVG 1.1//EN" "http://www.w3.org/Graphics/SVG/1.1/DTD/svg11.dtd">
<svg version="1.1" id="圖層_1" xmlns="http://www.w3.org/2000/svg" xmlns:xlink="http://www.w3.org/1999/xlink" x="0px" y="0px"
	 width="200px" height="200px" viewBox="0 0 200 200" enable-background="new 0 0 200 200" xml:space="preserve">
<path fill="#DFE9E9" d="M172,100c0,38.37-30.02,69.73-67.85,71.88c-1.371,0.08-2.762,0.12-4.15,0.12c-0.471,0-0.939,0-1.41-0.02
	c-0.58,0-1.15-0.021-1.72-0.051c-0.83-0.029-1.66-0.08-2.479-0.15C57.25,168.92,28,137.87,28,100c0-23.29,11.07-44.01,28.23-57.16
	c3.959-3.05,8.25-5.68,12.799-7.85c1.98-0.95,4.011-1.81,6.091-2.57c2.319-0.86,4.69-1.6,7.12-2.21c0.369-0.1,0.74-0.19,1.119-0.28
	c0.721-0.17,1.44-0.33,2.16-0.48c1.78-0.36,3.58-0.65,5.4-0.88c1.29-0.17,2.6-0.29,3.91-0.38C96.54,28.06,98.26,28,100,28
	C139.76,28,172,60.24,172,100z"/>
<line fill="none" x1="-351.087" y1="284.531" x2="-351.087" y2="284.16"/>
<g>
	<g>
		<path fill="#FFAB91" d="M118.863,58.425c0,2.651-2.09,10.476-1.568,11.354c0.52,0.876-6.908,7.516-11.535,7.516
			c-6.657,0-12.054-7.04-12.054-15.724c0-8.685,5.396-15.724,12.054-15.724C112.418,45.846,118.863,49.741,118.863,58.425z"/>
		<path fill="#FDD835" d="M117.457,51.79c-0.182-4.278-3.705-7.691-8.027-7.691c-0.718,0-1.41,0.095-2.07,0.271
			c-1.377-2.455-4.002-4.114-7.015-4.114c-4.438,0-8.036,3.598-8.036,8.036c0,3.944,2.841,7.223,6.588,7.904
			c0.104,0.044,0.235,0.088,0.4,0.133c3.843,1.048,4.543,9.084,4.543,9.084s1.747-2.917,4.892,0
			c0.024-0.028,0.045-0.062,0.067-0.091c1.206,0.723,2.617,1.139,4.125,1.139c4.438,0,8.037-3.598,8.037-8.037
			C120.96,55.669,119.57,53.237,117.457,51.79z"/>
		<g>
			<g enable-background="new    ">
				<g>
					<polygon fill="#889398" points="99.023,85.824 99.018,87.532 69.465,104.707 69.47,102.998 					"/>
				</g>
				<g>
					<polygon fill="#5E666A" points="69.47,102.998 69.465,104.707 47.155,91.827 47.16,90.118 					"/>
				</g>
				<g>
					<polygon fill="#98A4AA" points="99.023,85.824 69.47,102.998 47.16,90.118 76.713,72.943 					"/>
				</g>
			</g>
		</g>
		<g>
			<g enable-background="new    ">
				<g>
					<polygon fill="#5E6669" points="47.111,90.042 45.633,89.184 45.561,63.548 47.038,64.407 					"/>
				</g>
				<g>
					<polygon fill="#97A3AA" points="47.038,64.407 45.561,63.548 75.308,46.374 76.785,47.232 					"/>
				</g>
				<g>
					<g>
						<polygon fill="#80DEEA" points="48.088,65.011 75.742,49.045 75.808,72.263 48.153,88.229 						"/>
						<path fill="#37474F" d="M74.699,50.857l0.059,20.802L49.197,86.417l-0.059-20.802L74.699,50.857 M76.785,47.232L47.038,64.407
							l0.073,25.635l29.748-17.175L76.785,47.232L76.785,47.232z"/>
					</g>
				</g>
			</g>
		</g>
		<path fill="#FFAB91" d="M73.975,96.407c-0.033-0.242-0.108-0.449-0.226-0.605c-0.088-0.119-0.2-0.208-0.336-0.264
			c0.004,0.001,0.008,0.002,0.013,0.004c0.016,0.007,0.033,0.016,0.049,0.023c-0.992-0.516-1.982-1.031-2.974-1.547
			c0.136-0.566-0.207-1.467-0.921-2.265c-0.901-1.006-2.04-1.457-2.543-1.006c-0.103,0.091-0.162,0.22-0.198,0.364
			c-0.186-0.065-0.375-0.126-0.571-0.175c-2.434-0.608-4.767,0.341-5.211,2.119c-0.444,1.779,1.168,3.714,3.603,4.321
			c0.73,0.184,1.45,0.223,2.114,0.144c0.009,0.018,0.015,0.039,0.024,0.055c0.089,0.156,0.205,0.281,0.345,0.373l3.598,2.32
			c-0.004-0.002-0.006-0.007-0.01-0.009c0.126,0.083,0.275,0.133,0.448,0.137c0.076,0.002,0.153-0.004,0.233-0.019
			c0.079-0.013,0.159-0.035,0.239-0.064c0.081-0.028,0.162-0.063,0.243-0.106c0.081-0.042,0.163-0.09,0.244-0.144
			c0.148-0.099,0.295-0.217,0.438-0.353c0.143-0.134,0.281-0.285,0.411-0.448c0.13-0.163,0.254-0.342,0.367-0.531
			c0.113-0.188,0.217-0.387,0.306-0.594c0.14-0.322,0.234-0.634,0.286-0.925C73.998,96.918,74.007,96.646,73.975,96.407z
			 M70.302,98.881c-0.01,0.098-0.015,0.19-0.015,0.281C70.287,99.071,70.292,98.979,70.302,98.881z M70.452,98.175
			c-0.008,0.025-0.017,0.05-0.023,0.076C70.435,98.225,70.443,98.2,70.452,98.175z M70.341,98.602
			c-0.004,0.021-0.007,0.042-0.011,0.065c0.003-0.016,0.003-0.029,0.006-0.044C70.337,98.616,70.34,98.608,70.341,98.602z
			 M70.288,99.288c0.005,0.112,0.019,0.217,0.041,0.315c-0.018-0.082-0.034-0.167-0.041-0.258
			C70.286,99.326,70.289,99.305,70.288,99.288z M70.418,99.876c0.007,0.014,0.014,0.03,0.021,0.042
			c-0.003-0.005-0.007-0.009-0.01-0.014C70.424,99.896,70.423,99.885,70.418,99.876z M70.335,99.641
			c0.002,0.007,0.005,0.013,0.006,0.021C70.34,99.654,70.337,99.648,70.335,99.641z M70.555,100.1
			c0.009,0.011,0.019,0.02,0.028,0.03C70.574,100.119,70.564,100.11,70.555,100.1z M73.263,95.489
			c0.019,0.005,0.038,0.009,0.056,0.014c0.019,0.005,0.037,0.011,0.055,0.018c0.01,0.003,0.019,0.007,0.028,0.011
			C73.357,95.514,73.312,95.5,73.263,95.489z"/>
		<path fill="#FFAB91" d="M93.193,83.828c-0.033-0.242-0.109-0.448-0.226-0.606c-0.088-0.119-0.2-0.208-0.336-0.265
			c0.004,0.002,0.009,0.003,0.013,0.006c0.017,0.006,0.033,0.014,0.048,0.023c-1.266-0.658-2.532-1.316-3.798-1.975
			c-0.017-0.009-0.035-0.017-0.053-0.025c-0.018-0.008-0.037-0.016-0.056-0.022c-0.009-0.003-0.019-0.007-0.028-0.01
			c-0.194-1.106-0.9-2.268-2.025-3.145c-1.978-1.543-4.495-1.624-5.623-0.178c-1.128,1.445-0.439,3.868,1.539,5.411
			c0.023,0.019,0.046,0.033,0.069,0.05c-0.281,0.131-0.471,0.317-0.526,0.554c-0.153,0.658,0.79,1.44,2.105,1.746
			c0.792,0.185,1.537,0.154,2.039-0.043c0.009,0.006,0.017,0.016,0.026,0.021l3.598,2.32c-0.004-0.002-0.007-0.006-0.01-0.009
			c0.125,0.083,0.274,0.133,0.447,0.139c0.077,0.001,0.154-0.005,0.233-0.02c0.079-0.014,0.159-0.035,0.239-0.063
			c0.081-0.029,0.162-0.065,0.243-0.106c0.082-0.042,0.163-0.09,0.244-0.144c0.147-0.099,0.295-0.218,0.437-0.352
			c0.143-0.135,0.281-0.286,0.411-0.451c0.132-0.163,0.255-0.34,0.368-0.528c0.113-0.188,0.216-0.388,0.305-0.596
			c0.14-0.322,0.234-0.634,0.287-0.925C93.216,84.338,93.225,84.066,93.193,83.828z M89.52,86.302
			c-0.01,0.098-0.015,0.191-0.015,0.281C89.505,86.493,89.51,86.399,89.52,86.302z M89.669,85.595
			c-0.007,0.024-0.016,0.05-0.023,0.076C89.654,85.646,89.661,85.619,89.669,85.595z M89.559,86.022
			c-0.005,0.022-0.007,0.044-0.011,0.065c0.002-0.014,0.002-0.029,0.005-0.043C89.555,86.037,89.558,86.029,89.559,86.022z
			 M89.506,86.708c0.005,0.112,0.019,0.218,0.041,0.315c-0.019-0.083-0.034-0.167-0.041-0.259
			C89.504,86.747,89.506,86.727,89.506,86.708z M89.637,87.297c0.006,0.015,0.013,0.03,0.02,0.044
			c-0.002-0.005-0.006-0.009-0.009-0.014C89.643,87.318,89.641,87.306,89.637,87.297z M89.553,87.062
			c0.002,0.007,0.005,0.013,0.006,0.02C89.558,87.075,89.555,87.069,89.553,87.062z M89.773,87.52
			c0.009,0.011,0.019,0.021,0.027,0.03C89.792,87.54,89.782,87.531,89.773,87.52z M92.481,82.91
			c0.019,0.004,0.038,0.009,0.056,0.014c0.018,0.005,0.036,0.011,0.054,0.017c0.01,0.003,0.02,0.008,0.03,0.012
			C92.575,82.936,92.53,82.921,92.481,82.91z"/>
		<g>
			<g enable-background="new    ">
				<g>
					<path fill="#26C6DA" d="M99.72,169.605c0,2.793-1.931,5.139-4.527,5.77c-0.035,0.007-0.074,0.018-0.109,0.025
						c-0.303,0.068-0.62,0.113-0.94,0.136c-0.104,0.008-0.213,0.011-0.321,0.011c-1.091-0.008-2.107-0.309-2.981-0.824
						c-0.231-0.16-0.461-0.318-0.692-0.479c-0.133-0.092-0.262-0.184-0.396-0.271c-0.883-0.613-1.768-1.222-2.651-1.832
						c-2.976-2.057-5.952-4.113-8.927-6.168c-1.479-1.021-2.954-2.045-4.434-3.063c-0.837-0.574-2.702-2.021-0.954-3.77
						c1.747-1.746,4.289-1.922,6.402-0.875c2.058,1.019,4.099,2.067,6.151,3.098c0.495,0.248,0.988,0.498,1.483,0.744
						c0.168-0.768,0.758-1.508,1.774-2.099c2.45-1.423,6.433-1.423,8.896,0c1.24,0.716,1.86,1.655,1.855,2.593l-0.01,4.905
						C99.583,168.16,99.72,168.869,99.72,169.605z"/>
				</g>
			</g>
		</g>
		<path fill="#455A64" d="M130.087,128.854c0.005,0.004,0.011,0.004,0.017,0.008c-0.033-0.018-0.061-0.03-0.088-0.049L97.82,110.102
			c-0.476-0.354-0.989-0.654-1.538-0.896c-1.044-0.472-2.201-0.729-3.42-0.729c-0.779,0-1.535,0.104-2.251,0.308
			c-0.279,0.075-0.555,0.168-0.82,0.276c-3.11,1.223-5.315,4.254-5.315,7.801c0,0.351,0.021,0.693,0.066,1.027
			c-0.045,0.356-0.066,0.707-0.066,1.053c0.002,0.451,0.044,0.869,0.118,1.252l-0.116,40.912c-0.003,1.25,0.822,2.504,2.475,3.459
			c3.286,1.896,8.594,1.897,11.858,0c1.622-0.941,2.435-2.176,2.438-3.41c0.026-9.871,0.056-19.74,0.084-29.61
			c6.761,3.929,13.521,7.856,20.278,11.784c-0.008-0.006-0.014-0.012-0.021-0.018c1.088,0.687,2.622,0.621,4.319-0.359
			c3.286-1.896,5.94-6.496,5.93-10.271C131.833,130.793,131.165,129.469,130.087,128.854z M129.828,128.723
			c-0.047-0.02-0.094-0.039-0.139-0.057c0.02,0.007,0.043,0.012,0.063,0.02C129.777,128.697,129.803,128.712,129.828,128.723z
			 M129.381,128.566c-0.058-0.016-0.113-0.029-0.173-0.041c0.043,0.009,0.085,0.018,0.129,0.027
			C129.354,128.559,129.365,128.563,129.381,128.566z M128.757,128.466c0.056,0.005,0.112,0.011,0.168,0.015
			c0.046,0.004,0.091,0.01,0.136,0.021c0.039,0.005,0.074,0.011,0.112,0.019c0.009,0.002,0.015,0.004,0.022,0.006
			c-0.223-0.045-0.456-0.064-0.698-0.062c0.017,0,0.034-0.005,0.05-0.005C128.617,128.458,128.689,128.463,128.757,128.466z
			 M127.527,128.592c-0.028,0.006-0.055,0.014-0.084,0.021c0.021-0.006,0.041-0.014,0.063-0.018
			C127.514,128.594,127.52,128.594,127.527,128.592z M128.082,128.49c-0.025,0.002-0.055,0.007-0.081,0.01
			C128.027,128.497,128.057,128.493,128.082,128.49z M127.314,128.646c-0.049,0.014-0.099,0.029-0.147,0.045
			c0.032-0.008,0.063-0.021,0.095-0.029C127.279,128.656,127.298,128.65,127.314,128.646z M127.008,128.746
			c-0.058,0.021-0.115,0.042-0.174,0.064C126.893,128.788,126.95,128.768,127.008,128.746z M126.689,128.869
			c-0.058,0.023-0.112,0.049-0.168,0.074C126.577,128.918,126.633,128.895,126.689,128.869z M126.326,129.035
			c-0.04,0.02-0.082,0.039-0.123,0.061C126.244,129.074,126.286,129.055,126.326,129.035z M85.403,122.172
			c0.053,0.064,0.1,0.133,0.158,0.195C85.503,122.305,85.456,122.236,85.403,122.172z M84.613,120.34
			c0.006,0.076,0.007,0.153,0.02,0.229C84.62,120.493,84.619,120.416,84.613,120.34z M84.693,120.811
			c0.019,0.072,0.032,0.147,0.057,0.224C84.725,120.958,84.711,120.883,84.693,120.811z M84.85,121.27
			c0.032,0.074,0.056,0.147,0.094,0.221C84.906,121.417,84.881,121.344,84.85,121.27z M85.085,121.725
			c0.043,0.07,0.08,0.143,0.128,0.211C85.165,121.865,85.128,121.795,85.085,121.725z M85.987,122.783
			c-0.065-0.059-0.119-0.117-0.18-0.176C85.868,122.666,85.921,122.727,85.987,122.783z M86.316,123.041
			c0.059,0.045,0.111,0.092,0.173,0.137C86.427,123.133,86.375,123.087,86.316,123.041z M120.191,141.355
			c-0.002-0.008-0.004-0.016-0.006-0.022C120.188,141.341,120.189,141.35,120.191,141.355z M120.098,141.002
			c-0.002-0.006-0.002-0.012-0.004-0.016C120.096,140.99,120.096,140.996,120.098,141.002z M120.361,141.816
			c0.013,0.031,0.025,0.063,0.039,0.093c-0.002-0.007-0.006-0.013-0.01-0.019C120.382,141.865,120.371,141.841,120.361,141.816z
			 M120.451,142.012c0.007,0.014,0.013,0.025,0.02,0.039c-0.003-0.007-0.007-0.011-0.009-0.018
			C120.458,142.025,120.454,142.02,120.451,142.012z M120.382,136.684c0.767-2.604,2.468-5.181,4.527-6.754
			C122.852,131.503,121.148,134.081,120.382,136.684z"/>
		<g>
			<g enable-background="new    ">
				<g>
					<path fill="#26C6DA" d="M83.973,182.518c0,2.793-1.932,5.137-4.529,5.771c-0.035,0.007-0.073,0.019-0.108,0.022
						c-0.304,0.07-0.619,0.117-0.94,0.137c-0.105,0.009-0.213,0.012-0.321,0.012c-1.09-0.008-2.107-0.309-2.981-0.824
						c-0.23-0.16-0.461-0.318-0.691-0.48c-0.133-0.09-0.262-0.182-0.396-0.27c-0.884-0.613-1.768-1.221-2.652-1.832
						c-2.975-2.056-5.952-4.111-8.927-6.168c-1.478-1.021-2.954-2.046-4.435-3.063c-0.836-0.573-2.701-2.021-0.954-3.768
						c1.748-1.748,4.289-1.924,6.403-0.877c2.058,1.018,4.099,2.068,6.15,3.098c0.494,0.248,0.989,0.498,1.483,0.746
						c0.167-0.771,0.758-1.51,1.775-2.102c2.449-1.422,6.433-1.422,8.896,0c1.241,0.717,1.859,1.657,1.855,2.594l-0.01,4.905
						C83.836,181.07,83.973,181.779,83.973,182.518z"/>
				</g>
			</g>
		</g>
		<g>
			<g enable-background="new    ">
				<g>
					<path fill="#FFCA28" d="M79.336,188.311c-0.304,0.07-0.619,0.117-0.94,0.137c0.349-0.014,0.691-0.059,1.021-0.137
						c0.01-0.006,0.017-0.017,0.027-0.022C79.409,188.294,79.371,188.305,79.336,188.311z"/>
				</g>
			</g>
		</g>
		<path fill="#FFCA28" d="M78.075,188.458h-0.042c-1.104,0-2.135-0.302-3.019-0.825c-0.242-0.143-0.476-0.305-0.692-0.479
			c-0.108-0.088-0.213-0.18-0.315-0.271c0.134,0.09,0.262,0.182,0.396,0.271c0.23,0.16,0.461,0.318,0.691,0.479
			C75.967,188.15,76.984,188.45,78.075,188.458z"/>
		<path fill="#546E7A" d="M114.34,141.764c0.004,0.004,0.01,0.006,0.016,0.008c-0.03-0.017-0.061-0.029-0.088-0.047l-32.196-18.713
			c-0.475-0.354-0.989-0.652-1.538-0.895c-1.044-0.473-2.201-0.73-3.421-0.73c-0.779,0-1.534,0.104-2.25,0.309
			c-0.28,0.076-0.555,0.168-0.821,0.275c-3.109,1.223-5.314,4.256-5.314,7.803c0,0.351,0.021,0.691,0.066,1.027
			c-0.046,0.355-0.066,0.705-0.066,1.051c0.002,0.453,0.043,0.869,0.117,1.254l-0.116,40.912c-0.003,1.25,0.822,2.504,2.475,3.457
			c3.286,1.897,8.594,1.898,11.859,0.002c1.622-0.942,2.434-2.177,2.437-3.412c0.028-9.869,0.056-19.74,0.084-29.609
			c6.76,3.928,13.52,7.855,20.279,11.783c-0.008-0.006-0.014-0.012-0.021-0.016c1.088,0.686,2.621,0.621,4.319-0.361
			c3.286-1.896,5.94-6.496,5.931-10.271C116.086,143.704,115.417,142.38,114.34,141.764z M114.08,141.635
			c-0.045-0.021-0.092-0.039-0.139-0.059c0.02,0.009,0.043,0.013,0.063,0.021C114.031,141.609,114.055,141.623,114.08,141.635z
			 M113.633,141.479c-0.057-0.015-0.113-0.029-0.172-0.041c0.042,0.008,0.085,0.017,0.128,0.026
			C113.604,141.469,113.617,141.475,113.633,141.479z M113.009,141.377c0.058,0.004,0.112,0.01,0.168,0.014
			c0.046,0.004,0.093,0.012,0.138,0.021c0.037,0.004,0.072,0.01,0.111,0.018c0.008,0.002,0.016,0.004,0.022,0.006
			c-0.224-0.045-0.456-0.063-0.697-0.062c0.015-0.001,0.032-0.003,0.049-0.003C112.869,141.371,112.943,141.374,113.009,141.377z
			 M111.779,141.502c-0.027,0.008-0.055,0.014-0.084,0.021c0.021-0.006,0.043-0.015,0.063-0.018
			C111.768,141.505,111.773,141.504,111.779,141.502z M112.334,141.4c-0.025,0.004-0.055,0.008-0.08,0.011
			C112.279,141.406,112.309,141.404,112.334,141.4z M111.566,141.559c-0.049,0.014-0.098,0.029-0.146,0.047
			c0.031-0.01,0.063-0.022,0.096-0.033C111.532,141.566,111.55,141.564,111.566,141.559z M111.262,141.656
			c-0.059,0.021-0.117,0.043-0.176,0.066C111.145,141.699,111.203,141.678,111.262,141.656z M110.941,141.781
			c-0.055,0.023-0.112,0.047-0.168,0.072C110.829,141.828,110.887,141.805,110.941,141.781z M110.579,141.945
			c-0.041,0.021-0.082,0.039-0.123,0.062C110.497,141.984,110.538,141.967,110.579,141.945z M69.656,135.082
			c0.054,0.066,0.1,0.133,0.159,0.195C69.756,135.215,69.709,135.148,69.656,135.082z M68.865,133.252
			c0.007,0.075,0.008,0.15,0.021,0.229C68.873,133.402,68.872,133.327,68.865,133.252z M68.945,133.721
			c0.02,0.074,0.032,0.149,0.057,0.223C68.977,133.87,68.964,133.795,68.945,133.721z M69.103,134.184
			c0.031,0.071,0.056,0.146,0.093,0.217C69.159,134.328,69.134,134.255,69.103,134.184z M69.338,134.637
			c0.042,0.069,0.08,0.141,0.128,0.209C69.418,134.775,69.381,134.706,69.338,134.637z M70.24,135.693
			c-0.066-0.057-0.12-0.117-0.18-0.174C70.12,135.576,70.174,135.637,70.24,135.693z M70.568,135.953
			c0.059,0.045,0.111,0.092,0.173,0.135C70.679,136.045,70.627,135.998,70.568,135.953z M104.445,154.268
			c-0.004-0.008-0.006-0.016-0.008-0.022C104.439,154.252,104.441,154.26,104.445,154.268z M104.352,153.914
			c-0.002-0.006-0.004-0.012-0.004-0.018C104.348,153.902,104.35,153.908,104.352,153.914z M104.613,154.729
			c0.014,0.031,0.025,0.063,0.041,0.094c-0.004-0.008-0.008-0.014-0.01-0.02C104.634,154.777,104.624,154.752,104.613,154.729z
			 M104.703,154.922c0.007,0.014,0.014,0.025,0.021,0.04c-0.004-0.007-0.009-0.011-0.012-0.017
			C104.711,154.938,104.708,154.93,104.703,154.922z M104.634,149.594c0.769-2.602,2.468-5.179,4.527-6.753
			C107.104,144.415,105.402,146.992,104.634,149.594z"/>
		<g>
			<g enable-background="new    ">
				<g>
					<path fill="#546E7A" d="M133.911,129.607l-0.04,14.242c-0.008,2.754-2.62,6.098-7.389,8.869
						c-7.412,4.307-17.229,5.602-21.924,2.893c-1.675-0.967-2.472-2.314-2.468-3.842l0.039-14.242
						c-0.003,1.527,0.794,2.875,2.47,3.842c4.692,2.71,14.51,1.414,21.922-2.893C131.29,135.706,133.904,132.361,133.911,129.607z"
						/>
				</g>
				<g>
					<path fill="#546E7A" d="M131.445,125.77c4.693,2.709,2.488,8.4-4.924,12.707c-7.412,4.308-17.229,5.604-21.922,2.894
						c-4.697-2.711-2.49-8.399,4.92-12.709C116.932,124.354,126.75,123.059,131.445,125.77z"/>
				</g>
			</g>
		</g>
		<g>
			<g enable-background="new    ">
				<g>
					<path fill="#689F38" d="M91.983,81.965l22.136,10.81c-0.012-0.007-0.023-0.011-0.036-0.017
						c-0.013-0.004-0.024-0.009-0.037-0.012s-0.026-0.005-0.04-0.009c-0.014-0.002-0.027-0.003-0.042-0.005
						c-0.077-0.006-0.164,0.002-0.255,0.026c-0.094,0.025-0.191,0.066-0.298,0.122s-0.22,0.127-0.336,0.213
						c-0.118,0.087-0.241,0.187-0.368,0.301L90.151,81.906c0.133-0.046,0.266-0.084,0.4-0.11c0.133-0.025,0.266-0.041,0.398-0.045
						c0.132-0.004,0.263,0.002,0.392,0.02c0.128,0.018,0.254,0.046,0.377,0.086c0.024,0.008,0.047,0.016,0.069,0.024
						c0.023,0.008,0.045,0.017,0.068,0.026c0.022,0.009,0.043,0.018,0.065,0.027C91.942,81.943,91.962,81.954,91.983,81.965z"/>
				</g>
				<g>
					<path fill="#689F38" d="M108.975,101.622L88.623,87.739c-0.221-0.151-0.412-0.345-0.565-0.575
						c-0.155-0.232-0.272-0.499-0.347-0.792c-0.075-0.297-0.106-0.619-0.087-0.956c0.019-0.339,0.087-0.694,0.211-1.052
						c0.103-0.299,0.238-0.582,0.398-0.842c0.16-0.26,0.345-0.498,0.548-0.709c0.202-0.21,0.423-0.394,0.654-0.547
						c0.23-0.151,0.471-0.272,0.716-0.359l22.556,11.488c-0.234,0.212-0.482,0.47-0.738,0.766c-0.258,0.299-0.52,0.635-0.779,1.002
						c-0.262,0.368-0.52,0.766-0.767,1.181c-0.248,0.417-0.481,0.851-0.698,1.294c-0.258,0.529-0.468,1.027-0.627,1.482
						c-0.156,0.448-0.266,0.853-0.324,1.2c-0.061,0.341-0.07,0.627-0.034,0.848C108.771,101.385,108.854,101.539,108.975,101.622z"
						/>
				</g>
				<g>
					<path fill="#689F38" d="M112.707,93.395c0.127-0.114,0.25-0.214,0.368-0.301c0.116-0.085,0.229-0.157,0.336-0.213
						c0.104-0.056,0.204-0.097,0.298-0.122c0.091-0.024,0.178-0.033,0.255-0.026c0.216,0.02,0.353,0.166,0.417,0.408
						c0.063,0.235,0.059,0.562-0.009,0.955c-0.065,0.384-0.188,0.834-0.369,1.328c-0.177,0.486-0.407,1.019-0.69,1.579
						c-0.182,0.36-0.375,0.713-0.574,1.052c-0.2,0.339-0.408,0.665-0.619,0.973c-0.211,0.31-0.428,0.602-0.641,0.873
						c-0.219,0.272-0.436,0.523-0.646,0.744c-0.116,0.121-0.23,0.234-0.344,0.338c-0.113,0.104-0.225,0.199-0.332,0.283
						c-0.109,0.084-0.215,0.157-0.316,0.219c-0.104,0.063-0.203,0.111-0.297,0.147c-0.273,0.103-0.48,0.081-0.619-0.048
						c-0.143-0.135-0.211-0.385-0.205-0.732c0.006-0.358,0.09-0.816,0.256-1.355c0.168-0.55,0.42-1.177,0.75-1.856
						c0.217-0.443,0.45-0.876,0.698-1.294c0.247-0.416,0.505-0.813,0.767-1.181c0.261-0.367,0.521-0.703,0.779-1.002
						C112.225,93.865,112.473,93.606,112.707,93.395z"/>
				</g>
			</g>
		</g>
		<g>
			<g enable-background="new    ">
				<g>
					<path fill="#263238" d="M133.911,115.111l-0.04,14.242c-0.008,2.754-2.62,6.098-7.389,8.867
						c-7.412,4.309-17.229,5.604-21.924,2.895c-1.675-0.969-2.472-2.313-2.468-3.842l0.039-14.242
						c-0.003,1.529,0.794,2.875,2.47,3.843c4.692,2.709,14.51,1.414,21.922-2.894C131.29,121.21,133.904,117.865,133.911,115.111z"
						/>
				</g>
				<g>
					<path fill="#263238" d="M131.445,111.271c4.693,2.711,2.488,8.401-4.924,12.709s-17.229,5.603-21.922,2.894
						c-4.697-2.711-2.49-8.401,4.92-12.709C116.932,109.857,126.75,108.561,131.445,111.271z"/>
				</g>
			</g>
		</g>
		<path fill="#7CB342" d="M133.906,99.3c0.005-0.229-0.004-0.454-0.034-0.673l0.039-13.914c0,0.03-0.004,0.061-0.005,0.091
			c0.014-0.592-0.092-1.158-0.32-1.687c-0.704-5.667-3.922-10.524-8.984-12.551c-7.945-3.182-17.412,1.8-21.146,11.126
			c-0.125,0.312-0.24,0.626-0.352,0.94l-13.53,20.363l-16.46-8.037c-0.021-0.01-0.042-0.02-0.063-0.03
			c-0.022-0.01-0.043-0.02-0.065-0.029c-0.022-0.009-0.044-0.016-0.067-0.024c-0.022-0.009-0.045-0.017-0.068-0.024
			c-0.124-0.041-0.25-0.07-0.378-0.088c-0.129-0.018-0.26-0.024-0.392-0.02c-0.133,0.004-0.266,0.02-0.399,0.046
			c-0.134,0.026-0.268,0.063-0.401,0.108c-0.245,0.087-0.485,0.208-0.715,0.36c-0.231,0.152-0.452,0.335-0.654,0.546
			c-0.204,0.211-0.389,0.45-0.548,0.71c-0.16,0.259-0.295,0.542-0.399,0.84c-0.124,0.359-0.192,0.714-0.211,1.055
			c-0.018,0.337,0.013,0.661,0.088,0.956c0.075,0.293,0.192,0.561,0.348,0.793c0.154,0.229,0.344,0.423,0.565,0.576l18.938,12.918
			c1.444,1.293,3.396,2.065,5.302,1.934c1.618-0.113,2.89-0.857,3.623-1.964c1.493-2.245,2.984-4.491,4.477-6.735
			c0,0.193,0.014,0.383,0.039,0.571l-0.039,13.912c-0.001,0.198,0.014,0.396,0.039,0.587l-0.039,14.089
			c-0.004,1.528,0.793,2.874,2.469,3.843c4.693,2.709,14.511,1.413,21.922-2.895c4.77-2.771,7.382-6.114,7.39-8.869l0.04-14.241
			c0,0.03-0.004,0.062-0.005,0.091c0.005-0.229-0.005-0.453-0.034-0.674l0.039-14.092C133.911,99.238,133.907,99.269,133.906,99.3z
			 M102.163,107.654c0.001,0.002,0.001,0.004,0.002,0.005c0,0.008,0,0.016,0.003,0.022
			C102.165,107.672,102.165,107.663,102.163,107.654z"/>
		<polygon fill="#66BB6A" points="62.581,60.872 62.606,69.945 52.077,76.025 52.051,66.95 		"/>
		<polygon fill="#388E3C" points="68.171,62.968 68.197,72.042 57.667,78.121 57.642,69.046 		"/>
	</g>
	<path fill="#41D6C3" d="M145.844,29.074c0,11.386-9.229,20.615-20.615,20.615c-3.33,0-7.513,0.525-12.754,2.971
		c3.494-5.242-0.599-7.699-2.238-9.436c-3.485-3.692-5.623-8.672-5.623-14.151c0-11.386,9.229-20.616,20.615-20.616
		C136.613,8.458,145.844,17.688,145.844,29.074z"/>
	<path fill="#689F38" d="M102.166,106.645l5.939-4.892c0,0,0.351,16.423-1.397,19.567c-1.747,3.146-4.542,7.338-4.542,7.338V106.645
		z"/>
</g>
</svg>
