<?xml version="1.0" encoding="utf-8"?>
<!-- Generator: Adobe Illustrator 15.0.0, SVG Export Plug-In . SVG Version: 6.00 Build 0)  -->
<!DOCTYPE svg PUBLIC "-//W3C//DTD SVG 1.1//EN" "http://www.w3.org/Graphics/SVG/1.1/DTD/svg11.dtd">
<svg version="1.1" id="圖層_1" xmlns="http://www.w3.org/2000/svg" xmlns:xlink="http://www.w3.org/1999/xlink" x="0px" y="0px"
	 width="200px" height="200px" viewBox="0 0 200 200" enable-background="new 0 0 200 200" xml:space="preserve">
<path fill="#DFE9E9" d="M172,100c0,38.37-30.02,69.73-67.85,71.88c-1.371,0.08-2.762,0.12-4.15,0.12c-0.471,0-0.939,0-1.41-0.02
	c-0.58,0-1.15-0.021-1.72-0.051c-0.83-0.029-1.66-0.08-2.479-0.15C57.25,168.92,28,137.87,28,100c0-23.29,11.07-44.01,28.23-57.16
	c3.959-3.05,8.25-5.68,12.799-7.85c1.98-0.95,4.011-1.81,6.091-2.57c2.319-0.86,4.69-1.6,7.12-2.21c0.369-0.1,0.74-0.19,1.119-0.28
	c0.721-0.17,1.44-0.33,2.16-0.48c1.78-0.36,3.58-0.65,5.4-0.88c1.29-0.17,2.6-0.29,3.91-0.38C96.54,28.06,98.26,28,100,28
	C139.76,28,172,60.24,172,100z"/>
<path fill="#DFE9E9" d="M-48,100c0,38.37-30.02,69.73-67.85,71.88c-1.37,0.08-2.761,0.12-4.15,0.12c-0.47,0-0.94,0-1.41-0.02
	c-0.58,0-1.15-0.021-1.72-0.051c-0.83-0.029-1.66-0.08-2.48-0.15C-162.75,168.92-192,137.87-192,100
	c0-23.29,11.07-44.01,28.23-57.16c3.96-3.05,8.25-5.68,12.8-7.85c1.98-0.95,4.01-1.81,6.09-2.57c2.32-0.86,4.69-1.6,7.12-2.21
	c0.37-0.1,0.74-0.19,1.12-0.28c0.72-0.17,1.44-0.33,2.16-0.48c1.78-0.36,3.58-0.65,5.4-0.88c1.29-0.17,2.6-0.29,3.91-0.38
	c1.71-0.13,3.43-0.19,5.17-0.19C-80.24,28-48,60.24-48,100z"/>
<g>
	<polygon fill="#C8D2D2" points="136.949,140.68 101.123,161.5 65.061,140.682 100.889,119.859 	"/>
</g>
<path fill="#DFE9E9" d="M172-102.667c0,38.37-30.02,69.73-67.85,71.88c-1.371,0.08-2.762,0.12-4.15,0.12c-0.471,0-0.939,0-1.41-0.02
	c-0.58,0-1.15-0.021-1.72-0.051c-0.83-0.029-1.66-0.08-2.479-0.149C57.25-33.747,28-64.797,28-102.667
	c0-23.29,11.07-44.01,28.23-57.16c3.959-3.05,8.25-5.68,12.799-7.85c1.98-0.95,4.011-1.81,6.091-2.57c2.319-0.86,4.69-1.6,7.12-2.21
	c0.369-0.1,0.74-0.19,1.119-0.28c0.721-0.17,1.44-0.33,2.16-0.48c1.78-0.36,3.58-0.65,5.4-0.88c1.29-0.17,2.6-0.29,3.91-0.38
	c1.71-0.13,3.43-0.19,5.17-0.19C139.76-174.667,172-142.427,172-102.667z"/>
<g>
	<g>
		<g>
			<path fill="#BE9B00" d="M180-104.606c-0.005,1.746-0.012,3.492-0.016,5.236c-0.002,0.633-0.414,1.264-1.24,1.744l0.016-5.238
				C179.585-103.343,179.998-103.975,180-104.606z"/>
		</g>
		<g>
			<path fill="#BE9B00" d="M20-99.394c0.005-1.744,0.01-3.491,0.015-5.236c-0.002,0.64,0.418,1.281,1.259,1.766l-0.015,5.238
				C20.418-98.112,19.998-98.753,20-99.394z"/>
		</g>
		<g>
			<polygon fill="#BE9B00" points="178.76,-102.864 178.744,-97.626 103.277,-53.769 103.292,-59.007 			"/>
		</g>
		<g>
			<polygon fill="#BE9B00" points="97.235,-59.007 97.221,-53.769 21.259,-97.626 21.273,-102.864 			"/>
		</g>
		<g>
			<path fill="#BE9B00" d="M103.292-59.007l-0.015,5.238c-1.66,0.965-4.386,0.965-6.057,0l0.015-5.238
				C98.906-58.042,101.632-58.042,103.292-59.007z"/>
		</g>
	</g>
	<path fill="#4B8400" d="M178.741-106.373c1.671,0.964,1.68,2.543,0.019,3.509l-75.468,43.857c-1.66,0.965-4.386,0.965-6.057,0
		l-75.962-43.857c-1.671-0.964-1.68-2.543-0.02-3.508l75.467-43.857c1.662-0.965,4.387-0.965,6.059-0.001L178.741-106.373z"/>
	<g>
		<g>
			<g enable-background="new    ">
				<g>
					<defs>
						<polygon id="SVGID_1_" points="33.54,-107.856 93.914,-142.941 124.298,-125.399 63.924,-90.313 						"/>
					</defs>
					<clipPath id="SVGID_2_">
						<use xlink:href="#SVGID_1_"  overflow="visible"/>
					</clipPath>
					<g clip-path="url(#SVGID_2_)">
						<path fill="#D84315" d="M51.6-100.751c-6.786-3.918-6.821-10.292-0.08-14.21l30.187-17.542c6.742-3.918,17.746-3.918,24.531,0
							c6.787,3.917,6.822,10.292,0.08,14.209l-30.188,17.543C69.39-96.833,58.386-96.833,51.6-100.751 M109.105-134.17
							c-8.392-4.845-21.948-4.845-30.286,0l-30.188,17.543c-8.336,4.845-8.292,12.698,0.1,17.542c8.391,4.846,21.948,4.846,30.285,0
							l30.187-17.542C117.541-121.472,117.497-129.325,109.105-134.17"/>
						<path fill="#D84315" d="M54.618-102.505c-5.109-2.95-5.138-7.75-0.061-10.701l30.188-17.543c5.076-2.95,13.365-2.95,18.476,0
							c5.109,2.95,5.137,7.751,0.061,10.702l-30.188,17.542C68.016-99.554,59.728-99.556,54.618-102.505 M106.087-132.416
							c-6.712-3.875-17.561-3.875-24.229,0l-30.187,17.543c-6.669,3.875-6.634,10.159,0.078,14.034
							c6.713,3.875,17.561,3.875,24.229,0l30.187-17.542C112.835-122.257,112.8-128.541,106.087-132.416"/>
						<path fill="#D84315" d="M87.783-128.995c3.412-1.983,8.983-1.983,12.418,0c3.436,1.983,3.451,5.209,0.039,7.192L70.054-104.26
							c-3.412,1.983-8.982,1.983-12.417,0.001c-3.435-1.983-3.453-5.21-0.041-7.193L87.783-128.995 M103.068-130.662
							c-5.034-2.907-13.17-2.907-18.172,0L54.71-113.119c-5.002,2.907-4.976,7.62,0.059,10.526c5.035,2.906,13.171,2.906,18.173,0
							l30.187-17.542C108.13-123.042,108.104-127.755,103.068-130.662"/>
						<path fill="#689F38" d="M99.898-128.819c-3.268-1.887-8.565-1.886-11.811,0L57.9-111.276
							c-3.247,1.887-3.231,4.955,0.037,6.842c3.266,1.886,8.565,1.886,11.812-0.001l30.187-17.542
							C103.184-123.864,103.165-126.934,99.898-128.819"/>
						<path fill="#FFFFFF" d="M57.938-104.435c-3.269-1.887-3.284-4.955-0.037-6.842l30.187-17.543
							c3.245-1.886,8.543-1.887,11.811,0c3.267,1.886,3.285,4.955,0.038,6.841L69.75-104.436
							C66.504-102.549,61.204-102.549,57.938-104.435 M100.201-128.996c-3.435-1.983-9.006-1.983-12.418,0l-30.188,17.542
							c-3.412,1.983-3.394,5.21,0.041,7.193c3.435,1.982,9.005,1.982,12.417-0.001l30.187-17.543
							C103.652-123.786,103.637-127.012,100.201-128.996"/>
					</g>
				</g>
			</g>
		</g>
		<g>
			<polygon fill="#388E3C" points="91.344,-125.423 94.518,-123.493 97.222,-125.056 94.005,-126.971 			"/>
			<g>
				<g>
					<g>
						<path fill="#CFD8DC" d="M94.541-123.263c-0.001,0-0.002,0-0.003,0c-0.015,0-0.028-0.003-0.041-0.011l-3.393-1.972
							c-0.025-0.015-0.04-0.041-0.04-0.069l-0.007-2.55c-0.001-0.028,0.015-0.055,0.039-0.069c0.025-0.014,0.057-0.014,0.081,0
							l3.393,1.972c0.025,0.014,0.04,0.041,0.04,0.069l0.008,2.527c0.002,0.007,0.003,0.015,0.003,0.023
							C94.621-123.299,94.585-123.263,94.541-123.263z M91.225-125.361l3.232,1.878l-0.007-2.364l-3.232-1.878L91.225-125.361z"/>
					</g>
				</g>
				<g>
					<g>
						<path fill="#CFD8DC" d="M94.53-125.813c-0.014,0-0.028-0.004-0.04-0.011l-3.394-1.972c-0.024-0.014-0.039-0.041-0.039-0.069
							c0-0.028,0.015-0.055,0.039-0.069l2.221-1.282c0.025-0.014,0.056-0.014,0.081,0l3.393,1.972
							c0.024,0.015,0.04,0.041,0.04,0.069c0,0.029-0.016,0.055-0.04,0.07l-2.221,1.282C94.558-125.817,94.544-125.813,94.53-125.813
							z M91.298-127.865l3.232,1.879l2.06-1.189l-3.232-1.879L91.298-127.865z"/>
					</g>
				</g>
				<g>
					<g>
						<path fill="#CFD8DC" d="M94.538-123.263c-0.014,0-0.028-0.003-0.04-0.01c-0.025-0.015-0.041-0.041-0.041-0.07l-0.007-2.55
							c0-0.029,0.016-0.056,0.04-0.07l2.22-1.282c0.022-0.013,0.049-0.015,0.071-0.004c0.023,0.01,0.041,0.029,0.047,0.054
							l0.576,2.222c0.009,0.035-0.007,0.072-0.038,0.09l-2.788,1.61C94.565-123.267,94.552-123.263,94.538-123.263z M94.61-125.847
							l0.007,2.365l2.616-1.511l-0.534-2.06L94.61-125.847z"/>
					</g>
				</g>
				<g>
					<g>
						<path fill="#CFD8DC" d="M91.178-125.209c-0.014,0-0.027-0.003-0.04-0.01c-0.024-0.015-0.04-0.041-0.04-0.07l-0.007-2.55
							c-0.001-0.029,0.015-0.055,0.039-0.07l2.221-1.282c0.021-0.012,0.048-0.014,0.071-0.004c0.023,0.009,0.04,0.03,0.046,0.054
							l0.576,2.222c0.01,0.035-0.006,0.072-0.037,0.09l-2.789,1.61C91.205-125.212,91.191-125.209,91.178-125.209z M91.251-127.793
							l0.007,2.365l2.616-1.51l-0.534-2.061L91.251-127.793z"/>
					</g>
				</g>
				<g>
					<path fill="#CFD8DC" d="M97.326-124.874c-0.013,0-0.027-0.003-0.04-0.01l-3.36-1.943c-0.038-0.022-0.052-0.071-0.029-0.109
						c0.022-0.039,0.072-0.051,0.109-0.029l3.36,1.942c0.039,0.022,0.052,0.071,0.029,0.109
						C97.381-124.888,97.354-124.874,97.326-124.874z"/>
				</g>
			</g>
		</g>
		<g>
			<polygon fill="#388E3C" points="60.185,-107.917 63.357,-105.986 66.062,-107.548 62.846,-109.464 			"/>
			<g>
				<g>
					<g>
						<path fill="#CFD8DC" d="M63.347-105.848c-0.014,0-0.028-0.003-0.04-0.011l-3.394-1.972c-0.029-0.018-0.045-0.051-0.038-0.085
							l0.562-2.879c0.005-0.025,0.021-0.047,0.045-0.058c0.024-0.011,0.051-0.01,0.074,0.004l3.393,1.972
							c0.029,0.017,0.045,0.051,0.038,0.084l-0.561,2.879c-0.005,0.025-0.022,0.047-0.046,0.058
							C63.369-105.85,63.357-105.848,63.347-105.848z M60.043-107.94l3.246,1.886l0.529-2.713l-3.246-1.886L60.043-107.94z"/>
					</g>
				</g>
				<g>
					<g>
						<path fill="#CFD8DC" d="M63.908-108.728c-0.015,0-0.028-0.003-0.041-0.011l-3.393-1.972c-0.024-0.015-0.04-0.041-0.04-0.07
							c0-0.028,0.016-0.055,0.04-0.069l2.22-1.282c0.025-0.015,0.057-0.015,0.081,0l3.394,1.972c0.024,0.015,0.039,0.041,0.039,0.07
							c0,0.028-0.015,0.055-0.04,0.069l-2.22,1.282C63.936-108.731,63.922-108.728,63.908-108.728z M60.675-110.779l3.233,1.879
							l2.06-1.189l-3.232-1.879L60.675-110.779z"/>
					</g>
				</g>
				<g>
					<g>
						<path fill="#CFD8DC" d="M63.347-105.848c-0.017,0-0.033-0.005-0.047-0.015c-0.025-0.018-0.038-0.05-0.032-0.08l0.562-2.88
							c0.005-0.022,0.019-0.042,0.038-0.054l2.221-1.282c0.025-0.014,0.056-0.015,0.08,0c0.025,0.014,0.04,0.041,0.04,0.069
							l0.008,2.551c0,0.028-0.016,0.055-0.04,0.069l-2.789,1.61C63.374-105.852,63.36-105.848,63.347-105.848z M63.979-108.756
							l-0.521,2.67l2.596-1.499l-0.007-2.366L63.979-108.756z"/>
					</g>
				</g>
				<g>
					<g>
						<path fill="#CFD8DC" d="M59.977-107.774c-0.017,0-0.033-0.005-0.047-0.015c-0.025-0.018-0.038-0.05-0.032-0.081l0.562-2.879
							c0.005-0.023,0.019-0.042,0.039-0.054l2.22-1.282c0.025-0.015,0.056-0.015,0.08,0c0.025,0.014,0.04,0.041,0.041,0.069
							l0.007,2.551c0,0.029-0.015,0.055-0.04,0.07l-2.789,1.61C60.005-107.777,59.99-107.774,59.977-107.774z M60.609-110.682
							l-0.521,2.67l2.597-1.499l-0.007-2.366L60.609-110.682z"/>
					</g>
				</g>
				<g>
					<path fill="#CFD8DC" d="M66.103-107.538c-0.014,0-0.027-0.003-0.041-0.011l-3.343-1.979c-0.038-0.023-0.051-0.072-0.028-0.11
						s0.072-0.05,0.11-0.028l3.343,1.979c0.038,0.022,0.051,0.072,0.028,0.11C66.157-107.551,66.13-107.538,66.103-107.538z"/>
				</g>
			</g>
		</g>
	</g>
	<polygon fill="#CFD8DC" points="135.464,-87.138 128.818,-83.29 104.252,-97.929 110.73,-101.838 	"/>
	<polygon fill="#689F38" points="107.546,-95.901 128.818,-83.29 117.952,-76.999 96.416,-89.435 	"/>
	<polygon fill="#689F38" points="148.197,-94.509 135.464,-87.138 114.182,-99.759 126.604,-106.978 	"/>
	<g>
		<g>
			<polygon fill="#546E7A" points="162.706,-103.086 150.631,-96.069 114.169,-117.121 126.244,-124.138 			"/>
		</g>
		<g>
			<g>
				<polygon fill="#455A64" points="162.777,-106.397 162.771,-104.651 150.698,-97.634 150.703,-99.38 				"/>
			</g>
			<g>
				<polygon fill="#CFD8DC" points="150.703,-99.38 150.698,-97.634 114.236,-118.686 114.24,-120.431 				"/>
			</g>
			<g>
				<polygon fill="#90A4AE" points="162.777,-106.397 150.703,-99.38 114.24,-120.431 126.314,-127.448 				"/>
			</g>
		</g>
		<g>
			<g>
				<polygon fill="#455A64" points="162.777,-109.823 162.771,-108.078 150.698,-101.06 150.703,-102.806 				"/>
			</g>
			<g>
				<polygon fill="#CFD8DC" points="150.703,-102.806 150.698,-101.06 114.236,-122.112 114.24,-123.857 				"/>
			</g>
			<g>
				<polygon fill="#90A4AE" points="162.777,-109.823 150.703,-102.806 114.24,-123.857 126.314,-130.875 				"/>
			</g>
		</g>
		<g>
			<g>
				<polygon fill="#455A64" points="162.777,-113.25 162.771,-111.504 150.698,-104.487 150.703,-106.232 				"/>
			</g>
			<g>
				<polygon fill="#CFD8DC" points="150.703,-106.232 150.698,-104.487 114.236,-125.539 114.24,-127.284 				"/>
			</g>
			<g>
				<polygon fill="#90A4AE" points="162.777,-113.25 150.703,-106.232 114.24,-127.284 126.314,-134.301 				"/>
			</g>
		</g>
		<g>
			<g>
				<polygon fill="#455A64" points="162.777,-116.676 162.771,-114.931 150.698,-107.914 150.703,-109.659 				"/>
			</g>
			<g>
				<polygon fill="#CFD8DC" points="150.703,-109.659 150.698,-107.914 114.236,-128.965 114.24,-130.71 				"/>
			</g>
			<g>
				<polygon fill="#ECEFF1" points="162.777,-116.676 150.703,-109.659 114.24,-130.71 126.314,-137.728 				"/>
			</g>
		</g>
	</g>
	<g>
		<polygon fill="#546E7A" points="127.132,-110.565 90.003,-88.989 77.849,-96.007 114.073,-117.058 		"/>
		<g>
			<g>
				<polygon fill="#455A64" points="126.477,-113.432 126.473,-111.686 90.248,-90.634 90.253,-92.38 				"/>
			</g>
			<g>
				<polygon fill="#CFD8DC" points="90.253,-92.38 90.248,-90.634 78.094,-97.651 78.099,-99.397 				"/>
			</g>
			<polygon fill="#90A4AE" points="126.477,-113.432 90.253,-92.38 78.099,-99.397 114.322,-120.449 			"/>
		</g>
		<g>
			<g>
				<polygon fill="#455A64" points="126.477,-116.858 126.473,-115.112 90.248,-94.062 90.253,-95.808 				"/>
			</g>
			<g>
				<polygon fill="#CFD8DC" points="90.253,-95.808 90.248,-94.062 78.094,-101.079 78.099,-102.825 				"/>
			</g>
			<polygon fill="#90A4AE" points="126.477,-116.858 90.253,-95.808 78.099,-102.825 114.322,-123.875 			"/>
		</g>
		<g>
			<g>
				<polygon fill="#455A64" points="126.477,-120.285 126.473,-118.539 90.248,-97.487 90.253,-99.233 				"/>
			</g>
			<g>
				<polygon fill="#CFD8DC" points="90.253,-99.233 90.248,-97.487 78.094,-104.505 78.099,-106.251 				"/>
			</g>
			<polygon fill="#90A4AE" points="126.477,-120.285 90.253,-99.233 78.099,-106.251 114.322,-127.302 			"/>
		</g>
		<g>
			<g>
				<polygon fill="#455A64" points="126.477,-123.711 126.473,-121.965 90.248,-100.915 90.253,-102.66 				"/>
			</g>
			<g>
				<polygon fill="#CFD8DC" points="90.253,-102.66 90.248,-100.915 78.094,-107.932 78.099,-109.678 				"/>
			</g>
			<polygon fill="#90A4AE" points="126.477,-123.711 90.253,-102.66 78.099,-109.678 114.322,-130.729 			"/>
		</g>
		<g>
			<g>
				<polygon fill="#455A64" points="126.477,-127.138 126.473,-125.392 90.248,-104.341 90.253,-106.086 				"/>
			</g>
			<g>
				<polygon fill="#CFD8DC" points="90.253,-106.086 90.248,-104.341 78.094,-111.358 78.099,-113.104 				"/>
			</g>
			<polygon fill="#ECEFF1" points="126.477,-127.138 90.253,-106.086 78.099,-113.104 114.322,-134.155 			"/>
		</g>
	</g>
	<g>
		<g>
			<polygon fill="#546E7A" points="114.378,-74.96 102.305,-67.942 65.842,-88.995 77.917,-96.011 			"/>
		</g>
		<g>
			<g>
				<polygon fill="#455A64" points="114.45,-78.271 114.443,-76.524 102.37,-69.509 102.375,-71.253 				"/>
			</g>
			<g>
				<polygon fill="#CFD8DC" points="102.375,-71.253 102.37,-69.509 65.908,-90.56 65.913,-92.306 				"/>
			</g>
			<g>
				<polygon fill="#90A4AE" points="114.45,-78.271 102.375,-71.253 65.913,-92.306 77.988,-99.321 				"/>
			</g>
		</g>
		<g>
			<g>
				<polygon fill="#455A64" points="114.45,-81.696 114.443,-79.952 102.37,-72.935 102.375,-74.681 				"/>
			</g>
			<g>
				<polygon fill="#CFD8DC" points="102.375,-74.681 102.37,-72.935 65.908,-93.985 65.913,-95.731 				"/>
			</g>
			<g>
				<polygon fill="#90A4AE" points="114.45,-81.696 102.375,-74.681 65.913,-95.731 77.988,-102.749 				"/>
			</g>
		</g>
		<g>
			<g>
				<polygon fill="#455A64" points="114.45,-85.124 114.443,-83.378 102.37,-76.36 102.375,-78.106 				"/>
			</g>
			<g>
				<polygon fill="#CFD8DC" points="102.375,-78.106 102.37,-76.36 65.908,-97.413 65.913,-99.157 				"/>
			</g>
			<g>
				<polygon fill="#90A4AE" points="114.45,-85.124 102.375,-78.106 65.913,-99.157 77.988,-106.175 				"/>
			</g>
		</g>
		<g>
			<g>
				<polygon fill="#455A64" points="114.45,-88.55 114.443,-86.804 102.37,-79.788 102.375,-81.532 				"/>
			</g>
			<g>
				<polygon fill="#CFD8DC" points="102.375,-81.532 102.37,-79.788 65.908,-100.839 65.913,-102.585 				"/>
			</g>
			<g>
				<polygon fill="#ECEFF1" points="114.45,-88.55 102.375,-81.532 65.913,-102.585 77.988,-109.602 90.222,-102.539 				"/>
			</g>
		</g>
	</g>
	<line fill="none" x1="117.952" y1="-76.999" x2="102.305" y2="-67.944"/>
	<g enable-background="new    ">
		<g>
			<polygon fill="#90A4AE" points="135.473,-87.151 133.963,-88.03 133.938,-97.108 135.445,-96.229 			"/>
		</g>
		<g>
			<polygon fill="#CFD8DC" points="127.57,-82.591 126.063,-83.468 126.032,-93.942 127.542,-93.065 			"/>
		</g>
		<g>
			<polygon fill="#ECEFF1" points="127.542,-93.065 126.032,-93.942 135.148,-99.206 136.658,-98.329 			"/>
		</g>
		<g>
			<polygon fill="#35464D" points="136.658,-98.329 136.688,-87.854 135.473,-87.151 135.445,-96.229 128.762,-92.37 
				128.787,-83.292 127.57,-82.591 127.542,-93.065 			"/>
		</g>
	</g>
	<line fill="none" x1="107.546" y1="-95.901" x2="106.113" y2="-96.751"/>
	<line fill="none" x1="129.005" y1="-83.181" x2="128.818" y2="-83.29"/>
	<g>
		<g>
			<g>
				<g enable-background="new    ">
					<g>
						<polygon fill="#6D554C" points="127.038,-107.318 127.016,-99.166 126.71,-98.989 126.732,-107.141 						"/>
					</g>
					<g>
						<polygon fill="#4C3B35" points="126.732,-107.141 126.71,-98.989 126.41,-99.162 126.434,-107.314 						"/>
					</g>
					<g>
						<polygon fill="#7A5F55" points="127.038,-107.318 126.732,-107.141 126.434,-107.314 126.738,-107.491 						"/>
					</g>
				</g>
			</g>
		</g>
		<g>
			<g>
				<polygon fill="#558B2F" points="126.727,-109.234 126.727,-109.211 125.621,-104.986 125.188,-105.234 126.725,-109.243 				"/>
				<polygon fill="#558B2F" points="126.729,-109.222 126.727,-109.213 126.727,-109.234 				"/>
			</g>
			<g>
				<polygon fill="#AED581" points="126.736,-104.333 125.221,-103.457 125.621,-104.986 126.727,-109.211 126.727,-104.35 				"/>
				<polygon fill="#7CB342" points="128.26,-105.21 127.84,-104.969 126.732,-109.211 				"/>
			</g>
			<polygon fill="#689F38" points="128.229,-103.478 126.743,-104.337 126.736,-104.333 126.727,-104.35 126.727,-109.213 
				126.729,-109.222 126.732,-109.211 127.84,-104.969 			"/>
			<polygon fill="#33691E" points="128.229,-103.478 125.221,-103.457 126.736,-104.333 126.743,-104.337 			"/>
			<polygon fill="#689F38" points="125.621,-104.986 125.221,-103.457 125.188,-105.234 			"/>
			<polygon fill="#558B2F" points="128.26,-105.21 128.229,-103.478 127.84,-104.969 			"/>
		</g>
	</g>
	<g>
		<g>
			<g>
				<g enable-background="new    ">
					<g>
						<polygon fill="#6D554C" points="66.433,-89.111 66.409,-80.959 66.105,-80.782 66.128,-88.935 						"/>
					</g>
					<g>
						<polygon fill="#4C3B35" points="66.128,-88.935 66.105,-80.782 65.805,-80.955 65.828,-89.107 						"/>
					</g>
					<g>
						<polygon fill="#7A5F55" points="66.433,-89.111 66.128,-88.935 65.828,-89.107 66.132,-89.284 						"/>
					</g>
				</g>
			</g>
		</g>
		<g>
			<g>
				<polygon fill="#558B2F" points="66.12,-91.03 66.12,-91.007 65.016,-86.782 64.583,-87.03 66.118,-91.04 				"/>
				<polygon fill="#558B2F" points="66.122,-91.019 66.12,-91.009 66.12,-91.03 				"/>
			</g>
			<g>
				<polygon fill="#AED581" points="66.131,-86.13 64.615,-85.253 65.016,-86.782 66.12,-91.007 66.12,-86.146 				"/>
				<polygon fill="#7CB342" points="67.653,-87.007 67.234,-86.765 66.127,-91.007 				"/>
			</g>
			<polygon fill="#689F38" points="67.624,-85.274 66.138,-86.134 66.131,-86.13 66.12,-86.146 66.12,-91.009 66.122,-91.019 
				66.127,-91.007 67.234,-86.765 			"/>
			<polygon fill="#33691E" points="67.624,-85.274 64.615,-85.253 66.131,-86.13 66.138,-86.134 			"/>
			<polygon fill="#689F38" points="65.016,-86.782 64.615,-85.253 64.583,-87.03 			"/>
			<polygon fill="#558B2F" points="67.653,-87.007 67.624,-85.274 67.234,-86.765 			"/>
		</g>
	</g>
	<g>
		<g>
			<g>
				<g enable-background="new    ">
					<g>
						<polygon fill="#6D554C" points="97.807,-72.623 97.783,-64.471 97.479,-64.294 97.502,-72.446 						"/>
					</g>
					<g>
						<polygon fill="#4C3B35" points="97.502,-72.446 97.479,-64.294 97.179,-64.467 97.202,-72.619 						"/>
					</g>
					<g>
						<polygon fill="#7A5F55" points="97.807,-72.623 97.502,-72.446 97.202,-72.619 97.506,-72.796 						"/>
					</g>
				</g>
			</g>
		</g>
		<g>
			<g>
				<polygon fill="#558B2F" points="97.494,-74.54 97.494,-74.517 96.389,-70.292 95.957,-70.54 97.492,-74.55 				"/>
				<polygon fill="#558B2F" points="97.496,-74.528 97.494,-74.519 97.494,-74.54 				"/>
			</g>
			<g>
				<polygon fill="#AED581" points="97.505,-69.64 95.989,-68.763 96.389,-70.292 97.494,-74.517 97.494,-69.655 				"/>
				<polygon fill="#7CB342" points="99.027,-70.517 98.608,-70.274 97.501,-74.517 				"/>
			</g>
			<polygon fill="#689F38" points="98.997,-68.784 97.512,-69.644 97.505,-69.64 97.494,-69.655 97.494,-74.519 97.496,-74.528 
				97.501,-74.517 98.608,-70.274 			"/>
			<polygon fill="#33691E" points="98.997,-68.784 95.989,-68.763 97.505,-69.64 97.512,-69.644 			"/>
			<polygon fill="#689F38" points="96.389,-70.292 95.989,-68.763 95.957,-70.54 			"/>
			<polygon fill="#558B2F" points="99.027,-70.517 98.997,-68.784 98.608,-70.274 			"/>
		</g>
	</g>
	<g>
		<g>
			<g>
				<g enable-background="new    ">
					<g>
						<polygon fill="#6D554C" points="158.624,-101.531 158.602,-93.38 158.303,-93.206 158.326,-101.358 						"/>
					</g>
					<g>
						<polygon fill="#4C3B35" points="158.326,-101.358 158.303,-93.206 157.996,-93.384 158.02,-101.535 						"/>
					</g>
					<g>
						<polygon fill="#7A5F55" points="158.624,-101.531 158.326,-101.358 158.02,-101.535 158.316,-101.709 						"/>
					</g>
				</g>
			</g>
		</g>
		<g>
			<g>
				<polygon fill="#558B2F" points="158.314,-103.452 158.314,-103.429 157.209,-99.204 156.775,-99.452 158.313,-103.461 				"/>
				<polygon fill="#558B2F" points="158.316,-103.439 158.314,-103.431 158.314,-103.452 				"/>
			</g>
			<g>
				<polygon fill="#AED581" points="158.325,-98.55 156.809,-97.675 157.209,-99.204 158.314,-103.429 158.314,-98.567 				"/>
				<polygon fill="#7CB342" points="159.848,-99.429 159.428,-99.187 158.32,-103.429 				"/>
			</g>
			<polygon fill="#689F38" points="159.816,-97.696 158.331,-98.554 158.325,-98.55 158.314,-98.567 158.314,-103.431 
				158.316,-103.439 158.32,-103.429 159.428,-99.187 			"/>
			<polygon fill="#33691E" points="159.816,-97.696 156.809,-97.675 158.325,-98.55 158.331,-98.554 			"/>
			<polygon fill="#689F38" points="157.209,-99.204 156.809,-97.675 156.775,-99.452 			"/>
			<polygon fill="#558B2F" points="159.848,-99.429 159.816,-97.696 159.428,-99.187 			"/>
		</g>
	</g>
	<g>
		<g>
			<g>
				<g enable-background="new    ">
					<g>
						<polygon fill="#6D554C" points="100.559,-150.363 100.536,-142.211 100.231,-142.034 100.255,-150.186 						"/>
					</g>
					<g>
						<polygon fill="#4C3B35" points="100.255,-150.186 100.231,-142.034 99.926,-142.211 99.948,-150.363 						"/>
					</g>
					<g>
						<polygon fill="#7A5F55" points="100.559,-150.363 100.255,-150.186 99.948,-150.363 100.253,-150.54 						"/>
					</g>
				</g>
			</g>
		</g>
		<g>
			<g>
				<polygon fill="#558B2F" points="100.242,-152.28 100.242,-152.256 99.138,-148.031 98.705,-148.279 100.24,-152.289 				"/>
				<polygon fill="#558B2F" points="100.245,-152.267 100.242,-152.258 100.242,-152.28 				"/>
			</g>
			<g>
				<polygon fill="#AED581" points="100.254,-147.378 98.737,-146.502 99.138,-148.031 100.242,-152.256 100.242,-147.395 				"/>
				<polygon fill="#7CB342" points="101.775,-148.256 101.355,-148.014 100.249,-152.256 				"/>
			</g>
			<polygon fill="#689F38" points="101.746,-146.523 100.26,-147.382 100.254,-147.378 100.242,-147.395 100.242,-152.258 
				100.245,-152.267 100.249,-152.256 101.355,-148.014 			"/>
			<polygon fill="#33691E" points="101.746,-146.523 98.737,-146.502 100.254,-147.378 100.26,-147.382 			"/>
			<polygon fill="#689F38" points="99.138,-148.031 98.737,-146.502 98.705,-148.279 			"/>
			<polygon fill="#558B2F" points="101.775,-148.256 101.746,-146.523 101.355,-148.014 			"/>
		</g>
	</g>
	<line fill="none" x1="114.182" y1="-99.759" x2="113.057" y2="-100.425"/>
	<line fill="none" x1="135.947" y1="-86.851" x2="135.464" y2="-87.138"/>
	<g>
		<g>
			<g>
				<g enable-background="new    ">
					<g>
						<polygon fill="#6D554C" points="144.332,-98.048 144.309,-89.896 144.012,-89.723 144.034,-97.875 						"/>
					</g>
					<g>
						<polygon fill="#4C3B35" points="144.034,-97.875 144.012,-89.723 143.704,-89.9 143.729,-98.052 						"/>
					</g>
					<g>
						<polygon fill="#7A5F55" points="144.332,-98.048 144.034,-97.875 143.729,-98.052 144.025,-98.226 						"/>
					</g>
				</g>
			</g>
		</g>
		<g>
			<g>
				<polygon fill="#558B2F" points="144.02,-99.972 144.02,-99.948 142.914,-95.724 142.48,-95.972 144.018,-99.981 				"/>
				<polygon fill="#558B2F" points="144.021,-99.96 144.02,-99.95 144.02,-99.972 				"/>
			</g>
			<g>
				<polygon fill="#AED581" points="144.029,-95.069 142.514,-94.194 142.914,-95.724 144.02,-99.948 144.02,-95.087 				"/>
				<polygon fill="#7CB342" points="145.553,-95.948 145.133,-95.706 144.025,-99.948 				"/>
			</g>
			<polygon fill="#689F38" points="145.521,-94.216 144.036,-95.075 144.029,-95.069 144.02,-95.087 144.02,-99.95 144.021,-99.96 
				144.025,-99.948 145.133,-95.706 			"/>
			<polygon fill="#33691E" points="145.521,-94.216 142.514,-94.194 144.029,-95.069 144.036,-95.075 			"/>
			<polygon fill="#689F38" points="142.914,-95.724 142.514,-94.194 142.48,-95.972 			"/>
			<polygon fill="#558B2F" points="145.553,-95.948 145.521,-94.216 145.133,-95.706 			"/>
		</g>
	</g>
	<g>
		<g>
			<g>
				<g enable-background="new    ">
					<g>
						<polygon fill="#6D554C" points="122.061,-85.527 122.037,-77.375 121.732,-77.198 121.756,-85.351 						"/>
					</g>
					<g>
						<polygon fill="#4C3B35" points="121.756,-85.351 121.732,-77.198 121.427,-77.375 121.449,-85.527 						"/>
					</g>
					<g>
						<polygon fill="#7A5F55" points="122.061,-85.527 121.756,-85.351 121.449,-85.527 121.754,-85.704 						"/>
					</g>
				</g>
			</g>
		</g>
		<g>
			<g>
				<polygon fill="#558B2F" points="121.747,-87.444 121.747,-87.421 120.643,-83.194 120.21,-83.444 121.745,-87.452 				"/>
				<polygon fill="#558B2F" points="121.749,-87.431 121.747,-87.423 121.747,-87.444 				"/>
			</g>
			<g>
				<polygon fill="#AED581" points="121.758,-82.542 120.242,-81.665 120.643,-83.194 121.747,-87.421 121.747,-82.56 				"/>
				<polygon fill="#7CB342" points="123.279,-83.419 122.861,-83.179 121.754,-87.421 				"/>
			</g>
			<polygon fill="#689F38" points="123.251,-81.687 121.766,-82.546 121.758,-82.542 121.747,-82.56 121.747,-87.423 
				121.749,-87.431 121.754,-87.421 122.861,-83.179 			"/>
			<polygon fill="#33691E" points="123.251,-81.687 120.242,-81.665 121.758,-82.542 121.766,-82.546 			"/>
			<polygon fill="#689F38" points="120.643,-83.194 120.242,-81.665 120.21,-83.444 			"/>
			<polygon fill="#558B2F" points="123.279,-83.419 123.251,-81.687 122.861,-83.179 			"/>
		</g>
	</g>
	<g>
		<g>
			<polygon fill="#455A64" points="109.268,-123.035 109.251,-117.798 104.725,-115.167 104.738,-120.404 			"/>
		</g>
		<g>
			<polygon fill="#CFD8DC" points="104.738,-120.404 104.725,-115.167 100.166,-117.798 100.182,-123.035 			"/>
		</g>
		<g>
			<polygon fill="#ECEFF1" points="109.268,-123.035 104.738,-120.404 100.182,-123.035 104.709,-125.666 			"/>
		</g>
		<g>
			<g>
				<g enable-background="new    ">
					<g>
						<defs>
							<polygon id="SVGID_3_" points="105.793,-116.967 105.785,-119.762 108.218,-121.166 108.227,-118.371 							"/>
						</defs>
						<clipPath id="SVGID_4_">
							<use xlink:href="#SVGID_3_"  overflow="visible"/>
						</clipPath>
						<g clip-path="url(#SVGID_4_)">
							<g>
								<g>
									<g>
										<path fill="#EFEBE9" d="M106.998-120.462c-0.238,0.137-0.46,0.346-0.646,0.592c0.082-0.041,0.162-0.048,0.228-0.012
											l0.569,0.325l0.688-0.398c0.198-0.114,0.358-0.023,0.358,0.205c0,0.22-0.157,0.495-0.355,0.61l-0.836,0.483
											c-0.09,0.051-0.186,0.063-0.25,0.026l-0.672-0.391c-0.064-0.034-0.1-0.106-0.105-0.198
											c-0.119,0.287-0.188,0.584-0.188,0.86c0.002,0.77,0.547,1.081,1.217,0.693c0.678-0.391,1.219-1.328,1.217-2.098
											S107.675-120.853,106.998-120.462"/>
										<path fill="#78909C" d="M106.326-119.857c-0.09,0.052-0.18,0.144-0.246,0.263c-0.076,0.131-0.109,0.266-0.104,0.374
											c0.006,0.092,0.039,0.165,0.104,0.198l0.672,0.391c0.063,0.037,0.16,0.025,0.25-0.026l0.836-0.483
											c0.198-0.115,0.356-0.39,0.356-0.61c-0.002-0.228-0.161-0.319-0.359-0.205l-0.688,0.398l-0.57-0.325
											c-0.064-0.037-0.146-0.029-0.229,0.012C106.342-119.866,106.335-119.862,106.326-119.857"/>
									</g>
								</g>
							</g>
						</g>
					</g>
				</g>
			</g>
		</g>
	</g>
	<g>
		
			<line fill="none" stroke="#727171" stroke-width="2" stroke-miterlimit="10" x1="104.432" y1="-122.968" x2="104.432" y2="-127.394"/>
		<g>
			<g enable-background="new    ">
				<g>
					<defs>
						<polygon id="SVGID_5_" points="104.204,-126.091 104.21,-128.074 107.154,-126.374 107.148,-124.391 						"/>
					</defs>
					<clipPath id="SVGID_6_">
						<use xlink:href="#SVGID_5_"  overflow="visible"/>
					</clipPath>
					<g clip-path="url(#SVGID_6_)">
						<polyline fill="#BF360C" points="104.21,-128.074 104.205,-126.382 105.809,-125.457 105.811,-126.228 104.21,-128.074 						
							"/>
						<polyline fill="#BF360C" points="105.811,-125.938 105.807,-125.166 107.148,-124.391 105.811,-125.938 						"/>
					</g>
				</g>
			</g>
		</g>
	</g>
	<g>
		<g>
			<g>
				<polygon fill="#006B78" points="96.018,-96.61 96.018,-96.233 96.013,-94.864 90.306,-91.55 90.252,-91.517 89.648,-91.167 
					89.646,-91.167 89.347,-90.993 88.769,-91.327 88.771,-91.673 88.771,-92.034 88.772,-92.372 88.772,-92.399 88.803,-92.417 
									"/>
			</g>
			<g>
				<polygon fill="#00A7BB" points="109.691,-88.716 109.689,-87.999 109.689,-87.997 109.688,-87.647 109.104,-87.308 
					108.801,-87.479 108.193,-87.831 108.146,-87.858 96.013,-94.864 96.018,-96.233 96.018,-96.61 109.654,-88.737 				"/>
			</g>
			<polygon fill="#00636F" points="109.104,-87.308 102.436,-83.435 89.347,-90.993 89.646,-91.167 89.648,-91.167 90.252,-91.517 
				90.306,-91.55 96.013,-94.864 108.146,-87.858 108.193,-87.831 108.801,-87.479 			"/>
			<polygon opacity="0.5" fill="#80DEEA" enable-background="new    " points="109.686,-88.755 102.439,-84.544 88.767,-92.438 
				96.013,-96.649 			"/>
		</g>
		<g>
			<g enable-background="new    ">
				<g>
					<polygon fill="#35454D" points="96.006,-96.589 96.005,-96.241 88.759,-92.028 88.76,-92.378 					"/>
				</g>
				<g>
					<polygon fill="#FFFFFF" points="109.68,-88.694 109.678,-88.347 96.005,-96.241 96.006,-96.589 					"/>
				</g>
				<g>
					<polygon fill="#FFFFFF" points="102.438,-83.784 102.436,-83.435 89.347,-90.993 88.769,-91.327 87.548,-92.03 87.548,-92.38 
						88.149,-92.032 88.156,-92.028 88.609,-91.767 88.764,-91.677 88.771,-91.675 89.498,-91.253 89.646,-91.167 89.648,-91.167 
											"/>
				</g>
				<g>
					<polygon fill="#455A64" points="110.889,-88.694 110.889,-88.345 109.688,-87.647 109.104,-87.308 102.436,-83.435 
						102.438,-83.784 108.801,-87.479 109.535,-87.907 109.684,-87.995 109.689,-87.997 109.833,-88.079 110.286,-88.345 					"/>
				</g>
				<g>
					<path fill="#CFD8DC" d="M96.001-97.292l14.89,8.598l-8.453,4.91L87.549-92.38L96.001-97.292z M102.434-84.483l7.246-4.211
						l-13.674-7.895l-7.246,4.211L102.434-84.483L102.434-84.483z"/>
				</g>
			</g>
		</g>
	</g>
	<g>
		<g>
			<polygon fill="#006B78" points="144.631,-124.379 144.631,-124.002 144.626,-122.633 138.919,-119.318 138.865,-119.286 
				138.262,-118.937 138.26,-118.937 137.96,-118.762 137.382,-119.096 137.384,-119.442 137.384,-119.804 137.387,-120.141 
				137.387,-120.168 137.416,-120.186 			"/>
		</g>
		<g>
			<polygon fill="#00A7BB" points="158.305,-116.485 158.303,-115.768 158.303,-115.766 158.3,-115.417 157.716,-115.076 
				157.414,-115.25 156.809,-115.601 156.758,-115.628 144.626,-122.633 144.631,-124.002 144.631,-124.379 158.268,-116.506 			"/>
		</g>
		<polygon fill="#263238" points="157.716,-115.076 151.049,-111.204 137.96,-118.762 138.26,-118.937 138.262,-118.937 
			138.865,-119.286 138.919,-119.318 144.626,-122.633 156.758,-115.628 156.809,-115.601 157.414,-115.25 		"/>
	</g>
	<g>
		<g>
			<g>
				<g enable-background="new    ">
					<g>
						<defs>
							<polygon id="SVGID_7_" points="106.82,-89.354 106.826,-90.844 107.586,-90.404 107.581,-88.915 							"/>
						</defs>
						<clipPath id="SVGID_8_">
							<use xlink:href="#SVGID_7_"  overflow="visible"/>
						</clipPath>
						<g clip-path="url(#SVGID_8_)">
							<g>
								<g>
									<g>
										<polyline fill="#01579B" points="107.586,-90.404 106.826,-90.844 106.825,-90.668 107.585,-90.229 107.586,-90.404 
																					"/>
										<polyline fill="#01579B" points="107.584,-89.965 106.824,-90.403 106.824,-90.234 107.584,-89.796 107.584,-89.965 
																					"/>
										<polyline fill="#01579B" points="107.583,-89.531 106.823,-89.97 106.823,-89.794 107.583,-89.355 107.583,-89.531 
																					"/>
										<polyline fill="#01579B" points="107.582,-89.091 106.822,-89.53 106.82,-89.354 107.582,-88.915 107.582,-89.091 
																					"/>
									</g>
								</g>
							</g>
						</g>
					</g>
				</g>
			</g>
		</g>
		<g>
			<g>
				<g enable-background="new    ">
					<g>
						<defs>
							<polygon id="SVGID_9_" points="106.82,-89.318 106.826,-90.888 107.586,-90.449 107.581,-88.88 							"/>
						</defs>
						<clipPath id="SVGID_10_">
							<use xlink:href="#SVGID_9_"  overflow="visible"/>
						</clipPath>
						<g clip-path="url(#SVGID_10_)">
							<g>
								<g>
									<g>
										<polyline fill="#01579B" points="106.979,-90.8 106.826,-90.888 106.82,-89.318 106.975,-89.229 106.979,-90.8 										
											"/>
										<polyline fill="#01579B" points="107.586,-90.449 107.434,-90.538 107.43,-88.968 107.581,-88.88 107.586,-90.449 
																					"/>
									</g>
								</g>
							</g>
						</g>
					</g>
				</g>
			</g>
		</g>
	</g>
	<g>
		<g>
			<polygon fill="#006B78" points="144.586,-124.423 144.586,-124.046 144.582,-122.678 138.875,-119.363 138.82,-119.331 
				138.218,-118.982 138.215,-118.982 137.915,-118.806 137.337,-119.14 137.339,-119.487 137.339,-119.849 137.341,-120.186 
				137.341,-120.213 137.371,-120.23 			"/>
		</g>
		<polygon fill="#00A7BB" points="147.984,-122.462 147.984,-120.714 146.473,-121.586 144.581,-122.678 144.586,-124.046 
			144.586,-124.423 147.982,-122.464 		"/>
		<polygon fill="#00636F" points="147.984,-120.714 147.984,-120.712 142.275,-117.399 141.314,-116.842 140.766,-117.159 
			137.914,-118.806 138.215,-118.982 138.217,-118.982 138.82,-119.331 138.874,-119.363 144.581,-122.678 146.473,-121.586 		"/>
		<polygon opacity="0.5" fill="#80DEEA" enable-background="new    " points="147.984,-120.712 142.275,-117.399 140.766,-118.273 
			140.764,-118.273 138.874,-119.363 137.373,-120.23 137.37,-120.23 137.337,-120.252 144.581,-124.462 147.984,-122.498 
			148.012,-122.481 147.984,-122.466 		"/>
		<g>
			<polygon fill="#006B78" points="147.959,-122.469 147.959,-122.092 147.955,-120.724 142.247,-117.409 142.193,-117.376 
				141.59,-117.028 141.588,-117.028 141.288,-116.852 140.71,-117.186 140.712,-117.533 140.712,-117.895 140.714,-118.231 
				140.714,-118.259 140.744,-118.276 			"/>
		</g>
	</g>
	<g>
		<path fill="#CFD8DC" d="M73.99-100.138c-2.478-1.432-2.491-3.752-0.029-5.183c2.461-1.431,6.467-1.43,8.944,0
			c2.478,1.431,2.49,3.75,0.029,5.18C80.473-98.708,76.467-98.708,73.99-100.138 M83.542-105.69c-2.831-1.635-7.408-1.635-10.222,0
			c-2.813,1.635-2.798,4.287,0.033,5.921c2.832,1.635,7.409,1.635,10.222,0C86.389-101.403,86.374-104.055,83.542-105.69"/>
		<polyline fill="#CFD8DC" points="82.603,-102.448 77.948,-105.135 77.232,-104.719 79.209,-103.578 76.985,-102.285 
			75.009,-103.427 74.292,-103.011 78.946,-100.323 79.662,-100.739 77.619,-101.919 79.843,-103.212 81.887,-102.032 
			82.603,-102.448 		"/>
	</g>
	<g>
		<polygon fill="#00A7BB" points="158.32,-116.463 158.318,-115.746 158.318,-115.743 158.316,-115.394 157.732,-115.054 
			157.432,-115.227 156.825,-115.578 156.775,-115.606 154.857,-116.713 154.775,-116.763 154.773,-116.763 153.357,-117.579 
			154.869,-118.457 154.872,-118.455 158.285,-116.484 158.287,-116.484 		"/>
		<polygon fill="#00636F" points="157.732,-115.054 151.066,-111.182 148.105,-112.891 147.652,-113.152 147.652,-114.266 
			153.357,-117.579 154.773,-116.763 154.775,-116.763 154.857,-116.713 156.775,-115.606 156.825,-115.578 157.432,-115.227 		"/>
		<polygon opacity="0.5" fill="#006B78" enable-background="new    " points="158.316,-116.501 158.287,-116.484 158.285,-116.484 
			154.872,-118.455 154.869,-118.457 154.872,-118.458 154.872,-118.491 154.898,-118.474 		"/>
		<g>
			<polygon fill="#004D40" points="154.928,-118.467 154.928,-118.09 154.924,-116.722 149.217,-113.407 149.163,-113.375 
				148.561,-113.025 148.557,-113.025 148.257,-112.85 147.68,-113.184 147.682,-113.531 147.682,-113.893 147.684,-114.229 
				147.684,-114.257 147.713,-114.274 			"/>
		</g>
		<polygon opacity="0.5" fill="#80DEEA" enable-background="new    " points="158.285,-116.484 156.775,-115.606 151.07,-112.291 
			149.068,-113.448 147.652,-114.264 147.652,-114.266 153.357,-117.579 154.869,-118.457 154.872,-118.455 		"/>
	</g>
	<g>
		<g enable-background="new    ">
			<g>
				<polygon fill="#35454D" points="144.619,-124.358 144.618,-124.009 137.372,-119.798 137.373,-120.147 				"/>
			</g>
			<g>
				<polygon fill="#FFFFFF" points="158.292,-116.464 158.291,-116.115 144.618,-124.009 144.619,-124.358 				"/>
			</g>
			<g>
				<polygon fill="#FFFFFF" points="151.051,-111.553 151.049,-111.204 137.96,-118.762 137.382,-119.096 136.161,-119.8 
					136.161,-120.149 136.764,-119.802 136.77,-119.798 137.223,-119.537 137.377,-119.447 137.384,-119.444 138.111,-119.023 
					138.26,-118.937 138.262,-118.937 				"/>
			</g>
			<g>
				<polygon fill="#455A64" points="159.502,-116.463 159.502,-116.115 158.3,-115.417 157.716,-115.076 151.049,-111.204 
					151.051,-111.553 157.414,-115.25 158.148,-115.676 158.296,-115.763 158.303,-115.766 158.445,-115.849 158.898,-116.115 				
					"/>
			</g>
			<g>
				<path fill="#CFD8DC" d="M144.613-125.06l14.89,8.596l-8.452,4.912l-14.889-8.596L144.613-125.06z M151.046-112.253l7.246-4.211
					l-13.673-7.894l-7.246,4.211L151.046-112.253L151.046-112.253z"/>
			</g>
		</g>
	</g>
	<g>
		<g>
			<path fill="#78909C" d="M148.6-127.96c0.219,0.132,0.211,0.342-0.018,0.469c-0.229,0.127-0.59,0.124-0.811-0.008
				c-0.219-0.132-0.211-0.341,0.019-0.468C148.018-128.096,148.38-128.092,148.6-127.96z"/>
		</g>
		<g>
			<path fill="#78909C" d="M147.223-128.479c-0.1-0.2-0.009-0.424,0.27-0.578c0.398-0.222,1.031-0.216,1.414,0.015l-0.307,1.082
				c-0.22-0.132-0.582-0.135-0.81-0.008c-0.158,0.088-0.211,0.216-0.154,0.331C147.497-127.918,147.359-128.198,147.223-128.479z"/>
		</g>
		<g>
			<path fill="#78909C" d="M149.184-128.697v0.054c0-0.144-0.092-0.287-0.277-0.398l-0.03-10.928c0.185-0.114,0.276-0.257,0.276-0.4
				l0.002,1.017c0.005,1.512,0.009,3.18,0.013,4.846l0.007,2.294c0.006,1.107,0.008,2.18,0.01,3.171
				C149.184-128.926,149.184-128.811,149.184-128.697z"/>
		</g>
		<g>
			<path fill="#78909C" d="M148.904-129.042c-0.383-0.231-1.016-0.238-1.412-0.015c-0.053,0.027-0.098,0.06-0.135,0.092
				c-0.021,0.017-0.039,0.034-0.055,0.052c-0.078,0.085-0.119,0.18-0.119,0.274l-0.002-0.578l-0.004-1.136
				c-0.003-0.602-0.005-1.221-0.006-1.854l-0.023-8.159c0,0.019,0.002,0.036,0.004,0.053c0.012,0.056,0.033,0.109,0.066,0.159
				c0.045,0.068,0.115,0.133,0.208,0.188c0.384,0.229,1.019,0.235,1.415,0.015c0.012-0.006,0.021-0.013,0.032-0.019L148.904-129.042
				z"/>
		</g>
		<g>
			<path fill="#CFD8DC" d="M149.184-128.697v0.054c0,0.02,0,0.041-0.004,0.062c-0.009,0.036-0.021,0.073-0.039,0.107
				c-0.021,0.043-0.054,0.086-0.096,0.126c-0.007,0.009-0.016,0.015-0.023,0.021c-0.008,0.011-0.02,0.02-0.029,0.026
				c-0.008,0.006-0.016,0.013-0.023,0.02c-0.027,0.02-0.059,0.039-0.093,0.058c-0.069,0.039-0.147,0.071-0.229,0.095
				c-0.144,0.045-0.299,0.068-0.455,0.068h-0.012c-0.262,0-0.522-0.058-0.718-0.175c-0.049-0.03-0.092-0.063-0.129-0.097
				c-0.015-0.015-0.026-0.028-0.04-0.043c-0.014-0.013-0.023-0.026-0.031-0.041c-0.014-0.015-0.023-0.032-0.033-0.049
				c-0.002-0.004-0.004-0.009-0.006-0.013c-0.025-0.052-0.039-0.105-0.039-0.159v-0.002l-0.002-0.578l-0.009-2.99l-0.022-8.159
				c0,0.019,0.002,0.036,0.004,0.053c0.011,0.056,0.031,0.109,0.066,0.159c0.045,0.068,0.114,0.133,0.207,0.188
				c0.383,0.229,1.018,0.235,1.415,0.015c0.011-0.006,0.021-0.013,0.032-0.019c0.186-0.114,0.275-0.257,0.275-0.4l0.002,1.017
				c0.006,1.512,0.01,3.18,0.014,4.846l0.007,2.294c0.005,1.107,0.007,2.18,0.009,3.171
				C149.184-128.926,149.184-128.811,149.184-128.697z"/>
		</g>
		<g>
			<path fill="#78909C" d="M147.637-127.638c-0.14-0.28-0.277-0.561-0.414-0.841c0.043,0.088,0.123,0.171,0.239,0.241
				c0.382,0.23,1.017,0.237,1.414,0.014c0.134-0.074,0.224-0.165,0.271-0.261c-0.006,0.012-0.015,0.029-0.021,0.042
				c-0.062,0.126-0.123,0.253-0.185,0.379c-0.068,0.141-0.137,0.281-0.205,0.422c-0.026,0.055-0.078,0.106-0.154,0.149
				c-0.229,0.127-0.59,0.124-0.811-0.008C147.706-127.54,147.66-127.588,147.637-127.638z"/>
		</g>
		<g>
			<path fill="#78909C" d="M148.145-142.576c0,0.032-0.026,0.066-0.045,0.094C148.115-142.514,148.13-142.544,148.145-142.576z"/>
		</g>
		<g>
			<path fill="#78909C" d="M149.109-140.531c-0.008-0.021-0.019-0.039-0.033-0.058c-0.006-0.008-0.014-0.019-0.021-0.028
				c-0.006-0.008-0.013-0.015-0.019-0.023c-0.015-0.013-0.028-0.028-0.043-0.041c-0.034-0.032-0.075-0.062-0.12-0.09l-0.729-1.806
				C148.469-141.893,148.79-141.212,149.109-140.531z"/>
		</g>
		<g>
			<path fill="#C2185B" d="M149.15-140.37c0,0.144-0.092,0.287-0.275,0.4c-0.012,0.006-0.021,0.013-0.032,0.019
				c-0.397,0.221-1.032,0.214-1.415-0.015c-0.093-0.056-0.162-0.12-0.207-0.188c-0.035-0.049-0.057-0.103-0.066-0.159
				c-0.002-0.017-0.004-0.034-0.004-0.053c0-0.03,0.004-0.061,0.013-0.092c0.002-0.006,0.004-0.015,0.009-0.023
				c0.004-0.011,0.008-0.024,0.016-0.037c0.004-0.008,0.008-0.017,0.013-0.025c0.172-0.369,0.343-0.737,0.514-1.105v-0.002
				c0.024-0.051,0.05-0.103,0.073-0.154c0.009-0.017,0.018-0.036,0.023-0.051s0.016-0.032,0.022-0.051
				c0.017-0.035,0.032-0.066,0.047-0.101c0.009-0.017,0.019-0.034,0.026-0.053c0.015-0.034,0.031-0.068,0.047-0.103
				c0.009-0.015,0.018-0.032,0.023-0.051c0.018-0.034,0.031-0.066,0.047-0.101c0.009-0.017,0.018-0.037,0.025-0.054
				c0.018-0.034,0.032-0.068,0.047-0.103c0.002-0.002,0.002-0.006,0.004-0.009c0.019-0.028,0.045-0.062,0.045-0.094l0.729,1.806
				c0.045,0.028,0.086,0.058,0.12,0.09c0.015,0.013,0.029,0.025,0.043,0.041c0.006,0.009,0.013,0.015,0.02,0.023
				c0.008,0.009,0.016,0.017,0.021,0.028c0.016,0.02,0.026,0.039,0.034,0.058c0.009,0.015,0.016,0.03,0.02,0.045
				c0.002,0.002,0.002,0.004,0.002,0.006c0.008,0.017,0.012,0.034,0.016,0.051C149.148-140.409,149.15-140.39,149.15-140.37z"/>
			<path fill="#C2185B" d="M147.152-140.313c0.012,0.056,0.033,0.109,0.066,0.159C147.184-140.203,147.162-140.257,147.152-140.313z
				"/>
			<path fill="#C2185B" d="M147.785-141.805c-0.014,0.03-0.028,0.061-0.043,0.09c0.006-0.013,0.013-0.027,0.018-0.039
				C147.77-141.769,147.775-141.786,147.785-141.805z"/>
			<path fill="#C2185B" d="M147.712-141.651c0.011-0.021,0.021-0.042,0.03-0.064C147.732-141.692,147.723-141.669,147.712-141.651z"
				/>
			<path fill="#C2185B" d="M147.855-141.959c0.006-0.015,0.016-0.032,0.022-0.049c-0.015,0.035-0.03,0.066-0.047,0.101
				C147.841-141.925,147.85-141.944,147.855-141.959z"/>
			<path fill="#C2185B" d="M147.999-142.268c0.009-0.015,0.017-0.032,0.022-0.049c-0.015,0.034-0.028,0.066-0.047,0.101
				C147.984-142.233,147.993-142.252,147.999-142.268z"/>
			<path fill="#C2185B" d="M148.145-142.576c0.324,0.683,0.646,1.364,0.967,2.045c-0.008-0.021-0.02-0.039-0.034-0.058
				c-0.007-0.008-0.013-0.019-0.021-0.028c-0.007-0.008-0.014-0.015-0.02-0.023c-0.014-0.013-0.028-0.028-0.043-0.041
				c-0.034-0.032-0.075-0.062-0.12-0.09L148.145-142.576z"/>
			<path fill="#C2185B" d="M149.115-140.524c0.006,0.013,0.011,0.026,0.015,0.039c-0.004-0.015-0.011-0.03-0.021-0.045
				C149.113-140.529,149.115-140.526,149.115-140.524z"/>
		</g>
		<g>
			<g>
				<g enable-background="new    ">
					<g>
						<defs>
							<polygon id="SVGID_11_" points="148.77,-129.18 148.775,-131.315 149.535,-130.877 149.529,-128.742 							"/>
						</defs>
						<clipPath id="SVGID_12_">
							<use xlink:href="#SVGID_11_"  overflow="visible"/>
						</clipPath>
						<g clip-path="url(#SVGID_12_)">
							<g>
								<g>
									<g>
										<polyline fill="#455A64" points="148.775,-131.315 148.77,-129.18 149.529,-128.742 149.533,-130.143 148.775,-131.315 
																					"/>
									</g>
								</g>
							</g>
						</g>
					</g>
				</g>
			</g>
		</g>
		<g>
			<g enable-background="new    ">
				<g>
					<defs>
						<polygon id="SVGID_13_" points="147.423,-129.2 147.416,-131.338 146.656,-130.899 146.662,-128.761 						"/>
					</defs>
					<clipPath id="SVGID_14_">
						<use xlink:href="#SVGID_13_"  overflow="visible"/>
					</clipPath>
					<g clip-path="url(#SVGID_14_)">
						<polyline fill="#455A64" points="147.416,-131.338 147.423,-129.2 146.662,-128.761 146.658,-130.166 147.416,-131.338 						
							"/>
					</g>
				</g>
			</g>
		</g>
	</g>
	<g>
		<g opacity="0.5">
			<path opacity="0.5" fill="#FFA726" enable-background="new    " d="M147.868-126.406c0.125-0.021,0.377-0.273,0.377-0.273
				c0.754,0.503,0.251,1.258,0,1.51c-0.503,0.251-0.503-0.503-0.573-0.678C147.693-126.049,147.764-126.252,147.868-126.406z"/>
			<path opacity="0.5" fill="#FFA726" enable-background="new    " d="M147.805-125.43c0.188-0.242,0.44-0.494,0.691-0.242
				c0.252,0.755,0,1.51-0.754,2.013c0-0.503,0-0.755-0.178-1.205C147.596-125.072,147.676-125.275,147.805-125.43z"/>
			<path opacity="0.5" fill="#FFA726" enable-background="new    " d="M147.785-124.421c-0.043-0.245,0.208-0.245,0.46-0.245
				c0.754,0.503,0,1.006,0,1.509c-0.252,1.006-0.755,0.252-1.007,0c0.252-0.251,0.252-0.503,0.262-0.705
				C147.561-124.082,147.654-124.279,147.785-124.421z"/>
			<path opacity="0.5" fill="#FFA726" enable-background="new    " d="M148.335-124.814c0.161-0.104,0.413-0.104,0.664-0.104
				c-0.503,0.503,0,1.509-1.006,1.761c0-0.251,0-0.754,0.036-0.953C148.115-124.379,148.209-124.622,148.335-124.814z"/>
			<path opacity="0.5" fill="#FFA726" enable-background="new    " d="M148.262-123.95c0.234,0.039,0.486-0.968,0.486-0.213
				c0.251,0.754,0,1.761-0.755,2.012c-0.503,0-0.251-0.754-0.134-1.032C147.966-123.469,148.111-123.745,148.262-123.95z"/>
			<path opacity="0.5" fill="#FFA726" enable-background="new    " d="M148.611-124.807c0.137-0.362,0.388-0.362,0.64-0.362
				c0.252,1.006,0,2.264-1.006,2.264c-0.252,0.251-0.252-0.503-0.007-1.041C148.333-124.251,148.466-124.559,148.611-124.807z"/>
			<path opacity="0.5" fill="#FFA726" enable-background="new    " d="M148.604-125.456c0.146-0.217,0.146-0.217,0.396-0.468
				c0.755,0.755,0,1.761-0.503,2.516c-0.251-0.503-0.251-0.754-0.15-1.268C148.387-124.946,148.473-125.224,148.604-125.456z"/>
			<path opacity="0.5" fill="#FFA726" enable-background="new    " d="M148.65-124.894c0.349-0.275,0.601-0.778,0.853-0.526
				c0.503,1.006-0.504,1.761-1.007,2.516c-0.503-0.503-0.251-1.006-0.063-1.537C148.501-124.602,148.572-124.755,148.65-124.894z"/>
			<path opacity="0.5" fill="#FFA726" enable-background="new    " d="M148.617-124.218c0.131-0.196,0.382-0.699,0.886-0.448
				c-0.252,0.755-0.504,2.013-1.007,2.264c-1.006,0.251,0.252-0.755-0.153-1.313C148.432-123.89,148.523-124.063,148.617-124.218z"
				/>
			<path opacity="0.5" fill="#FFA726" enable-background="new    " d="M148.484-124.098c0.264-0.316,0.515-0.819,1.019-0.568
				c-0.504,0.755-0.252,2.516-1.761,2.516c0-0.503,0.251-1.006,0.447-1.438C148.284-123.768,148.385-123.945,148.484-124.098z"/>
			<path opacity="0.5" fill="#BF360C" enable-background="new    " d="M148.258-123.61c0.238-0.301,0.49-0.552,0.741-0.804
				c0.252,1.006,0.755,2.768-1.006,2.516c-0.251,0-0.251-0.755-0.042-1.196C148.042-123.277,148.145-123.453,148.258-123.61z"/>
			<path opacity="0.5" fill="#FFA726" enable-background="new    " d="M147.818-123.465c0.175-0.446,0.678-0.697,0.93-0.194
				c0.251,0.755,0,1.761-0.503,2.264c-1.259,0.503-1.511-1.006-0.728-1.638C147.613-123.199,147.716-123.347,147.818-123.465z"/>
			<path opacity="0.5" fill="#F57C00" enable-background="new    " d="M148.016-123.785c0.229-0.126,0.229-0.378,0.48-0.63
				c1.007,0.755,0.503,2.013,0,2.768c-0.251,0.251-1.006,0-1.258-0.503c0-0.503,0.252-0.754,0.48-1.178
				C147.809-123.497,147.908-123.651,148.016-123.785z"/>
			<path opacity="0.5" fill="#B0BEC5" enable-background="new    " d="M147.432-122.548c0.312-0.356,0.813-0.608,1.064-0.356
				c0.252,0.754,0.252,1.509,0,2.264c-0.251,0.251-0.754,0.503-1.258,0s-0.252-1.006-0.07-1.532
				C147.236-122.317,147.328-122.446,147.432-122.548z"/>
			<path opacity="0.5" fill="#B0BEC5" enable-background="new    " d="M147.035-121.902c1.964-0.5,1.713,2.267,0.707,2.519
				c-1.008,0-1.008-1.509-0.899-2.208C146.885-121.721,146.95-121.827,147.035-121.902z"/>
			<path opacity="0.5" fill="#B0BEC5" enable-background="new    " d="M147.457-121.229c0.285-0.418,1.039-0.921,1.039-0.669
				c0.503,1.258,0.755,2.767-0.503,3.521c0-1.006-1.007-1.509-0.741-2.411C147.298-120.955,147.367-121.103,147.457-121.229z"/>
			<path opacity="0.5" fill="#B0BEC5" enable-background="new    " d="M146.861-121.875c0.629-0.023,1.132-0.023,1.384,0.228
				c0.754,1.006,0.251,2.264-0.755,2.767c-0.252-1.006-1.51-1.51-0.844-2.723C146.695-121.726,146.768-121.818,146.861-121.875z"/>
			<path opacity="0.5" fill="#D84315" enable-background="new    " d="M146.868-122.03c0.37-0.12,0.622-0.12,0.874-0.12
				c1.006,1.006,0.754,2.264,0.503,3.522c-1.007-0.503-2.265-1.761-1.629-3.109C146.676-121.867,146.762-121.966,146.868-122.03z"/>
			<path opacity="0.5" fill="#B0BEC5" enable-background="new    " d="M146.877-120.848c0.613-0.044,0.865-0.044,1.368-0.044
				c-0.252,1.258,1.258,2.264-0.503,3.522c0.251-1.258-1.51-1.761-1.188-3.063C146.607-120.64,146.725-120.778,146.877-120.848z"/>
			<path opacity="0.5" fill="#B0BEC5" enable-background="new    " d="M146.59-120.763c1.655,0.123,2.661,1.631,1.906,3.487
				c-0.125,0.22-0.377,0.283-0.754-0.094c-0.504-0.503-1.23-1.006-1.533-1.871c-0.075-0.215-0.124-0.454-0.134-0.705
				c-0.009-0.246,0.024-0.485,0.114-0.69C146.277-120.758,146.413-120.801,146.59-120.763z"/>
			<path opacity="0.5" fill="#B0BEC5" enable-background="new    " d="M146.157-121.174c1.333,1.036,2.339,2.294,2.339,4.055
				c-0.221,0.032-0.436,0.016-0.645-0.039c-1.254-0.329-2.238-2.064-2.193-3.457c0.008-0.232,0.044-0.455,0.111-0.66
				C145.874-121.341,146.002-121.301,146.157-121.174z"/>
			<path opacity="0.5" fill="#B0BEC5" enable-background="new    " d="M146.499-120.096c0.739,0.964,3.004,0.713,2.032,2.589
				c-0.036,0.208-0.035,0.43-0.035,0.639c0,0.503-1.258-0.251-1.697,0.682c-0.04,0.269-0.063,0.544-0.063,0.828
				c-0.127-0.21-0.202-0.426-0.248-0.648c-0.045-0.221-0.059-0.448-0.049-0.667c0.666-1.21-0.445-2.11-0.553-3.036
				c-0.021-0.185-0.002-0.371,0.08-0.555C146.084-120.323,146.266-120.247,146.499-120.096z"/>
			<path opacity="0.5" fill="#B0BEC5" enable-background="new    " d="M147.063-119.642c0.176-0.245,0.68-0.496,0.931-0.245
				c1.258,0.754,0.755,2.012,1.258,3.019c0.126,0.252-0.252,0.252-0.733,0.317c-0.48,0.064-1.066,0.194-1.358,0.704
				c0.005,0.242,0.03,0.489,0.079,0.74c-0.502-0.315-0.754-0.676-0.861-1.067c-0.055-0.196-0.072-0.398-0.068-0.606
				c0.717-0.295,0.698-0.757,0.543-1.287c-0.053-0.176-0.119-0.359-0.172-0.539c-0.195-0.274-0.195-0.777,0.006-0.916
				C146.787-119.573,146.913-119.617,147.063-119.642z"/>
			<path opacity="0.5" fill="#B0BEC5" enable-background="new    " d="M146.966-120.472c0.524-0.168,1.027-0.924,1.53-0.42
				c1.258,1.006,0.503,2.516,0.503,3.773c0.063,0.251-0.017,0.377-0.173,0.444c-0.473,0.2-1.65-0.13-1.84,0.813
				c-0.252-0.252-0.504-0.754-0.504-1.006c0.168-0.251,0.267-0.489,0.315-0.717c0.05-0.228,0.05-0.445,0.022-0.658
				c0.166-0.637-0.842-1.392-0.12-2.023C146.775-120.343,146.861-120.413,146.966-120.472z"/>
			<path opacity="0.5" fill="#B0BEC5" enable-background="new    " d="M146.941-121.072c0.297-0.575,1.052-0.826,1.555-0.575
				c1.258,1.257,0.252,3.019,0.755,4.779c-0.188,0.126-0.394,0.188-0.604,0.22c-0.638,0.094-1.344-0.094-1.91,0.283
				c0.252-0.251,0.755-0.503,0.755-0.755s-0.056-0.488-0.142-0.716c-0.11-1.044-1.619-1.799-0.713-2.958
				C146.717-120.907,146.818-121.002,146.941-121.072z"/>
			<path opacity="0.5" fill="#78909C" enable-background="new    " d="M146.959-120.466c0.531-0.426,1.034-0.678,1.789-0.93
				c0.251,1.51,0.755,2.768,0.503,4.277c0.063,0.251,0,0.409-0.142,0.512c-0.42,0.308-1.539,0.125-2.055,0.523
				c-0.051,0.228-0.068,0.474-0.068,0.726c-0.125-0.189-0.225-0.382-0.301-0.577c-0.076-0.196-0.129-0.395-0.168-0.596
				c0.162-0.266,0.262-0.522,0.317-0.771c0.056-0.25,0.067-0.492,0.054-0.729c-0.406-0.848-0.154-1.604-0.181-2.246
				C146.777-120.35,146.859-120.413,146.959-120.466z"/>
			<path opacity="0.5" fill="#B0BEC5" enable-background="new    " d="M147.523-120.309c0.47-0.835,1.225-1.589,1.979-2.093
				c-0.252,1.761,0.251,3.522,0,5.283c0.335,0.419,0.279,0.587,0.024,0.653c-0.508,0.131-1.805-0.144-2.348,0.373
				c-0.125,0.196-0.168,0.458-0.193,0.735c-0.125-0.252-0.221-0.5-0.288-0.744c-0.068-0.245-0.077-0.447-0.036-0.603
				c0.222-0.195,0.379-0.392,0.486-0.592c0.106-0.201,0.166-0.404,0.189-0.61c0.403-0.722,0.403-1.225,0.008-1.951
				C147.38-120.009,147.441-120.16,147.523-120.309z"/>
			<path opacity="0.5" fill="#B0BEC5" enable-background="new    " d="M147.555-119.605c0.69-0.03,0.438-1.539,1.193-1.036
				s1.509,2.012,0.855,3.378c0.021,0.211,0.088,0.426,0.149,0.647c0.252,1.006-1.761,0-2.012,1.258
				c0.125,0.251-0.063,0.44-0.315,0.503c-0.251,0.063-0.564,0-0.691-0.251c-0.063-0.22-0.117-0.444-0.164-0.672
				c-0.047-0.227-0.086-0.459-0.114-0.693c0.015-0.45,0.21-0.926,0.376-1.457c0.057-0.174,0.111-0.354,0.184-0.508
				c0.224-0.193,0.224-0.444,0.332-0.819C147.398-119.369,147.468-119.482,147.555-119.605z"/>
			<path opacity="0.5" fill="#B0BEC5" enable-background="new    " d="M147.613-119.55c0.38-0.587,0.632-1.09,0.883-1.594
				c0.755,1.006,1.51,2.012,1.173,3.599c0.033,0.227,0.097,0.46,0.214,0.698c0.123,0.238,0.249,0.482,0.374,0.733
				c-0.754,0-1.761,0.252-2.608,0.579c-0.055,0.227-0.107,0.453-0.157,0.679c-0.503-0.188-0.817-0.55-0.999-1.014
				c-0.09-0.231-0.146-0.488-0.178-0.762c0.211-0.496,0.441-0.932,0.601-1.402c0.056-0.154,0.121-0.294,0.187-0.425
				c-0.112-0.17,0.139-0.421,0.31-0.735C147.465-119.305,147.531-119.426,147.613-119.55z"/>
			<path opacity="0.5" fill="#455A64" enable-background="new    " d="M147.831-119.875c0.414-1.018,1.168-1.772,1.923-2.527
				c-1.006,1.761,0.503,3.27,0.227,5.027c0.054,0.22,0.158,0.434,0.256,0.644c0.104,0.21,0.197,0.417,0.272,0.617
				c-1.006,0-2.013,0.252-3.022,0.525c-0.09,0.237-0.172,0.482-0.248,0.733c-0.301-0.302-0.512-0.674-0.647-1.091
				c-0.067-0.208-0.116-0.428-0.147-0.655c0.099-0.34,0.33-0.679,0.562-1.027c0.115-0.174,0.233-0.347,0.373-0.492
				c0.617-0.257,0.869-0.76,0.317-1.208C147.723-119.51,147.766-119.689,147.831-119.875z"/>
		</g>
		<g>
			<circle opacity="0.5" fill="#FFA726" enable-background="new    " cx="147.923" cy="-124.685" r="0.522"/>
			<circle opacity="0.5" fill="#FFA726" enable-background="new    " cx="147.884" cy="-124.055" r="0.552"/>
			<circle opacity="0.5" fill="#FFA726" enable-background="new    " cx="147.889" cy="-123.393" r="0.563"/>
			<circle opacity="0.5" fill="#FFA726" enable-background="new    " cx="148.499" cy="-123.498" r="0.565"/>
			<circle opacity="0.5" fill="#FFA726" enable-background="new    " cx="148.588" cy="-122.99" r="0.566"/>
			<circle opacity="0.5" fill="#FFA726" enable-background="new    " cx="148.865" cy="-123.327" r="0.616"/>
			<circle opacity="0.5" fill="#FFA726" enable-background="new    " cx="148.836" cy="-123.734" r="0.627"/>
			<circle opacity="0.5" fill="#FFA726" enable-background="new    " cx="148.928" cy="-123.315" r="0.67"/>
			<circle opacity="0.5" fill="#FFA726" enable-background="new    " cx="149.051" cy="-122.886" r="0.685"/>
			<circle opacity="0.5" fill="#FFA726" enable-background="new    " cx="148.925" cy="-122.841" r="0.735"/>
			<circle opacity="0.5" fill="#BF360C" enable-background="new    " cx="148.824" cy="-122.587" r="0.791"/>
			<circle opacity="0.5" fill="#FFA726" enable-background="new    " cx="148.284" cy="-122.583" r="0.829"/>
			<circle opacity="0.5" fill="#F57C00" enable-background="new    " cx="148.441" cy="-122.732" r="0.835"/>
			<circle opacity="0.5" fill="#B0BEC5" enable-background="new    " cx="148.127" cy="-122.089" r="0.841"/>
			<circle opacity="0.5" fill="#B0BEC5" enable-background="new    " cx="147.786" cy="-121.626" r="0.91"/>
			<circle opacity="0.5" fill="#B0BEC5" enable-background="new    " cx="148.188" cy="-121.208" r="0.937"/>
			<circle opacity="0.5" fill="#B0BEC5" enable-background="new    " cx="147.609" cy="-121.485" r="0.995"/>
			<circle opacity="0.5" fill="#D84315" enable-background="new    " cx="147.667" cy="-121.496" r="1.092"/>
			<circle opacity="0.5" fill="#B0BEC5" enable-background="new    " cx="147.531" cy="-120.752" r="1.102"/>
			<circle opacity="0.5" fill="#B0BEC5" enable-background="new    " cx="147.209" cy="-120.441" r="1.188"/>
			<circle opacity="0.5" fill="#B0BEC5" enable-background="new    " cx="146.797" cy="-120.259" r="1.266"/>
			<circle opacity="0.5" fill="#B0BEC5" enable-background="new    " cx="147.111" cy="-119.789" r="1.318"/>
			<circle opacity="0.5" fill="#B0BEC5" enable-background="new    " cx="147.635" cy="-119.746" r="1.4"/>
			<circle opacity="0.5" fill="#B0BEC5" enable-background="new    " cx="147.802" cy="-120.244" r="1.479"/>
			<circle opacity="0.5" fill="#B0BEC5" enable-background="new    " cx="147.857" cy="-120.508" r="1.571"/>
			<circle opacity="0.5" fill="#78909C" enable-background="new    " cx="147.84" cy="-120.159" r="1.572"/>
			<circle opacity="0.5" fill="#B0BEC5" enable-background="new    " cx="148.507" cy="-120.002" r="1.679"/>
			<circle opacity="0.5" fill="#B0BEC5" enable-background="new    " cx="148.249" cy="-119.522" r="1.691"/>
			<circle opacity="0.5" fill="#B0BEC5" enable-background="new    " cx="148.307" cy="-119.44" r="1.736"/>
			<path opacity="0.5" fill="#455A64" enable-background="new    " d="M147.779-121.073c0.873-0.51,2-0.217,2.512,0.66
				c0.51,0.874,0.212,1.999-0.661,2.508c-0.875,0.511-1.997,0.215-2.508-0.658C146.609-119.44,146.904-120.563,147.779-121.073z"/>
		</g>
	</g>
	<polygon fill="#EF6C00" points="148.047,-136.997 148.18,-136.73 148.473,-136.688 148.26,-136.48 148.311,-136.188 
		148.047,-136.326 147.784,-136.188 147.835,-136.48 147.622,-136.688 147.916,-136.73 	"/>
</g>
<line fill="none" x1="-351.087" y1="284.531" x2="-351.087" y2="284.16"/>
<g>
	<path fill="#D74108" d="M-105.466,116.632c0.012,4.363,1.556,7.431,4.042,8.878c0.689,0.401,1.453,0.678,2.269,0.813
		c0.098,0.025,0.201,0.035,0.305,0.054c0.046,0.006,0.098,0.013,0.144,0.019c0.144,0.018,0.287,0.026,0.431,0.035
		c0.167,0.012,0.333,0.016,0.5,0.016c0.677,0,1.378-0.074,2.112-0.24c0.029-0.006,0.058-0.012,0.087-0.018
		c0.252-0.058,0.511-0.125,0.77-0.207c0.39-0.113,0.78-0.252,1.183-0.412c0.401-0.168,0.81-0.353,1.223-0.563
		c0.276-0.139,0.551-0.286,0.827-0.448c0.482-0.281,0.959-0.58,1.43-0.908c4.003-2.783,7.494-7.246,9.739-12.092
		c1.665-3.601,2.646-7.414,2.636-10.918l-0.04-15.901l-0.012-3.755l-27.701,15.992L-105.466,116.632z M-79.447,83.791l0.052,17.791
		c0.011,2.98-0.798,6.219-2.177,9.297c-2.199,4.91-5.862,9.412-10.009,11.807c-0.04,0.023-0.074,0.045-0.114,0.063
		c-3.343,1.896-6.38,2.058-8.573,0.78c-0.018-0.012-0.029-0.018-0.041-0.022c-0.12-0.073-0.241-0.149-0.361-0.233
		c0,0-0.006,0-0.012-0.008c-0.114-0.078-0.229-0.166-0.339-0.265c-0.27-0.213-0.522-0.459-0.758-0.729
		c-0.08-0.092-0.155-0.184-0.229-0.281c-0.126-0.153-0.247-0.321-0.356-0.493c-0.086-0.138-0.172-0.274-0.253-0.418
		c-0.011-0.022-0.022-0.048-0.034-0.063c-0.074-0.146-0.148-0.293-0.218-0.441c-0.161-0.328-0.293-0.678-0.413-1.051
		c-0.063-0.187-0.115-0.375-0.167-0.57c-0.052-0.189-0.092-0.383-0.132-0.584c-0.006-0.012-0.006-0.023-0.012-0.035
		c-0.029-0.148-0.058-0.299-0.08-0.459c-0.012-0.074-0.023-0.148-0.035-0.225c0,0,0-0.006,0-0.012
		c-0.022-0.179-0.046-0.367-0.063-0.558c-0.018-0.172-0.035-0.345-0.04-0.521c-0.007-0.013-0.007-0.023,0-0.035
		c-0.012-0.098-0.012-0.189-0.018-0.287c-0.006-0.178-0.012-0.361-0.012-0.545l-0.052-17.784L-79.447,83.791z"/>
	<path fill="#FF5003" d="M-103.893,97.907l24.445-14.116l0.052,17.791c0.011,2.98-0.798,6.219-2.177,9.297
		c-2.199,4.91-5.862,9.412-10.009,11.807c-0.04,0.023-0.074,0.045-0.114,0.063c-3.343,1.896-6.38,2.058-8.573,0.78
		c-0.018-0.012-0.029-0.018-0.041-0.022c-0.126-0.073-0.241-0.149-0.361-0.233c0,0-0.006,0-0.012-0.008
		c-0.114-0.078-0.229-0.166-0.339-0.265c-0.27-0.213-0.522-0.459-0.758-0.729c-0.08-0.092-0.155-0.184-0.229-0.281
		c-0.126-0.153-0.247-0.321-0.356-0.493c-0.086-0.138-0.166-0.274-0.253-0.418c-0.011-0.022-0.022-0.048-0.034-0.063
		c-0.074-0.146-0.148-0.293-0.218-0.441c-0.155-0.334-0.293-0.678-0.413-1.051c-0.058-0.187-0.115-0.375-0.167-0.57
		c-0.046-0.189-0.092-0.383-0.132-0.584c-0.006-0.012-0.006-0.023-0.012-0.035c-0.029-0.148-0.052-0.305-0.08-0.459
		c-0.012-0.07-0.023-0.148-0.035-0.225c0,0,0-0.006,0-0.012c-0.022-0.185-0.046-0.367-0.063-0.558
		c-0.018-0.172-0.035-0.345-0.04-0.521c-0.007-0.013-0.007-0.023,0-0.035c-0.012-0.098-0.012-0.189-0.018-0.287
		c-0.006-0.178-0.012-0.361-0.012-0.545L-103.893,97.907z"/>
</g>
<g>
	<g enable-background="new    ">
		<g>
			<path fill="#AEB8B8" d="M-115.67,71.121l-0.199,70.214c-0.002,0.72-0.476,1.438-1.42,1.985c-1.897,1.104-4.989,1.104-6.902-0.002
				c-0.962-0.555-1.441-1.284-1.439-2.012l0.198-70.213c-0.002,0.728,0.479,1.457,1.44,2.012c1.913,1.105,5.004,1.105,6.902,0.002
				C-116.146,72.558-115.672,71.84-115.67,71.121z"/>
		</g>
		<g>
			<path fill="#AEB8B8" d="M-117.112,69.107c1.914,1.104,1.924,2.896,0.022,4c-1.898,1.104-4.989,1.104-6.902-0.002
				c-1.911-1.103-1.921-2.894-0.023-3.996C-122.113,68.003-119.022,68.003-117.112,69.107z"/>
		</g>
	</g>
</g>
<g>
	<g enable-background="new    ">
		<g>
			<path fill="#AEB8B8" d="M-115.67,107.939l-0.18,63.939c-1.37,0.08-2.761,0.12-4.15,0.12c-0.47,0-0.94,0-1.41-0.021
				c-0.58,0-1.15-0.021-1.72-0.051c-0.83-0.029-1.66-0.08-2.48-0.148l0.08-29.9l0.1-33.97c0,0.729,0.48,1.46,1.44,2.021
				c0.26,0.149,0.55,0.279,0.86,0.391c0.53,0.199,1.12,0.33,1.72,0.398c1.52,0.15,3.15-0.109,4.32-0.789
				c0.35-0.199,0.64-0.431,0.859-0.681c0.15-0.16,0.271-0.33,0.36-0.511c0.04-0.069,0.07-0.141,0.09-0.221
				c0.011-0.02,0.021-0.029,0.021-0.039C-115.7,108.311-115.67,108.13-115.67,107.939z"/>
		</g>
		<g>
			<path fill="#AEB8B8" d="M-117.112,105.93c1.914,1.104,1.924,2.895,0.022,4c-1.898,1.104-4.989,1.104-6.902-0.002
				c-1.911-1.105-1.921-2.894-0.023-3.996C-122.113,104.825-119.022,104.825-117.112,105.93z"/>
		</g>
	</g>
</g>
<path opacity="0.5" fill="#DFE9E9" enable-background="new    " d="M-121.41,86.15v85.831c-0.58,0-1.15-0.021-1.72-0.051V86.15
	H-121.41z"/>
<g>
	<polygon fill="#8C101C" points="-79.433,80.936 -137.711,47.068 -137.762,29.282 -79.482,63.149 	"/>
</g>
<g>
	<polygon fill="#A53725" points="-103.875,95.049 -162.153,61.181 -137.711,47.068 -79.433,80.936 	"/>
</g>
<polygon fill="#D74108" points="-79.493,80.983 -79.493,82.843 -103.611,96.768 -103.611,94.897 -79.499,80.977 "/>
<g>
	<path fill="#872A0F" d="M-141.331,21.448c19.427,11.289,38.852,22.578,58.278,33.868c2.196,1.276,3.56,3.987,3.57,7.834
		l-58.279-33.868C-137.772,25.434-139.136,22.724-141.331,21.448z"/>
</g>
<g>
	<g>
		<g>
			<g enable-background="new    ">
				<g>
					<defs>
						<polygon id="SVGID_15_" points="-108.796,74.788 -108.743,56.256 -83.453,70.857 -83.506,89.39 						"/>
					</defs>
					<clipPath id="SVGID_16_">
						<use xlink:href="#SVGID_15_"  overflow="visible"/>
					</clipPath>
					<g clip-path="url(#SVGID_16_)">
						<g>
							<g>
								<g>
									<path fill="#DFE9E9" d="M-107.942,60.349l0.705,14.434l5.742-4.125L-107.942,60.349 M-84.953,72.013l-5.744,4.121
										l6.442,10.297L-84.953,72.013"/>
									<path fill="#C8D2D2" d="M-108.748,57.966l0.846,17.338l24.401,12.375l-0.003-0.045l-24.398-12.374l0.665-0.479
										l-0.705-14.434l6.447,10.309l0.473-0.339L-108.748,57.966 M-84.317,70.956l0.001,0.006l-6.634,4.768l0.253,0.404
										l5.744-4.121l0.698,14.418l0.751,1.201L-84.317,70.956 M-84.347,70.342l-0.261,0.192l0.276,0.14L-84.347,70.342"/>
									<path fill="#DFE9E9" d="M-97.475,75.973l0.002,0.003c0.001,0.002,0.003,0.004,0.005,0.007
										C-97.471,75.979-97.473,75.976-97.475,75.973 M-91.42,76.067l-2.535,1.822c-0.484,0.347-1.16,0.278-1.838-0.113
										c-0.576-0.333-1.154-0.898-1.617-1.639l-0.407-0.646c0.104,0.159,0.209,0.313,0.325,0.458
										c-0.059-0.084-0.116-0.17-0.172-0.259l-2.831-4.527l-5.743,4.126l20.983,10.638L-91.42,76.067"/>
									<polyline fill="#C8D2D2" points="-90.95,75.729 -91.42,76.067 -85.255,85.925 -106.238,75.288 -100.495,71.162 
										-101.022,70.319 -101.495,70.658 -107.237,74.783 -107.902,75.261 -83.504,87.635 -83.501,87.636 -83.504,87.632 
										-84.255,86.431 -90.697,76.134 -90.95,75.729 									"/>
									<path opacity="0.302" fill="#AEB8B8" enable-background="new    " d="M-84.607,70.534l-0.005-0.002l-6.614,4.756
										l0.001,0.001l6.616-4.754L-84.607,70.534 M-84.329,70.675l-0.002-0.001l0.014,0.282L-84.329,70.675"/>
									<polyline fill="#C0CACA" points="-84.331,70.674 -84.607,70.534 -84.609,70.535 -91.226,75.289 -90.95,75.729 
										-84.316,70.961 -84.317,70.956 -84.331,70.674 									"/>
									<path fill="#D0DADA" d="M-91.696,75.626l-2.52,1.812c-0.484,0.344-1.161,0.272-1.838-0.119
										c-0.496-0.286-0.992-0.744-1.414-1.335c-0.002-0.002-0.004-0.005-0.005-0.007l-0.002-0.003
										c-0.006-0.008-0.013-0.017-0.018-0.024c-0.116-0.146-0.221-0.298-0.325-0.458l0.407,0.646
										c0.463,0.741,1.041,1.306,1.617,1.639c0.678,0.391,1.354,0.46,1.838,0.113l2.535-1.822L-91.696,75.626"/>
									<polyline fill="#C0CACA" points="-91.227,75.288 -91.696,75.626 -91.42,76.067 -90.95,75.729 -91.226,75.289 
										-91.227,75.288 									"/>
									<path fill="#B4E051" d="M-84.347,70.342l-24.401-12.376l7.726,12.354l0.527,0.842l2.831,4.527
										c0.056,0.089,0.113,0.175,0.172,0.259c0.005,0.008,0.012,0.016,0.018,0.024c0.002,0.003,0.004,0.006,0.007,0.01
										c0.422,0.591,0.918,1.049,1.414,1.335c0.677,0.391,1.354,0.463,1.838,0.119l2.52-1.812l0.47-0.338l6.614-4.756
										L-84.347,70.342"/>
								</g>
							</g>
						</g>
					</g>
				</g>
			</g>
		</g>
	</g>
	<g>
		<g>
			<g enable-background="new    ">
				<g>
					<defs>
						<polygon id="SVGID_17_" points="-107.364,79.828 -107.309,60.071 -81.438,75.007 -81.494,94.764 						"/>
					</defs>
					<clipPath id="SVGID_18_">
						<use xlink:href="#SVGID_17_"  overflow="visible"/>
					</clipPath>
					<g clip-path="url(#SVGID_18_)">
						<g>
							<g>
								<g>
									<path fill="#DFE9E9" d="M-82.339,79.366l-6.739,2.342l5.396,10.851L-82.339,79.366 M-105.227,63.323l-1.338,13.191
										l6.734-2.342L-105.227,63.323"/>
									<path fill="#C8D2D2" d="M-81.446,78.008l-0.312,0.108l0.279,0.196l-0.027,0.264l-7.782,2.711l0.21,0.421l6.739-2.342
										l-1.344,13.193l0.623,1.253L-81.446,78.008 M-105.737,60.978l-1.618,15.85l24.291,17.03l0.005-0.042l-24.29-17.029
										l0.785-0.273l1.338-13.191l5.396,10.849l0.554-0.193L-105.737,60.978"/>
									<path fill="#DFE9E9" d="M-98.834,74.868l-6.738,2.342l20.89,14.647l-5.158-10.376l-2.976,1.036
										c-0.451,0.156-0.993,0.046-1.532-0.265c-0.716-0.413-1.426-1.181-1.908-2.147l-0.337-0.687
										c0.088,0.175,0.177,0.342,0.283,0.506c-0.054-0.095-0.106-0.193-0.156-0.293L-98.834,74.868"/>
									<polyline fill="#C8D2D2" points="-99.276,73.979 -99.83,74.171 -106.564,76.514 -107.35,76.787 -83.06,93.815 
										-83.058,93.817 -83.06,93.813 -83.683,92.56 -89.078,81.708 -89.288,81.288 -89.841,81.481 -84.683,91.857 -105.572,77.21 
										-98.834,74.868 -99.276,73.979 									"/>
									<polyline fill="#C0CACA" points="-81.758,78.116 -89.521,80.817 -89.288,81.288 -81.506,78.576 -81.479,78.312 
										-81.758,78.116 									"/>
									<path fill="#D0DADA" d="M-90.075,81.011l-2.958,1.029c-0.45,0.156-0.992,0.046-1.53-0.265
										c-0.642-0.371-1.276-1.024-1.747-1.851c-0.106-0.165-0.195-0.332-0.283-0.506l0.337,0.687
										c0.482,0.966,1.192,1.734,1.908,2.147c0.539,0.311,1.081,0.421,1.532,0.265l2.976-1.036L-90.075,81.011"/>
									<polyline fill="#C0CACA" points="-89.521,80.817 -90.075,81.011 -89.841,81.481 -89.288,81.288 -89.521,80.817 									
										"/>
									<path fill="#C0E6FF" d="M-105.737,60.978l6.461,13.001l0.442,0.889l2.367,4.763c0.05,0.1,0.103,0.198,0.156,0.293
										c0.471,0.826,1.105,1.48,1.747,1.851c0.538,0.311,1.08,0.421,1.53,0.265l2.958-1.029l0.554-0.193l7.764-2.701l0.312-0.108
										L-105.737,60.978"/>
								</g>
							</g>
						</g>
					</g>
				</g>
			</g>
		</g>
	</g>
</g>
<path fill="#D74108" d="M-77.799,81.867l-0.059-19.656c-0.022-8.78-6.253-12.334-13.89-7.924
	c-7.644,4.416-13.833,15.137-13.805,23.917l0.052,19.656l1.889-1.092v-1.871l-0.264,0.154l-0.052-17.79
	c-0.022-7.74,5.443-17.209,12.185-21.104c6.736-3.888,12.237-0.752,12.26,6.988l0.053,17.79l-0.069,0.04l0.006,0.006v1.86
	L-77.799,81.867z"/>
<g>
	<polygon fill="#FF5003" points="-105.497,97.86 -163.776,63.991 -163.832,44.334 -105.554,78.202 	"/>
</g>
<g>
	<path fill="#FF5003" d="M-140.178,19.463L-81.9,53.331c-2.519-1.464-6.006-1.261-9.848,0.958l-58.278-33.868
		C-146.184,18.203-142.697,17.999-140.178,19.463z"/>
</g>
<g>
	<path fill="#FF5003" d="M-105.554,78.202l-58.278-33.868c-0.024-8.78,6.166-19.502,13.807-23.913l58.278,33.868
		C-99.388,58.7-105.578,69.422-105.554,78.202z"/>
</g>
<path opacity="0.5" fill="#FF7832" enable-background="new    " d="M-97.869,59.679c-1.233,1.246-2.382,2.641-3.41,4.134
	l-58.313-33.822c1.027-1.493,2.17-2.888,3.399-4.134L-97.869,59.679z"/>
<g>
	<g>
		<g enable-background="new    ">
			<g>
				<polygon fill="#868E8E" points="-110.765,47.676 -110.06,47.266 -110.139,75.35 -110.844,75.76 				"/>
			</g>
			<g>
				<polygon fill="#969F9F" points="-118.911,42.972 -118.206,42.563 -110.06,47.266 -110.765,47.676 				"/>
			</g>
			<g>
				<polygon fill="#5D6363" points="-110.765,47.676 -110.844,75.76 -115.729,72.94 -115.682,56.558 -118.927,48.592 
					-118.911,42.972 				"/>
			</g>
		</g>
	</g>
</g>
<g>
	<g enable-background="new    ">
		<g>
			<path fill="#6D7777" d="M-116.489,71.163l1.619-0.94c0.592-0.345,1.413-0.296,2.318,0.227l-1.618,0.94
				C-115.076,70.867-115.896,70.818-116.489,71.163z"/>
		</g>
		<g>
			<path fill="#6D7777" d="M-110.253,78.167l-1.619,0.94c0.585-0.34,0.947-1.063,0.951-2.091c0.005-2.068-1.449-4.587-3.249-5.627
				l1.618-0.94c1.801,1.039,3.255,3.559,3.249,5.627C-109.306,77.103-109.668,77.827-110.253,78.167z"/>
		</g>
		<g>
			<path fill="#AEB8B8" d="M-114.17,71.389c1.8,1.04,3.254,3.559,3.249,5.627c-0.007,2.069-1.47,2.903-3.271,1.864
				c-1.801-1.04-3.254-3.559-3.248-5.627S-115.971,70.35-114.17,71.389z"/>
		</g>
	</g>
</g>
<g opacity="0.5">
	<g>
		<polygon fill="#D74108" points="-149.488,62.915 -149.083,62.68 -149.031,62.709 -149.437,62.945 		"/>
	</g>
	<g>
		<polygon fill="#FF7832" points="-153.689,55.228 -153.284,54.993 -153.307,62.904 -153.712,63.14 		"/>
	</g>
	<g>
		<path fill="#FF7832" d="M-149.941,61.033l0.404-0.235c0.229,0.782,0.378,1.408,0.454,1.882l-0.405,0.235
			C-149.563,62.441-149.713,61.815-149.941,61.033z"/>
	</g>
	<g>
		<path fill="#FF7832" d="M-153.755,52.438l0.404-0.235c0.046,0.786,0.069,1.715,0.066,2.789l-0.405,0.235
			C-153.686,54.153-153.71,53.225-153.755,52.438z"/>
	</g>
	<g>
		<polygon fill="#FF7832" points="-155.256,49.635 -154.852,49.4 -152.479,50.77 -152.884,51.005 		"/>
	</g>
	<g>
		<polygon fill="#FF7832" points="-152.884,51.005 -152.479,50.77 -149.537,60.798 -149.941,61.033 		"/>
	</g>
	<g>
		<polygon fill="#FF7832" points="-145.59,58.528 -145.186,58.293 -148.545,65.654 -148.949,65.889 		"/>
	</g>
	<g>
		<path fill="#D74108" d="M-145.257,57.345l0.405-0.235c-0.142,0.619-0.257,1.013-0.334,1.183l-0.404,0.235
			C-145.513,58.358-145.398,57.964-145.257,57.345z"/>
	</g>
	<g>
		<path fill="#D74108" d="M-143.623,56.352l-0.036,12.592l-1.683-0.972l0.023-8.131c0.002-0.708,0.037-1.536,0.106-2.471
			l-0.045-0.025c-0.142,0.619-0.256,1.013-0.333,1.183l-3.359,7.361l-1.111-0.642l-3.32-11.146c-0.084-0.281-0.196-0.827-0.33-1.638
			l-0.044-0.026c0.045,0.786,0.069,1.715,0.065,2.79l-0.022,7.912l-1.58-0.913l0.036-12.592l2.372,1.37l2.942,10.028
			c0.229,0.782,0.378,1.408,0.453,1.882l0.052,0.03c0.089-0.291,0.255-0.743,0.5-1.357l3.037-6.551L-143.623,56.352z"/>
	</g>
	<g>
		<polygon fill="#FF7832" points="-143.623,56.352 -143.218,56.116 -143.254,68.708 -143.659,68.944 		"/>
	</g>
	<g>
		<polygon fill="#FF7832" points="-145.899,55.037 -145.495,54.802 -143.218,56.116 -143.623,56.352 		"/>
	</g>
	<g>
		<polygon fill="#D74108" points="-131.501,75.671 -131.096,75.437 -131.1,76.726 -131.504,76.96 		"/>
	</g>
	<g>
		<path fill="#D74108" d="M-133.776,71.931l-0.405,0.235c0.273-0.159,0.488-0.467,0.645-0.924l0.404-0.235
			C-133.289,71.464-133.503,71.773-133.776,71.931z"/>
	</g>
	<g>
		<path fill="#FF7832" d="M-138.184,62.216l0.405-0.235c-0.03,0.017-0.06,0.035-0.088,0.053c-0.986,0.629-1.481,1.833-1.486,3.619
			c-0.005,1.744,0.441,3.399,1.345,4.963c0.902,1.563,2.137,2.795,3.706,3.701c1.213,0.7,2.284,1.074,3.206,1.121l-0.405,0.234
			c-0.921-0.046-1.992-0.42-3.206-1.121c-1.569-0.905-2.804-2.138-3.706-3.7c-0.902-1.563-1.35-3.219-1.345-4.963
			c0.005-1.786,0.501-2.989,1.486-3.619C-138.242,62.25-138.213,62.233-138.184,62.216z"/>
	</g>
	<g>
		<path fill="#D74108" d="M-135.797,65.729l0.405-0.234c-0.114,0.066-0.221,0.163-0.319,0.29c-0.356,0.456-0.535,1.15-0.538,2.09
			c-0.002,0.637,0.114,1.206,0.345,1.714c0.232,0.511,0.552,0.88,0.959,1.115c0.4,0.23,0.742,0.263,1.028,0.097l-0.405,0.235
			c-0.285,0.166-0.628,0.134-1.028-0.097c-0.407-0.235-0.726-0.604-0.959-1.115c-0.229-0.509-0.346-1.077-0.344-1.714
			c0.002-0.939,0.181-1.634,0.538-2.09C-136.018,65.893-135.911,65.796-135.797,65.729z"/>
	</g>
	<g>
		<path fill="#D74108" d="M-136.812,64.376l0.404-0.235c0.551-0.32,1.219-0.254,2.005,0.2c0.352,0.203,0.671,0.484,0.948,0.843
			c0.282,0.361,0.464,0.736,0.548,1.126l-0.404,0.234c-0.084-0.39-0.267-0.765-0.548-1.126c-0.278-0.359-0.597-0.64-0.948-0.843
			C-135.594,64.123-136.261,64.056-136.812,64.376z"/>
	</g>
	<g>
		<path fill="#FF7832" d="M-130.253,72.959l-0.404,0.235c-0.261,0.151-0.563,0.129-0.902-0.068c-0.528-0.305-0.79-0.991-0.787-2.065
			c0.001-0.409,0.123-1.976,0.37-4.707l0.404-0.235c-0.246,2.731-0.369,4.298-0.37,4.707c-0.003,1.074,0.259,1.761,0.788,2.066
			C-130.814,73.088-130.514,73.111-130.253,72.959z"/>
	</g>
	<g>
		<polygon fill="#D74108" points="-133.201,65.647 -132.797,65.412 -131.572,66.119 -131.977,66.354 		"/>
	</g>
	<g>
		<path fill="#FF7832" d="M-139.222,60.867l0.404-0.235c1.218-0.724,2.774-0.538,4.67,0.557c1.764,1.018,3.214,2.438,4.347,4.252
			l-0.404,0.235c-1.134-1.814-2.584-3.234-4.347-4.252C-136.447,60.33-138.004,60.144-139.222,60.867z"/>
	</g>
	<g>
		<path fill="#D74108" d="M-130.205,65.676c1.133,1.813,1.697,3.668,1.691,5.555c-0.004,1.445-0.322,2.435-0.959,2.961
			c-0.638,0.532-1.412,0.532-2.321,0.007c-1.114-0.644-1.681-1.62-1.699-2.931l-0.044-0.025c-0.371,1.086-1.072,1.33-2.106,0.733
			c-0.7-0.404-1.261-1.022-1.688-1.856c-0.432-0.835-0.642-1.758-0.639-2.777c0.004-1.332,0.304-2.26,0.9-2.781
			c0.596-0.516,1.35-0.512,2.263,0.015c0.352,0.203,0.67,0.484,0.948,0.843c0.281,0.361,0.464,0.736,0.548,1.126l0.109-0.898
			l1.225,0.707c-0.247,2.731-0.369,4.298-0.37,4.707c-0.003,1.074,0.259,1.761,0.787,2.065c0.506,0.293,0.925,0.201,1.253-0.276
			c0.328-0.481,0.496-1.241,0.499-2.286c0.004-1.529-0.414-3.019-1.254-4.476c-0.845-1.457-2.01-2.611-3.502-3.472
			c-1.484-0.857-2.722-0.973-3.708-0.348c-0.985,0.629-1.481,1.833-1.486,3.619c-0.005,1.744,0.442,3.399,1.345,4.963
			c0.902,1.563,2.137,2.795,3.706,3.7c1.214,0.701,2.285,1.075,3.206,1.121l-0.003,1.289c-0.889-0.077-2-0.5-3.335-1.271
			c-1.854-1.071-3.356-2.571-4.505-4.504c-1.146-1.929-1.718-3.938-1.712-6.022c0.007-2.145,0.62-3.575,1.834-4.296
			c1.218-0.723,2.774-0.538,4.67,0.557C-132.789,62.442-131.339,63.862-130.205,65.676z M-133.98,70.705
			c0.34-0.488,0.512-1.288,0.514-2.4c0.004-1.162-0.416-1.991-1.26-2.479c-0.572-0.33-1.034-0.264-1.389,0.194
			c-0.357,0.456-0.536,1.15-0.538,2.09c-0.002,0.637,0.114,1.205,0.344,1.714c0.233,0.511,0.552,0.88,0.959,1.115
			C-134.774,71.271-134.319,71.192-133.98,70.705L-133.98,70.705z"/>
	</g>
	<g>
		<path fill="#FF7832" d="M-129.328,74.139l-0.404,0.236c0.089-0.052,0.175-0.113,0.26-0.184c0.637-0.526,0.955-1.516,0.959-2.961
			c0.006-1.887-0.559-3.74-1.691-5.555l0.404-0.235c1.134,1.814,1.697,3.668,1.692,5.555c-0.005,1.445-0.323,2.435-0.96,2.962
			C-129.152,74.028-129.238,74.088-129.328,74.139z"/>
	</g>
	<g>
		<polygon fill="#FF7832" points="-126.163,70.04 -125.759,69.804 -124.095,70.765 -124.499,71 		"/>
	</g>
	<g>
		<polygon fill="#FF7832" points="-124.499,71 -124.095,70.765 -124.12,79.755 -124.525,79.991 		"/>
	</g>
	<g>
		<polygon fill="#D74108" points="-126.189,79.03 -126.163,70.04 -124.499,71 -124.525,79.991 		"/>
	</g>
	<g>
		<path fill="#D74108" d="M-126.046,66.238l0.404-0.235c0.006-0.004,0.012-0.007,0.019-0.011l-0.404,0.235
			C-126.034,66.231-126.04,66.234-126.046,66.238z"/>
	</g>
	<g>
		<path fill="#FF7832" d="M-124.134,68.396c-0.134,0.079-0.27,0.157-0.404,0.235c0.173-0.101,0.26-0.302,0.261-0.601
			c0-0.32-0.098-0.639-0.295-0.963c-0.201-0.327-0.442-0.568-0.729-0.733c-0.293-0.169-0.536-0.208-0.727-0.107l0.404-0.235
			c0.19-0.101,0.434-0.062,0.727,0.107c0.286,0.165,0.528,0.406,0.729,0.733c0.197,0.324,0.296,0.643,0.295,0.964
			C-123.874,68.094-123.961,68.295-124.134,68.396z"/>
	</g>
	<g>
		<path fill="#D74108" d="M-125.307,68.546c-0.29-0.167-0.529-0.41-0.723-0.736c-0.193-0.323-0.288-0.64-0.287-0.956
			c0.001-0.32,0.098-0.526,0.289-0.627c0.19-0.101,0.434-0.062,0.727,0.107c0.286,0.165,0.527,0.406,0.729,0.733
			c0.197,0.324,0.295,0.643,0.295,0.963c-0.001,0.32-0.102,0.528-0.3,0.62C-124.779,68.747-125.021,68.711-125.307,68.546z"/>
	</g>
	<g>
		<polygon fill="#FF7832" points="-120.498,68.985 -120.094,68.75 -120.131,82.058 -120.535,82.293 		"/>
	</g>
	<g>
		<polygon fill="#FF7832" points="-122.158,68.027 -121.754,67.792 -120.094,68.75 -120.498,68.985 		"/>
	</g>
	<g>
		<polygon fill="#D74108" points="-120.498,68.985 -120.535,82.293 -122.196,81.334 -122.158,68.027 		"/>
	</g>
</g>
<line fill="none" x1="-103.611" y1="97.061" x2="-103.611" y2="96.768"/>
<line fill="none" x1="-103.611" y1="94.897" x2="-103.611" y2="94.764"/>
<g>
	<g enable-background="new    ">
		<g>
			<path fill="#A53725" d="M-81.004,101.477c0.006,0.385-0.27,0.86-0.603,1.057h-0.006l-2.423-1.414
				c0.333-0.196,0.608-0.667,0.603-1.057L-81.004,101.477z"/>
		</g>
		<g>
			<polygon fill="#A53725" points="-83.433,100.061 -83.433,98.426 -83.438,97.954 -83.438,96.319 -82.025,97.139 -81.618,97.374 
				-81.009,97.731 -81.004,101.477 			"/>
		</g>
		<g>
			<path fill="#D74108" d="M-83.618,95.926l2.429,1.412c0.109,0.063,0.177,0.197,0.178,0.389l-2.429-1.41
				C-83.441,96.125-83.509,95.991-83.618,95.926z"/>
		</g>
		<g>
			<path fill="#D74108" d="M-83.331,95.428l2.428,1.41c-0.185-0.107-0.439-0.094-0.721,0.07l-2.429-1.412
				C-83.771,95.334-83.516,95.319-83.331,95.428z"/>
		</g>
		<g>
			<polygon fill="#A53725" points="-81.612,102.531 -97.902,111.938 -98.518,111.581 -98.925,111.341 -100.332,110.523 
				-98.931,109.716 -98.523,109.479 -84.035,101.118 			"/>
		</g>
		<g>
			<path fill="#D74108" d="M-98.34,111.979l-2.429-1.41c0.111,0.063,0.266,0.056,0.436-0.043l2.429,1.41
				C-98.074,112.036-98.229,112.044-98.34,111.979z"/>
		</g>
		<g>
			<path fill="#D74108" d="M-98.628,112.475l-2.429-1.41c-0.183-0.107-0.297-0.332-0.297-0.652l2.428,1.412
				C-98.925,112.143-98.811,112.368-98.628,112.475z"/>
		</g>
		<g>
			<polygon fill="#D74108" points="-98.926,111.822 -101.354,110.411 -101.364,106.665 -98.937,108.077 			"/>
		</g>
		<g>
			<polygon fill="#D74108" points="-97.92,106.316 -100.349,104.904 -84.053,95.497 -81.624,96.909 			"/>
		</g>
		<g>
			<path fill="#D74108" d="M-81.779,96.995l-0.246,0.145l-1.413,0.814l0.006,0.473l1.809-1.047c0,0,0.006,0,0.006-0.006
				c0.155-0.086,0.299-0.096,0.402-0.051L-81.779,96.995z M-80.607,97.495c0-0.326-0.114-0.557-0.304-0.66
				c-0.013-0.006-0.023-0.018-0.041-0.023c-0.028-0.006-0.052-0.016-0.08-0.021h-0.006c-0.04-0.012-0.086-0.018-0.132-0.018
				c-0.133,0-0.287,0.039-0.454,0.137l-0.155,0.086l-0.246,0.145l-1.413,0.814l-14.481,8.361c-0.563,0.328-1.017,1.119-1.017,1.765
				l0.006,1.638l0.006,1.625v0.481c0,0.067,0.005,0.131,0.017,0.188c0,0.016,0.006,0.035,0.012,0.045
				c0.006,0.053,0.023,0.104,0.046,0.15c0,0.016,0.011,0.029,0.018,0.045c0.022,0.047,0.052,0.086,0.08,0.121
				c0,0,0.006,0.006,0.012,0.006c0.028,0.033,0.058,0.063,0.092,0.08c0.006,0.006,0.017,0.012,0.022,0.018
				c0.184,0.104,0.442,0.092,0.725-0.074l16.296-9.405c0.563-0.321,1.017-1.114,1.011-1.759L-80.607,97.495z M-81.606,102.531
				h-0.006l-16.29,9.404c-0.099,0.06-0.196,0.086-0.276,0.086c-0.028,0-0.058-0.004-0.087-0.01c0,0,0,0-0.005,0
				c-0.023-0.006-0.046-0.018-0.069-0.035c-0.017-0.006-0.028-0.018-0.04-0.022c-0.086-0.074-0.138-0.201-0.138-0.367v-0.006
				l-0.006-2.103l-0.006-1.637c0-0.391,0.271-0.861,0.609-1.051l14.487-8.366l1.809-1.047c0,0,0.006,0,0.006-0.006
				c0.155-0.086,0.299-0.096,0.402-0.051c0.028,0.018,0.057,0.035,0.08,0.057c0.012,0.006,0.022,0.018,0.029,0.029
				c0.022,0.029,0.04,0.059,0.052,0.092c0.011,0.029,0.022,0.059,0.028,0.098c0.011,0.041,0.018,0.086,0.018,0.133l0.005,3.745
				C-80.998,101.859-81.273,102.337-81.606,102.531z"/>
			<path fill="#8C101C" d="M-83.433,98.426v1.635c0.006,0.391-0.27,0.861-0.603,1.057l-14.488,8.36l-0.006-1.637
				c0-0.391,0.271-0.861,0.609-1.051L-83.433,98.426z"/>
		</g>
		<g>
			<path fill="#FF5003" d="M-98.937,108.077l-2.428-1.412c-0.003-0.646,0.454-1.437,1.016-1.761l2.429,1.412
				C-98.481,106.643-98.938,107.434-98.937,108.077z"/>
		</g>
	</g>
</g>
<g>
	<g>
		<polygon fill="#FFFFFF" points="148.536,125.848 101.238,153.333 53.63,125.848 100.928,98.36 		"/>
	</g>
	<g enable-background="new    ">
		<g>
			<path fill="#6D7777" d="M98.206,105.932l32.935,19.014l-3.926,2.281c-9.328,0.721-17.021,0.668-23.063-0.164l0.551-3.388
				c4.59,0.653,10.455,0.781,17.591,0.382l-27.729-16.009L98.206,105.932z"/>
		</g>
		<g>
			<path fill="#6D7777" d="M105.089,117.676l4.121,2.381c-1.194,0.764-2.334,1.461-3.413,2.088
				c-5.612,3.262-10.938,5.354-15.983,6.285c-5.043,0.932-10.627,0.881-16.741-0.146l0.026-3.464
				c4.176,0.705,7.919,0.971,11.214,0.804c3.296-0.172,6.389-0.812,9.278-1.917C96.48,122.596,100.313,120.586,105.089,117.676z"/>
		</g>
	</g>
</g>
<g>
	<g>
		<polygon fill="#C8D2D2" points="148.536,36.819 148.381,91.521 101.083,119.01 101.238,64.306 		"/>
	</g>
	<g>
		<polygon fill="#AEB8B8" points="101.238,64.306 101.083,119.01 53.475,91.522 53.63,36.819 		"/>
	</g>
	<g>
		<polygon fill="#DFE9E9" points="148.536,36.819 101.238,64.306 53.63,36.819 100.928,9.333 		"/>
	</g>
	<g>
		<g enable-background="new    ">
			<g>
				<polygon fill="#959F9F" points="65.692,84.92 67.662,83.774 64.59,92.232 62.62,93.379 				"/>
			</g>
			<g>
				<polygon fill="#959F9F" points="67.16,80.714 69.131,79.568 79.874,85.771 77.904,86.916 				"/>
			</g>
			<g>
				<polygon fill="#959F9F" points="71.944,67.916 73.915,66.771 69.131,79.568 67.16,80.714 				"/>
			</g>
			<g>
				<path fill="#959F9F" d="M72.506,65.322l1.972-1.145c-0.134,1.089-0.324,1.951-0.563,2.593l-1.971,1.146
					C72.184,67.273,72.373,66.412,72.506,65.322z"/>
			</g>
			<g>
				<polygon fill="#959F9F" points="69.786,58.189 71.758,57.044 77.648,60.445 75.678,61.59 				"/>
			</g>
			<g>
				<polygon fill="#959F9F" points="75.678,61.59 77.648,60.445 90.327,107.094 88.356,108.236 				"/>
			</g>
			<g>
				<path fill="#AEB8B8" d="M75.678,61.59l12.679,46.646l-5.823-3.361l-3.166-12.06L65.692,84.92l-3.072,8.459l-5.825-3.362
					l12.991-31.828L75.678,61.59z M67.16,80.714l10.744,6.202L73.18,68.681c-0.172-0.66-0.348-1.752-0.519-3.268l-0.156-0.091
					c-0.133,1.09-0.322,1.951-0.562,2.594L67.16,80.714"/>
			</g>
		</g>
	</g>
	<g>
		<g enable-background="new    ">
			<g>
				<polygon fill="#C8D2D2" points="122.294,35.029 122.288,37.309 94.56,21.299 94.565,19.02 				"/>
			</g>
			<g>
				<polygon fill="#C8D2D2" points="131.141,35.918 131.132,38.198 127.207,40.478 127.215,38.199 				"/>
			</g>
			<g>
				<path fill="#C8D2D2" d="M127.215,38.199l-0.008,2.279c-9.327,0.721-17.02,0.667-23.061-0.165l0.006-2.28
					C110.193,38.866,117.887,38.92,127.215,38.199z"/>
			</g>
			<g>
				<path fill="#FDFBFB" d="M98.206,16.904l32.935,19.014l-3.926,2.281c-9.328,0.721-17.021,0.667-23.063-0.166l0.551-3.386
					c4.59,0.652,10.455,0.781,17.591,0.381L94.565,19.02L98.206,16.904z"/>
			</g>
			<g>
				<path fill="#C8D2D2" d="M109.21,31.031l-0.006,2.279c-1.195,0.763-2.335,1.461-3.412,2.087
					c-5.614,3.263-10.941,5.355-15.985,6.285c-5.041,0.93-10.626,0.882-16.74-0.147l0.006-2.279
					c6.114,1.027,11.698,1.077,16.741,0.146c5.045-0.931,10.371-3.023,15.983-6.286C106.876,32.491,108.016,31.792,109.21,31.031z"
					/>
			</g>
			<g>
				<path fill="#FDFBFB" d="M105.089,28.649l4.121,2.381c-1.194,0.761-2.334,1.46-3.413,2.086
					c-5.612,3.263-10.938,5.354-15.983,6.286c-5.043,0.93-10.627,0.881-16.741-0.146l0.026-3.463
					c4.176,0.706,7.919,0.971,11.214,0.804c3.296-0.173,6.389-0.813,9.278-1.917C96.48,33.568,100.313,31.559,105.089,28.649z"/>
			</g>
		</g>
	</g>
	<g>
		<g enable-background="new    ">
			<g>
				<polygon fill="#AEB8B8" points="140.271,73.954 138.301,72.809 138.266,60.034 140.236,61.179 				"/>
			</g>
			<g>
				<polygon fill="#DFE9E9" points="128.934,80.502 126.961,79.355 138.301,72.809 140.271,73.954 				"/>
			</g>
			<g>
				<polygon fill="#AEB8B8" points="124.842,102.459 122.87,101.314 122.828,86.335 124.799,87.479 				"/>
			</g>
			<g>
				<polygon fill="#DFE9E9" points="128.882,63.163 126.912,62.017 142.422,53.063 144.395,54.208 				"/>
			</g>
			<g>
				<polygon fill="#AEB8B8" points="124.786,82.896 122.814,81.749 122.779,68.975 124.749,70.12 				"/>
			</g>
			<g>
				<polygon fill="#DFE9E9" points="113.534,89.391 111.563,88.245 122.814,81.749 124.786,82.896 				"/>
			</g>
			<g>
				<polygon fill="#DFE9E9" points="124.714,57.216 122.742,56.072 126.889,53.678 128.857,54.823 				"/>
			</g>
			<g>
				<polygon fill="#AEB8B8" points="124.738,65.556 122.768,64.411 122.742,56.072 124.714,57.216 				"/>
			</g>
			<g>
				<polygon fill="#AEB8B8" points="109.359,96.393 107.391,95.248 107.328,73.324 109.299,74.468 				"/>
			</g>
			<g>
				<path fill="#C8D2D2" d="M128.882,63.163l15.513-8.955l0.06,21.924l-15.509,8.954l0.043,14.979l-4.146,2.394l-0.043-14.979
					l-15.438,8.913l-0.063-21.924l15.439-8.912l-0.024-8.34l4.146-2.393L128.882,63.163z M140.271,73.954l-0.035-12.774
					l-11.342,6.547l0.037,12.776L140.271,73.954 M124.786,82.896l-0.037-12.775l-11.251,6.496l0.036,12.775L124.786,82.896"/>
			</g>
			<g>
				<polygon fill="#DFE9E9" points="109.299,74.468 107.328,73.324 122.768,64.411 124.738,65.556 				"/>
			</g>
		</g>
	</g>
</g>
<g>
	<polygon fill="#00B4A0" points="148.536,36.819 148.381,91.521 101.083,119.01 101.238,64.306 	"/>
</g>
<g>
	<polygon fill="#008571" points="101.238,64.306 101.083,119.01 53.475,91.522 53.63,36.819 	"/>
</g>
<g>
	<polygon fill="#41D6C3" points="148.536,36.819 101.238,64.306 53.63,36.819 100.928,9.333 	"/>
</g>
<g>
	<g>
		<polygon fill="#00B4A0" points="65.692,84.92 67.662,83.774 64.59,92.232 62.62,93.379 		"/>
	</g>
	<g>
		<polygon fill="#00B4A0" points="67.16,80.714 69.131,79.568 79.874,85.771 77.904,86.916 		"/>
	</g>
	<g>
		<polygon fill="#00B4A0" points="71.944,67.916 73.915,66.771 69.131,79.568 67.16,80.714 		"/>
	</g>
	<g>
		<path fill="#00B4A0" d="M72.506,65.322l1.972-1.145c-0.134,1.089-0.324,1.951-0.563,2.593l-1.971,1.146
			C72.184,67.273,72.373,66.412,72.506,65.322z"/>
	</g>
	<g>
		<polygon fill="#00B4A0" points="69.786,58.189 71.758,57.044 77.648,60.445 75.678,61.59 		"/>
	</g>
	<g>
		<polygon fill="#00B4A0" points="75.678,61.59 77.648,60.445 90.327,107.094 88.356,108.236 		"/>
	</g>
	<g>
		<path fill="#008571" d="M75.678,61.59l12.679,46.646l-5.823-3.361l-3.166-12.06L65.692,84.92l-3.072,8.459l-5.825-3.362
			l12.991-31.828L75.678,61.59z M67.16,80.714l10.744,6.202L73.18,68.681c-0.172-0.66-0.348-1.752-0.519-3.268l-0.156-0.091
			c-0.133,1.09-0.322,1.951-0.562,2.594L67.16,80.714"/>
	</g>
</g>
<g>
	<g>
		<polygon fill="#5AAAFA" points="122.294,35.029 122.288,37.309 94.56,21.299 94.565,19.02 		"/>
	</g>
	<g>
		<polygon fill="#5AAAFA" points="131.141,35.918 131.132,38.198 127.207,40.478 127.215,38.199 		"/>
	</g>
	<g>
		<path fill="#5AAAFA" d="M127.215,38.199l-0.008,2.279c-9.327,0.721-17.02,0.667-23.061-0.165l0.006-2.28
			C110.193,38.866,117.887,38.92,127.215,38.199z"/>
	</g>
	<g>
		<path fill="#5AAAFA" d="M98.206,16.904l32.935,19.014l-3.926,2.281c-9.328,0.721-17.021,0.667-23.063-0.166l0.551-3.386
			c4.59,0.652,10.455,0.781,17.591,0.381L94.565,19.02L98.206,16.904z"/>
	</g>
	<g>
		<path fill="#5AAAFA" d="M109.21,31.031l-0.006,2.279c-1.195,0.763-2.335,1.461-3.412,2.087
			c-5.614,3.263-10.941,5.355-15.985,6.285c-5.041,0.93-10.626,0.882-16.74-0.147l0.006-2.279
			c6.114,1.027,11.698,1.077,16.741,0.146c5.045-0.931,10.371-3.023,15.983-6.286C106.876,32.491,108.016,31.792,109.21,31.031z"/>
	</g>
	<g>
		<path fill="#5AAAFA" d="M105.089,28.649l4.121,2.381c-1.194,0.761-2.334,1.46-3.413,2.086c-5.612,3.263-10.938,5.354-15.983,6.286
			c-5.043,0.93-10.627,0.881-16.741-0.146l0.026-3.463c4.176,0.706,7.919,0.971,11.214,0.804c3.296-0.173,6.389-0.813,9.278-1.917
			C96.48,33.568,100.313,31.559,105.089,28.649z"/>
	</g>
</g>
<g>
	<g>
		<polygon fill="#41D6C3" points="140.271,73.954 138.301,72.809 138.266,60.034 140.236,61.179 		"/>
	</g>
	<g>
		<polygon fill="#41D6C3" points="128.934,80.502 126.961,79.355 138.301,72.809 140.271,73.954 		"/>
	</g>
	<g>
		<polygon fill="#41D6C3" points="124.842,102.459 122.87,101.314 122.828,86.335 124.799,87.479 		"/>
	</g>
	<g>
		<polygon fill="#41D6C3" points="128.882,63.163 126.912,62.017 142.422,53.063 144.395,54.208 		"/>
	</g>
	<g>
		<polygon fill="#41D6C3" points="124.786,82.896 122.814,81.749 122.779,68.975 124.749,70.12 		"/>
	</g>
	<g>
		<polygon fill="#41D6C3" points="113.534,89.391 111.563,88.245 122.814,81.749 124.786,82.896 		"/>
	</g>
	<g>
		<polygon fill="#41D6C3" points="124.714,57.216 122.742,56.072 126.889,53.678 128.857,54.823 		"/>
	</g>
	<g>
		<polygon fill="#41D6C3" points="124.738,65.556 122.768,64.411 122.742,56.072 124.714,57.216 		"/>
	</g>
	<g>
		<polygon fill="#41D6C3" points="109.359,96.393 107.391,95.248 107.328,73.324 109.299,74.468 		"/>
	</g>
	<g>
		<path fill="#00B4A0" d="M128.882,63.163l15.513-8.955l0.06,21.924l-15.509,8.954l0.043,14.979l-4.146,2.394l-0.043-14.979
			l-15.438,8.913l-0.063-21.924l15.439-8.912l-0.024-8.34l4.146-2.393L128.882,63.163z M140.271,73.954l-0.035-12.774l-11.342,6.547
			l0.037,12.776L140.271,73.954 M124.786,82.896l-0.037-12.775l-11.251,6.496l0.036,12.775L124.786,82.896"/>
	</g>
	<g>
		<polygon fill="#41D6C3" points="109.299,74.468 107.328,73.324 122.768,64.411 124.738,65.556 		"/>
	</g>
</g>
<g>
	<path fill="#DFE9E9" d="M98.206,16.904l32.935,19.014l-3.926,2.281c-9.328,0.721-17.021,0.667-23.063-0.166l0.551-3.386
		c4.59,0.652,10.455,0.781,17.591,0.381L94.565,19.02L98.206,16.904z"/>
</g>
<g>
	<path fill="#DFE9E9" d="M105.089,28.649l4.121,2.381c-1.194,0.761-2.334,1.46-3.413,2.086c-5.612,3.263-10.938,5.354-15.983,6.286
		c-5.043,0.93-10.627,0.881-16.741-0.146l0.026-3.463c4.176,0.706,7.919,0.971,11.214,0.804c3.296-0.173,6.389-0.813,9.278-1.917
		C96.48,33.568,100.313,31.559,105.089,28.649z"/>
</g>
</svg>
