<?xml version="1.0" encoding="utf-8"?>
<!-- Generator: Adobe Illustrator 15.0.0, SVG Export Plug-In . SVG Version: 6.00 Build 0)  -->
<!DOCTYPE svg PUBLIC "-//W3C//DTD SVG 1.1//EN" "http://www.w3.org/Graphics/SVG/1.1/DTD/svg11.dtd">
<svg version="1.1" id="圖層_1" xmlns="http://www.w3.org/2000/svg" xmlns:xlink="http://www.w3.org/1999/xlink" x="0px" y="0px"
	 width="200px" height="200px" viewBox="0 0 200 200" enable-background="new 0 0 200 200" xml:space="preserve">
<path fill="#DFE9E9" d="M172,100c0,38.37-30.02,69.73-67.85,71.88c-1.371,0.08-2.762,0.12-4.15,0.12c-0.471,0-0.939,0-1.41-0.02
	c-0.58,0-1.15-0.021-1.72-0.051c-0.83-0.029-1.66-0.08-2.479-0.15C57.25,168.92,28,137.87,28,100c0-23.29,11.07-44.01,28.23-57.16
	c3.959-3.05,8.25-5.68,12.799-7.85c1.98-0.95,4.011-1.81,6.091-2.57c2.319-0.86,4.69-1.6,7.12-2.21c0.369-0.1,0.74-0.19,1.119-0.28
	c0.721-0.17,1.44-0.33,2.16-0.48c1.78-0.36,3.58-0.65,5.4-0.88c1.29-0.17,2.6-0.29,3.91-0.38C96.54,28.06,98.26,28,100,28
	C139.76,28,172,60.24,172,100z"/>
<line fill="none" x1="-351.087" y1="284.531" x2="-351.087" y2="284.16"/>
<g>
	<path fill="#DFE9E9" d="M172,100c0,1.34-0.04,2.68-0.11,4c-0.399,7.35-1.909,14.41-4.35,21c-0.25,0.68-0.51,1.34-0.78,2
		c-3.14,7.77-7.6,14.86-13.1,21c-1.24,1.38-2.53,2.72-3.87,4c-12.93,12.39-30.47,20-49.79,20c-18.64,0-35.62-7.08-48.41-18.71
		C37.1,140.12,28,121.12,28,100c0-39.76,32.24-72,72-72c21.32,0,40.48,9.27,53.66,24c1.16,1.29,2.27,2.62,3.32,4
		c4.85,6.26,8.689,13.34,11.27,21c0.22,0.66,0.43,1.33,0.63,2C170.91,85.64,172,92.69,172,100z"/>
	<path fill="#B0BEC5" d="M156.98,56H58c-1.1,0-2-0.9-2-2c0-0.55,0.22-1.05,0.59-1.41C56.95,52.22,57.45,52,58,52h95.66
		C154.82,53.29,155.93,54.62,156.98,56z"/>
	<path fill="#B0BEC5" d="M168.88,79H58c-1.1,0-2-0.45-2-1s0.9-1,2-1h110.25C168.47,77.66,168.68,78.33,168.88,79z"/>
	<path fill="#B0BEC5" d="M172,100c0,1.34-0.04,2.68-0.11,4H58c-1.1,0-2-0.9-2-2c0-0.55,0.22-1.05,0.59-1.41
		c0.36-0.37,0.86-0.59,1.41-0.59H172z"/>
	<path fill="#B0BEC5" d="M167.54,125c-0.25,0.68-0.51,1.34-0.78,2H58c-1.1,0-2-0.45-2-1s0.9-1,2-1H167.54z"/>
	<path fill="#B0BEC5" d="M153.66,148c-1.24,1.38-2.53,2.72-3.87,4H58c-0.69,0-1.3-0.35-1.66-0.88C56.12,150.8,56,150.41,56,150
		c0-0.55,0.22-1.05,0.59-1.41c0.36-0.37,0.86-0.59,1.41-0.59H153.66z"/>
	<g>
		<defs>
			<circle id="SVGID_1_" cx="100" cy="100" r="72"/>
		</defs>
		<clipPath id="SVGID_2_">
			<use xlink:href="#SVGID_1_"  overflow="visible"/>
		</clipPath>
		<g clip-path="url(#SVGID_2_)">
			<path fill="#546E7A" d="M201.963,283.13c0,0-35.345-86.279-42.641-102.001c-0.73-1.577-1.176-2.44-1.283-2.449
				c-1.514-7.901-16.986-19.909-18.385-21.067l-3.839-2.208L118.4,145.339c-3.724,9.673-13.112,16.532-24.104,16.532
				c-14.27,0-25.832-11.563-25.832-25.832c0-3.332,0.632-6.512,1.781-9.434c-3.866-3.546-9.032-5.71-14.697-5.71
				c-6.37,0-18.208,7.527-19.107,8.053l-80.338,46.685c-2.734,1.576-4.437,4.943-4.445,9.736
				c-0.026,9.62,6.734,21.343,15.116,26.179c4.231,2.45,8.071,2.664,10.832,1.034c20.487-11.9,54.337-39.257,61.463-30.731
				c7.126,8.524-0.027-0.144-0.036-0.223l-0.347,121.731c-0.019,8.044,8.399,6.378,35.746,34.473s58.567,24.531,68.446,18.786
				c2.093-1.212,3.082-2.958,3.091-5.113c0.054-19.472,0.063-56.964,0.044-92.479l16.346,40.209c0.312,0.784,1.879,1.069,4.73,0.704
				c7.152-0.918,19.694-5.576,28.014-10.414C200.11,286.622,202.444,284.314,201.963,283.13z M158.414,182.1c0,0,0,0,0-0.009
				c0.044-0.044,0.098-0.089,0.142-0.134C158.512,182.011,158.467,182.056,158.414,182.1z"/>
			<g>
				<path fill="#CFD8DC" d="M-65.658,385.043c-0.4-0.143-0.801-0.286-1.211-0.429c-1.354-0.48-2.682-0.935-3.991-1.354
					C-68.998,383.688-67.243,384.276-65.658,385.043z"/>
			</g>
			<g>
				<path fill="#455A64" d="M-16.565,393.227c4.832,2.789,4.857,7.313,0.062,10.099c-4.8,2.789-12.607,2.789-17.438,0
					c-4.831-2.79-4.857-7.312-0.058-10.102C-29.205,390.438-21.396,390.438-16.565,393.227z"/>
			</g>
			<path fill="#CFD8DC" d="M-64.232,413.939c-8.649-3.153-17.21-6.708-23.605-10.307c1.808,0.695,4.035,1.586,6.565,2.637
				c2.992,1.246,6.431,2.726,10.127,4.409C-68.918,411.694-66.602,412.78-64.232,413.939z"/>
			<g>
				<g enable-background="new    ">
					<g>
						<path fill="#5D4037" d="M-12.149,398.938c0.009-4.187,0.017-8.373,0.035-12.56c0-1.845-1.212-3.688-3.643-5.086
							c-4.838-2.789-12.641-2.789-17.433,0c-2.557,1.487-6.129,6.832-14.146,8.613s-7.126-0.873-18.323-4.882
							c-0.4-0.142-0.801-0.284-1.211-0.427c-1.354-0.481-2.682-0.936-3.991-1.355c-10.563-3.401-19.624-4.399-25.841,5.462
							c-0.08,0.071-0.151,0.151-0.223,0.231c-1.141,1.291-1.816,2.672-2.013,4.07c-0.205,1.417,0.089,2.842,0.881,4.196
							c0.802,1.371,2.13,2.662,3.982,3.794c0.089,0.053,0.188,0.107,0.284,0.169c0.09,0.054,0.188,0.106,0.286,0.17
							c0.089,0.053,0.187,0.106,0.276,0.169c0.098,0.054,0.188,0.116,0.275,0.178c0,0,0.009,0,0.027,0.01
							c0.018,0.009,0.045,0.018,0.08,0.026s0.08,0.026,0.124,0.044c0.054,0.019,0.107,0.045,0.179,0.063
							c0.294,0.143,0.588,0.276,0.891,0.41c0.312,0.134,0.624,0.258,0.936,0.374c0.32,0.115,0.641,0.231,0.971,0.338
							c0.32,0.107,0.659,0.214,0.988,0.313c0.295,0.116,0.598,0.231,0.918,0.355c1.808,0.695,4.035,1.586,6.565,2.637
							c2.992,1.248,6.431,2.727,10.127,4.409c2.228,1.017,4.544,2.104,6.913,3.261c1.621,0.793,3.27,1.612,4.926,2.458
							c4.16,2.13,8.408,4.445,12.551,6.922l1.684,1.016c0.553,0.338,1.113,0.686,1.666,1.033c0.553,0.347,1.104,0.695,1.656,1.051
							c0.543,0.356,1.096,0.713,1.64,1.078c1.879,1.123,4.044,1.978,6.343,2.539c0.649,0.16,1.3,0.303,1.968,0.418
							c-0.258-1.148-0.392-2.343-0.392-3.563c0-9.104,7.375-16.479,16.479-16.479c1.781,0,3.5,0.285,5.104,0.811
							C-11.295,405.129-12.149,399.206-12.149,398.938z"/>
					</g>
				</g>
			</g>
			<g>
				<g>
					<path fill="#8D6E63" d="M175.571,550.277c-0.124-2.022-0.249-4.046-0.373-6.069c0.032,0.502,0.139,1.002,0.325,1.495
						c0.186,0.494,0.45,0.981,0.795,1.455c0.345,0.477,0.771,0.938,1.276,1.381c0.509,0.443,1.097,0.868,1.769,1.268l0.337,6.132
						c-0.665-0.403-1.248-0.832-1.752-1.281c-0.502-0.447-0.923-0.915-1.266-1.396c-0.342-0.478-0.604-0.971-0.788-1.472
						C175.71,551.292,175.604,550.785,175.571,550.277z"/>
				</g>
				<g>
					<path fill="#8D6E63" d="M218.863,578.536l-0.072,6.417c-1.438-1.358-3.34-3.11-5.623-5.117
						c-2.253-1.98-4.871-4.203-7.777-6.535c-2.863-2.299-6.002-4.701-9.346-7.086c-3.295-2.348-6.789-4.679-10.428-6.884
						c-0.484-0.294-0.972-0.585-1.461-0.874c-0.489-0.288-0.98-0.574-1.475-0.857c-0.492-0.282-0.988-0.563-1.485-0.84
						s-0.995-0.551-1.496-0.821l-0.337-6.132c0.506,0.268,1.01,0.537,1.51,0.812c0.502,0.274,1.002,0.552,1.5,0.831
						c0.499,0.281,0.995,0.563,1.488,0.849c0.494,0.286,0.986,0.574,1.476,0.865c3.675,2.182,7.205,4.489,10.532,6.813
						c3.379,2.361,6.551,4.739,9.443,7.015c2.938,2.312,5.585,4.512,7.863,6.475C215.483,575.453,217.408,577.189,218.863,578.536z"
						/>
				</g>
				<g>
					<path fill="#8D6E63" d="M221.679,581.203l-0.104,6.441c-0.279-0.213-0.545-0.429-0.801-0.648
						c-0.255-0.219-0.498-0.44-0.729-0.666c-0.23-0.224-0.452-0.451-0.659-0.682c-0.21-0.228-0.407-0.461-0.594-0.695l0.072-6.417
						c0.188,0.232,0.389,0.463,0.6,0.69s0.434,0.453,0.668,0.676s0.48,0.441,0.737,0.659
						C221.127,580.779,221.396,580.993,221.679,581.203z"/>
				</g>
				<g>
					<path fill="#8D6E63" d="M222.039,581.46l-0.108,6.443c-0.017,0.009-0.036,0.01-0.057,0.001
						c-0.022-0.007-0.046-0.023-0.074-0.046s-0.062-0.053-0.099-0.089s-0.08-0.078-0.127-0.125l0.104-6.441
						c0.049,0.047,0.091,0.089,0.128,0.125s0.071,0.064,0.101,0.088c0.027,0.022,0.052,0.038,0.073,0.046
						C222.003,581.47,222.021,581.47,222.039,581.46z"/>
				</g>
				<g>
					<path fill="#8D6E63" d="M260.832,574.559c-0.18,2.127-0.357,4.253-0.535,6.379c-0.06,0.701-0.208,1.397-0.448,2.084
						c-0.242,0.69-0.577,1.37-1.004,2.031c-0.43,0.664-0.954,1.311-1.575,1.932c-0.623,0.623-1.343,1.22-2.16,1.785
						c-2.027,1.396-4.458,2.453-7.116,3.161c-2.67,0.711-5.557,1.068-8.479,1.069c-2.923,0.002-5.87-0.354-8.657-1.063
						c-2.776-0.708-5.381-1.763-7.64-3.159c-0.112-0.07-0.224-0.142-0.334-0.213c-0.109-0.072-0.217-0.145-0.324-0.218
						s-0.213-0.146-0.317-0.221c-0.104-0.073-0.208-0.148-0.311-0.223l0.108-6.443c0.104,0.074,0.207,0.147,0.313,0.222
						c0.106,0.073,0.213,0.146,0.321,0.218c0.108,0.073,0.218,0.146,0.329,0.217c0.111,0.07,0.224,0.142,0.338,0.21
						c2.285,1.385,4.92,2.432,7.729,3.133c2.82,0.703,5.802,1.057,8.759,1.055c2.956,0,5.877-0.354,8.576-1.059
						c2.688-0.702,5.146-1.75,7.192-3.136c0.827-0.558,1.555-1.15,2.185-1.769c0.626-0.615,1.155-1.256,1.589-1.914
						c0.432-0.655,0.769-1.328,1.012-2.012C260.624,575.944,260.772,575.254,260.832,574.559z"/>
				</g>
			</g>
			<path fill="#5D4037" d="M211.48,523.591l-0.131,0.069c-0.109-0.18-0.353-9.83-0.339-14.482c0,0.128-0.021,0.256-0.033,0.384
				c0.188-2.252-1.196-4.543-4.178-6.263c-5.585-3.226-14.604-3.229-20.153-0.004c-2.764,1.606-4.142,3.711-4.139,5.816
				c0-0.007-0.002-0.013-0.002-0.019v0.039c0,0.001,0,0.002,0,0.003c0,0-1.352,10.305-1.133,16.799s-5.42,15.271-5.42,15.271
				c-0.369,0.658-0.617,1.33-0.712,2.01l-0.011,0.028h0.004c0,0.001,0,0.001,0,0.002c-0.156,1.165,0.098,2.34,0.776,3.455
				c0.684,1.123,1.798,2.183,3.353,3.107c0.506,0.268,1.01,0.537,1.51,0.812c0.502,0.274,1.002,0.552,1.5,0.831
				c0.499,0.281,0.995,0.563,1.488,0.849c0.494,0.286,0.986,0.574,1.476,0.865c3.675,2.182,7.205,4.489,10.532,6.813
				c3.379,2.361,6.551,4.739,9.443,7.015c2.938,2.312,5.585,4.512,7.863,6.475c2.308,1.988,4.232,3.725,5.688,5.071
				c0.188,0.232,0.389,0.463,0.6,0.69s0.434,0.453,0.668,0.676s0.48,0.441,0.737,0.659c0.259,0.218,0.528,0.432,0.811,0.642
				c0.049,0.047,0.091,0.089,0.128,0.125s0.071,0.064,0.101,0.088c0.027,0.022,0.052,0.038,0.073,0.046
				c0.022,0.008,0.041,0.008,0.059-0.002c0.104,0.074,0.207,0.147,0.313,0.222c0.106,0.073,0.213,0.146,0.321,0.218
				c0.108,0.073,0.218,0.146,0.329,0.217c0.111,0.07,0.224,0.142,0.338,0.21c2.285,1.385,4.92,2.432,7.729,3.133
				c2.82,0.703,5.802,1.057,8.759,1.055c2.956,0,5.877-0.354,8.576-1.059c2.688-0.702,5.146-1.75,7.192-3.136
				c1.979-1.339,3.39-2.866,4.248-4.48c0.442-0.832,0.735-1.688,0.889-2.552c0.003-0.013,0.01-0.022,0.013-0.034
				c0.013-0.087,0.02-0.17,0.031-0.255c0.016-0.122,0.031-0.244,0.043-0.365c0.015-0.15,0.023-0.298,0.031-0.444
				c0.001-0.017,0.003-0.034,0.004-0.052C261.597,559.971,233.219,561.942,211.48,523.591z M184.634,513.437
				c0.083,0.078,0.153,0.157,0.239,0.233C184.787,513.594,184.717,513.515,184.634,513.437z M185.518,514.176
				c0.072,0.055,0.135,0.112,0.21,0.166C185.652,514.288,185.59,514.23,185.518,514.176z M209.698,512.603
				c0.093-0.117,0.195-0.231,0.279-0.351C209.894,512.371,209.791,512.486,209.698,512.603z M210.851,510.338
				c0.032-0.131,0.073-0.261,0.095-0.393C210.924,510.077,210.883,510.207,210.851,510.338z M210.211,511.865
				c0.072-0.123,0.156-0.243,0.219-0.366C210.367,511.622,210.283,511.742,210.211,511.865z M210.594,511.11
				c0.054-0.128,0.116-0.254,0.158-0.382C210.71,510.856,210.647,510.982,210.594,511.11z M209.395,512.98
				c-0.106,0.118-0.233,0.23-0.35,0.346C209.161,513.211,209.288,513.099,209.395,512.98z M207.842,514.347
				c-0.302,0.216-0.625,0.424-0.971,0.624C207.217,514.771,207.54,514.563,207.842,514.347z M208.683,513.682
				c-0.134,0.118-0.289,0.23-0.436,0.345C208.394,513.912,208.549,513.8,208.683,513.682z M184.151,512.965
				c-0.086-0.095-0.154-0.192-0.233-0.289C183.997,512.772,184.065,512.87,184.151,512.965z M182.573,509.905
				c-0.019-0.113-0.019-0.227-0.03-0.341C182.555,509.679,182.555,509.792,182.573,509.905z M183.561,512.229
				c-0.074-0.105-0.129-0.214-0.195-0.32C183.432,512.016,183.486,512.124,183.561,512.229z M183.1,511.471
				c-0.056-0.109-0.093-0.221-0.141-0.331C183.007,511.25,183.044,511.361,183.1,511.471z M182.771,510.693
				c-0.037-0.11-0.056-0.223-0.085-0.334C182.715,510.471,182.733,510.583,182.771,510.693z"/>
			<line fill="none" x1="140.616" y1="390.797" x2="126.364" y2="382.638"/>
			<polyline fill="none" points="53.927,341.154 49.42,338.571 49.401,338.563 36.396,331.115 			"/>
			<path fill="#455A64" d="M211.262,383.012c-0.569-0.66-1.211-1.202-1.941-1.612c0.009,0,0.027,0.009,0.033,0.009
				c-2.541-0.002-59.482-56.582-114.164-88.596c-48.594-28.448-111.188-40.084-116.211-40.084c-15.01,0-27.168,12.168-27.168,27.168
				c0,1.31,0.098,2.593,0.275,3.849c-0.089,0.454-0.143,0.891-0.143,1.345c-0.089,30.981-0.178,61.961-0.268,92.942
				c-0.009,3.188,2.103,6.387,6.316,8.818c8.373,4.837,21.904,4.837,30.232,0c4.133-2.405,6.199-5.55,6.208-8.694
				c0,0,0.205-71.419,0.205-71.421c-0.003,1.166,10.728,6.212,11.821,6.845c6.979,4.035,47.779,36.387,70.913,49.604
				c24.228,13.849,67.594,30.35,91.753,44.319c2.709,1.567,5.421,3.134,8.128,4.708c-0.08,29.119-0.16,58.229-0.249,87.348
				c-0.009,3.198,2.102,6.387,6.315,8.819c8.373,4.836,21.913,4.836,30.232,0c4.133-2.405,6.2-5.541,6.208-8.694l0.269-92.934
				c0.489-1.816,0.757-3.732,0.757-5.709C220.785,393.549,217.008,386.948,211.262,383.012z"/>
			<polyline fill="none" points="153.087,348.931 126.801,333.877 126.792,333.877 			"/>
			<line fill="none" x1="76.195" y1="304.9" x2="48.867" y2="289.25"/>
			<g>
				<g enable-background="new    ">
					<g>
						<path fill="#26C6DA" d="M39.069,173.068v8.782c-0.018-0.071-0.027-0.144-0.036-0.223v-0.009l0.027-8.935
							C39.061,172.81,39.061,172.934,39.069,173.068z"/>
						<path fill="#26C6DA" d="M146.005,222.799c-0.009,0.045-0.026,0.089-0.044,0.125v-0.019
							C145.979,222.871,145.996,222.835,146.005,222.799z"/>
					</g>
					<g>
						<path fill="#26C6DA" d="M39.069,172.284v0.784c-0.009-0.135-0.009-0.259-0.009-0.384
							C39.061,172.551,39.069,172.417,39.069,172.284z"/>
						<path fill="#26C6DA" d="M146.344,220.821c0,0.313-0.026,0.615-0.071,0.918c-0.009,0.044-0.009,0.088-0.026,0.124
							c-0.045,0.294-0.115,0.57-0.205,0.838c-0.009,0.035-0.018,0.063-0.036,0.098c-0.009,0.045-0.026,0.089-0.044,0.125v-4.633
							C146.219,219.183,146.344,220.028,146.344,220.821z"/>
					</g>
				</g>
			</g>
			<g>
				<g enable-background="new    ">
					<g>
						<path fill="#26A69A" d="M39.069,171.276v10.574c-0.018-0.071-0.027-0.144-0.036-0.223v-0.009
							c-0.223-1.471-0.338-3.047-0.347-4.721C38.677,175.063,38.811,173.184,39.069,171.276z"/>
					</g>
				</g>
			</g>
			<g>
				<g enable-background="new    ">
					<g>
						<path fill="#26C6DA" d="M139.654,157.612l-3.839-2.208C137.213,155.921,138.505,156.66,139.654,157.612z"/>
					</g>
				</g>
			</g>
			<path fill="none" d="M145.961,294.595"/>
			<path fill="none" d="M39.069,294.595"/>
			<path fill="#FFAB91" d="M68.465,98.627c0,6.755,5.326,26.704,3.999,28.94c-1.327,2.235,17.611,19.16,29.404,19.16
				c16.972,0,30.731-17.946,30.731-40.084s-13.76-40.085-30.731-40.085C84.896,66.559,68.465,76.488,68.465,98.627z"/>
			<g>
				<path fill="#8D6E63" d="M-93.223,401.521c-0.093-0.058-0.188-0.114-0.282-0.17c-0.096-0.057-0.19-0.112-0.286-0.169
					s-0.191-0.113-0.285-0.172c-0.789-0.479-1.481-0.99-2.079-1.523c-0.595-0.531-1.095-1.087-1.501-1.656
					c-0.406-0.568-0.719-1.151-0.938-1.743c-0.221-0.59-0.351-1.188-0.391-1.789l0.165,2.455c0.04,0.603,0.17,1.205,0.389,1.796
					c0.221,0.596,0.532,1.182,0.936,1.752c0.405,0.572,0.904,1.129,1.496,1.663c0.596,0.535,1.285,1.049,2.07,1.531
					c0.094,0.059,0.189,0.114,0.285,0.172c0.094,0.057,0.189,0.113,0.285,0.169c0.094,0.057,0.188,0.114,0.281,0.172
					c0.092,0.059,0.182,0.115,0.27,0.176l-0.143-2.487C-93.039,401.637-93.131,401.579-93.223,401.521z"/>
				<path fill="#8D6E63" d="M-9.97,422.854c-0.198,0.557-0.472,1.105-0.823,1.64c-0.352,0.536-0.781,1.058-1.289,1.558
					c-0.509,0.501-1.098,0.982-1.766,1.436c-1.66,1.128-3.653,1.979-5.834,2.549c-2.188,0.572-4.557,0.859-6.959,0.859
					c-2.402,0.002-4.828-0.285-7.131-0.856c-2.294-0.568-4.457-1.42-6.344-2.546c-0.543-0.361-1.089-0.718-1.638-1.072
					c-0.55-0.354-1.101-0.704-1.656-1.052c-0.552-0.348-1.109-0.692-1.667-1.034c-0.557-0.341-1.115-0.679-1.677-1.013
					c-4.148-2.478-8.397-4.796-12.55-6.923c-4.096-2.098-8.104-4.014-11.841-5.717c-3.695-1.685-7.134-3.166-10.133-4.411
					c-2.973-1.237-5.525-2.246-7.477-2.998c-0.336-0.097-0.668-0.199-0.995-0.306c-0.326-0.108-0.648-0.221-0.965-0.34
					s-0.628-0.244-0.934-0.374c-0.304-0.13-0.604-0.266-0.896-0.407l0.142,2.487c0.292,0.142,0.59,0.279,0.894,0.41
					c0.305,0.131,0.614,0.256,0.93,0.375c0.314,0.12,0.635,0.232,0.962,0.341c0.324,0.108,0.655,0.21,0.99,0.308
					c1.942,0.755,4.483,1.769,7.445,3.01c2.987,1.251,6.41,2.738,10.09,4.43c3.721,1.71,7.714,3.634,11.792,5.739
					c4.133,2.135,8.362,4.462,12.492,6.947c0.559,0.336,1.115,0.676,1.67,1.018c0.556,0.344,1.108,0.689,1.66,1.037
					c0.551,0.35,1.1,0.702,1.646,1.057c0.547,0.355,1.091,0.714,1.631,1.075c1.878,1.132,4.03,1.984,6.313,2.555
					c2.292,0.574,4.707,0.86,7.098,0.859c2.392,0,4.749-0.288,6.929-0.862c2.17-0.572,4.154-1.427,5.809-2.558
					c0.665-0.455,1.251-0.938,1.758-1.44c0.507-0.503,0.935-1.025,1.285-1.563c0.35-0.536,0.622-1.087,0.82-1.646
					c0.197-0.558,0.319-1.125,0.367-1.694c0.073-0.854,0.146-1.709,0.219-2.563C-9.649,421.732-9.771,422.297-9.97,422.854z"/>
			</g>
			<path fill="#FFAB91" d="M118.4,145.339c-3.724,9.673-13.112,16.532-24.104,16.532c-14.27,0-25.832-11.563-25.832-25.832
				c0-3.332,0.632-6.512,1.781-9.434c0.098,0.08,0.195,0.169,0.285,0.259c6.226-2.521,11.775-2.299,15.944,0.275l0.106-0.187
				L118.4,145.339z"/>
			<path fill="#FDD835" d="M119.682,44c-11.494,0-21.528,6.225-26.935,15.481c-2.459,0.439-4.771,1.297-6.862,2.499
				c-2.425-1.236-5.161-1.947-8.069-1.947C67.977,60.033,60,68.01,60,77.849c0,8.619,10.689,30.286,11.58,41.866
				s13.361-11.034,16.033-17.987c2.673-6.954,12.88-0.114,14.732-0.638c4.957,3.323,10.92,5.264,17.336,5.264
				c17.219,0,31.176-13.958,31.176-31.177S136.9,44,119.682,44z"/>
			<path fill="#8D6E63" d="M-10.342,423.711c-0.694,1.354-1.853,2.637-3.51,3.759c-1.656,1.132-3.651,1.977-5.834,2.548
				c-2.183,0.569-4.553,0.854-6.957,0.863c-1.719,0-3.465-0.151-5.157-0.445c-0.258-1.148-0.392-2.343-0.392-3.563
				c0-9.104,7.375-16.479,16.479-16.479c1.781,0,3.5,0.285,5.104,0.811c0.284,2.53,0.543,5.095,0.703,7.286
				c0,0,0.009,0.009,0.009,0.019c0.098,0.339,0.179,0.686,0.232,1.023C-9.441,420.94-9.664,422.366-10.342,423.711z"/>
			<g>
				<path fill="#A1887F" d="M144.727,263.133c0,34.265-16.029,66.896-39.816,58.799c-23.788-8.096-17.307-6.512-23.788-8.096
					c-1.872-0.458-3.829-0.701-5.843-0.701c-3.885,0-7.561,0.903-10.825,2.511c-8.123,4.001-44.155,25.269-56.771,25.269
					c-45.003,0-64.816-30.463-64.816-75.466s23.055-76.854,68.058-76.854c12.604,0,44.529,19.276,51.257,23.53
					c3.789,2.398,8.282,3.786,13.098,3.786c1.585,0,3.136-0.15,4.637-0.438c8.063-1.542,13.574-4.81,30.55-7.896
					S144.727,228.974,144.727,263.133z"/>
				<rect x="18.333" y="236.743" fill="#263238" width="13.734" height="56.021"/>
				<rect x="88.551" y="254.568" fill="#6D4C41" width="190.748" height="20.371"/>
				<polygon fill="#4E342E" points="341.339,279.106 275.596,274.939 275.596,254.568 341.339,248.24 				"/>
				<circle fill="#263238" cx="85.928" cy="264.754" r="21.143"/>
			</g>
			<path fill="#FFAB91" d="M68.605,237.66c0,0-60.693-36.164-82.523-49.272c-3.924-5.788-10.556-9.593-18.076-9.593
				c-12.053,0-21.823,9.771-21.823,21.824c0,11.125,8.325,20.299,19.085,21.646c2.254,0.281,5.362,2.676,7.416,3.7
				c2.631,1.313,5.262,2.623,7.893,3.937c5.227,2.607,10.453,5.212,15.678,7.822c10.49,5.241,52.078,15.039,54.16,16.1
				c1.547,0.787,1.705,5.809,2.68,7.482c2.953,5.066,8.076,8.347,14.034,8.347c8.855,0,16.034-7.179,16.034-16.034
				C83.162,245.263,76.768,238.406,68.605,237.66z"/>
			<path fill="#FFAB91" d="M280.226,249.294c-7.72-0.979-14.849,3.708-17.22,10.821c-36.328,2.343-58.716,7.374-77.732,13.146
				c0.034-0.011,0.071-0.016,0.106-0.025c-0.14,0.041-0.281,0.079-0.419,0.125c-0.585,0.195-1.142,0.457-1.685,0.746
				c-0.903,0.174-1.807,0.401-2.706,0.697c-11.449,3.765-17.68,16.098-13.915,27.547c3.765,11.451,16.099,17.681,27.548,13.916
				c3.315-1.089,65.274-28.532,65.274-28.532c1.177-0.485,33.588-12.227,34.64-20.517
				C295.23,258.434,289.011,250.408,280.226,249.294z M186.648,272.94c0.035-0.007,0.075-0.005,0.111-0.012
				c-0.063,0.01-0.126,0.018-0.188,0.029C186.597,272.952,186.622,272.945,186.648,272.94z M188.086,272.793
				c0.033,0,0.068,0.003,0.104,0.003c-0.054,0.001-0.106,0.001-0.159,0.003C188.05,272.798,188.067,272.793,188.086,272.793z
				 M189.581,272.829c0.149,0.012,0.3,0.033,0.448,0.051c-0.158-0.019-0.317-0.039-0.475-0.052
				C189.563,272.829,189.572,272.827,189.581,272.829z M191.13,273.055c-0.269-0.055-0.534-0.101-0.798-0.14
				C190.596,272.954,190.861,273,191.13,273.055z"/>
		</g>
	</g>
</g>
</svg>
