<?xml version="1.0" encoding="utf-8"?>
<!-- Generator: Adobe Illustrator 15.0.0, SVG Export Plug-In . SVG Version: 6.00 Build 0)  -->
<!DOCTYPE svg PUBLIC "-//W3C//DTD SVG 1.1//EN" "http://www.w3.org/Graphics/SVG/1.1/DTD/svg11.dtd">
<svg version="1.1" id="圖層_1" xmlns="http://www.w3.org/2000/svg" xmlns:xlink="http://www.w3.org/1999/xlink" x="0px" y="0px"
	 width="200px" height="200px" viewBox="0 0 200 200" enable-background="new 0 0 200 200" xml:space="preserve">
<path fill="#DFE9E9" d="M172,100c0,38.37-30.02,69.73-67.85,71.88c-1.371,0.08-2.762,0.12-4.15,0.12c-0.471,0-0.939,0-1.41-0.02
	c-0.58,0-1.15-0.021-1.72-0.051c-0.83-0.029-1.66-0.08-2.479-0.15C57.25,168.92,28,137.87,28,100c0-23.29,11.07-44.01,28.23-57.16
	c3.959-3.05,8.25-5.68,12.799-7.85c1.98-0.95,4.011-1.81,6.091-2.57c2.319-0.86,4.69-1.6,7.12-2.21c0.369-0.1,0.74-0.19,1.119-0.28
	c0.721-0.17,1.44-0.33,2.16-0.48c1.78-0.36,3.58-0.65,5.4-0.88c1.29-0.17,2.6-0.29,3.91-0.38C96.54,28.06,98.26,28,100,28
	C139.76,28,172,60.24,172,100z"/>
<line fill="none" x1="-351.087" y1="284.531" x2="-351.087" y2="284.16"/>
<path fill="#DFE9E9" d="M421-54c0,38.37-30.02,69.73-67.85,71.88C351.779,17.96,350.389,18,349,18c-0.471,0-0.939,0-1.41-0.02
	c-0.58,0-1.15-0.021-1.72-0.051c-0.83-0.029-1.66-0.08-2.479-0.15C306.25,14.92,277-16.13,277-54c0-23.29,11.07-44.01,28.23-57.16
	c3.959-3.05,8.25-5.68,12.799-7.85c1.979-0.95,4.011-1.81,6.091-2.57c2.319-0.86,4.69-1.6,7.12-2.21c0.369-0.1,0.74-0.19,1.119-0.28
	c0.721-0.17,1.439-0.33,2.16-0.48c1.779-0.36,3.58-0.65,5.399-0.88c1.29-0.17,2.601-0.29,3.91-0.38
	c1.711-0.13,3.431-0.19,5.171-0.19C388.76-126,421-93.76,421-54z"/>
<g>
	<g>
		<path fill="#FFAB91" d="M367.863-95.575c0,2.651-2.09,10.476-1.568,11.354c0.52,0.876-6.908,7.516-11.535,7.516
			c-6.656,0-12.054-7.04-12.054-15.724c0-8.685,5.396-15.724,12.054-15.724C361.418-108.154,367.863-104.259,367.863-95.575z"/>
		<path fill="#FDD835" d="M366.457-102.21c-0.182-4.278-3.705-7.691-8.027-7.691c-0.718,0-1.41,0.095-2.07,0.271
			c-1.377-2.455-4.002-4.114-7.016-4.114c-4.438,0-8.035,3.598-8.035,8.036c0,3.944,2.84,7.223,6.588,7.904
			c0.104,0.044,0.234,0.088,0.399,0.133c3.843,1.048,4.543,9.084,4.543,9.084s1.747-2.917,4.892,0
			c0.024-0.028,0.045-0.062,0.067-0.091c1.206,0.723,2.617,1.139,4.125,1.139c4.438,0,8.037-3.598,8.037-8.037
			C369.96-98.331,368.57-100.763,366.457-102.21z"/>
		<g>
			<g enable-background="new    ">
				<g>
					<polygon fill="#889398" points="348.023,-68.176 348.018,-66.468 318.465,-49.293 318.471,-51.002 					"/>
				</g>
				<g>
					<polygon fill="#5E666A" points="318.471,-51.002 318.465,-49.293 296.154,-62.173 296.16,-63.882 					"/>
				</g>
				<g>
					<polygon fill="#98A4AA" points="348.023,-68.176 318.471,-51.002 296.16,-63.882 325.713,-81.057 					"/>
				</g>
			</g>
		</g>
		<g>
			<g enable-background="new    ">
				<g>
					<polygon fill="#5E6669" points="296.111,-63.958 294.633,-64.816 294.561,-90.452 296.038,-89.593 					"/>
				</g>
				<g>
					<polygon fill="#97A3AA" points="296.038,-89.593 294.561,-90.452 324.309,-107.626 325.785,-106.768 					"/>
				</g>
				<g>
					<g>
						<polygon fill="#80DEEA" points="297.088,-88.989 324.742,-104.955 324.809,-81.737 297.152,-65.771 						"/>
						<path fill="#37474F" d="M323.699-103.143l0.059,20.802l-25.561,14.758l-0.059-20.802L323.699-103.143 M325.785-106.768
							l-29.747,17.175l0.073,25.635l29.748-17.175L325.785-106.768L325.785-106.768z"/>
					</g>
				</g>
			</g>
		</g>
		<path fill="#FFAB91" d="M322.975-57.593c-0.033-0.242-0.107-0.449-0.226-0.605c-0.088-0.119-0.2-0.208-0.336-0.264
			c0.004,0.001,0.008,0.002,0.013,0.004c0.016,0.007,0.033,0.016,0.049,0.023c-0.992-0.516-1.981-1.031-2.974-1.547
			c0.136-0.566-0.207-1.467-0.921-2.265c-0.9-1.006-2.04-1.457-2.543-1.006c-0.104,0.091-0.162,0.22-0.198,0.364
			c-0.187-0.065-0.375-0.126-0.571-0.175c-2.434-0.608-4.767,0.341-5.211,2.119c-0.443,1.779,1.168,3.714,3.604,4.321
			c0.73,0.184,1.449,0.223,2.113,0.144c0.01,0.018,0.016,0.039,0.024,0.055c0.089,0.156,0.205,0.281,0.345,0.373l3.599,2.32
			c-0.005-0.002-0.007-0.007-0.011-0.009c0.127,0.083,0.275,0.133,0.449,0.137c0.075,0.002,0.152-0.004,0.232-0.019
			c0.079-0.013,0.158-0.035,0.238-0.064c0.082-0.028,0.162-0.063,0.244-0.106c0.08-0.042,0.162-0.09,0.244-0.144
			c0.147-0.099,0.295-0.217,0.438-0.353c0.143-0.134,0.281-0.285,0.41-0.448c0.131-0.163,0.255-0.342,0.367-0.531
			c0.113-0.188,0.217-0.387,0.307-0.594c0.14-0.322,0.234-0.634,0.285-0.925C322.998-57.082,323.007-57.354,322.975-57.593z
			 M319.302-55.119c-0.01,0.098-0.015,0.19-0.015,0.281C319.287-54.929,319.292-55.021,319.302-55.119z M319.452-55.825
			c-0.009,0.025-0.017,0.05-0.022,0.076C319.436-55.775,319.443-55.8,319.452-55.825z M319.341-55.398
			c-0.004,0.021-0.007,0.042-0.011,0.065c0.003-0.016,0.003-0.029,0.006-0.044C319.337-55.384,319.34-55.392,319.341-55.398z
			 M319.288-54.712c0.005,0.112,0.019,0.217,0.041,0.315c-0.019-0.082-0.034-0.167-0.041-0.258
			C319.286-54.674,319.289-54.695,319.288-54.712z M319.418-54.124c0.007,0.014,0.014,0.03,0.021,0.042
			c-0.004-0.005-0.008-0.009-0.01-0.014C319.424-54.104,319.423-54.115,319.418-54.124z M319.335-54.359
			c0.002,0.007,0.005,0.013,0.006,0.021C319.34-54.346,319.337-54.352,319.335-54.359z M319.555-53.9
			c0.01,0.011,0.02,0.02,0.028,0.03C319.574-53.881,319.564-53.89,319.555-53.9z M322.264-58.511
			c0.019,0.005,0.037,0.009,0.055,0.014c0.02,0.005,0.037,0.011,0.056,0.018c0.01,0.003,0.019,0.007,0.028,0.011
			C322.357-58.486,322.313-58.5,322.264-58.511z"/>
		<path fill="#FFAB91" d="M342.193-70.172c-0.033-0.242-0.109-0.448-0.227-0.606c-0.088-0.119-0.199-0.208-0.336-0.265
			c0.004,0.002,0.01,0.003,0.014,0.006c0.017,0.006,0.032,0.014,0.047,0.023c-1.266-0.658-2.531-1.316-3.797-1.975
			c-0.018-0.009-0.035-0.017-0.054-0.025c-0.018-0.008-0.036-0.016-0.056-0.022c-0.01-0.003-0.02-0.007-0.028-0.01
			c-0.194-1.106-0.899-2.268-2.024-3.145c-1.979-1.543-4.496-1.624-5.623-0.178c-1.129,1.445-0.439,3.868,1.539,5.411
			c0.022,0.019,0.045,0.033,0.068,0.05c-0.281,0.131-0.471,0.317-0.525,0.554c-0.153,0.658,0.789,1.44,2.104,1.746
			c0.792,0.185,1.537,0.154,2.039-0.043c0.009,0.006,0.017,0.016,0.026,0.021l3.598,2.32c-0.004-0.002-0.007-0.006-0.01-0.009
			c0.125,0.083,0.273,0.133,0.447,0.139c0.076,0.001,0.153-0.005,0.232-0.02c0.079-0.014,0.159-0.035,0.239-0.063
			c0.081-0.029,0.161-0.065,0.243-0.106c0.082-0.042,0.162-0.09,0.244-0.144c0.146-0.099,0.295-0.218,0.437-0.352
			c0.144-0.135,0.281-0.286,0.411-0.451c0.132-0.163,0.255-0.34,0.367-0.528c0.113-0.188,0.217-0.388,0.306-0.596
			c0.14-0.322,0.233-0.634,0.287-0.925C342.216-69.662,342.225-69.934,342.193-70.172z M338.52-67.698
			c-0.01,0.098-0.015,0.191-0.015,0.281C338.505-67.507,338.51-67.601,338.52-67.698z M338.669-68.405
			c-0.007,0.024-0.017,0.05-0.022,0.076C338.654-68.354,338.661-68.381,338.669-68.405z M338.559-67.978
			c-0.004,0.022-0.007,0.044-0.011,0.065c0.002-0.014,0.002-0.029,0.005-0.043C338.555-67.963,338.559-67.971,338.559-67.978z
			 M338.506-67.292c0.006,0.112,0.02,0.218,0.041,0.315c-0.02-0.083-0.033-0.167-0.041-0.259
			C338.504-67.253,338.506-67.273,338.506-67.292z M338.637-66.703c0.006,0.015,0.014,0.03,0.021,0.044
			c-0.003-0.005-0.007-0.009-0.009-0.014C338.643-66.682,338.641-66.694,338.637-66.703z M338.553-66.938
			c0.002,0.007,0.006,0.013,0.006,0.02C338.559-66.925,338.555-66.931,338.553-66.938z M338.773-66.48
			c0.009,0.011,0.019,0.021,0.026,0.03C338.792-66.46,338.782-66.469,338.773-66.48z M341.48-71.09
			c0.02,0.004,0.039,0.009,0.057,0.014c0.018,0.005,0.036,0.011,0.054,0.017c0.011,0.003,0.021,0.008,0.03,0.012
			C341.575-71.064,341.529-71.079,341.48-71.09z"/>
		<g>
			<g enable-background="new    ">
				<g>
					<path fill="#26C6DA" d="M348.721,15.605c0,2.793-1.932,5.139-4.527,5.77c-0.035,0.007-0.074,0.018-0.109,0.025
						c-0.303,0.068-0.62,0.113-0.939,0.136c-0.104,0.008-0.213,0.011-0.321,0.011c-1.091-0.008-2.107-0.309-2.981-0.824
						c-0.23-0.16-0.461-0.318-0.691-0.479c-0.133-0.092-0.262-0.184-0.396-0.271c-0.883-0.613-1.768-1.222-2.65-1.832
						c-2.977-2.057-5.953-4.113-8.928-6.168c-1.479-1.021-2.953-2.045-4.434-3.063c-0.838-0.574-2.702-2.021-0.954-3.77
						c1.747-1.746,4.289-1.922,6.401-0.875c2.059,1.019,4.1,2.067,6.151,3.098c0.495,0.248,0.988,0.498,1.483,0.744
						c0.168-0.768,0.758-1.508,1.773-2.099c2.45-1.423,6.434-1.423,8.896,0c1.24,0.716,1.859,1.655,1.855,2.593l-0.011,4.905
						C348.583,14.16,348.721,14.869,348.721,15.605z"/>
				</g>
			</g>
		</g>
		<path fill="#455A64" d="M379.087-25.146c0.005,0.004,0.011,0.004,0.017,0.008c-0.033-0.018-0.061-0.03-0.088-0.049L346.82-43.898
			c-0.477-0.354-0.989-0.654-1.538-0.896c-1.044-0.472-2.201-0.729-3.421-0.729c-0.778,0-1.534,0.104-2.25,0.308
			c-0.279,0.075-0.555,0.168-0.82,0.276c-3.109,1.223-5.314,4.254-5.314,7.801c0,0.351,0.021,0.693,0.065,1.027
			c-0.045,0.356-0.065,0.707-0.065,1.053c0.002,0.451,0.043,0.869,0.117,1.252l-0.115,40.912c-0.004,1.25,0.821,2.504,2.475,3.459
			c3.286,1.896,8.594,1.897,11.857,0c1.623-0.941,2.436-2.176,2.438-3.41c0.026-9.871,0.056-19.74,0.084-29.61
			c6.761,3.929,13.521,7.856,20.278,11.784c-0.008-0.006-0.014-0.012-0.021-0.018c1.088,0.687,2.622,0.621,4.319-0.359
			c3.286-1.896,5.94-6.496,5.93-10.271C380.833-23.207,380.165-24.531,379.087-25.146z M378.828-25.277
			c-0.047-0.02-0.094-0.039-0.139-0.057c0.02,0.007,0.043,0.012,0.063,0.02C378.777-25.303,378.803-25.288,378.828-25.277z
			 M378.381-25.434c-0.058-0.016-0.113-0.029-0.173-0.041c0.043,0.009,0.085,0.018,0.129,0.027
			C378.354-25.441,378.365-25.438,378.381-25.434z M377.757-25.534c0.056,0.005,0.112,0.011,0.168,0.015
			c0.046,0.004,0.091,0.01,0.136,0.021c0.039,0.005,0.074,0.011,0.112,0.019c0.009,0.002,0.015,0.004,0.022,0.006
			c-0.223-0.045-0.456-0.064-0.698-0.062c0.017,0,0.034-0.005,0.05-0.005C377.617-25.542,377.689-25.537,377.757-25.534z
			 M376.527-25.408c-0.028,0.006-0.055,0.014-0.084,0.021c0.021-0.006,0.041-0.014,0.063-0.018
			C376.514-25.406,376.52-25.406,376.527-25.408z M377.082-25.51c-0.025,0.002-0.055,0.007-0.081,0.01
			C377.027-25.503,377.057-25.507,377.082-25.51z M376.314-25.354c-0.049,0.014-0.099,0.029-0.147,0.045
			c0.032-0.008,0.063-0.021,0.095-0.029C376.279-25.344,376.298-25.35,376.314-25.354z M376.008-25.254
			c-0.058,0.021-0.115,0.042-0.174,0.064C375.893-25.212,375.95-25.232,376.008-25.254z M375.689-25.131
			c-0.058,0.023-0.112,0.049-0.168,0.074C375.577-25.082,375.633-25.105,375.689-25.131z M375.326-24.965
			c-0.04,0.02-0.082,0.039-0.123,0.061C375.244-24.926,375.286-24.945,375.326-24.965z M334.402-31.828
			c0.054,0.064,0.101,0.133,0.158,0.195C334.503-31.695,334.456-31.764,334.402-31.828z M333.613-33.66
			c0.006,0.076,0.007,0.153,0.02,0.229C333.62-33.507,333.619-33.584,333.613-33.66z M333.693-33.189
			c0.019,0.072,0.031,0.147,0.057,0.224C333.725-33.042,333.711-33.117,333.693-33.189z M333.85-32.73
			c0.032,0.074,0.057,0.147,0.094,0.221C333.906-32.583,333.881-32.656,333.85-32.73z M334.085-32.275
			c0.043,0.07,0.08,0.143,0.128,0.211C334.165-32.135,334.128-32.205,334.085-32.275z M334.986-31.217
			c-0.064-0.059-0.118-0.117-0.18-0.176C334.868-31.334,334.921-31.273,334.986-31.217z M335.316-30.959
			c0.059,0.045,0.11,0.092,0.172,0.137C335.427-30.867,335.375-30.913,335.316-30.959z M369.191-12.645
			c-0.002-0.008-0.004-0.016-0.006-0.022C369.188-12.659,369.189-12.65,369.191-12.645z M369.098-12.998
			c-0.002-0.006-0.002-0.012-0.004-0.016C369.096-13.01,369.096-13.004,369.098-12.998z M369.361-12.184
			c0.013,0.031,0.025,0.063,0.039,0.093c-0.002-0.007-0.006-0.013-0.01-0.019C369.382-12.135,369.371-12.159,369.361-12.184z
			 M369.451-11.988c0.007,0.014,0.013,0.025,0.02,0.039c-0.003-0.007-0.007-0.011-0.009-0.018
			C369.458-11.975,369.454-11.98,369.451-11.988z M369.382-17.316c0.767-2.604,2.468-5.181,4.527-6.754
			C371.852-22.497,370.148-19.919,369.382-17.316z"/>
		<g>
			<g enable-background="new    ">
				<g>
					<path fill="#26C6DA" d="M332.973,28.518c0,2.793-1.932,5.137-4.529,5.771c-0.034,0.007-0.072,0.019-0.107,0.022
						c-0.304,0.07-0.619,0.117-0.939,0.137c-0.105,0.009-0.213,0.012-0.321,0.012c-1.091-0.008-2.107-0.309-2.981-0.824
						c-0.23-0.16-0.461-0.318-0.691-0.48c-0.133-0.09-0.262-0.182-0.396-0.27c-0.884-0.613-1.769-1.221-2.651-1.832
						c-2.976-2.056-5.953-4.111-8.928-6.168c-1.478-1.021-2.953-2.046-4.435-3.063c-0.836-0.573-2.701-2.021-0.954-3.768
						c1.748-1.748,4.289-1.924,6.402-0.877c2.059,1.018,4.1,2.068,6.15,3.098c0.494,0.248,0.989,0.498,1.483,0.746
						c0.167-0.771,0.758-1.51,1.774-2.102c2.449-1.422,6.434-1.422,8.896,0c1.24,0.717,1.859,1.657,1.855,2.594l-0.011,4.905
						C332.836,27.07,332.973,27.779,332.973,28.518z"/>
				</g>
			</g>
		</g>
		<g>
			<g enable-background="new    ">
				<g>
					<path fill="#FFCA28" d="M328.336,34.311c-0.304,0.07-0.619,0.117-0.939,0.137c0.349-0.014,0.69-0.059,1.021-0.137
						c0.01-0.006,0.017-0.017,0.026-0.022C328.409,34.294,328.371,34.305,328.336,34.311z"/>
				</g>
			</g>
		</g>
		<path fill="#FFCA28" d="M327.075,34.458h-0.042c-1.104,0-2.135-0.302-3.02-0.825c-0.242-0.143-0.476-0.305-0.691-0.479
			c-0.108-0.088-0.213-0.18-0.315-0.271c0.134,0.09,0.263,0.182,0.396,0.271c0.23,0.16,0.461,0.318,0.691,0.479
			C324.967,34.15,325.984,34.45,327.075,34.458z"/>
		<path fill="#546E7A" d="M363.34-12.236c0.004,0.004,0.01,0.006,0.016,0.008c-0.03-0.017-0.061-0.029-0.088-0.047l-32.195-18.713
			c-0.475-0.354-0.989-0.652-1.538-0.895c-1.044-0.473-2.201-0.73-3.421-0.73c-0.779,0-1.534,0.104-2.25,0.309
			c-0.28,0.076-0.555,0.168-0.821,0.275c-3.108,1.223-5.313,4.256-5.313,7.803c0,0.351,0.021,0.691,0.065,1.027
			c-0.046,0.355-0.065,0.705-0.065,1.051c0.002,0.453,0.043,0.869,0.117,1.254l-0.117,40.912c-0.002,1.25,0.822,2.504,2.476,3.457
			c3.286,1.897,8.594,1.898,11.858,0.002c1.623-0.942,2.435-2.177,2.438-3.412c0.027-9.869,0.057-19.74,0.084-29.609
			c6.76,3.928,13.52,7.855,20.279,11.783c-0.008-0.006-0.014-0.012-0.021-0.016c1.088,0.686,2.621,0.621,4.319-0.361
			c3.286-1.896,5.94-6.496,5.931-10.271C365.086-10.296,364.417-11.62,363.34-12.236z M363.08-12.365
			c-0.045-0.021-0.092-0.039-0.139-0.059c0.02,0.009,0.043,0.013,0.063,0.021C363.031-12.391,363.055-12.377,363.08-12.365z
			 M362.633-12.521c-0.057-0.015-0.113-0.029-0.172-0.041c0.042,0.008,0.085,0.017,0.128,0.026
			C362.604-12.531,362.617-12.525,362.633-12.521z M362.009-12.623c0.058,0.004,0.112,0.01,0.168,0.014
			c0.046,0.004,0.093,0.012,0.138,0.021c0.037,0.004,0.072,0.01,0.111,0.018c0.008,0.002,0.016,0.004,0.022,0.006
			c-0.224-0.045-0.456-0.063-0.697-0.062c0.015-0.001,0.032-0.003,0.049-0.003C361.869-12.629,361.943-12.626,362.009-12.623z
			 M360.779-12.498c-0.027,0.008-0.055,0.014-0.084,0.021c0.021-0.006,0.043-0.015,0.063-0.018
			C360.768-12.495,360.773-12.496,360.779-12.498z M361.334-12.6c-0.025,0.004-0.055,0.008-0.08,0.011
			C361.279-12.594,361.309-12.596,361.334-12.6z M360.566-12.441c-0.049,0.014-0.098,0.029-0.146,0.047
			c0.031-0.01,0.063-0.022,0.096-0.033C360.532-12.434,360.55-12.436,360.566-12.441z M360.262-12.344
			c-0.059,0.021-0.117,0.043-0.176,0.066C360.145-12.301,360.203-12.322,360.262-12.344z M359.941-12.219
			c-0.055,0.023-0.112,0.047-0.168,0.072C359.829-12.172,359.887-12.195,359.941-12.219z M359.579-12.055
			c-0.041,0.021-0.082,0.039-0.123,0.062C359.497-12.016,359.538-12.033,359.579-12.055z M318.656-18.918
			c0.054,0.066,0.1,0.133,0.158,0.195C318.756-18.785,318.709-18.852,318.656-18.918z M317.865-20.748
			c0.007,0.075,0.008,0.15,0.021,0.229C317.873-20.598,317.872-20.673,317.865-20.748z M317.945-20.279
			c0.02,0.074,0.031,0.149,0.057,0.223C317.977-20.13,317.964-20.205,317.945-20.279z M318.104-19.816
			c0.03,0.071,0.056,0.146,0.092,0.217C318.159-19.672,318.134-19.745,318.104-19.816z M318.338-19.363
			c0.042,0.069,0.08,0.141,0.128,0.209C318.418-19.225,318.381-19.294,318.338-19.363z M319.24-18.307
			c-0.066-0.057-0.12-0.117-0.18-0.174C319.12-18.424,319.174-18.363,319.24-18.307z M319.568-18.047
			c0.059,0.045,0.111,0.092,0.173,0.135C319.68-17.955,319.627-18.002,319.568-18.047z M353.445,0.268
			c-0.004-0.008-0.006-0.016-0.008-0.022C353.439,0.252,353.441,0.26,353.445,0.268z M353.352-0.086
			c-0.002-0.006-0.004-0.012-0.004-0.018C353.348-0.098,353.35-0.092,353.352-0.086z M353.613,0.729
			c0.014,0.031,0.025,0.063,0.041,0.094c-0.004-0.008-0.008-0.014-0.01-0.02C353.634,0.777,353.624,0.752,353.613,0.729z
			 M353.703,0.922c0.007,0.014,0.014,0.025,0.021,0.04c-0.004-0.007-0.009-0.011-0.012-0.017
			C353.711,0.938,353.708,0.93,353.703,0.922z M353.634-4.406c0.769-2.602,2.468-5.179,4.527-6.753
			C356.104-9.585,354.402-7.008,353.634-4.406z"/>
		<g>
			<g enable-background="new    ">
				<g>
					<path fill="#546E7A" d="M382.911-24.393l-0.04,14.242c-0.008,2.754-2.62,6.098-7.389,8.869
						c-7.412,4.307-17.229,5.602-21.924,2.893c-1.675-0.967-2.472-2.314-2.468-3.842l0.039-14.242
						c-0.003,1.527,0.794,2.875,2.47,3.842c4.692,2.71,14.51,1.414,21.922-2.893C380.29-18.294,382.904-21.639,382.911-24.393z"/>
				</g>
				<g>
					<path fill="#546E7A" d="M380.445-28.23c4.693,2.709,2.488,8.4-4.924,12.707c-7.412,4.308-17.229,5.604-21.922,2.894
						c-4.697-2.711-2.49-8.399,4.92-12.709C365.932-29.646,375.75-30.941,380.445-28.23z"/>
				</g>
			</g>
		</g>
		<g>
			<g enable-background="new    ">
				<g>
					<path fill="#689F38" d="M340.982-72.035l22.137,10.81c-0.012-0.007-0.023-0.011-0.036-0.017
						c-0.013-0.004-0.024-0.009-0.037-0.012s-0.026-0.005-0.04-0.009c-0.014-0.002-0.027-0.003-0.042-0.005
						c-0.077-0.006-0.164,0.002-0.255,0.026c-0.094,0.025-0.191,0.066-0.298,0.122s-0.22,0.127-0.336,0.213
						c-0.118,0.087-0.241,0.187-0.368,0.301L339.15-72.094c0.134-0.046,0.267-0.084,0.4-0.11c0.133-0.025,0.266-0.041,0.398-0.045
						c0.132-0.004,0.263,0.002,0.392,0.02c0.128,0.018,0.255,0.046,0.377,0.086c0.024,0.008,0.048,0.016,0.069,0.024
						c0.023,0.008,0.045,0.017,0.068,0.026c0.021,0.009,0.043,0.018,0.064,0.027C340.941-72.057,340.962-72.046,340.982-72.035z"/>
				</g>
				<g>
					<path fill="#689F38" d="M357.975-52.378l-20.352-13.883c-0.221-0.151-0.412-0.345-0.564-0.575
						c-0.156-0.232-0.272-0.499-0.348-0.792c-0.074-0.297-0.105-0.619-0.087-0.956c0.019-0.339,0.087-0.694,0.211-1.052
						c0.103-0.299,0.238-0.582,0.397-0.842c0.16-0.26,0.346-0.498,0.549-0.709c0.201-0.21,0.423-0.394,0.654-0.547
						c0.229-0.151,0.471-0.272,0.715-0.359l22.557,11.488c-0.234,0.212-0.482,0.47-0.738,0.766c-0.258,0.299-0.52,0.635-0.779,1.002
						c-0.262,0.368-0.52,0.766-0.767,1.181c-0.248,0.417-0.481,0.851-0.698,1.294c-0.258,0.529-0.468,1.027-0.627,1.482
						c-0.156,0.448-0.266,0.853-0.324,1.2c-0.061,0.341-0.07,0.627-0.034,0.848C357.771-52.615,357.854-52.461,357.975-52.378z"/>
				</g>
				<g>
					<path fill="#689F38" d="M361.707-60.605c0.127-0.114,0.25-0.214,0.368-0.301c0.116-0.085,0.229-0.157,0.336-0.213
						c0.104-0.056,0.204-0.097,0.298-0.122c0.091-0.024,0.178-0.033,0.255-0.026c0.216,0.02,0.353,0.166,0.417,0.408
						c0.063,0.235,0.059,0.562-0.009,0.955c-0.065,0.384-0.188,0.834-0.369,1.328c-0.177,0.486-0.407,1.019-0.69,1.579
						c-0.182,0.36-0.375,0.713-0.574,1.052c-0.2,0.339-0.408,0.665-0.619,0.973c-0.211,0.31-0.428,0.602-0.641,0.873
						c-0.219,0.272-0.436,0.523-0.646,0.744c-0.116,0.121-0.23,0.234-0.344,0.338c-0.113,0.104-0.225,0.199-0.332,0.283
						c-0.109,0.084-0.215,0.157-0.316,0.219c-0.104,0.063-0.203,0.111-0.297,0.147c-0.273,0.103-0.48,0.081-0.619-0.048
						c-0.143-0.135-0.211-0.385-0.205-0.732c0.006-0.358,0.09-0.816,0.256-1.355c0.168-0.55,0.42-1.177,0.75-1.856
						c0.217-0.443,0.45-0.876,0.698-1.294c0.247-0.416,0.505-0.813,0.767-1.181c0.261-0.367,0.521-0.703,0.779-1.002
						C361.225-60.135,361.473-60.394,361.707-60.605z"/>
				</g>
			</g>
		</g>
		<g>
			<g enable-background="new    ">
				<g>
					<path fill="#263238" d="M382.911-38.889l-0.04,14.242c-0.008,2.754-2.62,6.098-7.389,8.867
						c-7.412,4.309-17.229,5.604-21.924,2.895c-1.675-0.969-2.472-2.313-2.468-3.842l0.039-14.242
						c-0.003,1.529,0.794,2.875,2.47,3.843c4.692,2.709,14.51,1.414,21.922-2.894C380.29-32.79,382.904-36.135,382.911-38.889z"/>
				</g>
				<g>
					<path fill="#263238" d="M380.445-42.729c4.693,2.711,2.488,8.401-4.924,12.709s-17.229,5.603-21.922,2.894
						c-4.697-2.711-2.49-8.401,4.92-12.709C365.932-44.143,375.75-45.439,380.445-42.729z"/>
				</g>
			</g>
		</g>
		<path fill="#7CB342" d="M382.906-54.7c0.005-0.229-0.004-0.454-0.034-0.673l0.039-13.914c0,0.03-0.004,0.061-0.005,0.091
			c0.014-0.592-0.092-1.158-0.32-1.687c-0.704-5.667-3.922-10.524-8.984-12.551c-7.945-3.182-17.412,1.8-21.146,11.126
			c-0.125,0.312-0.24,0.626-0.352,0.94l-13.53,20.363l-16.46-8.037c-0.021-0.01-0.043-0.02-0.063-0.03
			c-0.022-0.01-0.043-0.02-0.065-0.029c-0.021-0.009-0.043-0.016-0.066-0.024c-0.021-0.009-0.045-0.017-0.068-0.024
			c-0.123-0.041-0.25-0.07-0.377-0.088c-0.13-0.018-0.261-0.024-0.393-0.02c-0.133,0.004-0.266,0.02-0.398,0.046
			c-0.135,0.026-0.269,0.063-0.402,0.108c-0.244,0.087-0.484,0.208-0.715,0.36c-0.23,0.152-0.451,0.335-0.653,0.546
			c-0.204,0.211-0.39,0.45-0.548,0.71c-0.16,0.259-0.295,0.542-0.399,0.84c-0.124,0.359-0.192,0.714-0.211,1.055
			c-0.019,0.337,0.013,0.661,0.088,0.956c0.075,0.293,0.192,0.561,0.349,0.793c0.153,0.229,0.344,0.423,0.564,0.576l18.938,12.918
			c1.445,1.293,3.396,2.065,5.303,1.934c1.617-0.113,2.89-0.857,3.623-1.964c1.492-2.245,2.984-4.491,4.477-6.735
			c0,0.193,0.014,0.383,0.039,0.571l-0.039,13.912c-0.001,0.198,0.014,0.396,0.039,0.587l-0.039,14.089
			c-0.004,1.528,0.793,2.874,2.469,3.843c4.693,2.709,14.511,1.413,21.922-2.895c4.77-2.771,7.382-6.114,7.39-8.869l0.04-14.241
			c0,0.03-0.004,0.062-0.005,0.091c0.005-0.229-0.005-0.453-0.034-0.674l0.039-14.092C382.911-54.762,382.907-54.731,382.906-54.7z
			 M351.163-46.346c0.001,0.002,0.001,0.004,0.002,0.005c0,0.008,0,0.016,0.003,0.022C351.165-46.328,351.165-46.337,351.163-46.346
			z"/>
		<polygon fill="#66BB6A" points="311.581,-93.128 311.605,-84.055 301.077,-77.975 301.051,-87.05 		"/>
		<polygon fill="#388E3C" points="317.171,-91.032 317.197,-81.958 306.667,-75.879 306.643,-84.954 		"/>
	</g>
	<path fill="#00E676" d="M394.844-124.926c0,11.386-9.229,20.615-20.615,20.615c-3.33,0-7.513,0.525-12.754,2.971
		c3.494-5.242-0.599-7.699-2.238-9.436c-3.485-3.692-5.623-8.672-5.623-14.151c0-11.386,9.229-20.616,20.615-20.616
		C385.613-145.542,394.844-136.312,394.844-124.926z"/>
	<path fill="#689F38" d="M351.166-47.355l5.939-4.892c0,0,0.351,16.423-1.397,19.567c-1.747,3.146-4.542,7.338-4.542,7.338V-47.355z
		"/>
</g>
<g>
	<path fill="#7CB342" d="M130.068,86.515c0,0-11.575-28.258-13.965-33.406c-0.239-0.517-0.386-0.8-0.42-0.803
		c-0.496-2.588-5.563-6.521-6.021-6.899l-1.258-0.724l-5.703-3.297c-1.22,3.169-4.295,5.415-7.895,5.415
		c-4.674,0-8.46-3.787-8.46-8.46c0-1.092,0.207-2.133,0.583-3.09c-1.266-1.161-2.958-1.87-4.813-1.87
		c-2.086,0-5.963,2.465-6.258,2.638L49.547,51.308c-0.896,0.517-1.453,1.619-1.455,3.188c-0.009,3.151,2.205,6.99,4.95,8.574
		c1.386,0.803,2.644,0.873,3.548,0.339c6.71-3.897,17.796-12.857,20.129-10.065c2.334,2.792-0.009-0.046-0.011-0.072L76.594,93.14
		c-0.006,2.635,2.751,2.089,11.707,11.29c8.957,9.201,19.182,8.034,22.417,6.152c0.686-0.396,1.01-0.968,1.013-1.674
		c0.018-6.378,0.021-18.656,0.015-30.288l5.354,13.169c0.102,0.257,0.615,0.35,1.549,0.23c2.343-0.301,6.45-1.826,9.175-3.41
		C129.462,87.658,130.227,86.902,130.068,86.515z M115.806,53.426c0,0,0,0,0-0.003c0.015-0.015,0.032-0.029,0.047-0.044
		C115.838,53.396,115.823,53.411,115.806,53.426z"/>
	<g>
		<path fill="#CFD8DC" d="M42.42,119.892c-0.131-0.047-0.263-0.094-0.396-0.14c-0.443-0.158-0.878-0.307-1.308-0.443
			C41.326,119.448,41.9,119.641,42.42,119.892z"/>
	</g>
	<g>
		<path fill="#455A64" d="M58.498,122.572c1.583,0.913,1.591,2.395,0.021,3.308c-1.572,0.913-4.129,0.913-5.711,0
			c-1.583-0.914-1.591-2.396-0.02-3.309C54.358,121.658,56.916,121.658,58.498,122.572z"/>
	</g>
	<path fill="#CFD8DC" d="M42.887,129.355c-2.833-1.032-5.637-2.196-7.73-3.375c0.592,0.228,1.321,0.52,2.149,0.863
		c0.98,0.408,2.106,0.893,3.317,1.444C41.353,128.62,42.111,128.977,42.887,129.355z"/>
	<g>
		<g enable-background="new    ">
			<g>
				<path fill="#5D4037" d="M59.944,124.442c0.003-1.37,0.006-2.742,0.012-4.113c0-0.604-0.396-1.207-1.193-1.666
					c-1.584-0.913-4.14-0.913-5.709,0c-0.837,0.487-2.007,2.238-4.633,2.821c-2.626,0.584-2.334-0.286-6.001-1.599
					c-0.131-0.047-0.263-0.093-0.396-0.14c-0.443-0.158-0.878-0.307-1.308-0.443c-3.459-1.114-6.427-1.441-8.463,1.788
					c-0.026,0.023-0.05,0.05-0.072,0.076c-0.374,0.423-0.596,0.875-0.66,1.333c-0.066,0.464,0.029,0.931,0.289,1.374
					c0.263,0.449,0.697,0.872,1.305,1.243c0.028,0.017,0.061,0.034,0.093,0.055c0.029,0.018,0.062,0.035,0.094,0.056
					c0.028,0.018,0.061,0.035,0.09,0.056c0.032,0.018,0.062,0.038,0.091,0.058c0,0,0.003,0,0.009,0.004
					c0.006,0.003,0.015,0.005,0.026,0.008s0.026,0.009,0.04,0.015c0.019,0.006,0.035,0.015,0.059,0.021
					c0.097,0.047,0.193,0.091,0.292,0.135c0.102,0.044,0.204,0.084,0.307,0.122c0.104,0.038,0.21,0.076,0.317,0.111
					c0.105,0.035,0.216,0.069,0.324,0.102c0.096,0.038,0.195,0.076,0.301,0.117c0.592,0.228,1.321,0.52,2.149,0.863
					c0.98,0.408,2.106,0.893,3.317,1.444c0.729,0.332,1.488,0.688,2.264,1.067c0.531,0.26,1.071,0.528,1.613,0.806
					c1.362,0.697,2.754,1.455,4.11,2.267l0.552,0.332c0.181,0.111,0.364,0.226,0.546,0.339c0.181,0.113,0.361,0.228,0.542,0.344
					c0.178,0.117,0.359,0.233,0.537,0.354c0.615,0.367,1.324,0.647,2.077,0.831c0.213,0.053,0.426,0.1,0.645,0.138
					c-0.084-0.377-0.128-0.768-0.128-1.167c0-2.981,2.415-5.397,5.396-5.397c0.584,0,1.146,0.094,1.672,0.266
					C60.225,126.471,59.944,124.53,59.944,124.442z"/>
			</g>
		</g>
	</g>
	<g>
		<g>
			<path fill="#8D6E63" d="M121.425,174.008c-0.04-0.662-0.081-1.325-0.122-1.987c0.011,0.164,0.046,0.328,0.106,0.489
				c0.062,0.162,0.147,0.321,0.261,0.477c0.113,0.156,0.252,0.307,0.418,0.452s0.359,0.284,0.579,0.415l0.11,2.009
				c-0.218-0.133-0.409-0.273-0.574-0.42c-0.164-0.146-0.302-0.3-0.414-0.457s-0.197-0.318-0.258-0.482
				C121.471,174.34,121.436,174.174,121.425,174.008z"/>
		</g>
		<g>
			<path fill="#8D6E63" d="M135.604,183.263l-0.023,2.102c-0.472-0.444-1.094-1.019-1.842-1.676
				c-0.737-0.648-1.596-1.376-2.547-2.141c-0.938-0.752-1.966-1.539-3.062-2.32c-1.078-0.769-2.223-1.532-3.415-2.255
				c-0.158-0.096-0.318-0.191-0.479-0.286c-0.16-0.094-0.32-0.188-0.482-0.28c-0.161-0.093-0.323-0.185-0.486-0.275
				s-0.326-0.181-0.49-0.269l-0.11-2.009c0.166,0.088,0.331,0.177,0.495,0.266c0.164,0.09,0.327,0.181,0.49,0.272
				c0.164,0.092,0.326,0.185,0.488,0.278c0.161,0.094,0.322,0.188,0.482,0.283c1.204,0.714,2.36,1.47,3.449,2.231
				c1.107,0.772,2.146,1.552,3.094,2.297c0.962,0.757,1.829,1.478,2.575,2.121C134.497,182.253,135.127,182.821,135.604,183.263z"/>
		</g>
		<g>
			<path fill="#8D6E63" d="M136.525,184.137l-0.034,2.109c-0.091-0.069-0.178-0.141-0.262-0.213
				c-0.084-0.071-0.163-0.144-0.239-0.218c-0.075-0.073-0.147-0.147-0.216-0.223s-0.134-0.151-0.194-0.229l0.023-2.102
				c0.062,0.076,0.128,0.152,0.196,0.227c0.069,0.074,0.143,0.148,0.219,0.221c0.077,0.073,0.157,0.146,0.242,0.216
				C136.345,183.997,136.434,184.067,136.525,184.137z"/>
		</g>
		<g>
			<path fill="#8D6E63" d="M136.644,184.221l-0.035,2.11c-0.006,0.003-0.012,0.003-0.019,0c-0.007-0.002-0.016-0.008-0.024-0.015
				c-0.01-0.008-0.021-0.018-0.032-0.029s-0.026-0.025-0.042-0.041l0.034-2.109c0.017,0.016,0.03,0.029,0.042,0.041
				c0.013,0.012,0.023,0.021,0.033,0.028c0.009,0.008,0.017,0.013,0.024,0.015C136.632,184.224,136.638,184.224,136.644,184.221z"/>
		</g>
		<g>
			<path fill="#8D6E63" d="M149.349,181.96c-0.059,0.697-0.116,1.394-0.175,2.09c-0.02,0.229-0.068,0.457-0.146,0.683
				c-0.08,0.226-0.189,0.448-0.329,0.665c-0.141,0.217-0.313,0.429-0.517,0.632c-0.203,0.205-0.439,0.4-0.707,0.585
				c-0.664,0.458-1.46,0.804-2.331,1.035c-0.874,0.233-1.819,0.351-2.776,0.351c-0.958,0.001-1.923-0.116-2.836-0.349
				c-0.909-0.231-1.762-0.577-2.502-1.034c-0.036-0.023-0.073-0.047-0.109-0.07c-0.035-0.023-0.071-0.047-0.106-0.07
				c-0.034-0.024-0.069-0.049-0.104-0.073c-0.034-0.023-0.068-0.048-0.102-0.072l0.035-2.11c0.034,0.024,0.068,0.048,0.103,0.072
				c0.035,0.024,0.07,0.048,0.105,0.071c0.035,0.024,0.071,0.048,0.108,0.071c0.036,0.022,0.073,0.046,0.11,0.068
				c0.748,0.454,1.611,0.797,2.531,1.026c0.924,0.23,1.899,0.346,2.868,0.346s1.925-0.116,2.809-0.347
				c0.881-0.23,1.686-0.573,2.356-1.027c0.271-0.183,0.509-0.377,0.715-0.579c0.205-0.201,0.378-0.411,0.521-0.627
				c0.142-0.215,0.252-0.436,0.331-0.659C149.28,182.414,149.329,182.188,149.349,181.96z"/>
		</g>
	</g>
	<path fill="#5D4037" d="M133.186,165.268l-0.043,0.022c-0.035-0.059-0.115-3.219-0.11-4.743c0,0.042-0.008,0.084-0.011,0.126
		c0.061-0.737-0.393-1.487-1.369-2.051c-1.829-1.057-4.782-1.058-6.6-0.001c-0.905,0.525-1.356,1.215-1.356,1.904
		c0-0.002,0-0.004,0-0.006v0.013v0.001c0,0-0.442,3.375-0.371,5.502s-1.774,5.001-1.774,5.001c-0.121,0.216-0.203,0.436-0.233,0.658
		l-0.004,0.009l0.001,0.001l0,0c-0.051,0.382,0.032,0.767,0.255,1.132c0.224,0.367,0.588,0.715,1.098,1.018
		c0.166,0.088,0.331,0.177,0.495,0.266c0.164,0.09,0.327,0.181,0.49,0.272c0.164,0.092,0.326,0.185,0.488,0.278
		c0.161,0.094,0.322,0.188,0.482,0.283c1.204,0.714,2.36,1.47,3.449,2.231c1.107,0.772,2.146,1.552,3.094,2.297
		c0.962,0.757,1.829,1.478,2.575,2.121c0.756,0.65,1.386,1.219,1.862,1.66c0.062,0.076,0.128,0.152,0.196,0.227
		c0.069,0.074,0.143,0.148,0.219,0.221c0.077,0.073,0.157,0.146,0.242,0.216c0.084,0.071,0.173,0.142,0.265,0.211
		c0.017,0.016,0.03,0.029,0.042,0.041c0.013,0.012,0.023,0.021,0.033,0.028c0.009,0.008,0.017,0.013,0.024,0.015
		c0.007,0.003,0.013,0.003,0.019,0c0.034,0.024,0.068,0.048,0.103,0.072c0.035,0.024,0.07,0.048,0.105,0.071
		c0.035,0.024,0.071,0.048,0.108,0.071c0.036,0.022,0.073,0.046,0.11,0.068c0.748,0.454,1.611,0.797,2.531,1.026
		c0.924,0.23,1.899,0.346,2.868,0.346s1.925-0.116,2.809-0.347c0.881-0.23,1.686-0.573,2.356-1.027
		c0.648-0.438,1.109-0.938,1.391-1.468c0.146-0.272,0.241-0.553,0.291-0.836c0.001-0.004,0.003-0.007,0.004-0.011
		c0.005-0.028,0.007-0.056,0.011-0.083c0.005-0.04,0.011-0.08,0.014-0.12c0.005-0.049,0.008-0.098,0.011-0.146
		c0-0.005,0.001-0.011,0.001-0.017C149.6,177.183,140.306,177.828,133.186,165.268z M124.394,161.942
		c0.026,0.025,0.05,0.052,0.078,0.076C124.443,161.994,124.42,161.968,124.394,161.942z M124.683,162.185
		c0.023,0.018,0.044,0.036,0.068,0.054C124.727,162.221,124.706,162.202,124.683,162.185z M132.602,161.669
		c0.031-0.038,0.064-0.076,0.092-0.115C132.666,161.593,132.633,161.631,132.602,161.669z M132.979,160.928
		c0.011-0.043,0.024-0.086,0.031-0.129C133.004,160.842,132.99,160.885,132.979,160.928z M132.77,161.428
		c0.024-0.04,0.052-0.08,0.072-0.12C132.821,161.348,132.794,161.388,132.77,161.428z M132.896,161.181
		c0.018-0.042,0.038-0.083,0.052-0.126C132.934,161.098,132.913,161.139,132.896,161.181z M132.503,161.793
		c-0.035,0.038-0.077,0.075-0.115,0.113C132.426,161.868,132.468,161.831,132.503,161.793z M131.994,162.24
		c-0.099,0.07-0.205,0.139-0.318,0.204C131.789,162.379,131.896,162.311,131.994,162.24z M132.27,162.022
		c-0.044,0.038-0.095,0.075-0.143,0.113C132.175,162.098,132.226,162.061,132.27,162.022z M124.235,161.787
		c-0.028-0.03-0.051-0.063-0.076-0.094C124.185,161.725,124.207,161.757,124.235,161.787z M123.719,160.785
		c-0.007-0.037-0.007-0.073-0.011-0.111C123.712,160.712,123.712,160.748,123.719,160.785z M124.042,161.547
		c-0.024-0.034-0.043-0.07-0.064-0.104C123.999,161.477,124.018,161.513,124.042,161.547z M123.891,161.299
		c-0.019-0.036-0.03-0.073-0.046-0.109C123.86,161.226,123.872,161.263,123.891,161.299z M123.783,161.044
		c-0.013-0.036-0.019-0.073-0.028-0.109C123.765,160.971,123.771,161.008,123.783,161.044z"/>
	<line fill="none" x1="109.977" y1="121.776" x2="105.31" y2="119.104"/>
	<polyline fill="none" points="81.585,105.518 80.109,104.672 80.104,104.669 75.844,102.23 	"/>
	<path fill="#455A64" d="M133.114,119.227c-0.187-0.216-0.396-0.394-0.636-0.528c0.003,0,0.009,0.003,0.011,0.003
		c-0.832,0-19.481-18.531-37.391-29.016c-15.914-9.317-36.414-13.128-38.06-13.128c-4.916,0-8.898,3.985-8.898,8.897
		c0,0.429,0.032,0.85,0.091,1.261c-0.029,0.148-0.047,0.292-0.047,0.44c-0.029,10.146-0.059,20.293-0.088,30.439
		c-0.003,1.045,0.689,2.092,2.069,2.889c2.742,1.584,7.174,1.584,9.901,0c1.354-0.788,2.03-1.818,2.033-2.848
		c0,0,0.067-23.391,0.067-23.392c-0.002,0.382,3.513,2.034,3.871,2.242c2.286,1.321,15.648,11.917,23.225,16.245
		c7.936,4.536,22.138,9.94,30.05,14.516c0.888,0.513,1.775,1.026,2.662,1.542c-0.026,9.536-0.052,19.07-0.081,28.606
		c-0.003,1.048,0.688,2.092,2.068,2.889c2.742,1.584,7.177,1.584,9.901,0c1.354-0.788,2.03-1.814,2.033-2.848l0.088-30.437
		c0.16-0.595,0.248-1.222,0.248-1.87C136.233,122.678,134.996,120.516,133.114,119.227z"/>
	<polyline fill="none" points="114.062,108.064 105.452,103.135 105.449,103.135 	"/>
	<line fill="none" x1="88.879" y1="93.645" x2="79.929" y2="88.519"/>
	<g>
		<g enable-background="new    ">
			<g>
				<path fill="#26C6DA" d="M76.719,50.468v2.876c-0.005-0.023-0.009-0.046-0.011-0.072v-0.003l0.009-2.927
					C76.717,50.383,76.717,50.424,76.719,50.468z"/>
				<path fill="#26C6DA" d="M111.742,66.756c-0.003,0.014-0.009,0.028-0.015,0.04V66.79
					C111.733,66.778,111.739,66.767,111.742,66.756z"/>
			</g>
			<g>
				<path fill="#26C6DA" d="M76.719,50.211v0.257c-0.002-0.044-0.002-0.085-0.002-0.126C76.717,50.299,76.719,50.255,76.719,50.211z
					"/>
				<path fill="#26C6DA" d="M111.853,66.107c0,0.103-0.009,0.201-0.023,0.301c-0.003,0.015-0.003,0.029-0.009,0.041
					c-0.015,0.096-0.037,0.187-0.066,0.274c-0.003,0.012-0.006,0.021-0.012,0.032c-0.003,0.014-0.009,0.028-0.015,0.04v-1.517
					C111.812,65.57,111.853,65.848,111.853,66.107z"/>
			</g>
		</g>
	</g>
	<g>
		<g enable-background="new    ">
			<g>
				<path fill="#26A69A" d="M76.719,49.881v3.463c-0.005-0.023-0.009-0.046-0.011-0.072v-0.003
					c-0.073-0.481-0.111-0.998-0.114-1.546C76.591,51.121,76.635,50.506,76.719,49.881z"/>
			</g>
		</g>
	</g>
	<g>
		<g enable-background="new    ">
			<g>
				<path fill="#26C6DA" d="M109.662,45.406l-1.258-0.724C108.862,44.852,109.285,45.094,109.662,45.406z"/>
			</g>
		</g>
	</g>
	<path fill="none" d="M111.728,90.27"/>
	<path fill="none" d="M76.719,90.27"/>
	<path fill="#FFAB91" d="M86.347,26.088c0,2.212,1.744,8.746,1.31,9.479c-0.435,0.731,5.768,6.274,9.63,6.274
		c5.559,0,10.065-5.877,10.065-13.128c0-7.25-4.507-13.128-10.065-13.128S86.347,18.837,86.347,26.088z"/>
	<g>
		<path fill="#8D6E63" d="M33.393,125.288c-0.03-0.019-0.062-0.037-0.093-0.056s-0.063-0.036-0.094-0.055s-0.063-0.037-0.094-0.057
			c-0.258-0.157-0.484-0.324-0.681-0.499c-0.194-0.174-0.358-0.355-0.491-0.542s-0.235-0.377-0.308-0.571
			c-0.072-0.193-0.114-0.39-0.128-0.586l0.054,0.804c0.014,0.198,0.056,0.396,0.128,0.589c0.072,0.194,0.174,0.387,0.307,0.573
			c0.132,0.188,0.296,0.37,0.489,0.545c0.195,0.176,0.421,0.344,0.679,0.502c0.03,0.019,0.062,0.037,0.093,0.056
			s0.063,0.037,0.094,0.056c0.03,0.019,0.062,0.037,0.092,0.057c0.03,0.019,0.06,0.037,0.089,0.057l-0.047-0.814
			C33.452,125.326,33.422,125.308,33.393,125.288z"/>
		<path fill="#8D6E63" d="M60.658,132.275c-0.064,0.183-0.154,0.362-0.27,0.537c-0.115,0.176-0.256,0.346-0.422,0.51
			c-0.167,0.164-0.359,0.321-0.578,0.471c-0.544,0.369-1.197,0.647-1.911,0.834c-0.716,0.188-1.492,0.281-2.279,0.282
			c-0.786,0-1.581-0.094-2.335-0.281c-0.751-0.186-1.46-0.465-2.078-0.833c-0.178-0.119-0.356-0.235-0.536-0.352
			s-0.36-0.23-0.542-0.345c-0.182-0.113-0.363-0.227-0.546-0.339c-0.183-0.111-0.366-0.222-0.55-0.331
			c-1.358-0.812-2.75-1.571-4.11-2.268c-1.341-0.688-2.654-1.314-3.878-1.872c-1.21-0.552-2.336-1.037-3.318-1.445
			c-0.974-0.404-1.81-0.735-2.448-0.981c-0.11-0.032-0.219-0.065-0.326-0.101c-0.106-0.035-0.213-0.072-0.315-0.11
			c-0.104-0.039-0.206-0.08-0.307-0.123c-0.1-0.043-0.197-0.087-0.293-0.134l0.046,0.815c0.096,0.046,0.193,0.091,0.293,0.134
			s0.201,0.084,0.304,0.123c0.104,0.039,0.209,0.076,0.315,0.111c0.106,0.036,0.215,0.069,0.324,0.101
			c0.637,0.248,1.469,0.58,2.438,0.986c0.979,0.409,2.1,0.896,3.305,1.45c1.219,0.561,2.526,1.19,3.862,1.88
			c1.354,0.699,2.738,1.462,4.091,2.275c0.184,0.11,0.365,0.222,0.547,0.333c0.183,0.113,0.363,0.226,0.544,0.34
			s0.36,0.23,0.539,0.347c0.18,0.116,0.357,0.233,0.534,0.352c0.615,0.371,1.32,0.65,2.068,0.837
			c0.75,0.188,1.541,0.281,2.324,0.281s1.556-0.094,2.27-0.282c0.71-0.188,1.36-0.468,1.901-0.838
			c0.219-0.149,0.41-0.307,0.576-0.472s0.307-0.336,0.421-0.512s0.204-0.356,0.269-0.54c0.064-0.183,0.104-0.368,0.12-0.555
			c0.024-0.279,0.048-0.56,0.072-0.839C60.764,131.908,60.724,132.093,60.658,132.275z"/>
	</g>
	<path fill="#FFAB91" d="M102.701,41.386c-1.22,3.169-4.295,5.415-7.895,5.415c-4.674,0-8.46-3.787-8.46-8.46
		c0-1.092,0.207-2.133,0.583-3.09c0.032,0.026,0.064,0.056,0.094,0.085c2.039-0.826,3.856-0.753,5.222,0.09l0.035-0.062
		L102.701,41.386z"/>
	<path fill="#FDD835" d="M103.267,8c-3.764,0-7.05,2.039-8.821,5.07c-0.805,0.144-1.563,0.425-2.247,0.818
		c-0.794-0.404-1.69-0.638-2.643-0.638c-3.223,0-5.835,2.612-5.835,5.835c0,2.822,3.501,9.919,3.793,13.712
		c0.291,3.792,4.376-3.614,5.251-5.892s4.218-0.037,4.824-0.209c1.624,1.089,3.577,1.725,5.678,1.725
		c5.64,0,10.211-4.572,10.211-10.211C113.478,12.571,108.906,8,103.267,8z"/>
	<path fill="#8D6E63" d="M60.537,132.556c-0.228,0.443-0.607,0.864-1.149,1.231c-0.543,0.37-1.196,0.647-1.911,0.834
		s-1.491,0.28-2.278,0.283c-0.563,0-1.135-0.05-1.689-0.146c-0.084-0.377-0.128-0.768-0.128-1.167c0-2.981,2.415-5.397,5.396-5.397
		c0.584,0,1.146,0.094,1.672,0.266c0.094,0.828,0.178,1.669,0.23,2.387c0,0,0.003,0.003,0.003,0.006
		c0.032,0.11,0.059,0.225,0.076,0.335C60.831,131.648,60.759,132.115,60.537,132.556z"/>
	<g>
		<path fill="#A1887F" d="M111.323,79.965c0,11.222-5.25,21.909-13.04,19.258c-7.791-2.651-5.668-2.133-7.791-2.651
			c-0.613-0.15-1.254-0.229-1.914-0.229c-1.271,0-2.476,0.295-3.545,0.821c-2.66,1.311-14.462,8.276-18.593,8.276
			c-14.739,0-21.229-9.977-21.229-24.716s7.551-25.171,22.29-25.171c4.128,0,14.584,6.313,16.787,7.706
			c1.241,0.786,2.712,1.24,4.289,1.24c0.52,0,1.027-0.049,1.519-0.144c2.641-0.505,4.446-1.575,10.006-2.586
			S111.323,68.777,111.323,79.965z"/>
		<rect x="69.928" y="71.322" fill="#263238" width="4.498" height="18.348"/>
		<rect x="92.925" y="77.16" fill="#6D4C41" width="62.472" height="6.672"/>
		<polygon fill="#4E342E" points="175.716,85.196 154.184,83.832 154.184,77.16 175.716,75.088 		"/>
		<circle fill="#263238" cx="92.066" cy="80.496" r="6.924"/>
	</g>
	<path fill="#FFAB91" d="M86.393,71.623c0,0-19.878-11.845-27.027-16.138c-1.285-1.896-3.457-3.142-5.92-3.142
		c-3.947,0-7.147,3.2-7.147,7.147c0,3.644,2.727,6.647,6.251,7.089c0.738,0.093,1.756,0.877,2.429,1.212
		c0.861,0.431,1.724,0.859,2.585,1.29c1.711,0.854,3.423,1.707,5.135,2.562c3.436,1.717,17.056,4.926,17.737,5.272
		c0.507,0.258,0.559,1.902,0.878,2.451c0.967,1.659,2.645,2.733,4.597,2.733c2.9,0,5.251-2.351,5.251-5.251
		C91.16,74.112,89.065,71.867,86.393,71.623z"/>
	<path fill="#FFAB91" d="M155.7,75.433c-2.528-0.32-4.863,1.215-5.64,3.544c-11.897,0.768-19.229,2.415-25.458,4.306
		c0.011-0.003,0.023-0.005,0.035-0.008c-0.046,0.013-0.093,0.025-0.138,0.041c-0.191,0.063-0.374,0.149-0.552,0.244
		c-0.296,0.057-0.592,0.131-0.886,0.229c-3.75,1.232-5.79,5.271-4.558,9.021c1.233,3.75,5.272,5.791,9.022,4.558
		c1.086-0.356,21.378-9.345,21.378-9.345c0.386-0.159,11-4.004,11.345-6.72C160.615,78.426,158.578,75.798,155.7,75.433z
		 M125.053,83.177c0.012-0.002,0.024-0.001,0.036-0.003c-0.021,0.003-0.041,0.005-0.062,0.009
		C125.036,83.181,125.044,83.179,125.053,83.177z M125.523,83.129c0.012,0,0.022,0.001,0.034,0.001c-0.018,0-0.035,0-0.052,0.001
		C125.512,83.131,125.518,83.129,125.523,83.129z M126.014,83.141c0.049,0.004,0.098,0.011,0.146,0.017
		c-0.052-0.006-0.104-0.013-0.155-0.017C126.008,83.141,126.011,83.14,126.014,83.141z M126.521,83.215
		c-0.088-0.019-0.175-0.033-0.261-0.046C126.346,83.182,126.433,83.196,126.521,83.215z"/>
</g>
</svg>
