<?xml version="1.0" encoding="utf-8"?>
<!-- Generator: Adobe Illustrator 15.0.0, SVG Export Plug-In . SVG Version: 6.00 Build 0)  -->
<!DOCTYPE svg PUBLIC "-//W3C//DTD SVG 1.1//EN" "http://www.w3.org/Graphics/SVG/1.1/DTD/svg11.dtd">
<svg version="1.1" id="圖層_1" xmlns="http://www.w3.org/2000/svg" xmlns:xlink="http://www.w3.org/1999/xlink" x="0px" y="0px"
	 width="200px" height="200px" viewBox="0 0 200 200" enable-background="new 0 0 200 200" xml:space="preserve">
<path fill="#DFE9E9" d="M172,100c0,38.37-30.02,69.73-67.85,71.88c-1.37,0.08-2.761,0.12-4.15,0.12c-0.471,0-0.939,0-1.41-0.02
	c-0.58,0-1.15-0.021-1.72-0.051c-0.83-0.029-1.66-0.08-2.479-0.149C57.25,168.92,28,137.87,28,100c0-23.29,11.07-44.01,28.23-57.16
	c3.959-3.05,8.25-5.68,12.799-7.85c1.98-0.95,4.011-1.81,6.091-2.57c2.319-0.86,4.69-1.6,7.12-2.21c0.369-0.1,0.74-0.19,1.119-0.28
	c0.721-0.17,1.44-0.33,2.16-0.48c1.78-0.36,3.58-0.65,5.4-0.88c1.29-0.17,2.6-0.29,3.91-0.38C96.54,28.06,98.26,28,100,28
	C139.76,28,172,60.24,172,100z"/>
<path fill="#DFE9E9" d="M-48,100c0,38.37-30.02,69.73-67.85,71.88c-1.37,0.08-2.761,0.12-4.15,0.12c-0.47,0-0.94,0-1.41-0.02
	c-0.58,0-1.15-0.021-1.72-0.051c-0.83-0.029-1.66-0.08-2.48-0.149C-162.75,168.92-192,137.87-192,100
	c0-23.29,11.07-44.01,28.23-57.16c3.96-3.05,8.25-5.68,12.8-7.85c1.98-0.95,4.01-1.81,6.09-2.57c2.32-0.86,4.69-1.6,7.12-2.21
	c0.37-0.1,0.74-0.19,1.12-0.28c0.72-0.17,1.44-0.33,2.16-0.48c1.78-0.36,3.58-0.65,5.4-0.88c1.29-0.17,2.6-0.29,3.91-0.38
	c1.71-0.13,3.43-0.19,5.17-0.19C-80.24,28-48,60.24-48,100z"/>
<g>
	<g>
		<g>
			<path fill="#BE9B00" d="M180,98.061c-0.005,1.746-0.011,3.492-0.015,5.236c-0.002,0.633-0.415,1.264-1.241,1.744l0.016-5.238
				C179.585,99.324,179.998,98.692,180,98.061z"/>
		</g>
		<g>
			<path fill="#BE9B00" d="M20,103.273c0.005-1.744,0.01-3.491,0.015-5.236c-0.002,0.64,0.418,1.281,1.259,1.766l-0.015,5.238
				C20.418,104.555,19.998,103.914,20,103.273z"/>
		</g>
		<g>
			<polygon fill="#BE9B00" points="178.76,99.803 178.744,105.041 103.277,148.898 103.292,143.66 			"/>
		</g>
		<g>
			<polygon fill="#BE9B00" points="97.235,143.66 97.221,148.898 21.259,105.041 21.273,99.803 			"/>
		</g>
		<g>
			<path fill="#BE9B00" d="M103.292,143.66l-0.015,5.238c-1.66,0.965-4.386,0.965-6.057,0l0.015-5.238
				C98.906,144.625,101.632,144.625,103.292,143.66z"/>
		</g>
	</g>
	<path fill="#4B8400" d="M178.741,96.294c1.671,0.964,1.68,2.543,0.019,3.509l-75.468,43.857c-1.66,0.965-4.386,0.965-6.057,0
		L21.273,99.803c-1.671-0.964-1.68-2.543-0.02-3.508l75.467-43.857c1.662-0.965,4.388-0.965,6.059-0.001L178.741,96.294z"/>
	<g>
		<g>
			<g enable-background="new    ">
				<defs>
					<polygon id="SVGID_2_" enable-background="new    " points="33.54,94.811 93.914,59.726 124.298,77.268 63.924,112.354 					
						"/>
				</defs>
				<clipPath id="SVGID_4_">
					<use xlink:href="#SVGID_2_"  overflow="visible"/>
				</clipPath>
				<g clip-path="url(#SVGID_4_)">
					<path fill="#D84315" d="M51.6,101.916c-6.786-3.918-6.821-10.292-0.08-14.21l30.187-17.542c6.742-3.918,17.746-3.918,24.532,0
						c6.786,3.917,6.822,10.292,0.08,14.209l-30.188,17.543C69.39,105.834,58.386,105.834,51.6,101.916 M109.105,68.497
						c-8.391-4.845-21.948-4.845-30.285,0L48.633,86.04c-8.336,4.845-8.292,12.698,0.1,17.542c8.391,4.846,21.948,4.846,30.285,0
						l30.187-17.542C117.541,81.195,117.497,73.342,109.105,68.497"/>
					<path fill="#D84315" d="M54.618,100.162c-5.109-2.95-5.138-7.75-0.061-10.701l30.188-17.543c5.076-2.95,13.365-2.95,18.475,0
						s5.137,7.751,0.061,10.702l-30.188,17.542C68.016,103.113,59.728,103.111,54.618,100.162 M106.087,70.251
						c-6.712-3.875-17.561-3.875-24.229,0L51.672,87.794c-6.669,3.875-6.634,10.159,0.078,14.034c6.713,3.875,17.561,3.875,24.229,0
						l30.187-17.542C112.835,80.41,112.8,74.126,106.087,70.251"/>
					<path fill="#D84315" d="M87.783,73.672c3.412-1.983,8.983-1.983,12.418,0c3.435,1.983,3.451,5.209,0.039,7.192L70.054,98.407
						c-3.412,1.983-8.982,1.983-12.417,0.001c-3.435-1.983-3.453-5.21-0.041-7.193L87.783,73.672 M103.069,72.005
						c-5.035-2.907-13.171-2.907-18.173,0L54.71,89.548c-5.002,2.907-4.976,7.62,0.059,10.526c5.035,2.906,13.171,2.906,18.173,0
						l30.187-17.542C108.13,79.625,108.104,74.912,103.069,72.005"/>
					<path fill="#689F38" d="M99.898,73.848c-3.268-1.887-8.565-1.886-11.811,0L57.901,91.391c-3.247,1.887-3.231,4.955,0.037,6.842
						c3.266,1.886,8.565,1.886,11.812-0.001l30.187-17.542C103.183,78.803,103.165,75.733,99.898,73.848"/>
					<path fill="#FFFFFF" d="M57.938,98.232c-3.269-1.887-3.284-4.955-0.037-6.842l30.187-17.543c3.245-1.886,8.543-1.887,11.811,0
						c3.267,1.886,3.284,4.955,0.038,6.841L69.75,98.231C66.504,100.118,61.204,100.118,57.938,98.232 M100.201,73.671
						c-3.435-1.983-9.006-1.983-12.418,0L57.596,91.214c-3.412,1.983-3.394,5.21,0.041,7.193c3.435,1.982,9.005,1.982,12.417-0.001
						l30.187-17.543C103.652,78.881,103.636,75.655,100.201,73.671"/>
				</g>
			</g>
		</g>
		<g>
			<polygon fill="#388E3C" points="91.344,77.244 94.518,79.174 97.222,77.611 94.005,75.696 			"/>
			<g>
				<g>
					<g>
						<path fill="#CFD8DC" d="M94.541,79.404c-0.001,0-0.002,0-0.003,0c-0.015,0-0.028-0.003-0.041-0.011l-3.393-1.972
							c-0.025-0.015-0.04-0.041-0.04-0.069l-0.007-2.55c-0.001-0.028,0.015-0.055,0.039-0.069c0.025-0.014,0.057-0.014,0.081,0
							l3.393,1.972c0.025,0.014,0.04,0.041,0.04,0.069l0.008,2.527c0.002,0.007,0.003,0.015,0.003,0.023
							C94.621,79.368,94.585,79.404,94.541,79.404z M91.225,77.306l3.232,1.878L94.45,76.82l-3.232-1.878L91.225,77.306z"/>
					</g>
				</g>
				<g>
					<g>
						<path fill="#CFD8DC" d="M94.53,76.854c-0.014,0-0.028-0.004-0.04-0.011l-3.394-1.972c-0.024-0.014-0.039-0.041-0.039-0.069
							s0.015-0.055,0.039-0.069l2.221-1.282c0.025-0.014,0.056-0.014,0.081,0l3.393,1.972c0.024,0.015,0.04,0.041,0.04,0.069
							c0,0.029-0.016,0.055-0.04,0.07l-2.221,1.282C94.558,76.85,94.544,76.854,94.53,76.854z M91.298,74.802l3.232,1.879
							l2.06-1.189l-3.232-1.879L91.298,74.802z"/>
					</g>
				</g>
				<g>
					<g>
						<path fill="#CFD8DC" d="M94.538,79.404c-0.014,0-0.028-0.003-0.04-0.01c-0.025-0.015-0.041-0.041-0.041-0.07l-0.007-2.55
							c0-0.029,0.016-0.056,0.04-0.07l2.22-1.282c0.022-0.013,0.049-0.015,0.071-0.004c0.023,0.01,0.041,0.029,0.047,0.054
							l0.576,2.222c0.009,0.035-0.007,0.072-0.038,0.09l-2.788,1.61C94.565,79.4,94.552,79.404,94.538,79.404z M94.61,76.82
							l0.007,2.365l2.616-1.511l-0.534-2.06L94.61,76.82z"/>
					</g>
				</g>
				<g>
					<g>
						<path fill="#CFD8DC" d="M91.178,77.458c-0.014,0-0.027-0.003-0.04-0.01c-0.024-0.015-0.04-0.041-0.04-0.07l-0.007-2.55
							c-0.001-0.029,0.015-0.055,0.039-0.07l2.221-1.282c0.021-0.012,0.048-0.014,0.071-0.004c0.023,0.009,0.04,0.03,0.046,0.054
							l0.576,2.222c0.01,0.035-0.006,0.072-0.037,0.09l-2.789,1.61C91.205,77.455,91.191,77.458,91.178,77.458z M91.251,74.874
							l0.007,2.365l2.616-1.51l-0.534-2.061L91.251,74.874z"/>
					</g>
				</g>
				<g>
					<path fill="#CFD8DC" d="M97.326,77.793c-0.013,0-0.027-0.003-0.04-0.01l-3.36-1.943c-0.038-0.022-0.052-0.071-0.029-0.109
						c0.022-0.039,0.072-0.051,0.109-0.029l3.36,1.942c0.039,0.022,0.052,0.071,0.029,0.109
						C97.381,77.779,97.354,77.793,97.326,77.793z"/>
				</g>
			</g>
		</g>
		<g>
			<polygon fill="#388E3C" points="60.185,94.75 63.357,96.681 66.062,95.119 62.846,93.203 			"/>
			<g>
				<g>
					<g>
						<path fill="#CFD8DC" d="M63.347,96.819c-0.014,0-0.028-0.003-0.04-0.011l-3.394-1.972c-0.029-0.018-0.045-0.051-0.038-0.085
							l0.562-2.879c0.005-0.025,0.021-0.047,0.045-0.058c0.024-0.011,0.051-0.01,0.074,0.004l3.393,1.972
							c0.029,0.017,0.045,0.051,0.038,0.084l-0.561,2.879c-0.005,0.025-0.022,0.047-0.046,0.058
							C63.369,96.817,63.357,96.819,63.347,96.819z M60.043,94.727l3.246,1.886l0.529-2.713l-3.246-1.886L60.043,94.727z"/>
					</g>
				</g>
				<g>
					<g>
						<path fill="#CFD8DC" d="M63.908,93.939c-0.015,0-0.028-0.003-0.041-0.011l-3.393-1.972c-0.024-0.015-0.04-0.041-0.04-0.07
							c0-0.028,0.016-0.055,0.04-0.069l2.22-1.282c0.025-0.015,0.057-0.015,0.081,0l3.394,1.972c0.024,0.015,0.039,0.041,0.039,0.07
							c0,0.028-0.015,0.055-0.04,0.069l-2.22,1.282C63.936,93.936,63.922,93.939,63.908,93.939z M60.675,91.888l3.233,1.879
							l2.06-1.189l-3.232-1.879L60.675,91.888z"/>
					</g>
				</g>
				<g>
					<g>
						<path fill="#CFD8DC" d="M63.347,96.819c-0.017,0-0.033-0.005-0.047-0.015c-0.025-0.018-0.038-0.05-0.032-0.08l0.562-2.88
							c0.005-0.022,0.019-0.042,0.038-0.054l2.221-1.282c0.025-0.014,0.056-0.015,0.08,0c0.025,0.014,0.04,0.041,0.04,0.069
							l0.008,2.551c0,0.028-0.016,0.055-0.04,0.069l-2.789,1.61C63.374,96.815,63.36,96.819,63.347,96.819z M63.979,93.911
							l-0.521,2.67l2.596-1.499l-0.007-2.366L63.979,93.911z"/>
					</g>
				</g>
				<g>
					<g>
						<path fill="#CFD8DC" d="M59.977,94.893c-0.017,0-0.033-0.005-0.047-0.015c-0.025-0.018-0.038-0.05-0.032-0.081l0.562-2.879
							c0.005-0.023,0.019-0.042,0.039-0.054l2.22-1.282c0.025-0.015,0.056-0.015,0.08,0c0.025,0.014,0.04,0.041,0.041,0.069
							l0.007,2.551c0,0.029-0.015,0.055-0.04,0.07l-2.789,1.61C60.005,94.89,59.99,94.893,59.977,94.893z M60.609,91.985
							l-0.521,2.67l2.597-1.499l-0.007-2.366L60.609,91.985z"/>
					</g>
				</g>
				<g>
					<path fill="#CFD8DC" d="M66.103,95.129c-0.014,0-0.027-0.003-0.041-0.011l-3.343-1.979c-0.038-0.023-0.051-0.072-0.028-0.11
						c0.023-0.038,0.072-0.05,0.11-0.028l3.343,1.979c0.038,0.022,0.051,0.072,0.028,0.11C66.157,95.116,66.13,95.129,66.103,95.129
						z"/>
				</g>
			</g>
		</g>
	</g>
	<polygon fill="#CFD8DC" points="135.464,115.529 128.818,119.377 104.252,104.738 110.73,100.829 	"/>
	<polygon fill="#689F38" points="107.546,106.766 128.818,119.377 117.952,125.668 96.416,113.232 	"/>
	<polygon fill="#689F38" points="148.197,108.158 135.464,115.529 114.181,102.908 126.604,95.689 	"/>
	<g>
		<g>
			<polygon fill="#546E7A" points="162.706,99.581 150.631,106.598 114.169,85.546 126.244,78.529 			"/>
		</g>
		<g>
			<g>
				<polygon fill="#455A64" points="162.777,96.27 162.772,98.016 150.698,105.033 150.703,103.287 				"/>
			</g>
			<g>
				<polygon fill="#CFD8DC" points="150.703,103.287 150.698,105.033 114.236,83.981 114.24,82.236 				"/>
			</g>
			<g>
				<polygon fill="#90A4AE" points="162.777,96.27 150.703,103.287 114.24,82.236 126.315,75.219 				"/>
			</g>
		</g>
		<g>
			<g>
				<polygon fill="#455A64" points="162.777,92.844 162.772,94.589 150.698,101.607 150.703,99.861 				"/>
			</g>
			<g>
				<polygon fill="#CFD8DC" points="150.703,99.861 150.698,101.607 114.236,80.555 114.24,78.81 				"/>
			</g>
			<g>
				<polygon fill="#90A4AE" points="162.777,92.844 150.703,99.861 114.24,78.81 126.315,71.792 				"/>
			</g>
		</g>
		<g>
			<g>
				<polygon fill="#455A64" points="162.777,89.417 162.772,91.163 150.698,98.18 150.703,96.435 				"/>
			</g>
			<g>
				<polygon fill="#CFD8DC" points="150.703,96.435 150.698,98.18 114.236,77.128 114.24,75.383 				"/>
			</g>
			<g>
				<polygon fill="#90A4AE" points="162.777,89.417 150.703,96.435 114.24,75.383 126.315,68.366 				"/>
			</g>
		</g>
		<g>
			<g>
				<polygon fill="#455A64" points="162.777,85.991 162.772,87.736 150.698,94.753 150.703,93.008 				"/>
			</g>
			<g>
				<polygon fill="#CFD8DC" points="150.703,93.008 150.698,94.753 114.236,73.702 114.24,71.957 				"/>
			</g>
			<g>
				<polygon fill="#ECEFF1" points="162.777,85.991 150.703,93.008 114.24,71.957 126.315,64.939 				"/>
			</g>
		</g>
	</g>
	<g>
		<polygon fill="#546E7A" points="127.132,92.102 90.003,113.678 77.849,106.66 114.073,85.609 		"/>
		<g>
			<g>
				<polygon fill="#455A64" points="126.477,89.235 126.472,90.981 90.248,112.033 90.253,110.287 				"/>
			</g>
			<g>
				<polygon fill="#CFD8DC" points="90.253,110.287 90.248,112.033 78.094,105.016 78.099,103.27 				"/>
			</g>
			<polygon fill="#90A4AE" points="126.477,89.235 90.253,110.287 78.099,103.27 114.322,82.218 			"/>
		</g>
		<g>
			<g>
				<polygon fill="#455A64" points="126.477,85.809 126.472,87.555 90.248,108.605 90.253,106.859 				"/>
			</g>
			<g>
				<polygon fill="#CFD8DC" points="90.253,106.859 90.248,108.605 78.094,101.588 78.099,99.842 				"/>
			</g>
			<polygon fill="#90A4AE" points="126.477,85.809 90.253,106.859 78.099,99.842 114.322,78.792 			"/>
		</g>
		<g>
			<g>
				<polygon fill="#455A64" points="126.477,82.382 126.472,84.128 90.248,105.18 90.253,103.434 				"/>
			</g>
			<g>
				<polygon fill="#CFD8DC" points="90.253,103.434 90.248,105.18 78.094,98.162 78.099,96.416 				"/>
			</g>
			<polygon fill="#90A4AE" points="126.477,82.382 90.253,103.434 78.099,96.416 114.322,75.365 			"/>
		</g>
		<g>
			<g>
				<polygon fill="#455A64" points="126.477,78.956 126.472,80.702 90.248,101.752 90.253,100.007 				"/>
			</g>
			<g>
				<polygon fill="#CFD8DC" points="90.253,100.007 90.248,101.752 78.094,94.735 78.099,92.989 				"/>
			</g>
			<polygon fill="#90A4AE" points="126.477,78.956 90.253,100.007 78.099,92.989 114.322,71.938 			"/>
		</g>
		<g>
			<g>
				<polygon fill="#455A64" points="126.477,75.529 126.472,77.275 90.248,98.326 90.253,96.581 				"/>
			</g>
			<g>
				<polygon fill="#CFD8DC" points="90.253,96.581 90.248,98.326 78.094,91.309 78.099,89.563 				"/>
			</g>
			<polygon fill="#ECEFF1" points="126.477,75.529 90.253,96.581 78.099,89.563 114.322,68.512 			"/>
		</g>
	</g>
	<g>
		<g>
			<polygon fill="#546E7A" points="114.378,127.707 102.304,134.725 65.842,113.672 77.917,106.656 			"/>
		</g>
		<g>
			<g>
				<polygon fill="#455A64" points="114.45,124.396 114.444,126.143 102.37,133.158 102.375,131.414 				"/>
			</g>
			<g>
				<polygon fill="#CFD8DC" points="102.375,131.414 102.37,133.158 65.908,112.107 65.913,110.361 				"/>
			</g>
			<g>
				<polygon fill="#90A4AE" points="114.45,124.396 102.375,131.414 65.913,110.361 77.988,103.346 				"/>
			</g>
		</g>
		<g>
			<g>
				<polygon fill="#455A64" points="114.45,120.971 114.444,122.715 102.37,129.732 102.375,127.986 				"/>
			</g>
			<g>
				<polygon fill="#CFD8DC" points="102.375,127.986 102.37,129.732 65.908,108.682 65.913,106.936 				"/>
			</g>
			<g>
				<polygon fill="#90A4AE" points="114.45,120.971 102.375,127.986 65.913,106.936 77.988,99.918 				"/>
			</g>
		</g>
		<g>
			<g>
				<polygon fill="#455A64" points="114.45,117.543 114.444,119.289 102.37,126.307 102.375,124.561 				"/>
			</g>
			<g>
				<polygon fill="#CFD8DC" points="102.375,124.561 102.37,126.307 65.908,105.254 65.913,103.51 				"/>
			</g>
			<g>
				<polygon fill="#90A4AE" points="114.45,117.543 102.375,124.561 65.913,103.51 77.988,96.492 				"/>
			</g>
		</g>
		<g>
			<g>
				<polygon fill="#455A64" points="114.45,114.117 114.444,115.863 102.37,122.879 102.375,121.135 				"/>
			</g>
			<g>
				<polygon fill="#CFD8DC" points="102.375,121.135 102.37,122.879 65.908,101.828 65.913,100.082 				"/>
			</g>
			<g>
				<polygon fill="#ECEFF1" points="114.45,114.117 102.375,121.135 65.913,100.082 77.988,93.065 90.222,100.128 				"/>
			</g>
		</g>
	</g>
	<line fill="none" x1="117.952" y1="125.668" x2="102.304" y2="134.723"/>
	<g enable-background="new    ">
		<g>
			<polygon fill="#90A4AE" points="135.472,115.516 133.963,114.637 133.937,105.559 135.446,106.438 			"/>
		</g>
		<g>
			<polygon fill="#CFD8DC" points="127.571,120.076 126.063,119.199 126.032,108.725 127.542,109.602 			"/>
		</g>
		<g>
			<polygon fill="#ECEFF1" points="127.542,109.602 126.032,108.725 135.148,103.461 136.658,104.338 			"/>
		</g>
		<g>
			<polygon fill="#35464D" points="136.658,104.338 136.688,114.813 135.472,115.516 135.446,106.438 128.762,110.297 
				128.787,119.375 127.571,120.076 127.542,109.602 			"/>
		</g>
	</g>
	<line fill="none" x1="107.546" y1="106.766" x2="106.113" y2="105.916"/>
	<line fill="none" x1="129.005" y1="119.486" x2="128.818" y2="119.377"/>
	<g>
		<g>
			<g>
				<g enable-background="new    ">
					<g>
						<polygon fill="#6D554C" points="127.038,95.349 127.015,103.501 126.71,103.678 126.733,95.526 						"/>
					</g>
					<g>
						<polygon fill="#4C3B35" points="126.733,95.526 126.71,103.678 126.41,103.505 126.434,95.353 						"/>
					</g>
					<g>
						<polygon fill="#7A5F55" points="127.038,95.349 126.733,95.526 126.434,95.353 126.738,95.176 						"/>
					</g>
				</g>
			</g>
		</g>
		<g>
			<g>
				<polygon fill="#558B2F" points="126.727,93.433 126.727,93.456 125.621,97.681 125.188,97.433 126.725,93.424 				"/>
				<polygon fill="#558B2F" points="126.729,93.445 126.727,93.454 126.727,93.433 				"/>
			</g>
			<g>
				<polygon fill="#AED581" points="126.737,98.334 125.221,99.21 125.621,97.681 126.727,93.456 126.727,98.317 				"/>
				<polygon fill="#7CB342" points="128.26,97.457 127.84,97.698 126.733,93.456 				"/>
			</g>
			<polygon fill="#689F38" points="128.229,99.189 126.743,98.33 126.737,98.334 126.727,98.317 126.727,93.454 126.729,93.445 
				126.733,93.456 127.84,97.698 			"/>
			<polygon fill="#33691E" points="128.229,99.189 125.221,99.21 126.737,98.334 126.743,98.33 			"/>
			<polygon fill="#689F38" points="125.621,97.681 125.221,99.21 125.188,97.433 			"/>
			<polygon fill="#558B2F" points="128.26,97.457 128.229,99.189 127.84,97.698 			"/>
		</g>
	</g>
	<g>
		<g>
			<g>
				<g enable-background="new    ">
					<g>
						<polygon fill="#6D554C" points="66.433,113.556 66.409,121.708 66.105,121.885 66.128,113.732 						"/>
					</g>
					<g>
						<polygon fill="#4C3B35" points="66.128,113.732 66.105,121.885 65.805,121.712 65.828,113.56 						"/>
					</g>
					<g>
						<polygon fill="#7A5F55" points="66.433,113.556 66.128,113.732 65.828,113.56 66.132,113.383 						"/>
					</g>
				</g>
			</g>
		</g>
		<g>
			<g>
				<polygon fill="#558B2F" points="66.12,111.637 66.12,111.66 65.016,115.885 64.583,115.637 66.118,111.627 				"/>
				<polygon fill="#558B2F" points="66.122,111.648 66.12,111.658 66.12,111.637 				"/>
			</g>
			<g>
				<polygon fill="#AED581" points="66.131,116.537 64.615,117.414 65.016,115.885 66.12,111.66 66.12,116.521 				"/>
				<polygon fill="#7CB342" points="67.653,115.66 67.234,115.902 66.127,111.66 				"/>
			</g>
			<polygon fill="#689F38" points="67.624,117.393 66.138,116.533 66.131,116.537 66.12,116.521 66.12,111.658 66.122,111.648 
				66.127,111.66 67.234,115.902 			"/>
			<polygon fill="#33691E" points="67.624,117.393 64.615,117.414 66.131,116.537 66.138,116.533 			"/>
			<polygon fill="#689F38" points="65.016,115.885 64.615,117.414 64.583,115.637 			"/>
			<polygon fill="#558B2F" points="67.653,115.66 67.624,117.393 67.234,115.902 			"/>
		</g>
	</g>
	<g>
		<g>
			<g>
				<g enable-background="new    ">
					<g>
						<polygon fill="#6D554C" points="97.807,130.044 97.783,138.196 97.479,138.373 97.502,130.221 						"/>
					</g>
					<g>
						<polygon fill="#4C3B35" points="97.502,130.221 97.479,138.373 97.179,138.2 97.202,130.048 						"/>
					</g>
					<g>
						<polygon fill="#7A5F55" points="97.807,130.044 97.502,130.221 97.202,130.048 97.506,129.871 						"/>
					</g>
				</g>
			</g>
		</g>
		<g>
			<g>
				<polygon fill="#558B2F" points="97.494,128.127 97.494,128.15 96.389,132.375 95.957,132.127 97.492,128.117 				"/>
				<polygon fill="#558B2F" points="97.496,128.139 97.494,128.148 97.494,128.127 				"/>
			</g>
			<g>
				<polygon fill="#AED581" points="97.505,133.027 95.989,133.904 96.389,132.375 97.494,128.15 97.494,133.012 				"/>
				<polygon fill="#7CB342" points="99.027,132.15 98.608,132.393 97.501,128.15 				"/>
			</g>
			<polygon fill="#689F38" points="98.997,133.883 97.512,133.023 97.505,133.027 97.494,133.012 97.494,128.148 97.496,128.139 
				97.501,128.15 98.608,132.393 			"/>
			<polygon fill="#33691E" points="98.997,133.883 95.989,133.904 97.505,133.027 97.512,133.023 			"/>
			<polygon fill="#689F38" points="96.389,132.375 95.989,133.904 95.957,132.127 			"/>
			<polygon fill="#558B2F" points="99.027,132.15 98.997,133.883 98.608,132.393 			"/>
		</g>
	</g>
	<g>
		<g>
			<g>
				<g enable-background="new    ">
					<g>
						<polygon fill="#6D554C" points="158.624,101.136 158.601,109.287 158.303,109.461 158.326,101.309 						"/>
					</g>
					<g>
						<polygon fill="#4C3B35" points="158.326,101.309 158.303,109.461 157.996,109.283 158.02,101.132 						"/>
					</g>
					<g>
						<polygon fill="#7A5F55" points="158.624,101.136 158.326,101.309 158.02,101.132 158.317,100.958 						"/>
					</g>
				</g>
			</g>
		</g>
		<g>
			<g>
				<polygon fill="#558B2F" points="158.314,99.215 158.314,99.238 157.209,103.463 156.776,103.215 158.313,99.206 				"/>
				<polygon fill="#558B2F" points="158.316,99.228 158.314,99.236 158.314,99.215 				"/>
			</g>
			<g>
				<polygon fill="#AED581" points="158.325,104.117 156.809,104.992 157.209,103.463 158.314,99.238 158.314,104.1 				"/>
				<polygon fill="#7CB342" points="159.848,103.238 159.428,103.48 158.321,99.238 				"/>
			</g>
			<polygon fill="#689F38" points="159.817,104.971 158.331,104.113 158.325,104.117 158.314,104.1 158.314,99.236 158.316,99.228 
				158.321,99.238 159.428,103.48 			"/>
			<polygon fill="#33691E" points="159.817,104.971 156.809,104.992 158.325,104.117 158.331,104.113 			"/>
			<polygon fill="#689F38" points="157.209,103.463 156.809,104.992 156.776,103.215 			"/>
			<polygon fill="#558B2F" points="159.848,103.238 159.817,104.971 159.428,103.48 			"/>
		</g>
	</g>
	<g>
		<g>
			<g>
				<g enable-background="new    ">
					<g>
						<polygon fill="#6D554C" points="100.559,52.304 100.536,60.456 100.231,60.633 100.255,52.481 						"/>
					</g>
					<g>
						<polygon fill="#4C3B35" points="100.255,52.481 100.231,60.633 99.926,60.456 99.948,52.304 						"/>
					</g>
					<g>
						<polygon fill="#7A5F55" points="100.559,52.304 100.255,52.481 99.948,52.304 100.253,52.127 						"/>
					</g>
				</g>
			</g>
		</g>
		<g>
			<g>
				<polygon fill="#558B2F" points="100.242,50.387 100.242,50.411 99.138,54.636 98.705,54.388 100.24,50.378 				"/>
				<polygon fill="#558B2F" points="100.245,50.4 100.242,50.409 100.242,50.387 				"/>
			</g>
			<g>
				<polygon fill="#AED581" points="100.254,55.289 98.737,56.165 99.138,54.636 100.242,50.411 100.242,55.272 				"/>
				<polygon fill="#7CB342" points="101.776,54.411 101.356,54.653 100.249,50.411 				"/>
			</g>
			<polygon fill="#689F38" points="101.746,56.144 100.26,55.285 100.254,55.289 100.242,55.272 100.242,50.409 100.245,50.4 
				100.249,50.411 101.356,54.653 			"/>
			<polygon fill="#33691E" points="101.746,56.144 98.737,56.165 100.254,55.289 100.26,55.285 			"/>
			<polygon fill="#689F38" points="99.138,54.636 98.737,56.165 98.705,54.388 			"/>
			<polygon fill="#558B2F" points="101.776,54.411 101.746,56.144 101.356,54.653 			"/>
		</g>
	</g>
	<line fill="none" x1="114.181" y1="102.908" x2="113.057" y2="102.242"/>
	<line fill="none" x1="135.947" y1="115.816" x2="135.464" y2="115.529"/>
	<g>
		<g>
			<g>
				<g enable-background="new    ">
					<g>
						<polygon fill="#6D554C" points="144.332,104.619 144.309,112.771 144.011,112.944 144.034,104.792 						"/>
					</g>
					<g>
						<polygon fill="#4C3B35" points="144.034,104.792 144.011,112.944 143.704,112.767 143.728,104.615 						"/>
					</g>
					<g>
						<polygon fill="#7A5F55" points="144.332,104.619 144.034,104.792 143.728,104.615 144.025,104.441 						"/>
					</g>
				</g>
			</g>
		</g>
		<g>
			<g>
				<polygon fill="#558B2F" points="144.02,102.695 144.02,102.719 142.914,106.943 142.481,106.695 144.018,102.686 				"/>
				<polygon fill="#558B2F" points="144.021,102.707 144.02,102.717 144.02,102.695 				"/>
			</g>
			<g>
				<polygon fill="#AED581" points="144.03,107.598 142.514,108.473 142.914,106.943 144.02,102.719 144.02,107.58 				"/>
				<polygon fill="#7CB342" points="145.553,106.719 145.133,106.961 144.026,102.719 				"/>
			</g>
			<polygon fill="#689F38" points="145.522,108.451 144.036,107.592 144.03,107.598 144.02,107.58 144.02,102.717 144.021,102.707 
				144.026,102.719 145.133,106.961 			"/>
			<polygon fill="#33691E" points="145.522,108.451 142.514,108.473 144.03,107.598 144.036,107.592 			"/>
			<polygon fill="#689F38" points="142.914,106.943 142.514,108.473 142.481,106.695 			"/>
			<polygon fill="#558B2F" points="145.553,106.719 145.522,108.451 145.133,106.961 			"/>
		</g>
	</g>
	<g>
		<g>
			<g>
				<g enable-background="new    ">
					<g>
						<polygon fill="#6D554C" points="122.06,117.14 122.037,125.292 121.732,125.469 121.756,117.316 						"/>
					</g>
					<g>
						<polygon fill="#4C3B35" points="121.756,117.316 121.732,125.469 121.427,125.292 121.449,117.14 						"/>
					</g>
					<g>
						<polygon fill="#7A5F55" points="122.06,117.14 121.756,117.316 121.449,117.14 121.754,116.963 						"/>
					</g>
				</g>
			</g>
		</g>
		<g>
			<g>
				<polygon fill="#558B2F" points="121.747,115.223 121.747,115.246 120.643,119.473 120.21,119.223 121.745,115.215 				"/>
				<polygon fill="#558B2F" points="121.749,115.236 121.747,115.244 121.747,115.223 				"/>
			</g>
			<g>
				<polygon fill="#AED581" points="121.758,120.125 120.242,121.002 120.643,119.473 121.747,115.246 121.747,120.107 				"/>
				<polygon fill="#7CB342" points="123.28,119.248 122.861,119.488 121.754,115.246 				"/>
			</g>
			<polygon fill="#689F38" points="123.251,120.98 121.765,120.121 121.758,120.125 121.747,120.107 121.747,115.244 
				121.749,115.236 121.754,115.246 122.861,119.488 			"/>
			<polygon fill="#33691E" points="123.251,120.98 120.242,121.002 121.758,120.125 121.765,120.121 			"/>
			<polygon fill="#689F38" points="120.643,119.473 120.242,121.002 120.21,119.223 			"/>
			<polygon fill="#558B2F" points="123.28,119.248 123.251,120.98 122.861,119.488 			"/>
		</g>
	</g>
	<g>
		<g>
			<polygon fill="#455A64" points="109.267,79.632 109.251,84.869 104.724,87.5 104.738,82.263 			"/>
		</g>
		<g>
			<polygon fill="#CFD8DC" points="104.738,82.263 104.724,87.5 100.166,84.869 100.182,79.632 			"/>
		</g>
		<g>
			<polygon fill="#ECEFF1" points="109.267,79.632 104.738,82.263 100.182,79.632 104.709,77.001 			"/>
		</g>
		<g>
			<g>
				<g enable-background="new    ">
					<defs>
						<polygon id="SVGID_6_" enable-background="new    " points="105.793,85.7 105.785,82.905 108.218,81.501 108.226,84.296 
													"/>
					</defs>
					<clipPath id="SVGID_7_">
						<use xlink:href="#SVGID_6_"  overflow="visible"/>
					</clipPath>
					<g clip-path="url(#SVGID_7_)">
						<g>
							<g>
								<g>
									<path fill="#EFEBE9" d="M106.998,82.205c-0.238,0.137-0.46,0.346-0.647,0.592c0.082-0.041,0.163-0.048,0.228-0.012
										l0.57,0.325l0.688-0.398c0.198-0.114,0.358-0.023,0.359,0.205c0,0.22-0.158,0.495-0.356,0.61l-0.836,0.483
										c-0.09,0.051-0.186,0.063-0.25,0.026l-0.672-0.391c-0.065-0.034-0.1-0.106-0.105-0.198
										c-0.119,0.287-0.188,0.584-0.188,0.86c0.002,0.77,0.547,1.081,1.217,0.693c0.677-0.391,1.218-1.328,1.216-2.098
										C108.22,82.132,107.675,81.814,106.998,82.205"/>
									<path fill="#78909C" d="M106.326,82.81c-0.09,0.052-0.18,0.144-0.246,0.263c-0.076,0.131-0.109,0.266-0.104,0.374
										c0.006,0.092,0.04,0.165,0.105,0.198l0.672,0.391c0.064,0.037,0.16,0.025,0.25-0.026l0.836-0.483
										c0.198-0.115,0.356-0.39,0.356-0.61c-0.001-0.228-0.161-0.319-0.359-0.205l-0.688,0.398l-0.57-0.325
										c-0.064-0.037-0.146-0.029-0.228,0.012C106.342,82.801,106.335,82.805,106.326,82.81"/>
								</g>
							</g>
						</g>
					</g>
				</g>
			</g>
		</g>
	</g>
	<g>
		<line fill="none" stroke="#727171" stroke-width="2" stroke-miterlimit="10" x1="104.431" y1="79.699" x2="104.431" y2="75.273"/>
		<g>
			<g enable-background="new    ">
				<defs>
					<polygon id="SVGID_5_" enable-background="new    " points="104.204,76.576 104.21,74.593 107.155,76.293 107.149,78.276 					
						"/>
				</defs>
				<clipPath id="SVGID_8_">
					<use xlink:href="#SVGID_5_"  overflow="visible"/>
				</clipPath>
				<g clip-path="url(#SVGID_8_)">
					<polyline fill="#BF360C" points="104.21,74.593 104.205,76.285 105.808,77.21 105.81,76.439 104.21,74.593 					"/>
					<polyline fill="#BF360C" points="105.81,76.729 105.807,77.501 107.149,78.276 105.81,76.729 					"/>
				</g>
			</g>
		</g>
	</g>
	<g>
		<g>
			<g>
				<polygon fill="#006B78" points="96.018,106.057 96.018,106.434 96.013,107.803 90.306,111.117 90.252,111.15 89.648,111.5 
					89.646,111.5 89.347,111.674 88.769,111.34 88.771,110.994 88.771,110.633 88.772,110.295 88.772,110.268 88.803,110.25 				"/>
			</g>
			<g>
				<polygon fill="#00A7BB" points="109.691,113.951 109.689,114.668 109.689,114.67 109.687,115.02 109.103,115.359 
					108.801,115.188 108.194,114.836 108.146,114.809 96.013,107.803 96.018,106.434 96.018,106.057 109.654,113.93 				"/>
			</g>
			<polygon fill="#00636F" points="109.103,115.359 102.436,119.232 89.347,111.674 89.646,111.5 89.648,111.5 90.252,111.15 
				90.306,111.117 96.013,107.803 108.146,114.809 108.194,114.836 108.801,115.188 			"/>
			<polygon opacity="0.5" fill="#80DEEA" points="109.686,113.912 102.439,118.123 88.767,110.229 96.013,106.018 			"/>
		</g>
		<g>
			<g enable-background="new    ">
				<g>
					<polygon fill="#35454D" points="96.006,106.078 96.005,106.426 88.759,110.639 88.76,110.289 					"/>
				</g>
				<g>
					<polygon fill="#FFFFFF" points="109.679,113.973 109.678,114.32 96.005,106.426 96.006,106.078 					"/>
				</g>
				<g>
					<polygon fill="#FFFFFF" points="102.438,118.883 102.436,119.232 89.347,111.674 88.769,111.34 87.548,110.637 87.548,110.287 
						88.149,110.635 88.156,110.639 88.609,110.9 88.764,110.99 88.771,110.992 89.498,111.414 89.646,111.5 89.648,111.5 					"/>
				</g>
				<g>
					<polygon fill="#455A64" points="110.889,113.973 110.889,114.322 109.687,115.02 109.103,115.359 102.436,119.232 
						102.438,118.883 108.801,115.188 109.535,114.76 109.683,114.672 109.689,114.67 109.833,114.588 110.286,114.322 					"/>
				</g>
				<g>
					<path fill="#CFD8DC" d="M96.001,105.375l14.889,8.598l-8.452,4.91l-14.889-8.596L96.001,105.375z M102.433,118.184l7.246-4.211
						l-13.673-7.895l-7.246,4.211L102.433,118.184L102.433,118.184z"/>
				</g>
			</g>
		</g>
	</g>
	<g>
		<g>
			<polygon fill="#006B78" points="144.631,78.288 144.631,78.665 144.626,80.034 138.919,83.349 138.865,83.381 138.262,83.73 
				138.26,83.73 137.96,83.905 137.382,83.571 137.384,83.225 137.384,82.863 137.386,82.526 137.386,82.499 137.416,82.481 			"/>
		</g>
		<g>
			<polygon fill="#00A7BB" points="158.305,86.182 158.303,86.899 158.303,86.901 158.3,87.25 157.716,87.591 157.414,87.417 
				156.808,87.066 156.758,87.039 144.626,80.034 144.631,78.665 144.631,78.288 158.268,86.161 			"/>
		</g>
		<polygon fill="#263238" points="157.716,87.591 151.049,91.463 137.96,83.905 138.26,83.73 138.262,83.73 138.865,83.381 
			138.919,83.349 144.626,80.034 156.758,87.039 156.808,87.066 157.414,87.417 		"/>
	</g>
	<g>
		<g>
			<g>
				<g enable-background="new    ">
					<defs>
						<polygon id="SVGID_9_" enable-background="new    " points="106.821,113.313 106.826,111.823 107.586,112.263 
							107.581,113.752 						"/>
					</defs>
					<clipPath id="SVGID_10_">
						<use xlink:href="#SVGID_9_"  overflow="visible"/>
					</clipPath>
					<g clip-path="url(#SVGID_10_)">
						<g>
							<g>
								<g>
									<polyline fill="#01579B" points="107.586,112.263 106.826,111.823 106.825,111.999 107.585,112.438 107.586,112.263 
																			"/>
									<polyline fill="#01579B" points="107.584,112.702 106.824,112.264 106.824,112.433 107.584,112.871 107.584,112.702 
																			"/>
									<polyline fill="#01579B" points="107.583,113.136 106.823,112.697 106.823,112.873 107.583,113.312 107.583,113.136 
																			"/>
									<polyline fill="#01579B" points="107.582,113.576 106.822,113.137 106.821,113.313 107.582,113.752 107.582,113.576 
																			"/>
								</g>
							</g>
						</g>
					</g>
				</g>
			</g>
		</g>
		<g>
			<g>
				<g enable-background="new    ">
					<defs>
						<polygon id="SVGID_11_" enable-background="new    " points="106.821,113.349 106.826,111.779 107.586,112.218 
							107.581,113.787 						"/>
					</defs>
					<clipPath id="SVGID_12_">
						<use xlink:href="#SVGID_11_"  overflow="visible"/>
					</clipPath>
					<g clip-path="url(#SVGID_12_)">
						<g>
							<g>
								<g>
									<polyline fill="#01579B" points="106.979,111.867 106.826,111.779 106.821,113.349 106.975,113.438 106.979,111.867 
																			"/>
									<polyline fill="#01579B" points="107.586,112.218 107.433,112.129 107.429,113.699 107.581,113.787 107.586,112.218 
																			"/>
								</g>
							</g>
						</g>
					</g>
				</g>
			</g>
		</g>
	</g>
	<g>
		<g>
			<polygon fill="#006B78" points="144.586,78.244 144.586,78.621 144.582,79.989 138.875,83.304 138.821,83.336 138.218,83.685 
				138.215,83.685 137.915,83.861 137.337,83.527 137.339,83.18 137.339,82.818 137.341,82.481 137.341,82.454 137.371,82.437 			
				"/>
		</g>
		<polygon fill="#00A7BB" points="147.984,80.205 147.984,81.953 146.472,81.081 144.581,79.989 144.586,78.621 144.586,78.244 
			147.982,80.203 		"/>
		<polygon fill="#00636F" points="147.984,81.953 147.984,81.955 142.276,85.268 141.315,85.825 140.765,85.508 137.914,83.861 
			138.215,83.685 138.217,83.685 138.82,83.336 138.874,83.304 144.581,79.989 146.472,81.081 		"/>
		<polygon opacity="0.5" fill="#80DEEA" points="147.984,81.955 142.276,85.268 140.765,84.394 140.763,84.394 138.874,83.304 
			137.373,82.437 137.37,82.437 137.337,82.415 144.581,78.205 147.984,80.169 148.012,80.186 147.984,80.201 		"/>
		<g>
			<polygon fill="#006B78" points="147.959,80.198 147.959,80.575 147.955,81.943 142.247,85.258 142.194,85.291 141.59,85.639 
				141.588,85.639 141.288,85.815 140.71,85.481 140.712,85.134 140.712,84.772 140.714,84.436 140.714,84.408 140.744,84.391 			
				"/>
		</g>
	</g>
	<g>
		<path fill="#CFD8DC" d="M73.99,102.529c-2.478-1.432-2.491-3.752-0.029-5.183c2.461-1.431,6.467-1.43,8.944,0
			c2.478,1.431,2.49,3.75,0.029,5.18C80.473,103.959,76.467,103.959,73.99,102.529 M83.542,96.977
			c-2.831-1.635-7.408-1.635-10.222,0c-2.813,1.635-2.798,4.287,0.033,5.921c2.832,1.635,7.409,1.635,10.222,0
			C86.389,101.264,86.374,98.612,83.542,96.977"/>
		<polyline fill="#CFD8DC" points="82.603,100.219 77.948,97.532 77.232,97.948 79.209,99.089 76.985,100.382 75.009,99.24 
			74.292,99.656 78.946,102.344 79.662,101.928 77.619,100.748 79.843,99.455 81.887,100.635 82.603,100.219 		"/>
	</g>
	<g>
		<polygon fill="#00A7BB" points="158.321,86.204 158.319,86.921 158.319,86.924 158.317,87.273 157.732,87.613 157.431,87.44 
			156.825,87.089 156.775,87.061 154.858,85.954 154.775,85.904 154.773,85.904 153.357,85.088 154.869,84.21 154.872,84.212 
			158.285,86.183 158.287,86.183 		"/>
		<polygon fill="#00636F" points="157.732,87.613 151.066,91.485 148.106,89.776 147.652,89.515 147.652,88.401 153.357,85.088 
			154.773,85.904 154.775,85.904 154.858,85.954 156.775,87.061 156.825,87.089 157.431,87.44 		"/>
		<polygon opacity="0.5" fill="#006B78" points="158.317,86.166 158.287,86.183 158.285,86.183 154.872,84.212 154.869,84.21 
			154.872,84.208 154.872,84.176 154.899,84.193 		"/>
		<g>
			<polygon fill="#004D40" points="154.928,84.2 154.928,84.577 154.924,85.945 149.217,89.26 149.163,89.292 148.56,89.642 
				148.557,89.642 148.257,89.817 147.679,89.483 147.681,89.136 147.681,88.774 147.683,88.438 147.683,88.41 147.713,88.393 			
				"/>
		</g>
		<polygon opacity="0.5" fill="#80DEEA" points="158.285,86.183 156.775,87.061 151.07,90.376 149.068,89.219 147.652,88.403 
			147.652,88.401 153.357,85.088 154.869,84.21 154.872,84.212 		"/>
	</g>
	<g>
		<g enable-background="new    ">
			<g>
				<polygon fill="#35454D" points="144.619,78.309 144.618,78.658 137.372,82.869 137.373,82.52 				"/>
			</g>
			<g>
				<polygon fill="#FFFFFF" points="158.292,86.203 158.291,86.552 144.618,78.658 144.619,78.309 				"/>
			</g>
			<g>
				<polygon fill="#FFFFFF" points="151.051,91.114 151.049,91.463 137.96,83.905 137.382,83.571 136.161,82.867 136.161,82.518 
					136.763,82.865 136.769,82.869 137.223,83.13 137.377,83.22 137.384,83.223 138.111,83.644 138.26,83.73 138.262,83.73 				"/>
			</g>
			<g>
				<polygon fill="#455A64" points="159.502,86.204 159.502,86.552 158.3,87.25 157.716,87.591 151.049,91.463 151.051,91.114 
					157.414,87.417 158.148,86.991 158.296,86.904 158.303,86.901 158.445,86.818 158.899,86.552 				"/>
			</g>
			<g>
				<path fill="#CFD8DC" d="M144.613,77.607l14.89,8.596l-8.452,4.912l-14.889-8.596L144.613,77.607z M151.046,90.414l7.246-4.211
					l-13.673-7.894l-7.246,4.211L151.046,90.414L151.046,90.414z"/>
			</g>
		</g>
	</g>
	<g>
		<g>
			<path fill="#78909C" d="M148.599,74.707c0.22,0.132,0.212,0.342-0.017,0.469c-0.228,0.127-0.59,0.124-0.81-0.008
				c-0.219-0.132-0.211-0.341,0.018-0.468C148.018,74.571,148.38,74.575,148.599,74.707z"/>
		</g>
		<g>
			<path fill="#78909C" d="M147.222,74.188c-0.099-0.2-0.008-0.424,0.27-0.578c0.398-0.222,1.031-0.216,1.414,0.015l-0.307,1.082
				c-0.219-0.132-0.581-0.135-0.809-0.008c-0.158,0.088-0.211,0.216-0.154,0.331C147.497,74.749,147.359,74.469,147.222,74.188z"/>
		</g>
		<g>
			<path fill="#78909C" d="M149.184,73.97v0.054c0-0.144-0.092-0.287-0.278-0.398l-0.03-10.928c0.185-0.114,0.276-0.257,0.276-0.4
				l0.002,1.017c0.005,1.512,0.009,3.18,0.013,4.846l0.007,2.294c0.005,1.107,0.007,2.18,0.009,3.171
				C149.184,73.741,149.184,73.856,149.184,73.97z"/>
		</g>
		<g>
			<path fill="#78909C" d="M148.905,73.625c-0.384-0.231-1.016-0.238-1.413-0.015c-0.052,0.027-0.097,0.06-0.135,0.092
				c-0.02,0.017-0.039,0.034-0.054,0.052c-0.079,0.085-0.12,0.18-0.12,0.274l-0.002-0.578l-0.004-1.136
				c-0.002-0.602-0.004-1.221-0.005-1.854l-0.023-8.159c0,0.019,0.002,0.036,0.004,0.053c0.011,0.056,0.032,0.109,0.066,0.159
				c0.045,0.068,0.115,0.133,0.208,0.188c0.383,0.229,1.018,0.235,1.415,0.015c0.011-0.006,0.021-0.013,0.032-0.019L148.905,73.625z
				"/>
		</g>
		<g>
			<path fill="#CFD8DC" d="M149.184,73.97v0.054c0,0.02,0,0.041-0.004,0.062c-0.009,0.036-0.021,0.073-0.039,0.107
				c-0.021,0.043-0.054,0.086-0.096,0.126c-0.007,0.009-0.016,0.015-0.024,0.021c-0.008,0.011-0.019,0.02-0.029,0.026
				c-0.007,0.006-0.016,0.013-0.023,0.019c-0.028,0.02-0.059,0.039-0.093,0.058c-0.07,0.039-0.147,0.071-0.229,0.095
				c-0.144,0.045-0.3,0.068-0.456,0.068h-0.011c-0.262,0-0.523-0.058-0.718-0.175c-0.049-0.03-0.092-0.063-0.129-0.097
				c-0.015-0.015-0.027-0.028-0.04-0.043c-0.013-0.013-0.023-0.026-0.032-0.041c-0.013-0.015-0.023-0.032-0.032-0.049
				c-0.002-0.004-0.004-0.009-0.007-0.013c-0.025-0.052-0.038-0.105-0.038-0.159v-0.002l-0.002-0.578l-0.009-2.99l-0.023-8.159
				c0,0.019,0.002,0.036,0.004,0.053c0.011,0.056,0.032,0.109,0.066,0.159c0.045,0.068,0.115,0.133,0.208,0.188
				c0.383,0.229,1.018,0.235,1.415,0.015c0.011-0.006,0.021-0.013,0.032-0.019c0.185-0.114,0.276-0.257,0.276-0.4l0.002,1.017
				c0.005,1.512,0.009,3.18,0.013,4.846l0.007,2.294c0.005,1.107,0.007,2.18,0.009,3.171
				C149.184,73.741,149.184,73.856,149.184,73.97z"/>
		</g>
		<g>
			<path fill="#78909C" d="M147.636,75.029c-0.139-0.28-0.276-0.561-0.414-0.841c0.043,0.088,0.123,0.171,0.24,0.241
				c0.382,0.23,1.016,0.237,1.414,0.014c0.134-0.074,0.224-0.165,0.271-0.261c-0.007,0.012-0.015,0.029-0.021,0.042
				c-0.062,0.126-0.123,0.253-0.185,0.379c-0.068,0.141-0.136,0.281-0.204,0.422c-0.027,0.055-0.079,0.106-0.155,0.149
				c-0.228,0.127-0.59,0.124-0.81-0.008C147.706,75.127,147.66,75.079,147.636,75.029z"/>
		</g>
		<g>
			<path fill="#78909C" d="M148.145,60.091c0,0.032-0.027,0.066-0.045,0.094C148.115,60.153,148.13,60.123,148.145,60.091z"/>
		</g>
		<g>
			<path fill="#78909C" d="M149.11,62.136c-0.008-0.02-0.019-0.039-0.034-0.058c-0.006-0.008-0.013-0.019-0.021-0.028
				c-0.006-0.008-0.013-0.015-0.019-0.023c-0.014-0.013-0.028-0.028-0.043-0.041c-0.034-0.032-0.075-0.062-0.12-0.09l-0.729-1.806
				C148.469,60.774,148.79,61.455,149.11,62.136z"/>
		</g>
		<g>
			<path fill="#C2185B" d="M149.151,62.297c0,0.144-0.092,0.287-0.276,0.4c-0.011,0.006-0.021,0.013-0.032,0.019
				c-0.397,0.221-1.032,0.214-1.415-0.015c-0.093-0.056-0.163-0.12-0.208-0.188c-0.034-0.049-0.056-0.103-0.066-0.159
				c-0.002-0.017-0.004-0.034-0.004-0.053c0-0.03,0.004-0.06,0.013-0.092c0.002-0.006,0.004-0.015,0.009-0.023
				c0.004-0.011,0.008-0.024,0.015-0.037c0.004-0.008,0.009-0.017,0.013-0.025c0.172-0.369,0.343-0.737,0.514-1.105v-0.002
				c0.024-0.051,0.05-0.103,0.073-0.154c0.009-0.017,0.018-0.036,0.023-0.051c0.007-0.015,0.016-0.032,0.023-0.051
				c0.016-0.035,0.032-0.066,0.047-0.101c0.009-0.017,0.018-0.034,0.026-0.053c0.015-0.034,0.032-0.068,0.047-0.103
				c0.009-0.015,0.018-0.032,0.023-0.051c0.018-0.034,0.032-0.066,0.047-0.101c0.009-0.017,0.018-0.037,0.026-0.054
				c0.017-0.034,0.032-0.068,0.047-0.103c0.002-0.002,0.002-0.006,0.004-0.009c0.018-0.028,0.045-0.062,0.045-0.094l0.729,1.806
				c0.045,0.028,0.086,0.058,0.12,0.09c0.015,0.013,0.029,0.025,0.043,0.041c0.006,0.009,0.013,0.015,0.019,0.023
				c0.009,0.009,0.016,0.017,0.021,0.028c0.016,0.02,0.026,0.039,0.034,0.058c0.009,0.015,0.016,0.03,0.02,0.045
				c0.002,0.002,0.002,0.004,0.002,0.006c0.007,0.017,0.011,0.034,0.016,0.051C149.149,62.258,149.151,62.277,149.151,62.297z"/>
			<path fill="#C2185B" d="M147.153,62.354c0.011,0.056,0.032,0.109,0.066,0.159C147.184,62.464,147.162,62.41,147.153,62.354z"/>
			<path fill="#C2185B" d="M147.785,60.862c-0.014,0.03-0.028,0.061-0.043,0.09c0.006-0.013,0.013-0.027,0.018-0.039
				C147.769,60.898,147.776,60.881,147.785,60.862z"/>
			<path fill="#C2185B" d="M147.712,61.016c0.01-0.021,0.021-0.042,0.03-0.064C147.732,60.975,147.722,60.998,147.712,61.016z"/>
			<path fill="#C2185B" d="M147.856,60.708c0.006-0.015,0.015-0.032,0.022-0.049c-0.015,0.035-0.031,0.066-0.047,0.101
				C147.841,60.742,147.85,60.723,147.856,60.708z"/>
			<path fill="#C2185B" d="M147.999,60.399c0.009-0.015,0.016-0.032,0.023-0.049c-0.015,0.034-0.029,0.066-0.047,0.101
				C147.984,60.434,147.993,60.415,147.999,60.399z"/>
			<path fill="#C2185B" d="M148.145,60.091c0.324,0.683,0.646,1.364,0.966,2.045c-0.008-0.02-0.019-0.039-0.034-0.058
				c-0.006-0.008-0.013-0.019-0.021-0.028c-0.006-0.008-0.013-0.015-0.019-0.023c-0.014-0.013-0.028-0.028-0.043-0.041
				c-0.034-0.032-0.075-0.062-0.12-0.09L148.145,60.091z"/>
			<path fill="#C2185B" d="M149.115,62.143c0.006,0.013,0.011,0.026,0.015,0.039c-0.004-0.015-0.011-0.03-0.02-0.045
				C149.113,62.138,149.115,62.141,149.115,62.143z"/>
		</g>
		<g>
			<g>
				<g enable-background="new    ">
					<defs>
						<polygon id="SVGID_14_" enable-background="new    " points="148.77,73.487 148.775,71.352 149.535,71.79 149.529,73.925 
													"/>
					</defs>
					<clipPath id="SVGID_15_">
						<use xlink:href="#SVGID_14_"  overflow="visible"/>
					</clipPath>
					<g clip-path="url(#SVGID_15_)">
						<g>
							<g>
								<g>
									<polyline fill="#455A64" points="148.775,71.352 148.77,73.487 149.529,73.925 149.533,72.524 148.775,71.352 									"/>
								</g>
							</g>
						</g>
					</g>
				</g>
			</g>
		</g>
		<g>
			<g enable-background="new    ">
				<defs>
					<polygon id="SVGID_13_" enable-background="new    " points="147.423,73.467 147.416,71.329 146.656,71.768 146.662,73.906 
											"/>
				</defs>
				<clipPath id="SVGID_16_">
					<use xlink:href="#SVGID_13_"  overflow="visible"/>
				</clipPath>
				<g clip-path="url(#SVGID_16_)">
					<polyline fill="#455A64" points="147.416,71.329 147.423,73.467 146.662,73.906 146.658,72.501 147.416,71.329 					"/>
				</g>
			</g>
		</g>
	</g>
	<g>
		<g opacity="0.5">
			<path opacity="0.5" fill="#FFA726" d="M147.868,76.261c0.125-0.021,0.377-0.273,0.377-0.273c0.754,0.503,0.251,1.258,0,1.51
				c-0.503,0.251-0.503-0.503-0.573-0.678C147.694,76.618,147.764,76.415,147.868,76.261z"/>
			<path opacity="0.5" fill="#FFA726" d="M147.804,77.237c0.189-0.242,0.441-0.494,0.692-0.242c0.252,0.755,0,1.51-0.754,2.013
				c0-0.503,0-0.755-0.178-1.205C147.596,77.595,147.676,77.392,147.804,77.237z"/>
			<path opacity="0.5" fill="#FFA726" d="M147.785,78.246c-0.043-0.245,0.208-0.245,0.46-0.245c0.754,0.503,0,1.006,0,1.509
				c-0.252,1.006-0.755,0.252-1.007,0c0.252-0.251,0.252-0.503,0.262-0.705C147.56,78.585,147.654,78.388,147.785,78.246z"/>
			<path opacity="0.5" fill="#FFA726" d="M148.335,77.853c0.161-0.104,0.413-0.104,0.664-0.104c-0.503,0.503,0,1.509-1.006,1.761
				c0-0.251,0-0.754,0.037-0.953C148.115,78.288,148.209,78.045,148.335,77.853z"/>
			<path opacity="0.5" fill="#FFA726" d="M148.261,78.717c0.235,0.039,0.487-0.968,0.487-0.213c0.251,0.754,0,1.761-0.755,2.012
				c-0.503,0-0.251-0.754-0.133-1.032C147.966,79.198,148.112,78.922,148.261,78.717z"/>
			<path opacity="0.5" fill="#FFA726" d="M148.612,77.86c0.136-0.362,0.387-0.362,0.639-0.362c0.252,1.006,0,2.264-1.006,2.264
				c-0.252,0.251-0.252-0.503-0.007-1.041C148.333,78.416,148.466,78.108,148.612,77.86z"/>
			<path opacity="0.5" fill="#FFA726" d="M148.603,77.211c0.146-0.217,0.146-0.217,0.396-0.468c0.755,0.755,0,1.761-0.503,2.516
				c-0.251-0.503-0.251-0.754-0.15-1.268C148.386,77.721,148.473,77.443,148.603,77.211z"/>
			<path opacity="0.5" fill="#FFA726" d="M148.65,77.773c0.349-0.275,0.601-0.778,0.853-0.526c0.503,1.006-0.504,1.761-1.007,2.516
				c-0.503-0.503-0.251-1.006-0.063-1.537C148.501,78.065,148.572,77.912,148.65,77.773z"/>
			<path opacity="0.5" fill="#FFA726" d="M148.617,78.449c0.131-0.196,0.382-0.699,0.886-0.448
				c-0.252,0.755-0.504,2.013-1.007,2.264c-1.006,0.251,0.252-0.755-0.153-1.313C148.431,78.777,148.523,78.604,148.617,78.449z"/>
			<path opacity="0.5" fill="#FFA726" d="M148.485,78.569c0.263-0.316,0.514-0.819,1.018-0.568
				c-0.504,0.755-0.252,2.516-1.761,2.516c0-0.503,0.251-1.006,0.448-1.438C148.284,78.899,148.385,78.722,148.485,78.569z"/>
			<path opacity="0.5" fill="#BF360C" d="M148.258,79.057c0.238-0.301,0.49-0.552,0.741-0.804c0.252,1.006,0.755,2.768-1.006,2.516
				c-0.251,0-0.251-0.755-0.042-1.196C148.042,79.39,148.145,79.214,148.258,79.057z"/>
			<path opacity="0.5" fill="#FFA726" d="M147.819,79.202c0.174-0.446,0.677-0.697,0.929-0.194c0.251,0.755,0,1.761-0.503,2.264
				c-1.258,0.503-1.51-1.006-0.728-1.638C147.614,79.468,147.716,79.32,147.819,79.202z"/>
			<path opacity="0.5" fill="#F57C00" d="M148.016,78.882c0.229-0.126,0.229-0.378,0.48-0.63c1.007,0.755,0.503,2.013,0,2.768
				c-0.251,0.251-1.006,0-1.258-0.503c0-0.503,0.252-0.754,0.481-1.178C147.808,79.17,147.908,79.016,148.016,78.882z"/>
			<path opacity="0.5" fill="#B0BEC5" d="M147.432,80.119c0.311-0.356,0.813-0.608,1.064-0.356c0.252,0.754,0.252,1.509,0,2.264
				c-0.251,0.251-0.754,0.503-1.258,0c-0.503-0.503-0.251-1.006-0.07-1.532C147.236,80.35,147.328,80.221,147.432,80.119z"/>
			<path opacity="0.5" fill="#B0BEC5" d="M147.035,80.765c1.964-0.5,1.713,2.267,0.707,2.519c-1.007,0-1.007-1.509-0.899-2.208
				C146.885,80.946,146.95,80.84,147.035,80.765z"/>
			<path opacity="0.5" fill="#B0BEC5" d="M147.457,81.438c0.285-0.418,1.039-0.921,1.039-0.669c0.503,1.258,0.755,2.767-0.503,3.521
				c0-1.006-1.006-1.509-0.741-2.411C147.298,81.712,147.367,81.564,147.457,81.438z"/>
			<path opacity="0.5" fill="#B0BEC5" d="M146.861,80.792c0.629-0.023,1.132-0.023,1.384,0.228c0.754,1.006,0.251,2.264-0.755,2.767
				c-0.252-1.006-1.51-1.51-0.844-2.723C146.696,80.941,146.768,80.849,146.861,80.792z"/>
			<path opacity="0.5" fill="#D84315" d="M146.868,80.637c0.37-0.12,0.622-0.12,0.874-0.12c1.006,1.006,0.754,2.264,0.503,3.522
				c-1.007-0.503-2.265-1.761-1.629-3.109C146.676,80.8,146.762,80.701,146.868,80.637z"/>
			<path opacity="0.5" fill="#B0BEC5" d="M146.877,81.819c0.613-0.044,0.865-0.044,1.368-0.044
				c-0.252,1.258,1.258,2.264-0.503,3.522c0.251-1.258-1.51-1.761-1.188-3.063C146.608,82.027,146.725,81.889,146.877,81.819z"/>
			<path opacity="0.5" fill="#B0BEC5" d="M146.59,81.904c1.655,0.123,2.661,1.631,1.906,3.487c-0.125,0.22-0.377,0.283-0.754-0.094
				c-0.504-0.503-1.23-1.006-1.533-1.871c-0.075-0.215-0.124-0.454-0.134-0.705c-0.009-0.246,0.024-0.485,0.114-0.69
				C146.278,81.909,146.413,81.866,146.59,81.904z"/>
			<path opacity="0.5" fill="#B0BEC5" d="M146.157,81.493c1.333,1.036,2.339,2.294,2.339,4.055c-0.22,0.032-0.436,0.016-0.645-0.039
				c-1.253-0.329-2.237-2.064-2.193-3.457c0.008-0.232,0.044-0.455,0.112-0.66C145.874,81.326,146.002,81.366,146.157,81.493z"/>
			<path opacity="0.5" fill="#B0BEC5" d="M146.499,82.571c0.739,0.964,3.004,0.713,2.032,2.589c-0.036,0.208-0.035,0.43-0.035,0.639
				c0,0.503-1.258-0.251-1.697,0.682c-0.04,0.269-0.063,0.544-0.063,0.828c-0.126-0.21-0.202-0.426-0.248-0.648
				c-0.045-0.221-0.059-0.448-0.048-0.667c0.666-1.21-0.446-2.11-0.553-3.036c-0.021-0.185-0.002-0.371,0.08-0.555
				C146.084,82.344,146.266,82.42,146.499,82.571z"/>
			<path opacity="0.5" fill="#B0BEC5" d="M147.063,83.025c0.175-0.245,0.679-0.496,0.93-0.245c1.258,0.754,0.755,2.012,1.258,3.019
				c0.126,0.252-0.252,0.252-0.733,0.317c-0.481,0.064-1.067,0.194-1.359,0.704c0.005,0.242,0.03,0.489,0.08,0.74
				c-0.503-0.315-0.755-0.676-0.862-1.067c-0.055-0.196-0.073-0.398-0.069-0.606c0.718-0.295,0.699-0.757,0.543-1.287
				c-0.052-0.176-0.118-0.359-0.172-0.539c-0.194-0.274-0.194-0.777,0.007-0.916C146.787,83.094,146.913,83.05,147.063,83.025z"/>
			<path opacity="0.5" fill="#B0BEC5" d="M146.966,82.195c0.524-0.168,1.027-0.924,1.53-0.42c1.258,1.006,0.503,2.516,0.503,3.773
				c0.063,0.251-0.016,0.377-0.173,0.444c-0.472,0.2-1.65-0.13-1.839,0.813c-0.252-0.252-0.504-0.754-0.504-1.006
				c0.168-0.251,0.266-0.489,0.315-0.717c0.049-0.228,0.05-0.445,0.023-0.658c0.165-0.637-0.842-1.392-0.121-2.023
				C146.775,82.324,146.861,82.254,146.966,82.195z"/>
			<path opacity="0.5" fill="#B0BEC5" d="M146.942,81.595c0.296-0.575,1.051-0.826,1.554-0.575c1.258,1.257,0.252,3.019,0.755,4.779
				c-0.188,0.126-0.393,0.188-0.605,0.22c-0.637,0.094-1.344-0.094-1.91,0.283c0.252-0.251,0.755-0.503,0.755-0.755
				s-0.055-0.488-0.142-0.716c-0.11-1.044-1.619-1.799-0.712-2.958C146.717,81.76,146.819,81.665,146.942,81.595z"/>
			<path opacity="0.5" fill="#78909C" d="M146.959,82.201c0.531-0.426,1.034-0.678,1.789-0.93c0.251,1.51,0.755,2.768,0.503,4.277
				c0.063,0.251,0,0.409-0.141,0.512c-0.421,0.308-1.54,0.125-2.055,0.523c-0.051,0.228-0.068,0.474-0.068,0.726
				c-0.126-0.189-0.225-0.382-0.301-0.577c-0.076-0.196-0.13-0.395-0.168-0.596c0.162-0.266,0.262-0.522,0.317-0.771
				c0.056-0.25,0.067-0.492,0.053-0.73c-0.405-0.848-0.153-1.603-0.18-2.246C146.777,82.317,146.86,82.254,146.959,82.201z"/>
			<path opacity="0.5" fill="#B0BEC5" d="M147.524,82.358c0.469-0.835,1.224-1.589,1.979-2.093c-0.252,1.761,0.251,3.522,0,5.283
				c0.335,0.419,0.279,0.587,0.025,0.653c-0.508,0.131-1.806-0.144-2.349,0.373c-0.125,0.196-0.168,0.458-0.192,0.735
				c-0.126-0.252-0.221-0.5-0.289-0.744c-0.068-0.245-0.077-0.447-0.036-0.603c0.222-0.195,0.379-0.392,0.486-0.592
				c0.107-0.201,0.166-0.404,0.19-0.61c0.403-0.722,0.403-1.225,0.007-1.951C147.38,82.658,147.441,82.507,147.524,82.358z"/>
			<path opacity="0.5" fill="#B0BEC5" d="M147.554,83.062c0.691-0.03,0.439-1.539,1.194-1.036c0.755,0.503,1.509,2.012,0.855,3.378
				c0.022,0.211,0.088,0.426,0.15,0.647c0.252,1.006-1.761,0-2.012,1.258c0.125,0.251-0.063,0.44-0.315,0.503
				c-0.251,0.063-0.565,0-0.691-0.251c-0.063-0.22-0.118-0.444-0.164-0.672c-0.047-0.227-0.086-0.459-0.115-0.693
				c0.014-0.45,0.21-0.926,0.376-1.457c0.057-0.174,0.111-0.354,0.184-0.508c0.223-0.193,0.223-0.444,0.331-0.819
				C147.399,83.298,147.468,83.185,147.554,83.062z"/>
			<path opacity="0.5" fill="#B0BEC5" d="M147.614,83.117c0.379-0.587,0.631-1.09,0.882-1.594c0.755,1.006,1.51,2.012,1.173,3.599
				c0.033,0.227,0.096,0.46,0.214,0.698c0.123,0.238,0.249,0.482,0.374,0.733c-0.754,0-1.761,0.252-2.608,0.579
				c-0.055,0.227-0.108,0.453-0.158,0.679c-0.503-0.188-0.817-0.55-0.999-1.014c-0.09-0.231-0.147-0.488-0.178-0.762
				c0.211-0.496,0.442-0.932,0.601-1.402c0.056-0.154,0.121-0.294,0.186-0.425c-0.112-0.17,0.139-0.421,0.31-0.735
				C147.465,83.362,147.531,83.241,147.614,83.117z"/>
			<path opacity="0.5" fill="#455A64" d="M147.831,82.792c0.414-1.018,1.168-1.772,1.923-2.527c-1.006,1.761,0.503,3.27,0.226,5.027
				c0.054,0.22,0.158,0.434,0.257,0.644c0.104,0.21,0.197,0.417,0.272,0.617c-1.006,0-2.013,0.252-3.022,0.525
				c-0.09,0.237-0.173,0.482-0.248,0.733c-0.302-0.302-0.513-0.674-0.648-1.091c-0.067-0.208-0.116-0.428-0.147-0.655
				c0.098-0.34,0.33-0.679,0.561-1.027c0.115-0.174,0.234-0.347,0.373-0.492c0.617-0.257,0.869-0.76,0.317-1.208
				C147.723,83.157,147.765,82.978,147.831,82.792z"/>
		</g>
		<g>
			<circle opacity="0.5" fill="#FFA726" cx="147.923" cy="77.982" r="0.522"/>
			<circle opacity="0.5" fill="#FFA726" cx="147.884" cy="78.612" r="0.552"/>
			<circle opacity="0.5" fill="#FFA726" cx="147.889" cy="79.274" r="0.563"/>
			<circle opacity="0.5" fill="#FFA726" cx="148.499" cy="79.169" r="0.565"/>
			<circle opacity="0.5" fill="#FFA726" cx="148.588" cy="79.677" r="0.566"/>
			<circle opacity="0.5" fill="#FFA726" cx="148.865" cy="79.34" r="0.616"/>
			<circle opacity="0.5" fill="#FFA726" cx="148.836" cy="78.933" r="0.627"/>
			<circle opacity="0.5" fill="#FFA726" cx="148.928" cy="79.352" r="0.67"/>
			<circle opacity="0.5" fill="#FFA726" cx="149.051" cy="79.781" r="0.685"/>
			<circle opacity="0.5" fill="#FFA726" cx="148.925" cy="79.826" r="0.735"/>
			<circle opacity="0.5" fill="#BF360C" cx="148.824" cy="80.08" r="0.791"/>
			<circle opacity="0.5" fill="#FFA726" cx="148.284" cy="80.084" r="0.829"/>
			<circle opacity="0.5" fill="#F57C00" cx="148.441" cy="79.935" r="0.835"/>
			<circle opacity="0.5" fill="#B0BEC5" cx="148.127" cy="80.578" r="0.841"/>
			<circle opacity="0.5" fill="#B0BEC5" cx="147.786" cy="81.041" r="0.91"/>
			<circle opacity="0.5" fill="#B0BEC5" cx="148.188" cy="81.459" r="0.937"/>
			<circle opacity="0.5" fill="#B0BEC5" cx="147.609" cy="81.182" r="0.995"/>
			<circle opacity="0.5" fill="#D84315" cx="147.667" cy="81.171" r="1.092"/>
			<circle opacity="0.5" fill="#B0BEC5" cx="147.531" cy="81.915" r="1.102"/>
			<circle opacity="0.5" fill="#B0BEC5" cx="147.209" cy="82.226" r="1.188"/>
			<circle opacity="0.5" fill="#B0BEC5" cx="146.797" cy="82.408" r="1.266"/>
			<circle opacity="0.5" fill="#B0BEC5" cx="147.111" cy="82.878" r="1.318"/>
			<circle opacity="0.5" fill="#B0BEC5" cx="147.635" cy="82.921" r="1.4"/>
			<circle opacity="0.5" fill="#B0BEC5" cx="147.802" cy="82.423" r="1.479"/>
			<circle opacity="0.5" fill="#B0BEC5" cx="147.858" cy="82.159" r="1.571"/>
			<circle opacity="0.5" fill="#78909C" cx="147.84" cy="82.508" r="1.572"/>
			<circle opacity="0.5" fill="#B0BEC5" cx="148.507" cy="82.665" r="1.679"/>
			<circle opacity="0.5" fill="#B0BEC5" cx="148.249" cy="83.145" r="1.691"/>
			<circle opacity="0.5" fill="#B0BEC5" cx="148.306" cy="83.227" r="1.736"/>
			<path opacity="0.5" fill="#455A64" d="M147.78,81.594c0.873-0.51,1.999-0.217,2.511,0.66c0.51,0.874,0.212,1.999-0.661,2.508
				c-0.875,0.511-1.997,0.215-2.508-0.658C146.61,83.227,146.905,82.104,147.78,81.594z"/>
		</g>
	</g>
	<polygon fill="#EF6C00" points="148.047,65.67 148.179,65.937 148.473,65.979 148.26,66.187 148.311,66.479 148.047,66.341 
		147.784,66.479 147.835,66.187 147.622,65.979 147.916,65.937 	"/>
</g>
<line fill="none" x1="-351.087" y1="284.531" x2="-351.087" y2="284.16"/>
<g>
	<path fill="#D74108" d="M-105.466,116.632c0.012,4.363,1.556,7.43,4.042,8.877c0.689,0.402,1.453,0.678,2.269,0.814
		c0.098,0.025,0.201,0.035,0.305,0.053c0.046,0.006,0.098,0.012,0.144,0.018c0.144,0.018,0.287,0.027,0.431,0.035
		c0.167,0.012,0.333,0.016,0.5,0.016c0.677,0,1.378-0.074,2.112-0.24c0.029-0.006,0.058-0.012,0.087-0.018
		c0.252-0.057,0.511-0.125,0.77-0.207c0.39-0.113,0.78-0.252,1.183-0.412c0.401-0.168,0.81-0.352,1.223-0.563
		c0.276-0.139,0.551-0.287,0.827-0.449c0.482-0.281,0.959-0.58,1.43-0.908c4.003-2.783,7.494-7.246,9.739-12.092
		c1.665-3.6,2.646-7.414,2.636-10.917l-0.04-15.901l-0.012-3.755l-27.701,15.992L-105.466,116.632z M-79.447,83.791l0.052,17.791
		c0.011,2.98-0.798,6.219-2.177,9.297c-2.199,4.91-5.862,9.412-10.009,11.807c-0.04,0.023-0.074,0.045-0.114,0.063
		c-3.343,1.895-6.38,2.057-8.573,0.781c-0.018-0.012-0.029-0.018-0.041-0.023c-0.12-0.074-0.241-0.15-0.361-0.234
		c0,0-0.006,0-0.012-0.008c-0.114-0.078-0.229-0.166-0.339-0.264c-0.27-0.213-0.522-0.459-0.758-0.729
		c-0.08-0.092-0.155-0.184-0.229-0.281c-0.126-0.154-0.247-0.322-0.356-0.494c-0.086-0.137-0.172-0.275-0.253-0.418
		c-0.011-0.023-0.022-0.047-0.034-0.064c-0.074-0.145-0.148-0.293-0.218-0.441c-0.161-0.328-0.293-0.678-0.413-1.051
		c-0.063-0.186-0.115-0.375-0.167-0.57c-0.052-0.189-0.092-0.383-0.132-0.584c-0.006-0.012-0.006-0.023-0.012-0.035
		c-0.029-0.148-0.058-0.299-0.08-0.459c-0.012-0.074-0.023-0.148-0.035-0.225c0,0,0-0.006,0-0.012
		c-0.022-0.178-0.046-0.367-0.063-0.557c-0.018-0.172-0.035-0.344-0.04-0.521c-0.007-0.012-0.007-0.023,0-0.035
		c-0.012-0.098-0.012-0.189-0.018-0.287c-0.006-0.178-0.012-0.361-0.012-0.545l-0.052-17.784L-79.447,83.791z"/>
	<path fill="#FF5003" d="M-103.893,97.907l24.445-14.116l0.052,17.791c0.011,2.98-0.798,6.219-2.177,9.297
		c-2.199,4.91-5.862,9.412-10.009,11.807c-0.04,0.023-0.074,0.045-0.114,0.063c-3.343,1.895-6.38,2.057-8.573,0.781
		c-0.018-0.012-0.029-0.018-0.041-0.023c-0.126-0.074-0.241-0.15-0.361-0.234c0,0-0.006,0-0.012-0.008
		c-0.114-0.078-0.229-0.166-0.339-0.264c-0.27-0.213-0.522-0.459-0.758-0.729c-0.08-0.092-0.155-0.184-0.229-0.281
		c-0.126-0.154-0.247-0.322-0.356-0.494c-0.086-0.137-0.166-0.275-0.253-0.418c-0.011-0.023-0.022-0.047-0.034-0.064
		c-0.074-0.145-0.148-0.293-0.218-0.441c-0.155-0.334-0.293-0.678-0.413-1.051c-0.058-0.186-0.115-0.375-0.167-0.57
		c-0.046-0.189-0.092-0.383-0.132-0.584c-0.006-0.012-0.006-0.023-0.012-0.035c-0.029-0.148-0.052-0.305-0.08-0.459
		c-0.012-0.07-0.023-0.148-0.035-0.225c0,0,0-0.006,0-0.012c-0.022-0.184-0.046-0.367-0.063-0.557
		c-0.018-0.172-0.035-0.344-0.04-0.521c-0.007-0.012-0.007-0.023,0-0.035c-0.012-0.098-0.012-0.189-0.018-0.287
		c-0.006-0.178-0.012-0.361-0.012-0.545L-103.893,97.907z"/>
</g>
<g>
	<g enable-background="new    ">
		<g>
			<path fill="#AEB8B8" d="M-115.67,71.121l-0.199,70.214c-0.002,0.719-0.476,1.438-1.42,1.986
				c-1.897,1.104-4.989,1.104-6.902-0.002c-0.962-0.555-1.441-1.285-1.439-2.012l0.198-70.214c-0.002,0.728,0.479,1.457,1.44,2.012
				c1.913,1.105,5.004,1.105,6.902,0.002C-116.146,72.558-115.672,71.84-115.67,71.121z"/>
		</g>
		<g>
			<path fill="#AEB8B8" d="M-117.112,69.107c1.914,1.104,1.924,2.896,0.022,4c-1.898,1.104-4.989,1.104-6.902-0.002
				c-1.911-1.103-1.921-2.894-0.023-3.996C-122.113,68.003-119.022,68.003-117.112,69.107z"/>
		</g>
	</g>
</g>
<g>
	<g enable-background="new    ">
		<g>
			<path fill="#AEB8B8" d="M-115.67,107.94l-0.18,63.939c-1.37,0.08-2.761,0.12-4.15,0.12c-0.47,0-0.94,0-1.41-0.02
				c-0.58,0-1.15-0.021-1.72-0.051c-0.83-0.029-1.66-0.08-2.48-0.149l0.08-29.9l0.1-33.97c0,0.729,0.48,1.46,1.44,2.02
				c0.26,0.15,0.55,0.28,0.86,0.391c0.53,0.199,1.12,0.33,1.72,0.399c1.52,0.15,3.15-0.109,4.32-0.79
				c0.35-0.199,0.64-0.43,0.859-0.68c0.15-0.16,0.271-0.33,0.36-0.51c0.04-0.07,0.07-0.141,0.09-0.221
				c0.011-0.02,0.021-0.029,0.021-0.039C-115.7,108.31-115.67,108.13-115.67,107.94z"/>
		</g>
		<g>
			<path fill="#AEB8B8" d="M-117.112,105.929c1.914,1.105,1.924,2.895,0.022,4c-1.898,1.104-4.989,1.104-6.902-0.002
				c-1.911-1.104-1.921-2.893-0.023-3.996C-122.113,104.825-119.022,104.825-117.112,105.929z"/>
		</g>
	</g>
</g>
<path opacity="0.5" fill="#DFE9E9" d="M-121.41,86.15v85.831c-0.58,0-1.15-0.021-1.72-0.051V86.15H-121.41z"/>
<g>
	<polygon fill="#8C101C" points="-79.433,80.936 -137.711,47.068 -137.762,29.282 -79.482,63.149 	"/>
</g>
<g>
	<polygon fill="#A53725" points="-103.875,95.049 -162.153,61.181 -137.711,47.068 -79.433,80.936 	"/>
</g>
<polygon fill="#D74108" points="-79.493,80.983 -79.493,82.843 -103.611,96.768 -103.611,94.897 -79.499,80.977 "/>
<g>
	<path fill="#872A0F" d="M-141.331,21.448c19.427,11.289,38.852,22.578,58.278,33.868c2.196,1.276,3.56,3.987,3.57,7.834
		l-58.279-33.868C-137.772,25.434-139.136,22.724-141.331,21.448z"/>
</g>
<g>
	<g>
		<g>
			<g enable-background="new    ">
				<defs>
					<polygon id="SVGID_1_" enable-background="new    " points="-108.796,74.788 -108.743,56.256 -83.453,70.857 -83.506,89.39 
											"/>
				</defs>
				<clipPath id="SVGID_17_">
					<use xlink:href="#SVGID_1_"  overflow="visible"/>
				</clipPath>
				<g clip-path="url(#SVGID_17_)">
					<g>
						<g>
							<g>
								<path fill="#DFE9E9" d="M-107.942,60.349l0.705,14.434l5.742-4.125L-107.942,60.349 M-84.953,72.013l-5.744,4.121
									l6.442,10.297L-84.953,72.013"/>
								<path fill="#C8D2D2" d="M-108.748,57.966l0.846,17.338l24.401,12.375l-0.003-0.045l-24.398-12.374l0.665-0.478
									l-0.705-14.434l6.447,10.309l0.473-0.339L-108.748,57.966 M-84.317,70.956l0.001,0.006l-6.634,4.768l0.253,0.404
									l5.744-4.121l0.698,14.418l0.751,1.201L-84.317,70.956 M-84.347,70.342l-0.261,0.192l0.276,0.14L-84.347,70.342"/>
								<path fill="#DFE9E9" d="M-97.475,75.973l0.002,0.003c0.001,0.002,0.003,0.004,0.005,0.007
									C-97.471,75.979-97.473,75.976-97.475,75.973 M-91.42,76.067l-2.535,1.822c-0.484,0.347-1.16,0.278-1.838-0.113
									c-0.576-0.333-1.154-0.898-1.617-1.639l-0.407-0.646c0.104,0.159,0.209,0.312,0.325,0.458
									c-0.059-0.084-0.116-0.17-0.172-0.259l-2.831-4.527l-5.743,4.126l20.983,10.638L-91.42,76.067"/>
								<polyline fill="#C8D2D2" points="-90.95,75.729 -91.42,76.067 -85.255,85.925 -106.238,75.288 -100.495,71.162 
									-101.022,70.319 -101.495,70.658 -107.237,74.783 -107.902,75.261 -83.504,87.635 -83.501,87.636 -83.504,87.632 
									-84.255,86.431 -90.697,76.134 -90.95,75.729 								"/>
								<path opacity="0.302" fill="#AEB8B8" d="M-84.607,70.534l-0.005-0.002l-6.614,4.756l0.001,0.001l6.616-4.754L-84.607,70.534
									 M-84.329,70.675l-0.002-0.001l0.014,0.282L-84.329,70.675"/>
								<polyline fill="#C0CACA" points="-84.331,70.674 -84.607,70.534 -84.609,70.535 -91.226,75.289 -90.95,75.729 
									-84.316,70.961 -84.317,70.956 -84.331,70.674 								"/>
								<path fill="#D0DADA" d="M-91.696,75.626l-2.52,1.812c-0.484,0.344-1.161,0.272-1.838-0.119
									c-0.496-0.286-0.992-0.744-1.414-1.335c-0.002-0.002-0.004-0.005-0.005-0.007l-0.002-0.003
									c-0.006-0.008-0.013-0.017-0.018-0.024c-0.116-0.146-0.221-0.298-0.325-0.458l0.407,0.646
									c0.463,0.741,1.041,1.306,1.617,1.639c0.678,0.391,1.354,0.46,1.838,0.113l2.535-1.822L-91.696,75.626"/>
								<polyline fill="#C0CACA" points="-91.227,75.288 -91.696,75.626 -91.42,76.067 -90.95,75.729 -91.226,75.289 
									-91.227,75.288 								"/>
								<path fill="#B4E051" d="M-84.347,70.342l-24.401-12.376l7.726,12.354l0.527,0.842l2.831,4.527
									c0.056,0.089,0.113,0.175,0.172,0.259c0.005,0.008,0.012,0.016,0.018,0.024c0.002,0.003,0.004,0.006,0.007,0.01
									c0.422,0.591,0.918,1.049,1.414,1.335c0.677,0.391,1.354,0.463,1.838,0.119l2.52-1.812l0.47-0.338l6.614-4.756
									L-84.347,70.342"/>
							</g>
						</g>
					</g>
				</g>
			</g>
		</g>
	</g>
	<g>
		<g>
			<g enable-background="new    ">
				<defs>
					<polygon id="SVGID_3_" enable-background="new    " points="-107.364,79.828 -107.309,60.071 -81.438,75.007 -81.494,94.764 
											"/>
				</defs>
				<clipPath id="SVGID_18_">
					<use xlink:href="#SVGID_3_"  overflow="visible"/>
				</clipPath>
				<g clip-path="url(#SVGID_18_)">
					<g>
						<g>
							<g>
								<path fill="#DFE9E9" d="M-82.339,79.366l-6.739,2.342l5.396,10.851L-82.339,79.366 M-105.227,63.323l-1.338,13.191
									l6.734-2.342L-105.227,63.323"/>
								<path fill="#C8D2D2" d="M-81.446,78.008l-0.312,0.108l0.279,0.196l-0.027,0.264l-7.782,2.711l0.21,0.421l6.739-2.342
									l-1.344,13.193l0.623,1.253L-81.446,78.008 M-105.737,60.978l-1.618,15.85l24.291,17.03l0.005-0.042l-24.29-17.029
									l0.785-0.273l1.338-13.191l5.396,10.849l0.554-0.193L-105.737,60.978"/>
								<path fill="#DFE9E9" d="M-98.834,74.868l-6.738,2.342l20.89,14.647l-5.158-10.376l-2.976,1.036
									c-0.451,0.156-0.993,0.046-1.532-0.265c-0.716-0.413-1.426-1.181-1.908-2.147l-0.337-0.687
									c0.088,0.175,0.177,0.342,0.283,0.506c-0.054-0.095-0.106-0.193-0.156-0.293L-98.834,74.868"/>
								<polyline fill="#C8D2D2" points="-99.276,73.979 -99.83,74.171 -106.564,76.514 -107.35,76.787 -83.06,93.815 
									-83.058,93.817 -83.06,93.813 -83.683,92.56 -89.078,81.708 -89.288,81.288 -89.841,81.481 -84.683,91.857 -105.572,77.21 
									-98.834,74.868 -99.276,73.979 								"/>
								<polyline fill="#C0CACA" points="-81.758,78.116 -89.521,80.817 -89.288,81.288 -81.506,78.576 -81.479,78.312 
									-81.758,78.116 								"/>
								<path fill="#D0DADA" d="M-90.075,81.011l-2.958,1.029c-0.45,0.156-0.992,0.046-1.53-0.265
									c-0.642-0.371-1.276-1.024-1.747-1.851c-0.106-0.165-0.195-0.332-0.283-0.506l0.337,0.687
									c0.482,0.966,1.192,1.734,1.908,2.147c0.539,0.311,1.081,0.421,1.532,0.265l2.976-1.036L-90.075,81.011"/>
								<polyline fill="#C0CACA" points="-89.521,80.817 -90.075,81.011 -89.841,81.481 -89.288,81.288 -89.521,80.817 								"/>
								<path fill="#C0E6FF" d="M-105.737,60.978l6.461,13.001l0.442,0.889l2.367,4.763c0.05,0.1,0.103,0.198,0.156,0.293
									c0.471,0.826,1.105,1.48,1.747,1.851c0.538,0.311,1.08,0.421,1.53,0.265l2.958-1.029l0.554-0.193l7.764-2.701l0.312-0.108
									L-105.737,60.978"/>
							</g>
						</g>
					</g>
				</g>
			</g>
		</g>
	</g>
</g>
<path fill="#D74108" d="M-77.799,81.867l-0.059-19.656c-0.022-8.78-6.253-12.334-13.89-7.924
	c-7.644,4.416-13.833,15.137-13.805,23.917l0.052,19.656l1.889-1.092v-1.871l-0.264,0.154l-0.052-17.79
	c-0.022-7.74,5.443-17.209,12.185-21.103c6.736-3.888,12.237-0.752,12.26,6.988l0.053,17.79l-0.069,0.04l0.006,0.006v1.86
	L-77.799,81.867z"/>
<g>
	<polygon fill="#FF5003" points="-105.497,97.86 -163.776,63.991 -163.832,44.334 -105.554,78.202 	"/>
</g>
<g>
	<path fill="#FF5003" d="M-140.178,19.463l58.278,33.868c-2.519-1.464-6.006-1.261-9.848,0.958l-58.278-33.868
		C-146.184,18.203-142.697,17.999-140.178,19.463z"/>
</g>
<g>
	<path fill="#FF5003" d="M-105.554,78.202l-58.278-33.868c-0.024-8.78,6.166-19.502,13.807-23.913l58.278,33.868
		C-99.388,58.7-105.578,69.422-105.554,78.202z"/>
</g>
<path opacity="0.5" fill="#FF7832" d="M-97.869,59.679c-1.233,1.246-2.382,2.641-3.41,4.134l-58.313-33.822
	c1.027-1.493,2.17-2.888,3.399-4.134L-97.869,59.679z"/>
<g>
	<g>
		<g enable-background="new    ">
			<g>
				<polygon fill="#868E8E" points="-110.765,47.676 -110.06,47.266 -110.139,75.35 -110.844,75.76 				"/>
			</g>
			<g>
				<polygon fill="#969F9F" points="-118.911,42.972 -118.206,42.563 -110.06,47.266 -110.765,47.676 				"/>
			</g>
			<g>
				<polygon fill="#5D6363" points="-110.765,47.676 -110.844,75.76 -115.729,72.94 -115.682,56.558 -118.927,48.592 
					-118.911,42.972 				"/>
			</g>
		</g>
	</g>
</g>
<g>
	<g enable-background="new    ">
		<g>
			<path fill="#6D7777" d="M-116.489,71.163l1.619-0.94c0.592-0.345,1.413-0.296,2.318,0.227l-1.618,0.94
				C-115.076,70.867-115.896,70.818-116.489,71.163z"/>
		</g>
		<g>
			<path fill="#6D7777" d="M-110.253,78.167l-1.619,0.94c0.585-0.34,0.947-1.063,0.951-2.091c0.005-2.068-1.449-4.587-3.249-5.627
				l1.618-0.94c1.801,1.039,3.255,3.559,3.249,5.627C-109.306,77.103-109.668,77.827-110.253,78.167z"/>
		</g>
		<g>
			<path fill="#AEB8B8" d="M-114.17,71.389c1.8,1.04,3.254,3.559,3.249,5.627c-0.007,2.069-1.47,2.903-3.271,1.864
				c-1.801-1.04-3.254-3.559-3.248-5.627S-115.971,70.35-114.17,71.389z"/>
		</g>
	</g>
</g>
<g opacity="0.5">
	<g>
		<polygon fill="#D74108" points="-149.488,62.915 -149.083,62.68 -149.031,62.709 -149.437,62.945 		"/>
	</g>
	<g>
		<polygon fill="#FF7832" points="-153.689,55.228 -153.284,54.993 -153.307,62.904 -153.712,63.14 		"/>
	</g>
	<g>
		<path fill="#FF7832" d="M-149.941,61.033l0.404-0.235c0.229,0.782,0.378,1.408,0.454,1.882l-0.405,0.235
			C-149.563,62.441-149.713,61.815-149.941,61.033z"/>
	</g>
	<g>
		<path fill="#FF7832" d="M-153.755,52.438l0.404-0.235c0.046,0.786,0.069,1.715,0.066,2.789l-0.405,0.235
			C-153.686,54.153-153.71,53.225-153.755,52.438z"/>
	</g>
	<g>
		<polygon fill="#FF7832" points="-155.256,49.635 -154.852,49.4 -152.479,50.77 -152.884,51.005 		"/>
	</g>
	<g>
		<polygon fill="#FF7832" points="-152.884,51.005 -152.479,50.77 -149.537,60.798 -149.941,61.033 		"/>
	</g>
	<g>
		<polygon fill="#FF7832" points="-145.59,58.528 -145.186,58.293 -148.545,65.654 -148.949,65.889 		"/>
	</g>
	<g>
		<path fill="#D74108" d="M-145.257,57.345l0.405-0.235c-0.142,0.619-0.257,1.013-0.334,1.183l-0.404,0.235
			C-145.513,58.358-145.398,57.964-145.257,57.345z"/>
	</g>
	<g>
		<path fill="#D74108" d="M-143.623,56.352l-0.036,12.592l-1.683-0.972l0.023-8.131c0.002-0.708,0.037-1.536,0.106-2.471
			l-0.045-0.025c-0.142,0.619-0.256,1.013-0.333,1.183l-3.359,7.361l-1.111-0.642l-3.32-11.146c-0.084-0.281-0.196-0.827-0.33-1.638
			l-0.044-0.026c0.045,0.786,0.069,1.715,0.065,2.79l-0.022,7.912l-1.58-0.913l0.036-12.592l2.372,1.37l2.942,10.028
			c0.229,0.782,0.378,1.408,0.453,1.882l0.052,0.03c0.089-0.291,0.255-0.743,0.5-1.357l3.037-6.551L-143.623,56.352z"/>
	</g>
	<g>
		<polygon fill="#FF7832" points="-143.623,56.352 -143.218,56.116 -143.254,68.708 -143.659,68.944 		"/>
	</g>
	<g>
		<polygon fill="#FF7832" points="-145.899,55.037 -145.495,54.802 -143.218,56.116 -143.623,56.352 		"/>
	</g>
	<g>
		<polygon fill="#D74108" points="-131.501,75.671 -131.096,75.437 -131.1,76.726 -131.504,76.96 		"/>
	</g>
	<g>
		<path fill="#D74108" d="M-133.776,71.931l-0.405,0.235c0.273-0.159,0.488-0.467,0.645-0.924l0.404-0.235
			C-133.289,71.464-133.503,71.773-133.776,71.931z"/>
	</g>
	<g>
		<path fill="#FF7832" d="M-138.184,62.216l0.405-0.235c-0.03,0.017-0.06,0.035-0.088,0.053c-0.986,0.629-1.481,1.833-1.486,3.619
			c-0.005,1.744,0.441,3.399,1.345,4.963c0.902,1.563,2.137,2.795,3.706,3.701c1.213,0.7,2.284,1.074,3.206,1.121l-0.405,0.234
			c-0.921-0.046-1.992-0.42-3.206-1.121c-1.569-0.905-2.804-2.138-3.706-3.7c-0.902-1.563-1.35-3.219-1.345-4.963
			c0.005-1.786,0.501-2.989,1.486-3.619C-138.242,62.25-138.213,62.233-138.184,62.216z"/>
	</g>
	<g>
		<path fill="#D74108" d="M-135.797,65.729l0.405-0.234c-0.114,0.066-0.221,0.163-0.319,0.29c-0.356,0.456-0.535,1.15-0.538,2.09
			c-0.002,0.637,0.114,1.206,0.345,1.714c0.232,0.511,0.552,0.88,0.959,1.115c0.4,0.23,0.742,0.263,1.028,0.097l-0.405,0.235
			c-0.285,0.166-0.628,0.134-1.028-0.097c-0.407-0.235-0.726-0.604-0.959-1.115c-0.229-0.509-0.346-1.077-0.344-1.714
			c0.002-0.939,0.181-1.634,0.538-2.09C-136.018,65.893-135.911,65.796-135.797,65.729z"/>
	</g>
	<g>
		<path fill="#D74108" d="M-136.812,64.376l0.404-0.235c0.551-0.32,1.219-0.254,2.005,0.2c0.352,0.203,0.671,0.484,0.948,0.843
			c0.282,0.361,0.464,0.736,0.548,1.126l-0.404,0.234c-0.084-0.39-0.267-0.765-0.548-1.126c-0.278-0.359-0.597-0.64-0.948-0.843
			C-135.594,64.123-136.261,64.056-136.812,64.376z"/>
	</g>
	<g>
		<path fill="#FF7832" d="M-130.253,72.959l-0.404,0.235c-0.261,0.151-0.563,0.129-0.902-0.068c-0.528-0.305-0.79-0.991-0.787-2.065
			c0.001-0.409,0.123-1.976,0.37-4.707l0.404-0.235c-0.246,2.731-0.369,4.298-0.37,4.707c-0.003,1.074,0.259,1.761,0.788,2.066
			C-130.814,73.088-130.514,73.111-130.253,72.959z"/>
	</g>
	<g>
		<polygon fill="#D74108" points="-133.201,65.647 -132.797,65.412 -131.572,66.119 -131.977,66.354 		"/>
	</g>
	<g>
		<path fill="#FF7832" d="M-139.222,60.867l0.404-0.235c1.218-0.724,2.774-0.538,4.67,0.557c1.764,1.018,3.214,2.438,4.347,4.252
			l-0.404,0.235c-1.134-1.814-2.584-3.234-4.347-4.252C-136.447,60.33-138.004,60.144-139.222,60.867z"/>
	</g>
	<g>
		<path fill="#D74108" d="M-130.205,65.676c1.133,1.814,1.697,3.668,1.691,5.555c-0.004,1.445-0.322,2.435-0.959,2.961
			c-0.638,0.532-1.412,0.532-2.321,0.007c-1.114-0.644-1.681-1.62-1.699-2.931l-0.044-0.025c-0.371,1.086-1.072,1.33-2.106,0.733
			c-0.7-0.404-1.261-1.022-1.688-1.856c-0.432-0.835-0.642-1.758-0.639-2.777c0.004-1.332,0.304-2.26,0.9-2.781
			c0.596-0.516,1.35-0.512,2.263,0.015c0.352,0.203,0.67,0.484,0.948,0.843c0.281,0.361,0.464,0.736,0.548,1.126l0.109-0.898
			l1.225,0.707c-0.247,2.731-0.369,4.298-0.37,4.707c-0.003,1.074,0.259,1.761,0.787,2.065c0.506,0.293,0.925,0.201,1.253-0.276
			c0.328-0.481,0.496-1.241,0.499-2.286c0.004-1.529-0.414-3.019-1.254-4.476c-0.845-1.457-2.01-2.611-3.502-3.472
			c-1.484-0.857-2.722-0.973-3.708-0.348c-0.985,0.629-1.481,1.833-1.486,3.619c-0.005,1.744,0.442,3.399,1.345,4.963
			c0.902,1.563,2.137,2.795,3.706,3.7c1.214,0.701,2.285,1.075,3.206,1.121l-0.003,1.289c-0.889-0.077-2-0.5-3.335-1.271
			c-1.854-1.071-3.356-2.571-4.505-4.504c-1.146-1.929-1.718-3.938-1.712-6.022c0.007-2.145,0.62-3.575,1.834-4.296
			c1.218-0.723,2.774-0.538,4.67,0.557C-132.789,62.442-131.339,63.862-130.205,65.676z M-133.98,70.705
			c0.34-0.488,0.512-1.288,0.514-2.4c0.004-1.162-0.416-1.991-1.26-2.479c-0.572-0.33-1.034-0.264-1.389,0.194
			c-0.357,0.456-0.536,1.15-0.538,2.09c-0.002,0.637,0.114,1.205,0.344,1.714c0.233,0.511,0.552,0.88,0.959,1.115
			C-134.774,71.271-134.319,71.192-133.98,70.705L-133.98,70.705z"/>
	</g>
	<g>
		<path fill="#FF7832" d="M-129.328,74.139l-0.404,0.236c0.089-0.052,0.175-0.113,0.26-0.184c0.637-0.526,0.955-1.516,0.959-2.961
			c0.006-1.887-0.559-3.74-1.691-5.555l0.404-0.235c1.134,1.814,1.697,3.668,1.692,5.555c-0.005,1.445-0.323,2.435-0.96,2.962
			C-129.152,74.028-129.238,74.088-129.328,74.139z"/>
	</g>
	<g>
		<polygon fill="#FF7832" points="-126.163,70.04 -125.759,69.804 -124.095,70.765 -124.499,71 		"/>
	</g>
	<g>
		<polygon fill="#FF7832" points="-124.499,71 -124.095,70.765 -124.12,79.755 -124.525,79.991 		"/>
	</g>
	<g>
		<polygon fill="#D74108" points="-126.189,79.03 -126.163,70.04 -124.499,71 -124.525,79.991 		"/>
	</g>
	<g>
		<path fill="#D74108" d="M-126.046,66.238l0.404-0.235c0.006-0.004,0.012-0.007,0.019-0.011l-0.404,0.235
			C-126.034,66.231-126.04,66.234-126.046,66.238z"/>
	</g>
	<g>
		<path fill="#FF7832" d="M-124.134,68.396c-0.134,0.079-0.27,0.157-0.404,0.235c0.173-0.101,0.26-0.302,0.261-0.601
			c0-0.32-0.098-0.639-0.295-0.963c-0.201-0.327-0.442-0.568-0.729-0.733c-0.293-0.169-0.536-0.208-0.727-0.107l0.404-0.235
			c0.19-0.101,0.434-0.062,0.727,0.107c0.286,0.165,0.528,0.406,0.729,0.733c0.197,0.324,0.296,0.643,0.295,0.964
			C-123.874,68.094-123.961,68.295-124.134,68.396z"/>
	</g>
	<g>
		<path fill="#D74108" d="M-125.307,68.546c-0.29-0.167-0.529-0.41-0.723-0.736c-0.193-0.323-0.288-0.64-0.287-0.956
			c0.001-0.32,0.098-0.526,0.289-0.627c0.19-0.101,0.434-0.062,0.727,0.107c0.286,0.165,0.527,0.406,0.729,0.733
			c0.197,0.324,0.295,0.643,0.295,0.963c-0.001,0.32-0.102,0.528-0.3,0.62C-124.779,68.747-125.021,68.711-125.307,68.546z"/>
	</g>
	<g>
		<polygon fill="#FF7832" points="-120.498,68.985 -120.094,68.75 -120.131,82.058 -120.535,82.293 		"/>
	</g>
	<g>
		<polygon fill="#FF7832" points="-122.158,68.027 -121.754,67.792 -120.094,68.75 -120.498,68.985 		"/>
	</g>
	<g>
		<polygon fill="#D74108" points="-120.498,68.985 -120.535,82.293 -122.196,81.334 -122.158,68.027 		"/>
	</g>
</g>
<line fill="none" x1="-103.611" y1="97.061" x2="-103.611" y2="96.768"/>
<line fill="none" x1="-103.611" y1="94.897" x2="-103.611" y2="94.764"/>
<g>
	<g enable-background="new    ">
		<g>
			<path fill="#A53725" d="M-81.004,101.476c0.006,0.385-0.27,0.861-0.603,1.057h-0.006l-2.423-1.414
				c0.333-0.196,0.608-0.667,0.603-1.057L-81.004,101.476z"/>
		</g>
		<g>
			<polygon fill="#A53725" points="-83.433,100.061 -83.433,98.426 -83.438,97.954 -83.438,96.319 -82.025,97.139 -81.618,97.374 
				-81.009,97.731 -81.004,101.476 			"/>
		</g>
		<g>
			<path fill="#D74108" d="M-83.618,95.926l2.429,1.412c0.109,0.063,0.177,0.197,0.178,0.389l-2.429-1.41
				C-83.441,96.125-83.509,95.991-83.618,95.926z"/>
		</g>
		<g>
			<path fill="#D74108" d="M-83.331,95.428l2.428,1.41c-0.185-0.107-0.439-0.094-0.721,0.07l-2.429-1.412
				C-83.771,95.334-83.516,95.319-83.331,95.428z"/>
		</g>
		<g>
			<polygon fill="#A53725" points="-81.612,102.532 -97.902,111.937 -98.518,111.581 -98.925,111.341 -100.332,110.524 
				-98.931,109.716 -98.523,109.479 -84.035,101.118 			"/>
		</g>
		<g>
			<path fill="#D74108" d="M-98.34,111.979l-2.429-1.41c0.111,0.063,0.266,0.055,0.436-0.043l2.429,1.41
				C-98.074,112.036-98.229,112.044-98.34,111.979z"/>
		</g>
		<g>
			<path fill="#D74108" d="M-98.628,112.474l-2.429-1.41c-0.183-0.107-0.297-0.332-0.297-0.652l2.428,1.412
				C-98.925,112.142-98.811,112.368-98.628,112.474z"/>
		</g>
		<g>
			<polygon fill="#D74108" points="-98.926,111.823 -101.354,110.411 -101.364,106.665 -98.937,108.077 			"/>
		</g>
		<g>
			<polygon fill="#D74108" points="-97.92,106.317 -100.349,104.905 -84.053,95.497 -81.624,96.909 			"/>
		</g>
		<g>
			<path fill="#D74108" d="M-81.779,96.995l-0.246,0.145l-1.413,0.814l0.006,0.473l1.809-1.047c0,0,0.006,0,0.006-0.006
				c0.155-0.086,0.299-0.096,0.402-0.051L-81.779,96.995z M-80.607,97.495c0-0.326-0.114-0.557-0.304-0.66
				c-0.013-0.006-0.023-0.018-0.041-0.023c-0.028-0.006-0.052-0.016-0.08-0.021h-0.006c-0.04-0.012-0.086-0.018-0.132-0.018
				c-0.133,0-0.287,0.039-0.454,0.137l-0.155,0.086l-0.246,0.145l-1.413,0.814l-14.481,8.362c-0.563,0.328-1.017,1.119-1.017,1.764
				l0.006,1.637l0.006,1.625v0.482c0,0.068,0.005,0.131,0.017,0.189c0,0.016,0.006,0.035,0.012,0.045
				c0.006,0.053,0.023,0.104,0.046,0.15c0,0.016,0.011,0.029,0.018,0.045c0.022,0.047,0.052,0.086,0.08,0.121
				c0,0,0.006,0.006,0.012,0.006c0.028,0.033,0.058,0.063,0.092,0.08c0.006,0.006,0.017,0.012,0.022,0.018
				c0.184,0.104,0.442,0.092,0.725-0.074l16.296-9.406c0.563-0.322,1.017-1.115,1.011-1.758L-80.607,97.495z M-81.606,102.532
				h-0.006l-16.29,9.404c-0.099,0.059-0.196,0.086-0.276,0.086c-0.028,0-0.058-0.004-0.087-0.01c0,0,0,0-0.005,0
				c-0.023-0.006-0.046-0.018-0.069-0.035c-0.017-0.006-0.028-0.018-0.04-0.023c-0.086-0.074-0.138-0.201-0.138-0.367v-0.006
				l-0.006-2.102l-0.006-1.637c0-0.391,0.271-0.861,0.609-1.051l14.487-8.366l1.809-1.047c0,0,0.006,0,0.006-0.006
				c0.155-0.086,0.299-0.096,0.402-0.051c0.028,0.018,0.057,0.035,0.08,0.057c0.012,0.006,0.022,0.018,0.029,0.029
				c0.022,0.029,0.04,0.059,0.052,0.092c0.011,0.029,0.022,0.059,0.028,0.098c0.011,0.041,0.018,0.086,0.018,0.133l0.005,3.745
				C-80.998,101.86-81.273,102.337-81.606,102.532z"/>
			<path fill="#8C101C" d="M-83.433,98.426v1.635c0.006,0.391-0.27,0.861-0.603,1.057l-14.488,8.361l-0.006-1.637
				c0-0.391,0.271-0.861,0.609-1.051L-83.433,98.426z"/>
		</g>
		<g>
			<path fill="#FF5003" d="M-98.937,108.077l-2.428-1.412c-0.003-0.645,0.454-1.436,1.016-1.76l2.429,1.412
				C-98.481,106.642-98.938,107.433-98.937,108.077z"/>
		</g>
	</g>
</g>
</svg>
