<?xml version="1.0" encoding="utf-8"?>
<!-- Generator: Adobe Illustrator 16.0.0, SVG Export Plug-In . SVG Version: 6.00 Build 0)  -->
<!DOCTYPE svg PUBLIC "-//W3C//DTD SVG 1.1//EN" "http://www.w3.org/Graphics/SVG/1.1/DTD/svg11.dtd">
<svg version="1.1" xmlns="http://www.w3.org/2000/svg" xmlns:xlink="http://www.w3.org/1999/xlink" x="0px" y="0px" width="600px"
	 height="360px" viewBox="0 0 500 300" style="enable-background:new 0 0 500 300;" xml:space="preserve">
<g id="圖層_1">


	<g><!--circle-->
		
		<path id="circle" style="fill:#FFFFFF;" d="M249.035,25c-69.035,0-125,55.964-125,125c0,69.035,55.965,125,125,125s125-55.965,125-125
			C374.035,80.964,318.07,25,249.035,25z M258.391,146.625c-0.018,0.054-0.034,0.115-0.053,0.17
			c-0.07,0.223-0.143,0.455-0.222,0.678c-0.047,0.116-0.081,0.224-0.126,0.34c-0.098,0.25-0.197,0.5-0.304,0.75
			c-0.965,2.321-2.357,4.535-4.036,6.134c-0.143,0.134-0.285,0.267-0.437,0.393c-0.081,0.072-0.17,0.144-0.261,0.215
			c-0.071,0.063-0.143,0.116-0.215,0.17c-0.052,0.044-0.105,0.089-0.168,0.124c-0.08,0.071-0.17,0.135-0.259,0.188
			c-0.151,0.106-0.303,0.205-0.465,0.304c-0.151,0.098-0.313,0.188-0.473,0.268c-0.116,0.063-0.231,0.116-0.349,0.168
			c-0.49,0.224-0.99,0.395-1.51,0.501c-0.089,0.019-0.187,0.036-0.276,0.045c-0.294,0.044-0.599,0.071-0.901,0.071
			c-4.275,0-7.974-4.688-9.723-9.545c-0.143-0.383-0.26-0.758-0.375-1.143c-1.188-0.445-2.036-1.59-2.036-2.929
			c0-1.223,0.706-2.276,1.733-2.794c-0.046-0.116-0.1-0.242-0.083-0.357c0.028-0.179-0.042-0.356-0.009-0.536
			c0.009-0.063,0.02-0.116,0.028-0.179c0.036-0.24,0.072-0.473,0.134-0.705c0.045-0.143,0.062-0.275,0.107-0.41
			c0.055-0.152,0.098-0.313,0.152-0.464c0.063-0.152,0.115-0.296,0.177-0.446c0.26-0.582,0.563-1.143,0.922-1.67
			c0.098-0.144,0.195-0.286,0.303-0.42c0.518-0.696,1.115-1.33,1.786-1.875c0.134-0.107,0.267-0.215,0.41-0.321
			c0.276-0.214,0.563-0.401,0.857-0.58c0.106-0.072,0.223-0.134,0.33-0.196c0.188-0.107,0.393-0.215,0.588-0.305
			c0.161-0.08,0.324-0.152,0.483-0.223c0.027-0.009,0.053-0.027,0.081-0.037c0.294-0.115,0.598-0.231,0.91-0.319
			c0.205-0.072,0.429-0.126,0.644-0.18c0.132-0.035,0.267-0.063,0.4-0.089c0.304-0.063,0.616-0.116,0.931-0.152l1.248-6.268
			l1.25,6.268c0.526,0.063,1.045,0.16,1.546,0.295c0.312,0.08,0.624,0.178,0.928,0.294c0.196,0.072,0.384,0.144,0.563,0.224
			c0.134,0.063,0.269,0.116,0.401,0.188c0.205,0.09,0.403,0.197,0.589,0.305c0.117,0.063,0.224,0.124,0.332,0.196
			c0.498,0.294,0.973,0.634,1.411,1.017c0.123,0.1,0.24,0.207,0.355,0.322c0.117,0.107,0.242,0.224,0.349,0.34
			c0.492,0.49,0.929,1.035,1.322,1.625c0.07,0.105,0.143,0.223,0.205,0.339c0.071,0.116,0.143,0.231,0.204,0.348
			c0.055,0.089,0.108,0.187,0.152,0.277c0.054,0.098,0.099,0.196,0.143,0.294c0.063,0.116,0.116,0.242,0.171,0.357
			c0.053,0.116,0.098,0.232,0.143,0.349c0.044,0.106,0.089,0.214,0.115,0.321c0.063,0.15,0.108,0.295,0.151,0.446
			c0.046,0.134,0.089,0.276,0.125,0.41c0.056,0.206,0.106,0.411,0.144,0.625c0.035,0.18,0.071,0.357,0.098,0.536
			c0.036,0.206,0.055,0.41,0.08,0.616c0.009,0.16,0.028,0.321,0.037,0.482c0.704,0.544,1.159,1.401,1.159,2.356
			C260.311,145.106,259.518,146.196,258.391,146.625z"/>
		
		
		
	</g>
	<g><!--circle-2-->
		<path style="fill:#ECEFF1;" d="M255.999,144.821c0,1.821-1.479,3.308-3.301,3.308c-1.763,0-3.2-1.386-3.292-3.129h-2.699
			c-0.094,1.743-1.529,3.129-3.294,3.129c-0.192,0-0.385-0.015-0.57-0.051c-0.172-0.028-0.337-0.071-0.494-0.128
			c-1.299-0.443-2.235-1.679-2.235-3.129c0-1.414,0.886-2.621,2.136-3.093c0.028-0.014,0.064-0.021,0.093-0.028
			c0.043-0.015,0.086-0.029,0.137-0.043c0.291-0.093,0.606-0.143,0.935-0.143c1.029,0,1.95,0.687,2.564,1.435
			c0.2,0.25,0.372,0.051,0.493,1.051h3.171c0.493-2,1.679-2.271,3.057-2.271C254.521,141.729,255.999,143,255.999,144.821z"/>
		<path style="fill:#ECEFF1;" d="M249.035,50c-55.229,0-100,44.771-100,100s44.771,100,100,100s100-44.771,100-100
			S304.264,50,249.035,50z M256.52,147.3c-0.014,0.043-0.027,0.093-0.042,0.136c-0.057,0.179-0.114,0.364-0.178,0.543
			c-0.037,0.093-0.064,0.179-0.101,0.271c-0.078,0.2-0.158,0.4-0.243,0.6c-0.771,1.857-1.886,3.629-3.229,4.907
			c-0.114,0.107-0.229,0.214-0.35,0.314c-0.064,0.058-0.136,0.114-0.208,0.172c-0.058,0.05-0.114,0.093-0.172,0.136
			c-0.042,0.035-0.085,0.071-0.135,0.1c-0.064,0.057-0.136,0.107-0.207,0.15c-0.121,0.085-0.242,0.164-0.372,0.243
			c-0.121,0.078-0.25,0.149-0.378,0.214c-0.093,0.05-0.186,0.093-0.279,0.135c-0.392,0.179-0.792,0.315-1.207,0.4
			c-0.071,0.015-0.149,0.029-0.222,0.036c-0.235,0.035-0.479,0.057-0.721,0.057c-3.421,0-6.379-3.75-7.778-7.636
			c-0.114-0.307-0.208-0.606-0.3-0.914c-0.95-0.356-1.629-1.271-1.629-2.343c0-0.979,0.564-1.821,1.387-2.235
			c-0.037-0.093-0.08-0.193-0.066-0.286c0.022-0.143-0.034-0.285-0.007-0.429c0.007-0.05,0.016-0.093,0.022-0.143
			c0.028-0.192,0.058-0.379,0.106-0.564c0.036-0.114,0.05-0.221,0.086-0.328c0.044-0.122,0.078-0.25,0.122-0.371
			c0.05-0.122,0.093-0.236,0.142-0.357c0.208-0.465,0.451-0.914,0.737-1.336c0.078-0.114,0.156-0.229,0.242-0.336
			c0.414-0.557,0.893-1.063,1.429-1.5c0.107-0.086,0.214-0.172,0.328-0.257c0.222-0.171,0.45-0.321,0.687-0.464
			c0.085-0.058,0.178-0.107,0.264-0.157c0.15-0.086,0.314-0.172,0.471-0.243c0.129-0.064,0.259-0.122,0.387-0.179
			c0.021-0.007,0.042-0.021,0.064-0.029c0.235-0.093,0.479-0.186,0.729-0.256c0.164-0.058,0.343-0.101,0.515-0.144
			c0.105-0.028,0.213-0.05,0.32-0.071c0.243-0.05,0.493-0.093,0.744-0.122l0.999-5.014l1,5.014c0.421,0.051,0.836,0.129,1.236,0.236
			c0.249,0.064,0.499,0.143,0.742,0.235c0.157,0.058,0.308,0.114,0.45,0.179c0.107,0.05,0.215,0.093,0.321,0.15
			c0.164,0.071,0.322,0.157,0.471,0.243c0.094,0.05,0.179,0.1,0.266,0.157c0.398,0.235,0.778,0.507,1.129,0.813
			c0.099,0.079,0.192,0.165,0.284,0.258c0.094,0.086,0.194,0.179,0.279,0.271c0.394,0.393,0.743,0.828,1.058,1.3
			c0.057,0.085,0.114,0.179,0.164,0.271c0.058,0.093,0.114,0.186,0.163,0.278c0.044,0.071,0.087,0.149,0.122,0.222
			c0.043,0.078,0.079,0.157,0.114,0.235c0.05,0.093,0.093,0.193,0.137,0.286c0.042,0.093,0.078,0.186,0.114,0.278
			c0.035,0.085,0.071,0.171,0.092,0.257c0.051,0.121,0.087,0.236,0.121,0.357c0.037,0.107,0.071,0.221,0.101,0.328
			c0.044,0.165,0.085,0.329,0.114,0.5c0.028,0.144,0.058,0.286,0.078,0.429c0.029,0.165,0.044,0.328,0.064,0.493
			c0.007,0.128,0.022,0.257,0.029,0.386c0.563,0.436,0.928,1.121,0.928,1.886C258.056,146.085,257.421,146.957,256.52,147.3z"/>
		<path style="fill:#ECEFF1;" d="M246.471,144h-2.143c-0.172-1-0.45-0.957-0.801-1.529c-0.035-0.057-0.071-0.471-0.107-0.471h-0.007
			c-0.271,0-0.593-0.25-0.935-0.414c-0.044-0.015-0.094,0-0.137-0.014c0.336-0.123,0.693-0.119,1.071-0.119
			c1.036,0,1.957,0.724,2.564,1.487C246.178,143.19,246.35,143,246.471,144z"/>
		<path style="fill:#ECEFF1;" d="M246.707,145c-0.094,1.743-1.529,3.129-3.294,3.129c-0.192,0-0.385-0.015-0.57-0.051
			c-0.172-0.028-0.337-0.164-0.494-0.221c0.364-0.114,0.693-0.093,0.973-0.607c0.034-0.05,0.063-0.25,0.092-0.25h0.007
			c0.665-1,1.094-1.071,1.144-2H246.707z"/>
		<path style="fill:#ECEFF1;" d="M255.999,144.821c0,1.821-1.479,3.308-3.301,3.308c-1.763,0-3.2-1.386-3.292-3.129H248v-1h1.642
			c0.493-2,1.679-2.271,3.057-2.271C254.521,141.729,255.999,143,255.999,144.821z"/>
	</g>
	<g><!--circle3-->
		<path style="fill:#FFFFFF;" d="M250.82,148.929c0,0.729-0.591,1.323-1.32,1.323c-0.705,0-1.279-0.555-1.316-1.252h-1.08
			c-0.037,0.697-0.611,1.252-1.317,1.252c-0.077,0-0.153-0.006-0.228-0.021c-0.069-0.012-0.135-0.028-0.198-0.052
			c-0.52-0.177-0.894-0.671-0.894-1.251c0-0.565,0.354-1.049,0.854-1.237c0.012-0.006,0.026-0.009,0.037-0.012
			c0.018-0.006,0.035-0.012,0.055-0.017c0.117-0.037,0.243-0.058,0.374-0.058c0.412,0,0.78,0.476,1.026,0.774
			c0.08,0.1,0.148-0.38,0.197,0.62h1.268c0.197-1,0.672-1.108,1.223-1.108C250.229,147.892,250.82,148.2,250.82,148.929z"/>
		<path style="fill:#FFFFFF;" d="M248.035,111c-22.092,0-40,17.908-40,40s17.908,40,40,40s40-17.908,40-40S270.127,111,248.035,111z
			 M251.029,149.92c-0.006,0.018-0.012,0.037-0.018,0.055c-0.022,0.071-0.045,0.146-0.07,0.217
			c-0.016,0.037-0.026,0.071-0.041,0.108c-0.031,0.08-0.063,0.16-0.097,0.24c-0.309,0.743-0.755,1.451-1.292,1.963
			c-0.045,0.043-0.091,0.085-0.14,0.126c-0.025,0.022-0.054,0.045-0.083,0.068c-0.023,0.02-0.046,0.037-0.068,0.055
			c-0.018,0.014-0.034,0.028-0.055,0.039c-0.025,0.023-0.054,0.043-0.082,0.061c-0.049,0.034-0.098,0.065-0.149,0.098
			c-0.048,0.031-0.1,0.06-0.151,0.085c-0.037,0.021-0.074,0.037-0.111,0.054c-0.156,0.072-0.316,0.127-0.482,0.16
			c-0.029,0.006-0.061,0.012-0.089,0.015c-0.095,0.015-0.191,0.022-0.288,0.022c-1.369,0-2.552-1.5-3.111-3.054
			c-0.046-0.123-0.084-0.243-0.12-0.366c-0.38-0.143-0.651-0.508-0.651-0.937c0-0.392,0.226-0.729,0.555-0.895
			c-0.016-0.037-0.032-0.077-0.027-0.114c0.01-0.057-0.014-0.114-0.002-0.172c0.002-0.02,0.006-0.037,0.009-0.057
			c0.011-0.077,0.022-0.151,0.042-0.226c0.015-0.046,0.021-0.089,0.035-0.132c0.018-0.049,0.031-0.1,0.049-0.148
			c0.02-0.049,0.037-0.094,0.057-0.143c0.083-0.186,0.18-0.365,0.295-0.534c0.031-0.046,0.063-0.092,0.097-0.135
			c0.165-0.223,0.356-0.425,0.571-0.6c0.043-0.034,0.086-0.069,0.131-0.103c0.089-0.068,0.181-0.129,0.275-0.186
			c0.033-0.023,0.07-0.043,0.105-0.063c0.06-0.034,0.125-0.068,0.188-0.097c0.052-0.026,0.104-0.049,0.155-0.072
			c0.009-0.002,0.017-0.008,0.025-0.012c0.095-0.037,0.191-0.074,0.292-0.102c0.065-0.023,0.137-0.041,0.205-0.058
			c0.043-0.012,0.086-0.021,0.129-0.028c0.097-0.021,0.197-0.037,0.297-0.049l0.4-2.006l0.399,2.006
			c0.169,0.02,0.335,0.051,0.495,0.094c0.1,0.026,0.199,0.058,0.297,0.095c0.063,0.022,0.123,0.046,0.18,0.071
			c0.043,0.02,0.086,0.037,0.129,0.061c0.065,0.028,0.129,0.063,0.188,0.097c0.038,0.021,0.072,0.04,0.106,0.063
			c0.159,0.094,0.312,0.202,0.452,0.325c0.039,0.031,0.076,0.065,0.113,0.103c0.037,0.035,0.078,0.072,0.111,0.109
			c0.158,0.156,0.298,0.331,0.424,0.52c0.022,0.034,0.045,0.071,0.065,0.108c0.022,0.037,0.046,0.074,0.065,0.111
			c0.018,0.028,0.034,0.06,0.049,0.089c0.017,0.031,0.031,0.063,0.045,0.094c0.021,0.037,0.037,0.078,0.055,0.115
			s0.031,0.074,0.046,0.111c0.015,0.033,0.028,0.068,0.037,0.103c0.021,0.048,0.034,0.095,0.048,0.143
			c0.016,0.043,0.029,0.089,0.041,0.132c0.018,0.065,0.033,0.131,0.045,0.199c0.012,0.058,0.023,0.115,0.031,0.172
			c0.012,0.066,0.018,0.131,0.026,0.197c0.003,0.051,0.009,0.103,0.012,0.154c0.226,0.174,0.371,0.448,0.371,0.754
			C251.644,149.434,251.39,149.783,251.029,149.92z"/>
		<path style="fill:#FFFFFF;" d="M247.01,148.6h-0.857c-0.068-0.399-0.18-0.383-0.32-0.611c-0.014-0.022-0.028-0.188-0.043-0.188
			h-0.003c-0.108,0-0.237-0.1-0.374-0.165c-0.018-0.006-0.037,0-0.055-0.006c0.135-0.049,0.277-0.048,0.429-0.048
			c0.415,0,0.783,0.29,1.026,0.595C246.893,148.276,246.961,148.2,247.01,148.6z"/>
		<path style="fill:#FFFFFF;" d="M247.104,149c-0.037,0.697-0.611,1.252-1.317,1.252c-0.077,0-0.153-0.006-0.228-0.021
			c-0.069-0.012-0.135-0.065-0.198-0.089c0.146-0.045,0.277-0.037,0.39-0.242c0.014-0.021,0.025-0.101,0.036-0.101h0.003
			c0.266-0.399,0.438-0.429,0.457-0.8H247.104z"/>
		<path style="fill:#FFFFFF;" d="M250.82,148.929c0,0.729-0.591,1.323-1.32,1.323c-0.705,0-1.279-0.555-1.316-1.252H248l0,0h0.277
			c0.197-1,0.672-1.108,1.223-1.108C250.229,147.892,250.82,148.2,250.82,148.929z"/>
	</g>
	<g>
		<path style="fill:#FFFFFF;" d="M184,172c0,1.104-0.896,2-2,2h-68c-1.104,0-2-0.896-2-2v-36c0-1.104,0.896-2,2-2h68
			c1.104,0,2,0.896,2,2V172z"/>
		<path style="fill:none;stroke:#90A4AE;stroke-miterlimit:10;" d="M184.5,172.5c0,1.104-0.896,2-2,2h-68c-1.104,0-2-0.896-2-2v-36
			c0-1.104,0.896-2,2-2h68c1.104,0,2,0.896,2,2V172.5z"/>
	</g>
	<rect x="118" y="139" style="fill:#CFD8DC;" width="60" height="30"/>
	<g>
		<path style="fill-rule:evenodd;clip-rule:evenodd;fill:#FFFFFF;" d="M152.176,150.546c-0.004,0.002-0.008,0.004-0.012,0.008
			c-0.26,0.174-0.52,0.354-0.775,0.543c-0.063,0.045-0.123,0.09-0.186,0.138c-0.184,0.136-0.367,0.281-0.547,0.433
			c-0.053,0.047-0.109,0.094-0.166,0.142c-0.086,0.073-0.172,0.148-0.258,0.231c-0.055,0.05-0.113,0.104-0.168,0.16
			c-0.064,0.059-0.127,0.12-0.188,0.182c-0.176,0.176-0.35,0.365-0.521,0.568c-0.041,0.047-0.08,0.093-0.119,0.14
			c-0.041,0.05-0.078,0.099-0.121,0.149c-0.043,0.055-0.09,0.113-0.135,0.174c-0.012,0.012-0.021,0.027-0.033,0.043
			c-0.049,0.063-0.098,0.129-0.145,0.196c-0.125,0.171-0.248,0.35-0.369,0.539c-0.086,0.128-0.168,0.263-0.252,0.399
			c-0.004,0.008-0.01,0.015-0.012,0.021c-0.031,0.049-0.059,0.099-0.088,0.148c-0.289,0.498-0.572,1.053-0.85,1.684
			c-0.02,0.043-0.041,0.088-0.059,0.135c-0.037,0.081-0.074,0.166-0.109,0.25l-2.977-4.289v-0.002
			C145.029,148.223,150.188,147.768,152.176,150.546z"/>
		<path style="fill-rule:evenodd;clip-rule:evenodd;fill:#FFFFFF;" d="M155.738,159.515h-14.473
			c-2.301-0.685-2.854-6.322,1.908-5.967l3.945,5.701c0.453-1.098,0.957-2.264,1.551-3.371v3.25h1.775
			c0.35,0,0.627-0.029,0.836-0.089c0.277-0.079,0.5-0.191,0.662-0.335c0.219-0.188,0.383-0.434,0.502-0.738
			c0.094-0.249,0.141-0.545,0.141-0.889c0-0.394-0.051-0.723-0.15-0.99c-0.102-0.266-0.252-0.492-0.447-0.677
			c-0.197-0.185-0.43-0.313-0.705-0.386c-0.205-0.053-0.5-0.079-0.889-0.079h-1.193c0.176-0.296,0.363-0.584,0.561-0.862
			c0.041-0.061,0.084-0.123,0.129-0.185c0.021-0.033,0.047-0.063,0.07-0.095c0.039-0.058,0.08-0.115,0.123-0.168
			c0.027-0.037,0.057-0.074,0.086-0.111c0.039-0.049,0.078-0.1,0.119-0.148c0.063-0.084,0.133-0.168,0.201-0.248
			c0.074-0.089,0.152-0.175,0.229-0.262c0.006-0.004,0.008-0.006,0.01-0.011c0.082-0.088,0.164-0.175,0.248-0.26
			c0.043-0.044,0.084-0.085,0.127-0.126c0.035-0.036,0.07-0.072,0.109-0.105c0.137-0.129,0.273-0.252,0.416-0.368
			c0.068-0.058,0.141-0.117,0.211-0.17c0.021-0.018,0.043-0.034,0.061-0.049c0.061-0.045,0.121-0.088,0.182-0.13
			c0.012-0.011,0.023-0.018,0.033-0.023c0.154-0.111,0.496-0.289,0.5-0.279c2.145-0.857,4.721,1.379,3.371,3.479
			C158.664,155.274,158.828,158.981,155.738,159.515z"/>
		<path style="fill-rule:evenodd;clip-rule:evenodd;fill:#FFFFFF;" d="M151.611,157.038c0,0.324-0.031,0.579-0.096,0.767
			c-0.063,0.187-0.146,0.322-0.244,0.403c-0.105,0.083-0.23,0.142-0.385,0.176c-0.115,0.025-0.307,0.038-0.57,0.038h-0.703v-2.77
			h0.422c0.385,0,0.645,0.015,0.775,0.04c0.176,0.035,0.322,0.1,0.439,0.197c0.111,0.097,0.203,0.231,0.266,0.405
			C151.58,156.468,151.611,156.716,151.611,157.038z"/>
	</g>
		<path style="fill:none;stroke:#FFB74D;stroke-miterlimit:10;" d="M276,148c0,0,1.688,1.688,3.75,3.75s8.25,3.75,13.75,3.75H310"/>
		<g>
		<circle style="fill:#FFA726;" cx="0" cy="0" r="3"/>
		<animateMotion dur="4s"  path="M276,148c0,0,1.688,1.688,3.75,3.75s8.25,3.75,13.75,3.75H310"  repeatCount="indefinite"  keyPoints="0;1" keyTimes="0;1"  />
		<animate dur=".5s" attributeName="opacity" from="1" to=".5"  repeatCount="indefinite" /> 
	</g>
	<g>
		<path style="fill:#FFFFFF;" d="M184,81c0,1.104-0.896,2-2,2h-68c-1.104,0-2-0.896-2-2V45c0-1.104,0.896-2,2-2h68
			c1.104,0,2,0.896,2,2V81z"/>
		<path style="fill:none;stroke:#90A4AE;stroke-miterlimit:10;" d="M184.5,80.5c0,1.104-0.896,2-2,2h-68c-1.104,0-2-0.896-2-2v-36
			c0-1.104,0.896-2,2-2h68c1.104,0,2,0.896,2,2V80.5z"/>
	</g>
	<rect x="118" y="48" style="fill:#CFD8DC;" width="60" height="29"/>
	<g>
		<path style="fill-rule:evenodd;clip-rule:evenodd;fill:#FFFFFF;" d="M152.176,59.379c-0.004,0.002-0.008,0.004-0.012,0.008
			c-0.26,0.174-0.52,0.354-0.775,0.543c-0.063,0.045-0.123,0.09-0.186,0.138c-0.184,0.135-0.367,0.281-0.547,0.433
			c-0.053,0.046-0.109,0.093-0.166,0.142c-0.086,0.073-0.172,0.148-0.258,0.231c-0.055,0.05-0.113,0.103-0.168,0.16
			c-0.064,0.059-0.127,0.121-0.188,0.182c-0.176,0.176-0.35,0.366-0.521,0.569c-0.041,0.046-0.08,0.093-0.119,0.14
			c-0.041,0.049-0.078,0.099-0.121,0.149c-0.043,0.055-0.09,0.113-0.135,0.173c-0.012,0.012-0.021,0.027-0.033,0.043
			c-0.049,0.063-0.098,0.129-0.145,0.196c-0.125,0.171-0.248,0.35-0.369,0.539c-0.086,0.128-0.168,0.263-0.252,0.399
			c-0.004,0.007-0.01,0.015-0.012,0.021c-0.031,0.049-0.059,0.099-0.088,0.148c-0.289,0.499-0.572,1.053-0.85,1.684
			c-0.02,0.043-0.041,0.088-0.059,0.135c-0.037,0.081-0.074,0.166-0.109,0.25l-2.977-4.289v-0.002
			C145.029,57.056,150.188,56.601,152.176,59.379z"/>
		<path style="fill-rule:evenodd;clip-rule:evenodd;fill:#FFFFFF;" d="M155.738,68.348h-14.473
			c-2.301-0.684-2.854-6.322,1.908-5.966l3.945,5.701c0.453-1.098,0.957-2.263,1.551-3.371v3.25h1.775
			c0.35,0,0.627-0.029,0.836-0.088c0.277-0.079,0.5-0.191,0.662-0.335c0.219-0.188,0.383-0.434,0.502-0.738
			c0.094-0.249,0.141-0.545,0.141-0.889c0-0.394-0.051-0.723-0.15-0.99c-0.102-0.266-0.252-0.492-0.447-0.677
			c-0.197-0.185-0.43-0.314-0.705-0.386c-0.205-0.053-0.5-0.079-0.889-0.079h-1.193c0.176-0.296,0.363-0.584,0.561-0.863
			c0.041-0.061,0.084-0.123,0.129-0.184c0.021-0.033,0.047-0.064,0.07-0.095c0.039-0.057,0.08-0.115,0.123-0.167
			c0.027-0.037,0.057-0.075,0.086-0.111c0.039-0.049,0.078-0.1,0.119-0.148c0.063-0.084,0.133-0.168,0.201-0.249
			c0.074-0.088,0.152-0.174,0.229-0.262c0.006-0.004,0.008-0.006,0.01-0.01c0.082-0.088,0.164-0.175,0.248-0.26
			c0.043-0.044,0.084-0.085,0.127-0.126c0.035-0.036,0.07-0.073,0.109-0.106c0.137-0.129,0.273-0.252,0.416-0.368
			c0.068-0.058,0.141-0.117,0.211-0.17c0.021-0.018,0.043-0.035,0.061-0.049c0.061-0.045,0.121-0.088,0.182-0.13
			c0.012-0.01,0.023-0.017,0.033-0.023c0.154-0.111,0.496-0.289,0.5-0.279c2.145-0.857,4.721,1.379,3.371,3.479
			C158.664,64.107,158.828,67.814,155.738,68.348z"/>
		<path style="fill-rule:evenodd;clip-rule:evenodd;fill:#FFFFFF;" d="M151.611,65.871c0,0.324-0.031,0.58-0.096,0.767
			c-0.063,0.186-0.146,0.322-0.244,0.403c-0.105,0.083-0.23,0.142-0.385,0.176c-0.115,0.025-0.307,0.038-0.57,0.038h-0.703v-2.77
			h0.422c0.385,0,0.645,0.014,0.775,0.04c0.176,0.035,0.322,0.1,0.439,0.197c0.111,0.097,0.203,0.232,0.266,0.406
			C151.58,65.301,151.611,65.549,151.611,65.871z"/>
	</g>
	<g>
		<path style="fill:#FFFFFF;" d="M139,121c0,1.104-0.896,2-2,2H87c-1.104,0-2-0.896-2-2V95c0-1.104,0.896-2,2-2h50
			c1.104,0,2,0.896,2,2V121z"/>
		<path style="fill:none;stroke:#FFA726;stroke-miterlimit:10;" d="M139.5,121.5c0,1.104-0.896,2-2,2h-50c-1.104,0-2-0.896-2-2v-26
			c0-1.104,0.896-2,2-2h50c1.104,0,2,0.896,2,2V121.5z"/>
	</g>
	<rect x="90" y="98" style="fill:#FFE0B2;" width="45" height="21"/>
	<g>
		<path style="fill-rule:evenodd;clip-rule:evenodd;fill:#F57C00;" d="M115.258,105.96c-0.004,0.001-0.006,0.003-0.01,0.006
			c-0.195,0.13-0.389,0.265-0.582,0.407c-0.047,0.033-0.092,0.067-0.139,0.104c-0.137,0.102-0.275,0.211-0.41,0.324
			c-0.039,0.035-0.082,0.07-0.125,0.107c-0.064,0.054-0.129,0.111-0.193,0.172c-0.041,0.039-0.084,0.078-0.125,0.121
			c-0.049,0.043-0.096,0.09-0.141,0.136c-0.133,0.132-0.264,0.274-0.393,0.427c-0.029,0.035-0.059,0.07-0.088,0.105
			c-0.031,0.036-0.059,0.072-0.092,0.111c-0.031,0.041-0.066,0.084-0.102,0.13c-0.008,0.009-0.016,0.021-0.023,0.032
			c-0.037,0.049-0.074,0.097-0.109,0.148c-0.094,0.127-0.186,0.262-0.275,0.404c-0.064,0.095-0.127,0.195-0.189,0.299
			c-0.004,0.006-0.008,0.012-0.01,0.016c-0.023,0.037-0.043,0.074-0.064,0.111c-0.217,0.373-0.43,0.789-0.639,1.263
			c-0.014,0.032-0.029,0.065-0.043,0.101c-0.027,0.063-0.057,0.125-0.082,0.188l-2.232-3.217v-0.001
			C109.896,104.219,113.766,103.877,115.258,105.96z"/>
		<path style="fill-rule:evenodd;clip-rule:evenodd;fill:#F57C00;" d="M117.93,112.687h-10.855
			c-1.725-0.513-2.141-4.741,1.432-4.476l2.959,4.276c0.34-0.823,0.717-1.698,1.162-2.528v2.438h1.332
			c0.262,0,0.471-0.021,0.627-0.066c0.209-0.06,0.375-0.143,0.496-0.252c0.164-0.141,0.287-0.324,0.377-0.553
			c0.07-0.187,0.105-0.409,0.105-0.667c0-0.294-0.037-0.542-0.113-0.743c-0.076-0.199-0.188-0.369-0.334-0.506
			c-0.148-0.14-0.322-0.236-0.529-0.291c-0.154-0.039-0.375-0.059-0.666-0.059h-0.896c0.133-0.223,0.273-0.438,0.422-0.646
			c0.029-0.046,0.063-0.093,0.096-0.139c0.016-0.024,0.035-0.048,0.053-0.071c0.029-0.042,0.061-0.087,0.092-0.126
			c0.021-0.027,0.043-0.056,0.064-0.084c0.029-0.036,0.059-0.074,0.09-0.111c0.047-0.063,0.1-0.125,0.15-0.186
			c0.057-0.066,0.115-0.131,0.172-0.196c0.004-0.003,0.006-0.005,0.008-0.007c0.061-0.066,0.123-0.133,0.186-0.195
			c0.033-0.033,0.063-0.064,0.096-0.096c0.025-0.025,0.053-0.054,0.082-0.078c0.102-0.098,0.205-0.189,0.313-0.275
			c0.051-0.045,0.105-0.088,0.158-0.128c0.016-0.013,0.031-0.026,0.045-0.036c0.045-0.034,0.09-0.066,0.137-0.099
			c0.008-0.007,0.016-0.013,0.023-0.018c0.117-0.083,0.373-0.217,0.375-0.21c1.609-0.643,3.541,1.035,2.529,2.609
			C120.123,109.506,120.246,112.287,117.93,112.687z"/>
		<path style="fill-rule:evenodd;clip-rule:evenodd;fill:#F57C00;" d="M114.834,110.829c0,0.243-0.023,0.435-0.072,0.575
			c-0.047,0.14-0.109,0.242-0.184,0.303c-0.078,0.063-0.172,0.106-0.287,0.131c-0.088,0.02-0.23,0.029-0.43,0.029h-0.527v-2.076
			h0.318c0.287,0,0.482,0.01,0.58,0.029c0.133,0.025,0.242,0.074,0.33,0.147c0.084,0.073,0.152,0.175,0.199,0.305
			C114.811,110.401,114.834,110.588,114.834,110.829z"/>
	</g>
	<g>
		<path style="fill:#FFFFFF;" d="M137,213c0,1.104-0.896,2-2,2H85c-1.104,0-2-0.896-2-2v-26c0-1.104,0.896-2,2-2h50
			c1.104,0,2,0.896,2,2V213z"/>
		<path style="fill:none;stroke:#90A4AE;stroke-miterlimit:10;" d="M137.5,212.5c0,1.104-0.896,2-2,2h-50c-1.104,0-2-0.896-2-2v-26
			c0-1.104,0.896-2,2-2h50c1.104,0,2,0.896,2,2V212.5z"/>
	</g>
	<rect x="88" y="189" style="fill:#CFD8DC;" width="45" height="21"/>
	<g>
		<path style="fill-rule:evenodd;clip-rule:evenodd;fill:#FFFFFF;" d="M113.258,197.46c-0.004,0.001-0.006,0.003-0.01,0.006
			c-0.195,0.13-0.389,0.265-0.582,0.407c-0.047,0.033-0.092,0.067-0.139,0.104c-0.137,0.102-0.275,0.211-0.41,0.324
			c-0.039,0.035-0.082,0.07-0.125,0.107c-0.064,0.054-0.129,0.111-0.193,0.172c-0.041,0.039-0.084,0.078-0.125,0.121
			c-0.049,0.043-0.096,0.09-0.141,0.136c-0.133,0.132-0.264,0.274-0.393,0.427c-0.029,0.035-0.059,0.07-0.088,0.105
			c-0.031,0.036-0.059,0.072-0.092,0.111c-0.031,0.041-0.066,0.084-0.102,0.13c-0.008,0.009-0.016,0.021-0.023,0.032
			c-0.037,0.049-0.074,0.097-0.109,0.148c-0.094,0.127-0.186,0.262-0.275,0.404c-0.064,0.095-0.127,0.195-0.189,0.299
			c-0.004,0.006-0.008,0.012-0.01,0.016c-0.023,0.037-0.043,0.074-0.064,0.111c-0.217,0.373-0.43,0.789-0.639,1.263
			c-0.014,0.032-0.029,0.065-0.043,0.101c-0.027,0.063-0.057,0.125-0.082,0.188l-2.232-3.217v-0.001
			C107.896,195.719,111.766,195.377,113.258,197.46z"/>
		<path style="fill-rule:evenodd;clip-rule:evenodd;fill:#FFFFFF;" d="M115.93,204.187h-10.855
			c-1.725-0.513-2.141-4.741,1.432-4.476l2.959,4.276c0.34-0.823,0.717-1.698,1.162-2.528v2.438h1.332
			c0.262,0,0.471-0.021,0.627-0.066c0.209-0.06,0.375-0.143,0.496-0.252c0.164-0.141,0.287-0.324,0.377-0.553
			c0.07-0.187,0.105-0.409,0.105-0.667c0-0.294-0.037-0.542-0.113-0.743c-0.076-0.199-0.188-0.369-0.334-0.506
			c-0.148-0.14-0.322-0.236-0.529-0.291c-0.154-0.039-0.375-0.059-0.666-0.059h-0.896c0.133-0.223,0.273-0.438,0.422-0.646
			c0.029-0.046,0.063-0.093,0.096-0.139c0.016-0.024,0.035-0.048,0.053-0.071c0.029-0.042,0.061-0.087,0.092-0.126
			c0.021-0.027,0.043-0.056,0.064-0.084c0.029-0.036,0.059-0.074,0.09-0.111c0.047-0.063,0.1-0.125,0.15-0.186
			c0.057-0.066,0.115-0.131,0.172-0.196c0.004-0.003,0.006-0.005,0.008-0.007c0.061-0.066,0.123-0.133,0.186-0.195
			c0.033-0.033,0.063-0.064,0.096-0.096c0.025-0.025,0.053-0.054,0.082-0.078c0.102-0.098,0.205-0.189,0.313-0.275
			c0.051-0.045,0.105-0.088,0.158-0.128c0.016-0.013,0.031-0.026,0.045-0.036c0.045-0.034,0.09-0.066,0.137-0.099
			c0.008-0.007,0.016-0.013,0.023-0.018c0.117-0.083,0.373-0.217,0.375-0.21c1.609-0.643,3.541,1.035,2.529,2.609
			C118.123,201.006,118.246,203.787,115.93,204.187z"/>
		<path style="fill-rule:evenodd;clip-rule:evenodd;fill:#FFFFFF;" d="M112.834,202.329c0,0.243-0.023,0.435-0.072,0.575
			c-0.047,0.14-0.109,0.242-0.184,0.303c-0.078,0.063-0.172,0.106-0.287,0.131c-0.088,0.02-0.23,0.029-0.43,0.029h-0.527v-2.076
			h0.318c0.287,0,0.482,0.01,0.58,0.029c0.133,0.025,0.242,0.074,0.33,0.147c0.084,0.073,0.152,0.175,0.199,0.305
			C112.811,201.901,112.834,202.088,112.834,202.329z"/>
	</g>
	<g>
		<path style="fill:#FFFFFF;" d="M184,264c0,1.104-0.896,2-2,2h-68c-1.104,0-2-0.896-2-2v-36c0-1.104,0.896-2,2-2h68
			c1.104,0,2,0.896,2,2V264z"/>
		<path style="fill:none;stroke:#FFA726;stroke-miterlimit:10;" d="M184.5,263.5c0,1.104-0.896,2-2,2h-68c-1.104,0-2-0.896-2-2v-36
			c0-1.104,0.896-2,2-2h68c1.104,0,2,0.896,2,2V263.5z"/>
	</g>
	<rect x="118" y="231" style="fill:#FFE0B2;" width="60" height="29"/>
	<g>
		<path style="fill-rule:evenodd;clip-rule:evenodd;fill:#F57C00;" d="M152.176,242.379c-0.004,0.002-0.008,0.004-0.012,0.008
			c-0.26,0.175-0.52,0.354-0.775,0.543c-0.063,0.046-0.123,0.091-0.186,0.138c-0.184,0.136-0.367,0.281-0.547,0.434
			c-0.053,0.046-0.109,0.093-0.166,0.141c-0.086,0.073-0.172,0.148-0.258,0.232c-0.055,0.049-0.113,0.103-0.168,0.159
			c-0.064,0.06-0.127,0.12-0.188,0.182c-0.176,0.177-0.35,0.366-0.521,0.569c-0.041,0.046-0.08,0.092-0.119,0.139
			c-0.041,0.05-0.078,0.1-0.121,0.15c-0.043,0.055-0.09,0.113-0.135,0.173c-0.012,0.012-0.021,0.027-0.033,0.044
			c-0.049,0.063-0.098,0.129-0.145,0.195c-0.125,0.172-0.248,0.35-0.369,0.539c-0.086,0.129-0.168,0.264-0.252,0.4
			c-0.004,0.007-0.01,0.014-0.012,0.021c-0.031,0.049-0.059,0.098-0.088,0.147c-0.289,0.499-0.572,1.054-0.85,1.684
			c-0.02,0.043-0.041,0.089-0.059,0.136c-0.037,0.08-0.074,0.165-0.109,0.25l-2.977-4.289v-0.003
			C145.029,240.056,150.188,239.601,152.176,242.379z"/>
		<path style="fill-rule:evenodd;clip-rule:evenodd;fill:#F57C00;" d="M155.738,251.348h-14.473
			c-2.301-0.685-2.854-6.321,1.908-5.966l3.945,5.7c0.453-1.098,0.957-2.263,1.551-3.37v3.249h1.775c0.35,0,0.627-0.028,0.836-0.089
			c0.277-0.078,0.5-0.191,0.662-0.334c0.219-0.188,0.383-0.434,0.502-0.738c0.094-0.25,0.141-0.545,0.141-0.889
			c0-0.395-0.051-0.724-0.15-0.99c-0.102-0.267-0.252-0.492-0.447-0.678c-0.197-0.185-0.43-0.313-0.705-0.385
			c-0.205-0.054-0.5-0.08-0.889-0.08h-1.193c0.176-0.295,0.363-0.584,0.561-0.862c0.041-0.061,0.084-0.122,0.129-0.185
			c0.021-0.033,0.047-0.063,0.07-0.095c0.039-0.058,0.08-0.114,0.123-0.167c0.027-0.037,0.057-0.075,0.086-0.111
			c0.039-0.05,0.078-0.101,0.119-0.148c0.063-0.084,0.133-0.168,0.201-0.249c0.074-0.089,0.152-0.175,0.229-0.262
			c0.006-0.004,0.008-0.006,0.01-0.011c0.082-0.088,0.164-0.175,0.248-0.26c0.043-0.043,0.084-0.085,0.127-0.125
			c0.035-0.037,0.07-0.073,0.109-0.106c0.137-0.129,0.273-0.252,0.416-0.368c0.068-0.057,0.141-0.117,0.211-0.17
			c0.021-0.018,0.043-0.034,0.061-0.049c0.061-0.045,0.121-0.088,0.182-0.13c0.012-0.011,0.023-0.017,0.033-0.023
			c0.154-0.11,0.496-0.289,0.5-0.279c2.145-0.857,4.721,1.379,3.371,3.479C158.664,247.107,158.828,250.814,155.738,251.348z"/>
		<path style="fill-rule:evenodd;clip-rule:evenodd;fill:#F57C00;" d="M151.611,248.871c0,0.324-0.031,0.579-0.096,0.767
			c-0.063,0.187-0.146,0.322-0.244,0.404c-0.105,0.082-0.23,0.141-0.385,0.176c-0.115,0.024-0.307,0.037-0.57,0.037h-0.703v-2.77
			h0.422c0.385,0,0.645,0.015,0.775,0.041c0.176,0.034,0.322,0.1,0.439,0.196c0.111,0.097,0.203,0.231,0.266,0.405
			C151.58,248.301,151.611,248.55,151.611,248.871z"/>
	</g>
	<g>
		<path style="fill:#FFFFFF;" d="M382,172c0,1.104-0.896,2-2,2h-68c-1.104,0-2-0.896-2-2v-36c0-1.104,0.896-2,2-2h68
			c1.104,0,2,0.896,2,2V172z"/>
		<path style="fill:none;stroke:#FFA726;stroke-miterlimit:10;" d="M382.5,172.5c0,1.104-0.896,2-2,2h-68c-1.104,0-2-0.896-2-2v-36
			c0-1.104,0.896-2,2-2h68c1.104,0,2,0.896,2,2V172.5z"/>
	</g>
	<rect x="316" y="139" style="fill:#FFE0B2;" width="60" height="30"/>
	<g>
		<path style="fill-rule:evenodd;clip-rule:evenodd;fill:#F57C00;" d="M350.176,150.546c-0.004,0.002-0.008,0.004-0.012,0.008
			c-0.26,0.174-0.52,0.354-0.775,0.543c-0.063,0.045-0.123,0.09-0.186,0.138c-0.184,0.136-0.367,0.281-0.547,0.433
			c-0.053,0.047-0.109,0.094-0.166,0.142c-0.086,0.073-0.172,0.148-0.258,0.231c-0.055,0.05-0.113,0.104-0.168,0.16
			c-0.064,0.059-0.127,0.12-0.188,0.182c-0.176,0.176-0.35,0.365-0.521,0.568c-0.041,0.047-0.08,0.093-0.119,0.14
			c-0.041,0.05-0.078,0.099-0.121,0.149c-0.043,0.055-0.09,0.113-0.135,0.174c-0.012,0.012-0.021,0.027-0.033,0.043
			c-0.049,0.063-0.098,0.129-0.145,0.196c-0.125,0.171-0.248,0.35-0.369,0.539c-0.086,0.128-0.168,0.263-0.252,0.399
			c-0.004,0.008-0.01,0.015-0.012,0.021c-0.031,0.049-0.059,0.099-0.088,0.148c-0.289,0.498-0.572,1.053-0.85,1.684
			c-0.02,0.043-0.041,0.088-0.059,0.135c-0.037,0.081-0.074,0.166-0.109,0.25l-2.977-4.289v-0.002
			C343.029,148.223,348.188,147.768,350.176,150.546z"/>
		<path style="fill-rule:evenodd;clip-rule:evenodd;fill:#F57C00;" d="M353.738,159.515h-14.473
			c-2.301-0.685-2.854-6.322,1.908-5.967l3.945,5.701c0.453-1.098,0.957-2.264,1.551-3.371v3.25h1.775
			c0.35,0,0.627-0.029,0.836-0.089c0.277-0.079,0.5-0.191,0.662-0.335c0.219-0.188,0.383-0.434,0.502-0.738
			c0.094-0.249,0.141-0.545,0.141-0.889c0-0.394-0.051-0.723-0.15-0.99c-0.102-0.266-0.252-0.492-0.447-0.677
			c-0.197-0.185-0.43-0.313-0.705-0.386c-0.205-0.053-0.5-0.079-0.889-0.079h-1.193c0.176-0.296,0.363-0.584,0.561-0.862
			c0.041-0.061,0.084-0.123,0.129-0.185c0.021-0.033,0.047-0.063,0.07-0.095c0.039-0.058,0.08-0.115,0.123-0.168
			c0.027-0.037,0.057-0.074,0.086-0.111c0.039-0.049,0.078-0.1,0.119-0.148c0.063-0.084,0.133-0.168,0.201-0.248
			c0.074-0.089,0.152-0.175,0.229-0.262c0.006-0.004,0.008-0.006,0.01-0.011c0.082-0.088,0.164-0.175,0.248-0.26
			c0.043-0.044,0.084-0.085,0.127-0.126c0.035-0.036,0.07-0.072,0.109-0.105c0.137-0.129,0.273-0.252,0.416-0.368
			c0.068-0.058,0.141-0.117,0.211-0.17c0.021-0.018,0.043-0.034,0.061-0.049c0.061-0.045,0.121-0.088,0.182-0.13
			c0.012-0.011,0.023-0.018,0.033-0.023c0.154-0.111,0.496-0.289,0.5-0.279c2.145-0.857,4.721,1.379,3.371,3.479
			C356.664,155.274,356.828,158.981,353.738,159.515z"/>
		<path style="fill-rule:evenodd;clip-rule:evenodd;fill:#F57C00;" d="M349.611,157.038c0,0.324-0.031,0.579-0.096,0.767
			c-0.063,0.187-0.146,0.322-0.244,0.403c-0.105,0.083-0.23,0.142-0.385,0.176c-0.115,0.025-0.307,0.038-0.57,0.038h-0.703v-2.77
			h0.422c0.385,0,0.645,0.015,0.775,0.04c0.176,0.035,0.322,0.1,0.439,0.197c0.111,0.097,0.203,0.231,0.266,0.405
			C349.58,156.468,349.611,156.716,349.611,157.038z"/>
	</g>
	<g>
		<path style="fill:#FFFFFF;" d="M382,81c0,1.104-0.896,2-2,2h-68c-1.104,0-2-0.896-2-2V45c0-1.104,0.896-2,2-2h68
			c1.104,0,2,0.896,2,2V81z"/>
		<path style="fill:none;stroke:#90A4AE;stroke-miterlimit:10;" d="M382.5,80.5c0,1.104-0.896,2-2,2h-68c-1.104,0-2-0.896-2-2v-36
			c0-1.104,0.896-2,2-2h68c1.104,0,2,0.896,2,2V80.5z"/>
	</g>
	<rect x="316" y="48" style="fill:#CFD8DC;" width="60" height="29"/>
	<g>
		<path style="fill-rule:evenodd;clip-rule:evenodd;fill:#FFFFFF;" d="M350.176,59.379c-0.004,0.002-0.008,0.004-0.012,0.008
			c-0.26,0.174-0.52,0.354-0.775,0.543c-0.063,0.045-0.123,0.09-0.186,0.138c-0.184,0.135-0.367,0.281-0.547,0.433
			c-0.053,0.046-0.109,0.093-0.166,0.142c-0.086,0.073-0.172,0.148-0.258,0.231c-0.055,0.05-0.113,0.103-0.168,0.16
			c-0.064,0.059-0.127,0.121-0.188,0.182c-0.176,0.176-0.35,0.366-0.521,0.569c-0.041,0.046-0.08,0.093-0.119,0.14
			c-0.041,0.049-0.078,0.099-0.121,0.149c-0.043,0.055-0.09,0.113-0.135,0.173c-0.012,0.012-0.021,0.027-0.033,0.043
			c-0.049,0.063-0.098,0.129-0.145,0.196c-0.125,0.171-0.248,0.35-0.369,0.539c-0.086,0.128-0.168,0.263-0.252,0.399
			c-0.004,0.007-0.01,0.015-0.012,0.021c-0.031,0.049-0.059,0.099-0.088,0.148c-0.289,0.499-0.572,1.053-0.85,1.684
			c-0.02,0.043-0.041,0.088-0.059,0.135c-0.037,0.081-0.074,0.166-0.109,0.25l-2.977-4.289v-0.002
			C343.029,57.056,348.188,56.601,350.176,59.379z"/>
		<path style="fill-rule:evenodd;clip-rule:evenodd;fill:#FFFFFF;" d="M353.738,68.348h-14.473
			c-2.301-0.684-2.854-6.322,1.908-5.966l3.945,5.701c0.453-1.098,0.957-2.263,1.551-3.371v3.25h1.775
			c0.35,0,0.627-0.029,0.836-0.088c0.277-0.079,0.5-0.191,0.662-0.335c0.219-0.188,0.383-0.434,0.502-0.738
			c0.094-0.249,0.141-0.545,0.141-0.889c0-0.394-0.051-0.723-0.15-0.99c-0.102-0.266-0.252-0.492-0.447-0.677
			c-0.197-0.185-0.43-0.314-0.705-0.386c-0.205-0.053-0.5-0.079-0.889-0.079h-1.193c0.176-0.296,0.363-0.584,0.561-0.863
			c0.041-0.061,0.084-0.123,0.129-0.184c0.021-0.033,0.047-0.064,0.07-0.095c0.039-0.057,0.08-0.115,0.123-0.167
			c0.027-0.037,0.057-0.075,0.086-0.111c0.039-0.049,0.078-0.1,0.119-0.148c0.063-0.084,0.133-0.168,0.201-0.249
			c0.074-0.088,0.152-0.174,0.229-0.262c0.006-0.004,0.008-0.006,0.01-0.01c0.082-0.088,0.164-0.175,0.248-0.26
			c0.043-0.044,0.084-0.085,0.127-0.126c0.035-0.036,0.07-0.073,0.109-0.106c0.137-0.129,0.273-0.252,0.416-0.368
			c0.068-0.058,0.141-0.117,0.211-0.17c0.021-0.018,0.043-0.035,0.061-0.049c0.061-0.045,0.121-0.088,0.182-0.13
			c0.012-0.01,0.023-0.017,0.033-0.023c0.154-0.111,0.496-0.289,0.5-0.279c2.145-0.857,4.721,1.379,3.371,3.479
			C356.664,64.107,356.828,67.814,353.738,68.348z"/>
		<path style="fill-rule:evenodd;clip-rule:evenodd;fill:#FFFFFF;" d="M349.611,65.871c0,0.324-0.031,0.58-0.096,0.767
			c-0.063,0.186-0.146,0.322-0.244,0.403c-0.105,0.083-0.23,0.142-0.385,0.176c-0.115,0.025-0.307,0.038-0.57,0.038h-0.703v-2.77
			h0.422c0.385,0,0.645,0.014,0.775,0.04c0.176,0.035,0.322,0.1,0.439,0.197c0.111,0.097,0.203,0.232,0.266,0.406
			C349.58,65.301,349.611,65.549,349.611,65.871z"/>
	</g>
	<g>
		<path style="fill:#FFFFFF;" d="M410,121c0,1.104-0.896,2-2,2h-50c-1.104,0-2-0.896-2-2V95c0-1.104,0.896-2,2-2h50
			c1.104,0,2,0.896,2,2V121z"/>
		<path style="fill:none;stroke:#90A4AE;stroke-miterlimit:10;" d="M410.5,121.5c0,1.104-0.896,2-2,2h-50c-1.104,0-2-0.896-2-2v-26
			c0-1.104,0.896-2,2-2h50c1.104,0,2,0.896,2,2V121.5z"/>
	</g>
	<rect x="361" y="98" style="fill:#CFD8DC;" width="45" height="21"/>
	<g>
		<path style="fill-rule:evenodd;clip-rule:evenodd;fill:#FFFFFF;" d="M386.258,105.96c-0.004,0.001-0.006,0.003-0.01,0.006
			c-0.195,0.13-0.389,0.265-0.582,0.407c-0.047,0.033-0.092,0.067-0.139,0.104c-0.137,0.102-0.275,0.211-0.41,0.324
			c-0.039,0.035-0.082,0.07-0.125,0.107c-0.064,0.054-0.129,0.111-0.193,0.172c-0.041,0.039-0.084,0.078-0.125,0.121
			c-0.049,0.043-0.096,0.09-0.141,0.136c-0.133,0.132-0.264,0.274-0.393,0.427c-0.029,0.035-0.059,0.07-0.088,0.105
			c-0.031,0.036-0.059,0.072-0.092,0.111c-0.031,0.041-0.066,0.084-0.102,0.13c-0.008,0.009-0.016,0.021-0.023,0.032
			c-0.037,0.049-0.074,0.097-0.109,0.148c-0.094,0.127-0.186,0.262-0.275,0.404c-0.064,0.095-0.127,0.195-0.189,0.299
			c-0.004,0.006-0.008,0.012-0.01,0.016c-0.023,0.037-0.043,0.074-0.064,0.111c-0.217,0.373-0.43,0.789-0.639,1.263
			c-0.014,0.032-0.029,0.065-0.043,0.101c-0.027,0.063-0.057,0.125-0.082,0.188l-2.232-3.217v-0.001
			C380.896,104.219,384.766,103.877,386.258,105.96z"/>
		<path style="fill-rule:evenodd;clip-rule:evenodd;fill:#FFFFFF;" d="M388.93,112.687h-10.855
			c-1.725-0.513-2.141-4.741,1.432-4.476l2.959,4.276c0.34-0.823,0.717-1.698,1.162-2.528v2.438h1.332
			c0.262,0,0.471-0.021,0.627-0.066c0.209-0.06,0.375-0.143,0.496-0.252c0.164-0.141,0.287-0.324,0.377-0.553
			c0.07-0.187,0.105-0.409,0.105-0.667c0-0.294-0.037-0.542-0.113-0.743c-0.076-0.199-0.188-0.369-0.334-0.506
			c-0.148-0.14-0.322-0.236-0.529-0.291c-0.154-0.039-0.375-0.059-0.666-0.059h-0.896c0.133-0.223,0.273-0.438,0.422-0.646
			c0.029-0.046,0.063-0.093,0.096-0.139c0.016-0.024,0.035-0.048,0.053-0.071c0.029-0.042,0.061-0.087,0.092-0.126
			c0.021-0.027,0.043-0.056,0.064-0.084c0.029-0.036,0.059-0.074,0.09-0.111c0.047-0.063,0.1-0.125,0.15-0.186
			c0.057-0.066,0.115-0.131,0.172-0.196c0.004-0.003,0.006-0.005,0.008-0.007c0.061-0.066,0.123-0.133,0.186-0.195
			c0.033-0.033,0.063-0.064,0.096-0.096c0.025-0.025,0.053-0.054,0.082-0.078c0.102-0.098,0.205-0.189,0.313-0.275
			c0.051-0.045,0.105-0.088,0.158-0.128c0.016-0.013,0.031-0.026,0.045-0.036c0.045-0.034,0.09-0.066,0.137-0.099
			c0.008-0.007,0.016-0.013,0.023-0.018c0.117-0.083,0.373-0.217,0.375-0.21c1.609-0.643,3.541,1.035,2.529,2.609
			C391.123,109.506,391.246,112.287,388.93,112.687z"/>
		<path style="fill-rule:evenodd;clip-rule:evenodd;fill:#FFFFFF;" d="M385.834,110.829c0,0.243-0.023,0.435-0.072,0.575
			c-0.047,0.14-0.109,0.242-0.184,0.303c-0.078,0.063-0.172,0.106-0.287,0.131c-0.088,0.02-0.23,0.029-0.43,0.029h-0.527v-2.076
			h0.318c0.287,0,0.482,0.01,0.58,0.029c0.133,0.025,0.242,0.074,0.33,0.147c0.084,0.073,0.152,0.175,0.199,0.305
			C385.811,110.401,385.834,110.588,385.834,110.829z"/>
	</g>
	<g>
		<path style="fill:#FFFFFF;" d="M408,213c0,1.104-0.896,2-2,2h-50c-1.104,0-2-0.896-2-2v-26c0-1.104,0.896-2,2-2h50
			c1.104,0,2,0.896,2,2V213z"/>
		<path style="fill:none;stroke:#90A4AE;stroke-miterlimit:10;" d="M408.5,212.5c0,1.104-0.896,2-2,2h-50c-1.104,0-2-0.896-2-2v-26
			c0-1.104,0.896-2,2-2h50c1.104,0,2,0.896,2,2V212.5z"/>
	</g>
	<rect x="359" y="189" style="fill:#CFD8DC;" width="45" height="21"/>
	<g>
		<path style="fill-rule:evenodd;clip-rule:evenodd;fill:#FFFFFF;" d="M384.258,197.46c-0.004,0.001-0.006,0.003-0.01,0.006
			c-0.195,0.13-0.389,0.265-0.582,0.407c-0.047,0.033-0.092,0.067-0.139,0.104c-0.137,0.102-0.275,0.211-0.41,0.324
			c-0.039,0.035-0.082,0.07-0.125,0.107c-0.064,0.054-0.129,0.111-0.193,0.172c-0.041,0.039-0.084,0.078-0.125,0.121
			c-0.049,0.043-0.096,0.09-0.141,0.136c-0.133,0.132-0.264,0.274-0.393,0.427c-0.029,0.035-0.059,0.07-0.088,0.105
			c-0.031,0.036-0.059,0.072-0.092,0.111c-0.031,0.041-0.066,0.084-0.102,0.13c-0.008,0.009-0.016,0.021-0.023,0.032
			c-0.037,0.049-0.074,0.097-0.109,0.148c-0.094,0.127-0.186,0.262-0.275,0.404c-0.064,0.095-0.127,0.195-0.189,0.299
			c-0.004,0.006-0.008,0.012-0.01,0.016c-0.023,0.037-0.043,0.074-0.064,0.111c-0.217,0.373-0.43,0.789-0.639,1.263
			c-0.014,0.032-0.029,0.065-0.043,0.101c-0.027,0.063-0.057,0.125-0.082,0.188l-2.232-3.217v-0.001
			C378.896,195.719,382.766,195.377,384.258,197.46z"/>
		<path style="fill-rule:evenodd;clip-rule:evenodd;fill:#FFFFFF;" d="M386.93,204.187h-10.855
			c-1.725-0.513-2.141-4.741,1.432-4.476l2.959,4.276c0.34-0.823,0.717-1.698,1.162-2.528v2.438h1.332
			c0.262,0,0.471-0.021,0.627-0.066c0.209-0.06,0.375-0.143,0.496-0.252c0.164-0.141,0.287-0.324,0.377-0.553
			c0.07-0.187,0.105-0.409,0.105-0.667c0-0.294-0.037-0.542-0.113-0.743c-0.076-0.199-0.188-0.369-0.334-0.506
			c-0.148-0.14-0.322-0.236-0.529-0.291c-0.154-0.039-0.375-0.059-0.666-0.059h-0.896c0.133-0.223,0.273-0.438,0.422-0.646
			c0.029-0.046,0.063-0.093,0.096-0.139c0.016-0.024,0.035-0.048,0.053-0.071c0.029-0.042,0.061-0.087,0.092-0.126
			c0.021-0.027,0.043-0.056,0.064-0.084c0.029-0.036,0.059-0.074,0.09-0.111c0.047-0.063,0.1-0.125,0.15-0.186
			c0.057-0.066,0.115-0.131,0.172-0.196c0.004-0.003,0.006-0.005,0.008-0.007c0.061-0.066,0.123-0.133,0.186-0.195
			c0.033-0.033,0.063-0.064,0.096-0.096c0.025-0.025,0.053-0.054,0.082-0.078c0.102-0.098,0.205-0.189,0.313-0.275
			c0.051-0.045,0.105-0.088,0.158-0.128c0.016-0.013,0.031-0.026,0.045-0.036c0.045-0.034,0.09-0.066,0.137-0.099
			c0.008-0.007,0.016-0.013,0.023-0.018c0.117-0.083,0.373-0.217,0.375-0.21c1.609-0.643,3.541,1.035,2.529,2.609
			C389.123,201.006,389.246,203.787,386.93,204.187z"/>
		<path style="fill-rule:evenodd;clip-rule:evenodd;fill:#FFFFFF;" d="M383.834,202.329c0,0.243-0.023,0.435-0.072,0.575
			c-0.047,0.14-0.109,0.242-0.184,0.303c-0.078,0.063-0.172,0.106-0.287,0.131c-0.088,0.02-0.23,0.029-0.43,0.029h-0.527v-2.076
			h0.318c0.287,0,0.482,0.01,0.58,0.029c0.133,0.025,0.242,0.074,0.33,0.147c0.084,0.073,0.152,0.175,0.199,0.305
			C383.811,201.901,383.834,202.088,383.834,202.329z"/>
	</g>
	<g>
		<path style="fill:#FFFFFF;" d="M382,264c0,1.104-0.896,2-2,2h-68c-1.104,0-2-0.896-2-2v-36c0-1.104,0.896-2,2-2h68
			c1.104,0,2,0.896,2,2V264z"/>
		<path style="fill:none;stroke:#90A4AE;stroke-miterlimit:10;" d="M382.5,263.5c0,1.104-0.896,2-2,2h-68c-1.104,0-2-0.896-2-2v-36
			c0-1.104,0.896-2,2-2h68c1.104,0,2,0.896,2,2V263.5z"/>
	</g>
	<rect x="316" y="231" style="fill:#CFD8DC;" width="60" height="29"/>
	<g>
		<path style="fill-rule:evenodd;clip-rule:evenodd;fill:#FFFFFF;" d="M350.176,242.379c-0.004,0.002-0.008,0.004-0.012,0.008
			c-0.26,0.175-0.52,0.354-0.775,0.543c-0.063,0.046-0.123,0.091-0.186,0.138c-0.184,0.136-0.367,0.281-0.547,0.434
			c-0.053,0.046-0.109,0.093-0.166,0.141c-0.086,0.073-0.172,0.148-0.258,0.232c-0.055,0.049-0.113,0.103-0.168,0.159
			c-0.064,0.06-0.127,0.12-0.188,0.182c-0.176,0.177-0.35,0.366-0.521,0.569c-0.041,0.046-0.08,0.092-0.119,0.139
			c-0.041,0.05-0.078,0.1-0.121,0.15c-0.043,0.055-0.09,0.113-0.135,0.173c-0.012,0.012-0.021,0.027-0.033,0.044
			c-0.049,0.063-0.098,0.129-0.145,0.195c-0.125,0.172-0.248,0.35-0.369,0.539c-0.086,0.129-0.168,0.264-0.252,0.4
			c-0.004,0.007-0.01,0.014-0.012,0.021c-0.031,0.049-0.059,0.098-0.088,0.147c-0.289,0.499-0.572,1.054-0.85,1.684
			c-0.02,0.043-0.041,0.089-0.059,0.136c-0.037,0.08-0.074,0.165-0.109,0.25l-2.977-4.289v-0.003
			C343.029,240.056,348.188,239.601,350.176,242.379z"/>
		<path style="fill-rule:evenodd;clip-rule:evenodd;fill:#FFFFFF;" d="M353.738,251.348h-14.473
			c-2.301-0.685-2.854-6.321,1.908-5.966l3.945,5.7c0.453-1.098,0.957-2.263,1.551-3.37v3.249h1.775c0.35,0,0.627-0.028,0.836-0.089
			c0.277-0.078,0.5-0.191,0.662-0.334c0.219-0.188,0.383-0.434,0.502-0.738c0.094-0.25,0.141-0.545,0.141-0.889
			c0-0.395-0.051-0.724-0.15-0.99c-0.102-0.267-0.252-0.492-0.447-0.678c-0.197-0.185-0.43-0.313-0.705-0.385
			c-0.205-0.054-0.5-0.08-0.889-0.08h-1.193c0.176-0.295,0.363-0.584,0.561-0.862c0.041-0.061,0.084-0.122,0.129-0.185
			c0.021-0.033,0.047-0.063,0.07-0.095c0.039-0.058,0.08-0.114,0.123-0.167c0.027-0.037,0.057-0.075,0.086-0.111
			c0.039-0.05,0.078-0.101,0.119-0.148c0.063-0.084,0.133-0.168,0.201-0.249c0.074-0.089,0.152-0.175,0.229-0.262
			c0.006-0.004,0.008-0.006,0.01-0.011c0.082-0.088,0.164-0.175,0.248-0.26c0.043-0.043,0.084-0.085,0.127-0.125
			c0.035-0.037,0.07-0.073,0.109-0.106c0.137-0.129,0.273-0.252,0.416-0.368c0.068-0.057,0.141-0.117,0.211-0.17
			c0.021-0.018,0.043-0.034,0.061-0.049c0.061-0.045,0.121-0.088,0.182-0.13c0.012-0.011,0.023-0.017,0.033-0.023
			c0.154-0.11,0.496-0.289,0.5-0.279c2.145-0.857,4.721,1.379,3.371,3.479C356.664,247.107,356.828,250.814,353.738,251.348z"/>
		<path style="fill-rule:evenodd;clip-rule:evenodd;fill:#FFFFFF;" d="M349.611,248.871c0,0.324-0.031,0.579-0.096,0.767
			c-0.063,0.187-0.146,0.322-0.244,0.404c-0.105,0.082-0.23,0.141-0.385,0.176c-0.115,0.024-0.307,0.037-0.57,0.037h-0.703v-2.77
			h0.422c0.385,0,0.645,0.015,0.775,0.041c0.176,0.034,0.322,0.1,0.439,0.196c0.111,0.097,0.203,0.231,0.266,0.405
			C349.58,248.301,349.611,248.55,349.611,248.871z"/>
	</g>
	<path style="fill:#B0BEC5;" d="M248.254,111c-22.09,0-40,17.91-40,40c0,9.48,3.291,18.19,8.811,25.04
		c6.939-9.73,18.32-16.07,31.189-16.07c12.871,0,24.25,6.351,31.191,16.08c5.51-6.859,8.809-15.569,8.809-25.05
		C288.254,128.91,270.344,111,248.254,111z M259.514,146.22c-0.02,0.061-0.039,0.13-0.059,0.19c-0.08,0.25-0.16,0.51-0.25,0.76
		c-0.051,0.13-0.09,0.25-0.141,0.38c-0.109,0.28-0.221,0.561-0.34,0.84c-1.08,2.601-2.641,5.08-4.52,6.87
		c-0.16,0.15-0.32,0.3-0.49,0.44c-0.09,0.08-0.189,0.16-0.291,0.24c-0.08,0.069-0.16,0.13-0.24,0.189
		c-0.059,0.05-0.119,0.101-0.189,0.14c-0.09,0.08-0.189,0.15-0.289,0.211c-0.17,0.119-0.34,0.229-0.521,0.34
		c-0.17,0.109-0.35,0.21-0.529,0.3c-0.129,0.07-0.26,0.13-0.391,0.189c-0.549,0.25-1.109,0.44-1.689,0.561
		c-0.1,0.02-0.209,0.04-0.311,0.05c-0.33,0.05-0.67,0.08-1.01,0.08c-4.789,0-8.93-5.25-10.889-10.69
		c-0.16-0.43-0.291-0.85-0.42-1.279c-1.33-0.5-2.281-1.78-2.281-3.28c0-1.37,0.791-2.55,1.941-3.13
		c-0.051-0.13-0.111-0.271-0.092-0.4c0.031-0.2-0.049-0.399-0.01-0.6c0.01-0.07,0.021-0.13,0.031-0.2
		c0.039-0.27,0.08-0.53,0.148-0.79c0.051-0.16,0.07-0.31,0.121-0.46c0.061-0.17,0.109-0.35,0.17-0.52
		c0.07-0.17,0.131-0.33,0.199-0.5c0.291-0.65,0.631-1.28,1.031-1.87c0.109-0.16,0.219-0.32,0.34-0.471c0.58-0.779,1.25-1.489,2-2.1
		c0.15-0.12,0.299-0.24,0.459-0.36c0.311-0.239,0.631-0.449,0.961-0.649c0.119-0.08,0.25-0.15,0.369-0.22
		c0.211-0.12,0.441-0.24,0.66-0.341c0.18-0.09,0.361-0.17,0.541-0.25c0.029-0.01,0.059-0.029,0.09-0.04
		c0.33-0.13,0.67-0.26,1.02-0.359c0.23-0.08,0.48-0.141,0.721-0.2c0.148-0.04,0.299-0.07,0.449-0.1
		c0.34-0.07,0.689-0.131,1.041-0.171l1.398-7.02l1.4,7.02c0.59,0.07,1.17,0.181,1.73,0.33c0.35,0.091,0.699,0.2,1.039,0.33
		c0.221,0.08,0.432,0.16,0.631,0.25c0.15,0.07,0.301,0.13,0.449,0.21c0.23,0.101,0.451,0.221,0.66,0.341
		c0.131,0.069,0.25,0.14,0.371,0.22c0.559,0.33,1.09,0.71,1.58,1.14c0.139,0.11,0.27,0.23,0.398,0.36
		c0.131,0.12,0.271,0.25,0.391,0.38c0.551,0.55,1.041,1.16,1.48,1.82c0.08,0.119,0.16,0.25,0.23,0.38
		c0.08,0.13,0.16,0.26,0.229,0.39c0.061,0.1,0.121,0.21,0.17,0.311c0.061,0.109,0.111,0.22,0.16,0.329
		c0.07,0.131,0.131,0.271,0.191,0.4c0.059,0.13,0.109,0.26,0.16,0.39c0.049,0.12,0.1,0.24,0.129,0.36c0.07,0.17,0.121,0.33,0.17,0.5
		c0.051,0.15,0.1,0.31,0.141,0.46c0.061,0.23,0.119,0.46,0.16,0.7c0.039,0.2,0.08,0.399,0.109,0.6c0.041,0.23,0.061,0.46,0.09,0.69
		c0.01,0.18,0.031,0.359,0.041,0.54c0.789,0.609,1.299,1.569,1.299,2.64C261.664,144.52,260.775,145.74,259.514,146.22z"/>
	<path style="fill:#B0BEC5;" d="M241.164,138.06c-0.529,0-1.029,0.021-1.5,0.19c0.061,0.02,0.131,0.05,0.191,0.07
		c0.408-0.13,0.85-0.2,1.309-0.2c1.441,0,2.73,0.66,3.59,1.71C243.904,138.76,242.615,138.06,241.164,138.06z"/>
	<path style="fill:#ECEFF1;" d="M260.365,140.45c-0.01-0.181-0.031-0.36-0.041-0.54c-0.029-0.23-0.049-0.46-0.09-0.69
		c-0.029-0.2-0.07-0.399-0.109-0.6c-0.041-0.24-0.1-0.47-0.16-0.7c-0.041-0.15-0.09-0.31-0.141-0.46c-0.049-0.17-0.1-0.33-0.17-0.5
		c-0.029-0.12-0.08-0.24-0.129-0.36c-0.051-0.13-0.102-0.26-0.16-0.39c-0.061-0.13-0.121-0.27-0.191-0.4
		c-0.049-0.109-0.1-0.22-0.16-0.329c-0.049-0.101-0.109-0.211-0.17-0.311c-0.068-0.13-0.148-0.26-0.229-0.39
		c-0.07-0.13-0.15-0.261-0.23-0.38c-0.439-0.66-0.93-1.271-1.48-1.82c-0.119-0.13-0.26-0.26-0.391-0.38
		c-0.129-0.13-0.26-0.25-0.398-0.36c-0.49-0.43-1.021-0.81-1.58-1.14c-0.121-0.08-0.24-0.15-0.371-0.22
		c-0.209-0.12-0.43-0.24-0.66-0.341c-0.148-0.08-0.299-0.14-0.449-0.21c-0.199-0.09-0.41-0.17-0.631-0.25
		c-0.34-0.13-0.689-0.239-1.039-0.33c-0.561-0.149-1.141-0.26-1.73-0.33l-1.4-7.02l-1.398,7.02c-0.352,0.04-0.701,0.101-1.041,0.171
		c-0.15,0.029-0.301,0.06-0.449,0.1c-0.24,0.06-0.49,0.12-0.721,0.2c-0.35,0.1-0.689,0.229-1.02,0.359
		c-0.031,0.011-0.061,0.03-0.09,0.04c-0.18,0.08-0.361,0.16-0.541,0.25c-0.219,0.101-0.449,0.221-0.66,0.341
		c-0.119,0.069-0.25,0.14-0.369,0.22c-0.33,0.2-0.65,0.41-0.961,0.649c-0.16,0.12-0.309,0.24-0.459,0.36c-0.75,0.61-1.42,1.32-2,2.1
		c-0.121,0.15-0.23,0.311-0.34,0.471c-0.4,0.59-0.74,1.22-1.031,1.87c-0.068,0.17-0.129,0.33-0.199,0.5
		c-0.061,0.17-0.109,0.35-0.17,0.52c-0.051,0.15-0.07,0.3-0.121,0.46c-0.068,0.26-0.109,0.521-0.148,0.79
		c-0.01,0.07-0.021,0.13-0.031,0.2c-0.039,0.2,0.041,0.399,0.01,0.6c-0.02,0.13,0.041,0.271,0.092,0.4
		c-1.15,0.58-1.941,1.76-1.941,3.13c0,1.5,0.951,2.78,2.281,3.28c0.129,0.43,0.26,0.85,0.42,1.279
		c1.959,5.44,6.1,10.69,10.889,10.69c0.34,0,0.68-0.03,1.01-0.08c0.102-0.01,0.211-0.03,0.311-0.05
		c0.58-0.12,1.141-0.311,1.689-0.561c0.131-0.06,0.262-0.119,0.391-0.189c0.18-0.09,0.359-0.19,0.529-0.3
		c0.182-0.11,0.352-0.221,0.521-0.34c0.1-0.061,0.199-0.131,0.289-0.211c0.07-0.039,0.131-0.09,0.189-0.14
		c0.08-0.06,0.16-0.12,0.24-0.189c0.102-0.08,0.201-0.16,0.291-0.24c0.17-0.141,0.33-0.29,0.49-0.44
		c1.879-1.79,3.439-4.27,4.52-6.87c0.119-0.279,0.23-0.56,0.34-0.84c0.051-0.13,0.09-0.25,0.141-0.38c0.09-0.25,0.17-0.51,0.25-0.76
		c0.02-0.061,0.039-0.13,0.059-0.19c1.262-0.479,2.15-1.7,2.15-3.13C261.664,142.02,261.154,141.06,260.365,140.45z M254.164,147.38
		c-2.469,0-4.48-1.939-4.609-4.38h-3.779c-0.131,2.44-2.141,4.38-4.611,4.38c-0.27,0-0.539-0.02-0.799-0.07
		c-0.24-0.04-0.471-0.1-0.691-0.18c-1.818-0.62-3.129-2.35-3.129-4.38c0-1.98,1.24-3.67,2.99-4.33c0.039-0.02,0.09-0.03,0.129-0.04
		c0.061-0.02,0.121-0.04,0.191-0.06c-0.061-0.021-0.131-0.051-0.191-0.07c0.471-0.17,0.971-0.19,1.5-0.19
		c1.451,0,2.74,0.7,3.59,1.771c0.281,0.35,0.521,0.74,0.691,1.17h4.439c0.689-1.69,2.35-2.88,4.279-2.88
		c2.551,0,4.621,2.08,4.621,4.63S256.715,147.38,254.164,147.38z"/>
	<path style="fill:#ECEFF1;" d="M245.445,141h-3c-0.24-0.62-0.631-0.94-1.121-1.74c-0.049-0.08-0.1-0.17-0.15-0.26h-0.01
		c-0.379,0-0.83-0.45-1.309-0.68c-0.061-0.021-0.131-0.051-0.191-0.07c0.471-0.17,0.971-0.19,1.5-0.19c1.451,0,2.74,0.7,3.59,1.771
		C245.035,140.18,245.275,140.57,245.445,141z"/>
	<path style="fill:#ECEFF1;" d="M245.775,143c-0.131,2.44-2.141,4.38-4.611,4.38c-0.27,0-0.539-0.02-0.799-0.07
		c-0.24-0.04-0.471-0.229-0.691-0.31c0.51-0.16,0.971-0.03,1.361-0.75c0.049-0.07,0.09-0.16,0.129-0.25h0.01
		c0.932-1,1.531-1.7,1.602-3H245.775z"/>
	<path style="fill:#ECEFF1;" d="M258.785,142.75c0,2.55-2.07,4.63-4.621,4.63c-2.469,0-4.48-1.939-4.609-4.38H248v-2h1.885
		c0.689-1.69,2.35-2.88,4.279-2.88C256.715,138.12,258.785,140.2,258.785,142.75z"/>
	<polygon style="fill:#FFE082;" points="248.254,169.05 250.854,174.317 256.666,175.162 252.461,179.261 253.453,185.05 
		248.254,182.317 243.055,185.05 244.049,179.261 239.844,175.162 245.654,174.317 	"/>
	<g>
		<path style="fill:#B0BEC5;" d="M245.785,142.75c0,0.08,0,0.17-0.01,0.25c-0.131,2.44-2.141,4.38-4.611,4.38
			c-0.27,0-0.539-0.02-0.799-0.07c-0.24-0.04-0.471-0.1-0.691-0.18c-1.818-0.62-3.129-2.35-3.129-4.38c0-1.98,1.24-3.67,2.99-4.33
			c0.039-0.02,0.09-0.03,0.129-0.04c0.061-0.02,0.121-0.04,0.191-0.06c0.408-0.13,0.85-0.2,1.309-0.2c1.441,0,2.73,0.66,3.59,1.71
			c0.281,0.35,0.521,0.74,0.691,1.17C245.664,141.54,245.785,142.13,245.785,142.75z"/>
		<path style="fill:#FFFFFF;" d="M244.664,142.75c0,1.93-1.57,3.5-3.5,3.5c-0.43,0-0.84-0.08-1.219-0.22
			c-1.33-0.5-2.281-1.78-2.281-3.28c0-1.37,0.791-2.55,1.941-3.13c0.469-0.24,1-0.37,1.559-0.37
			C243.094,139.25,244.664,140.82,244.664,142.75z"/>
		<path style="fill:#B0BEC5;" d="M258.785,142.75c0,2.55-2.07,4.63-4.621,4.63c-2.469,0-4.48-1.939-4.609-4.38
			c-0.01-0.08-0.01-0.17-0.01-0.25c0-0.62,0.119-1.21,0.34-1.75c0.689-1.69,2.35-2.88,4.279-2.88
			C256.715,138.12,258.785,140.2,258.785,142.75z"/>
		<path style="fill:#FFFFFF;" d="M257.664,142.75c0,1.93-1.57,3.5-3.5,3.5s-3.5-1.57-3.5-3.5s1.57-3.5,3.5-3.5
			S257.664,140.82,257.664,142.75z"/>
		<rect x="245" y="141" style="fill:#B0BEC5;" width="5" height="2"/>
	</g>
		
	</g>
<g id="ai2html-settings">
	<g>
		

		<path style="fill:none;stroke:#FFB74D;stroke-miterlimit:10;" d="M216.844,126.635l-8.205-9.55
			c-3.585-4.172-11.018-7.585-16.518-7.585H139"/>
	</g>
	<g>
		<path style="fill:none;stroke:#FFB74D;stroke-miterlimit:10;" d="M239.726,190.425l-17.265,46.695
			c-1.907,5.159-7.968,9.38-13.468,9.38H184"/>
	</g>
</g>
<g>
		<circle style="fill:#FFA726;" cx="0" cy="0" r="3"/>
		<animateMotion dur="4s"  path="M216.844,126.635l-8.205-9.55
			c-3.585-4.172-11.018-7.585-16.518-7.585H139"  repeatCount="indefinite"  keyPoints="0;1" keyTimes="0;1"  />
		<animate dur=".5s" attributeName="opacity" from="1" to=".5"  repeatCount="indefinite" /> 
	</g>
	<g>
		<circle style="fill:#FFA726;" cx="0" cy="0" r="3"/>
		<animateMotion dur="4s"  path="M239.726,190.425l-17.265,46.695
			c-1.907,5.159-7.968,9.38-13.468,9.38H184"  repeatCount="indefinite"  keyPoints="0;1" keyTimes="0;1"  />
		<animate dur=".5s" attributeName="opacity" from="1" to=".5"  repeatCount="indefinite" /> 
	</g>
	
<style>
	 .line01{
	 		animation:line 3s ease-in-out infinite;
	 }

	 @keyframes line {
	 	0%{stroke-dasharray:4;stroke-dashoffset:20; }
	 	100%{stroke-dasharray:4;stroke-dashoffset:100; }
	 
	 }

	 #circle{
	 		animation:circle 3s ease-in-out infinite;
	 }


	  @keyframes circle{
	 	0%{fill:#FFFFFF;}
	 	50%{fill:#ffdfb1;}
	 	100%{fill:#FFFFFF;}
	 
	 }
</style>
	
	
</svg>
